G04 #@! TF.GenerationSoftware,KiCad,Pcbnew,(6.0.9)*
G04 #@! TF.CreationDate,2024-01-28T17:54:01+01:00*
G04 #@! TF.ProjectId,Spoke,53706f6b-652e-46b6-9963-61645f706362,1.1*
G04 #@! TF.SameCoordinates,PX5f5e100PY5f5e100*
G04 #@! TF.FileFunction,Soldermask,Bot*
G04 #@! TF.FilePolarity,Negative*
%FSLAX46Y46*%
G04 Gerber Fmt 4.6, Leading zero omitted, Abs format (unit mm)*
G04 Created by KiCad (PCBNEW (6.0.9)) date 2024-01-28 17:54:01*
%MOMM*%
%LPD*%
G01*
G04 APERTURE LIST*
G04 Aperture macros list*
%AMRoundRect*
0 Rectangle with rounded corners*
0 $1 Rounding radius*
0 $2 $3 $4 $5 $6 $7 $8 $9 X,Y pos of 4 corners*
0 Add a 4 corners polygon primitive as box body*
4,1,4,$2,$3,$4,$5,$6,$7,$8,$9,$2,$3,0*
0 Add four circle primitives for the rounded corners*
1,1,$1+$1,$2,$3*
1,1,$1+$1,$4,$5*
1,1,$1+$1,$6,$7*
1,1,$1+$1,$8,$9*
0 Add four rect primitives between the rounded corners*
20,1,$1+$1,$2,$3,$4,$5,0*
20,1,$1+$1,$4,$5,$6,$7,0*
20,1,$1+$1,$6,$7,$8,$9,0*
20,1,$1+$1,$8,$9,$2,$3,0*%
G04 Aperture macros list end*
%ADD10RoundRect,0.375000X-0.375000X-0.375000X0.375000X-0.375000X0.375000X0.375000X-0.375000X0.375000X0*%
%ADD11C,1.500000*%
%ADD12R,1.500000X1.300000*%
%ADD13R,0.900000X2.000000*%
%ADD14C,2.000000*%
%ADD15R,1.300000X1.500000*%
%ADD16R,0.600000X1.100000*%
%ADD17R,2.200000X0.600000*%
%ADD18R,2.290000X3.000000*%
%ADD19R,0.450000X1.380000*%
%ADD20R,1.425000X1.550000*%
%ADD21R,2.200000X1.800000*%
%ADD22R,1.000000X1.400000*%
%ADD23C,1.750000*%
%ADD24C,2.500000*%
%ADD25C,1.800000*%
%ADD26RoundRect,0.150000X0.150000X-0.325000X0.150000X0.325000X-0.150000X0.325000X-0.150000X-0.325000X0*%
%ADD27RoundRect,0.150000X0.325000X-0.150000X0.325000X0.150000X-0.325000X0.150000X-0.325000X-0.150000X0*%
%ADD28RoundRect,0.450000X0.450000X-0.450000X0.450000X0.450000X-0.450000X0.450000X-0.450000X-0.450000X0*%
%ADD29O,2.400000X4.000000*%
%ADD30RoundRect,0.450000X-0.450000X0.450000X-0.450000X-0.450000X0.450000X-0.450000X0.450000X0.450000X0*%
%ADD31O,2.600000X4.000000*%
%ADD32R,2.000000X6.000000*%
%ADD33R,1.200000X0.300000*%
%ADD34R,0.300000X1.200000*%
%ADD35R,1.700000X1.800000*%
G04 APERTURE END LIST*
D10*
G04 #@! TO.C,U2*
X-7620000Y-6650000D03*
D11*
X-5080000Y-6650000D03*
X-2540000Y-6650000D03*
X0Y-6650000D03*
X2540000Y-6650000D03*
X5080000Y-6650000D03*
X7620000Y-6650000D03*
G04 #@! TD*
D12*
G04 #@! TO.C,R14*
X-5500000Y-19950000D03*
X-5500000Y-18050000D03*
G04 #@! TD*
D13*
G04 #@! TO.C,U6*
X9000000Y23000000D03*
X7730000Y23000000D03*
X6460000Y23000000D03*
X890000Y23000000D03*
X-380000Y23000000D03*
X-1650000Y23000000D03*
X-2920000Y23000000D03*
X-4190000Y23000000D03*
X-5460000Y23000000D03*
X-6730000Y23000000D03*
X-8000000Y23000000D03*
X-8000000Y37000000D03*
X-6730000Y37000000D03*
X-5460000Y37000000D03*
X-4190000Y37000000D03*
X-2920000Y37000000D03*
X-1650000Y37000000D03*
X-380000Y37000000D03*
X890000Y37000000D03*
X6460000Y37000000D03*
X7730000Y37000000D03*
X9000000Y37000000D03*
G04 #@! TD*
D14*
G04 #@! TO.C,X11*
X6500000Y-30000000D03*
G04 #@! TD*
D15*
G04 #@! TO.C,C17*
X-5550000Y20000000D03*
X-7450000Y20000000D03*
G04 #@! TD*
D16*
G04 #@! TO.C,U1*
X-12050000Y-20300000D03*
X-13000000Y-20300000D03*
X-13950000Y-20300000D03*
X-13950000Y-17700000D03*
X-12050000Y-17700000D03*
G04 #@! TD*
D12*
G04 #@! TO.C,R7*
X-500000Y-50000D03*
X-500000Y-1950000D03*
G04 #@! TD*
D17*
G04 #@! TO.C,U5*
X-6400000Y-32095000D03*
X-6400000Y-33365000D03*
X-6400000Y-34635000D03*
X-6400000Y-35905000D03*
X-11600000Y-35905000D03*
X-11600000Y-34635000D03*
X-11600000Y-33365000D03*
X-11600000Y-32095000D03*
D18*
X-9000000Y-34000000D03*
G04 #@! TD*
D12*
G04 #@! TO.C,C9*
X-16000000Y16550000D03*
X-16000000Y18450000D03*
G04 #@! TD*
D19*
G04 #@! TO.C,X7*
X1300000Y-40890000D03*
X650000Y-40890000D03*
X0Y-40890000D03*
X-650000Y-40890000D03*
X-1300000Y-40890000D03*
D20*
X-2487500Y-40975000D03*
D21*
X-3375000Y-43550000D03*
X3375000Y-43550000D03*
D20*
X2487500Y-40975000D03*
G04 #@! TD*
D15*
G04 #@! TO.C,R8*
X-50000Y-32095000D03*
X-1950000Y-32095000D03*
G04 #@! TD*
G04 #@! TO.C,C12*
X-50000Y-35905000D03*
X-1950000Y-35905000D03*
G04 #@! TD*
D14*
G04 #@! TO.C,X10*
X10000000Y-30000000D03*
G04 #@! TD*
D15*
G04 #@! TO.C,C6*
X-13950000Y-12500000D03*
X-12050000Y-12500000D03*
G04 #@! TD*
G04 #@! TO.C,R1*
X-13950000Y-28000000D03*
X-12050000Y-28000000D03*
G04 #@! TD*
G04 #@! TO.C,R5*
X-50000Y-15000000D03*
X-1950000Y-15000000D03*
G04 #@! TD*
D22*
G04 #@! TO.C,Q1*
X-12050000Y-25100000D03*
X-13950000Y-25100000D03*
X-13000000Y-22900000D03*
G04 #@! TD*
D23*
G04 #@! TO.C,SW3*
X17000000Y4750000D03*
D24*
X14510000Y10510000D03*
D23*
X17000000Y9250000D03*
D24*
X14510000Y3500000D03*
G04 #@! TD*
D12*
G04 #@! TO.C,R4*
X7250000Y14700000D03*
X7250000Y12800000D03*
G04 #@! TD*
D25*
G04 #@! TO.C,LS1*
X13000000Y-34200000D03*
X13000000Y-41800000D03*
G04 #@! TD*
D12*
G04 #@! TO.C,C14*
X17000000Y-23550000D03*
X17000000Y-25450000D03*
G04 #@! TD*
D15*
G04 #@! TO.C,R2*
X-12050000Y-15000000D03*
X-13950000Y-15000000D03*
G04 #@! TD*
D12*
G04 #@! TO.C,C19*
X5000000Y-21050000D03*
X5000000Y-22950000D03*
G04 #@! TD*
G04 #@! TO.C,C20*
X-5500000Y-14950000D03*
X-5500000Y-13050000D03*
G04 #@! TD*
D26*
G04 #@! TO.C,U7*
X13000000Y-23000000D03*
X12200000Y-23000000D03*
X11400000Y-23000000D03*
X10600000Y-23000000D03*
X9800000Y-23000000D03*
X9000000Y-23000000D03*
D27*
X9000000Y-22000000D03*
D26*
X9000000Y-21000000D03*
X9800000Y-21000000D03*
X10600000Y-21000000D03*
X11400000Y-21000000D03*
X12200000Y-21000000D03*
X13000000Y-21000000D03*
D27*
X13000000Y-22000000D03*
G04 #@! TD*
D15*
G04 #@! TO.C,R9*
X11550000Y-27000000D03*
X13450000Y-27000000D03*
G04 #@! TD*
D28*
G04 #@! TO.C,X6*
X17000000Y-13350000D03*
D25*
X17000000Y-10810000D03*
X17000000Y-8270000D03*
X17000000Y-5730000D03*
X17000000Y-3190000D03*
X17000000Y-650000D03*
G04 #@! TD*
D29*
G04 #@! TO.C,X2*
X-9000000Y-41000000D03*
G04 #@! TD*
D30*
G04 #@! TO.C,X3*
X10000000Y16290000D03*
D25*
X10000000Y13750000D03*
X10000000Y11210000D03*
G04 #@! TD*
D15*
G04 #@! TO.C,C1*
X-8050000Y11500000D03*
X-9950000Y11500000D03*
G04 #@! TD*
D29*
G04 #@! TO.C,X1*
X-16000000Y-41000000D03*
G04 #@! TD*
D31*
G04 #@! TO.C,X8*
X7730000Y42100000D03*
G04 #@! TD*
D22*
G04 #@! TO.C,D1*
X-1950000Y-22900000D03*
X-50000Y-22900000D03*
X-1000000Y-25100000D03*
G04 #@! TD*
D15*
G04 #@! TO.C,C7*
X-4950000Y-9500000D03*
X-3050000Y-9500000D03*
G04 #@! TD*
D12*
G04 #@! TO.C,C15*
X17000000Y-18550000D03*
X17000000Y-20450000D03*
G04 #@! TD*
D14*
G04 #@! TO.C,X9*
X13500000Y-30000000D03*
G04 #@! TD*
D12*
G04 #@! TO.C,C4*
X-3000000Y-50000D03*
X-3000000Y-1950000D03*
G04 #@! TD*
D22*
G04 #@! TO.C,Q2*
X-1950000Y-17900000D03*
X-50000Y-17900000D03*
X-1000000Y-20100000D03*
G04 #@! TD*
D23*
G04 #@! TO.C,SW2*
X17000000Y19750000D03*
D24*
X14510000Y18500000D03*
X14510000Y25510000D03*
D23*
X17000000Y24250000D03*
G04 #@! TD*
G04 #@! TO.C,SW1*
X17000000Y34750000D03*
D24*
X14510000Y40510000D03*
D23*
X17000000Y39250000D03*
D24*
X14510000Y33500000D03*
G04 #@! TD*
D32*
G04 #@! TO.C,XTAL1*
X-16000000Y2500000D03*
X-16000000Y11500000D03*
G04 #@! TD*
D33*
G04 #@! TO.C,U3*
X-4250000Y5250000D03*
X-4250000Y5750000D03*
X-4250000Y6250000D03*
X-4250000Y6750000D03*
X-4250000Y7250000D03*
X-4250000Y7750000D03*
X-4250000Y8250000D03*
X-4250000Y8750000D03*
X-4250000Y9250000D03*
X-4250000Y9750000D03*
X-4250000Y10250000D03*
X-4250000Y10750000D03*
D34*
X-2750000Y12250000D03*
X-2250000Y12250000D03*
X-1750000Y12250000D03*
X-1250000Y12250000D03*
X-750000Y12250000D03*
X-250000Y12250000D03*
X250000Y12250000D03*
X750000Y12250000D03*
X1250000Y12250000D03*
X1750000Y12250000D03*
X2250000Y12250000D03*
X2750000Y12250000D03*
D33*
X4250000Y10750000D03*
X4250000Y10250000D03*
X4250000Y9750000D03*
X4250000Y9250000D03*
X4250000Y8750000D03*
X4250000Y8250000D03*
X4250000Y7750000D03*
X4250000Y7250000D03*
X4250000Y6750000D03*
X4250000Y6250000D03*
X4250000Y5750000D03*
X4250000Y5250000D03*
D34*
X2750000Y3750000D03*
X2250000Y3750000D03*
X1750000Y3750000D03*
X1250000Y3750000D03*
X750000Y3750000D03*
X250000Y3750000D03*
X-250000Y3750000D03*
X-750000Y3750000D03*
X-1250000Y3750000D03*
X-1750000Y3750000D03*
X-2250000Y3750000D03*
X-2750000Y3750000D03*
G04 #@! TD*
D15*
G04 #@! TO.C,C3*
X8050000Y5000000D03*
X9950000Y5000000D03*
G04 #@! TD*
G04 #@! TO.C,C11*
X-8050000Y8500000D03*
X-9950000Y8500000D03*
G04 #@! TD*
G04 #@! TO.C,C13*
X-17950000Y-35905000D03*
X-16050000Y-35905000D03*
G04 #@! TD*
D12*
G04 #@! TO.C,R3*
X-17000000Y-19950000D03*
X-17000000Y-18050000D03*
G04 #@! TD*
G04 #@! TO.C,R12*
X-8500000Y-18050000D03*
X-8500000Y-19950000D03*
G04 #@! TD*
G04 #@! TO.C,C2*
X3000000Y16050000D03*
X3000000Y17950000D03*
G04 #@! TD*
D35*
G04 #@! TO.C,C16*
X-5475000Y17000000D03*
X-8525000Y17000000D03*
G04 #@! TD*
D14*
G04 #@! TO.C,X5*
X-11500000Y2375000D03*
G04 #@! TD*
G04 #@! TO.C,X4*
X-11500000Y-1250000D03*
G04 #@! TD*
D35*
G04 #@! TO.C,C5*
X-11975000Y-9500000D03*
X-15025000Y-9500000D03*
G04 #@! TD*
D12*
G04 #@! TO.C,C8*
X-16000000Y-2550000D03*
X-16000000Y-4450000D03*
G04 #@! TD*
D15*
G04 #@! TO.C,R10*
X8450000Y-27000000D03*
X6550000Y-27000000D03*
G04 #@! TD*
D12*
G04 #@! TO.C,R15*
X3500000Y-32300000D03*
X3500000Y-34200000D03*
G04 #@! TD*
D15*
G04 #@! TO.C,C18*
X13450000Y-17000000D03*
X11550000Y-17000000D03*
G04 #@! TD*
M02*
