M48
; DRILL file {KiCad (6.0.9)} date Sat Nov 23 14:03:53 2024
; FORMAT={2:4/ absolute / inch / suppress leading zeros}
; #@! TF.CreationDate,2024-11-23T14:03:53+01:00
; #@! TF.GenerationSoftware,Kicad,Pcbnew,(6.0.9)
; #@! TF.FileFunction,Plated,1,2,PTH
FMAT,2
INCH,TZ
; #@! TA.AperFunction,Plated,PTH,ViaDrill
T1C0.0118
; #@! TA.AperFunction,Plated,PTH,ViaDrill
T2C0.0197
; #@! TA.AperFunction,Plated,PTH,ComponentDrill
T3C0.0315
; #@! TA.AperFunction,Plated,PTH,ComponentDrill
T4C0.0390
; #@! TA.AperFunction,Plated,PTH,ViaDrill
T5C0.0394
; #@! TA.AperFunction,Plated,PTH,ComponentDrill
T6C0.0394
; #@! TA.AperFunction,Plated,PTH,ComponentDrill
T7C0.0512
; #@! TA.AperFunction,Plated,PTH,ComponentDrill
T8C0.0630
%
G90
G05
T1
X-7480Y17323
X-7480Y15748
X-7480Y14173
X-7480Y12598
X-7480Y11024
X-7480Y9449
X-7480Y7874
X-7480Y6299
X-7480Y4724
X-7480Y3150
X-7480Y1575
X-7480Y0
X-7480Y-1575
X-7480Y-3150
X-7480Y-4724
X-7480Y-6299
X-7480Y-7874
X-7480Y-9449
X-7480Y-11024
X-7480Y-12598
X-7480Y-13583
X-7480Y-14764
X-7480Y-15748
X-7480Y-17323
X-6693Y-8661
X-6496Y12598
X-6496Y-3740
X-6299Y11024
X-6299Y9449
X-6299Y7874
X-6299Y-2362
X-6102Y-7874
X-5906Y17323
X-5906Y-3150
X-5906Y-4331
X-5906Y-17323
X-5512Y-1772
X-5315Y591
X-5315Y-394
X-5315Y-7480
X-5278Y-12636
X-5262Y-13136
X-5118Y2362
X-4921Y15354
X-4921Y14173
X-4921Y12598
X-4921Y11024
X-4921Y9843
X-4921Y-7480
X-4724Y2362
X-4724Y1772
X-4331Y17323
X-4331Y8661
X-4331Y7776
X-4331Y6791
X-4331Y5807
X-4331Y2362
X-4331Y-15551
X-4331Y-16142
X-4331Y-16732
X-4134Y-7874
X-3937Y-1772
X-3937Y-4331
X-3839Y-5807
X-3740Y14567
X-3740Y12598
X-3740Y11220
X-3740Y9843
X-3740Y9055
X-3740Y8268
X-3543Y1772
X-3543Y591
X-3543Y-11024
X-3543Y-12402
X-3543Y-13386
X-3543Y-14567
X-3543Y-14961
X-3543Y-17323
X-3445Y-5807
X-3150Y15354
X-3150Y13780
X-2953Y8465
X-2953Y7283
X-2953Y2362
X-2953Y984
X-2953Y-787
X-2953Y-1772
X-2756Y17323
X-2756Y-8465
X-2756Y-15551
X-2756Y-16142
X-2756Y-16732
X-2657Y3514
X-2650Y13878
X-2559Y1772
X-2559Y984
X-2362Y5315
X-2362Y4823
X-2362Y4429
X-2362Y4035
X-2362Y-11024
X-2165Y12598
X-2165Y11024
X-2165Y9843
X-2165Y984
X-2150Y13878
X-1969Y4921
X-1969Y-787
X-1969Y-1772
X-1969Y-16142
X-1772Y591
X-1772Y-10039
X-1772Y-13583
X-1650Y13878
X-1575Y-5118
X-1575Y-6496
X-1575Y-7874
X-1378Y7283
X-1378Y1181
X-1181Y17323
X-1181Y15748
X-1181Y3445
X-1181Y3051
X-1181Y2657
X-1181Y2264
X-1181Y-3150
X-1181Y-11024
X-1181Y-15354
X-1150Y13878
X-1083Y5413
X-1083Y4331
X-787Y11024
X-787Y9843
X-787Y886
X-768Y-6476
X-689Y2657
X-650Y13878
X-492Y5413
X-453Y4331
X-295Y2264
X-197Y7677
X-197Y4035
X-197Y3543
X-150Y13878
X-45Y5418
X-18Y572
X0Y6299
X0Y2756
X0Y1969
X0Y-3150
X0Y-4331
X0Y-5315
X0Y-11811
X0Y-13386
X0Y-14764
X0Y-17323
X93Y4336
X197Y-7874
X350Y13878
X394Y17323
X394Y15748
X394Y9843
X394Y3150
X591Y7677
X591Y7087
X591Y3740
X591Y2362
X591Y-5906
X984Y9055
X984Y2953
X984Y-984
X984Y-6476
X1083Y-9646
X1083Y-10630
X1181Y4350
X1181Y4035
X1181Y3642
X1181Y2461
X1280Y-3248
X1280Y-4533
X1378Y1476
X1378Y-12008
X1575Y17323
X1575Y15748
X1673Y-4528
X1693Y4803
X1772Y1378
X1772Y984
X1969Y14567
X1969Y-10630
X1969Y-16142
X2067Y-4528
X2165Y984
X2165Y-1969
X2165Y-9646
X2244Y5354
X2244Y4803
X2264Y4232
X2264Y3839
X2264Y2362
X2362Y-4134
X2362Y-14173
X2362Y-15748
X2362Y-17323
X2559Y15354
X2559Y13780
X2559Y12598
X2559Y-6299
X2559Y-7283
X2559Y-8268
X2657Y3642
X2657Y-3248
X2756Y394
X3248Y-11811
X3543Y15354
X3543Y13780
X3740Y-394
X3740Y-4429
X3740Y-5315
X3740Y-6299
X3740Y-7283
X3937Y-10039
X4134Y14567
X4134Y12598
X4134Y11024
X4134Y9843
X4134Y9055
X4134Y8268
X4331Y17323
X4331Y15748
X4331Y197
X4331Y-787
X4331Y-3346
X4331Y-14173
X4331Y-15748
X4331Y-17323
X4547Y-10039
X4626Y-11811
X4921Y-5315
X5118Y-4134
X5315Y6299
X5512Y-2756
X5512Y-9843
X5709Y14567
X5709Y11614
X5709Y8661
X5709Y2756
X5807Y-1673
X5906Y17323
X5906Y-10630
X5906Y-12598
X5906Y-14173
X5906Y-15748
X5906Y-17323
X6102Y-7283
X6693Y14567
X6693Y11614
X6693Y8661
X6693Y5512
X6693Y2756
X6693Y-10630
X7185Y-8071
X7480Y17323
X7480Y15748
X7480Y14173
X7480Y12598
X7480Y11024
X7480Y9449
X7480Y7874
X7480Y6299
X7480Y4724
X7480Y3150
X7480Y1575
X7480Y0
X7480Y-1575
X7480Y-3150
X7480Y-4724
X7480Y-6299
X7480Y-9843
X7480Y-11024
X7480Y-12598
X7480Y-14173
X7480Y-15748
X7480Y-17323
T2
X-4035Y6299
X-3937Y5118
X-3937Y3937
X-3543Y7874
X-3150Y5118
X-1969Y-4331
X-1772Y-20
X-1181Y-1378
X-1181Y-4331
X-197Y-1378
X1181Y7677
X3150Y1378
X4429Y1969
T3
X-3000Y-2618
X-2000Y-2618
X-1000Y-2618
X0Y-2618
X1000Y-2618
X2000Y-2618
X3000Y-2618
T4
X6693Y15453
X6693Y13681
X6693Y9547
X6693Y7776
X6693Y3642
X6693Y1870
T5
X-4724Y-1772
X-3839Y-3740
X-1358Y6693
T6
X3937Y6413
X3937Y5413
X3937Y4413
X5118Y-13465
X5118Y-16457
X6693Y-256
X6693Y-1256
X6693Y-2256
X6693Y-3256
X6693Y-4256
X6693Y-5256
T7
X5713Y15949
X5713Y13189
X5713Y10043
X5713Y7283
X5713Y4138
X5713Y1378
T8
X3043Y16299
T0
M30
