%TF.GenerationSoftware,KiCad,Pcbnew,9.0.4*%
%TF.CreationDate,2025-09-21T11:05:40+02:00*%
%TF.ProjectId,Spoke,53706f6b-652e-46b6-9963-61645f706362,2.0*%
%TF.SameCoordinates,PX5f5e100PY5f5e100*%
%TF.FileFunction,Drillmap*%
%TF.FilePolarity,Positive*%
%FSLAX45Y45*%
G04 Gerber Fmt 4.5, Leading zero omitted, Abs format (unit mm)*
G04 Created by KiCad (PCBNEW 9.0.4) date 2025-09-21 11:05:40*
%MOMM*%
%LPD*%
G01*
G04 APERTURE LIST*
%ADD10C,0.100000*%
%ADD11C,0.200000*%
G04 APERTURE END LIST*
D10*
X-2500000Y5000000D02*
X2500000Y5000000D01*
X2500000Y-5000000D01*
X-2500000Y-5000000D01*
X-2500000Y5000000D01*
D11*
D10*
X-2415000Y4915000D02*
X-2385000Y4885000D01*
X-2385000Y4915000D02*
X-2415000Y4885000D01*
X-2415000Y4715000D02*
X-2385000Y4685000D01*
X-2385000Y4715000D02*
X-2415000Y4685000D01*
X-2415000Y4515000D02*
X-2385000Y4485000D01*
X-2385000Y4515000D02*
X-2415000Y4485000D01*
X-2415000Y4315000D02*
X-2385000Y4285000D01*
X-2385000Y4315000D02*
X-2415000Y4285000D01*
X-2415000Y4115000D02*
X-2385000Y4085000D01*
X-2385000Y4115000D02*
X-2415000Y4085000D01*
X-2415000Y3915000D02*
X-2385000Y3885000D01*
X-2385000Y3915000D02*
X-2415000Y3885000D01*
X-2415000Y3715000D02*
X-2385000Y3685000D01*
X-2385000Y3715000D02*
X-2415000Y3685000D01*
X-2415000Y2315000D02*
X-2385000Y2285000D01*
X-2385000Y2315000D02*
X-2415000Y2285000D01*
X-2415000Y2115000D02*
X-2385000Y2085000D01*
X-2385000Y2115000D02*
X-2415000Y2085000D01*
X-2415000Y1915000D02*
X-2385000Y1885000D01*
X-2385000Y1915000D02*
X-2415000Y1885000D01*
X-2415000Y1715000D02*
X-2385000Y1685000D01*
X-2385000Y1715000D02*
X-2415000Y1685000D01*
X-2415000Y1515000D02*
X-2385000Y1485000D01*
X-2385000Y1515000D02*
X-2415000Y1485000D01*
X-2415000Y1315000D02*
X-2385000Y1285000D01*
X-2385000Y1315000D02*
X-2415000Y1285000D01*
X-2415000Y1115000D02*
X-2385000Y1085000D01*
X-2385000Y1115000D02*
X-2415000Y1085000D01*
X-2415000Y915000D02*
X-2385000Y885000D01*
X-2385000Y915000D02*
X-2415000Y885000D01*
X-2415000Y-85000D02*
X-2385000Y-115000D01*
X-2385000Y-85000D02*
X-2415000Y-115000D01*
X-2415000Y-285000D02*
X-2385000Y-315000D01*
X-2385000Y-285000D02*
X-2415000Y-315000D01*
X-2415000Y-685000D02*
X-2385000Y-715000D01*
X-2385000Y-685000D02*
X-2415000Y-715000D01*
X-2415000Y-1435000D02*
X-2385000Y-1465000D01*
X-2385000Y-1435000D02*
X-2415000Y-1465000D01*
X-2415000Y-2085000D02*
X-2385000Y-2115000D01*
X-2385000Y-2085000D02*
X-2415000Y-2115000D01*
X-2415000Y-2285000D02*
X-2385000Y-2315000D01*
X-2385000Y-2285000D02*
X-2415000Y-2315000D01*
X-2415000Y-2485000D02*
X-2385000Y-2515000D01*
X-2385000Y-2485000D02*
X-2415000Y-2515000D01*
X-2415000Y-3285000D02*
X-2385000Y-3315000D01*
X-2385000Y-3285000D02*
X-2415000Y-3315000D01*
X-2415000Y-3485000D02*
X-2385000Y-3515000D01*
X-2385000Y-3485000D02*
X-2415000Y-3515000D01*
X-2415000Y-3685000D02*
X-2385000Y-3715000D01*
X-2385000Y-3685000D02*
X-2415000Y-3715000D01*
X-2415000Y-3885000D02*
X-2385000Y-3915000D01*
X-2385000Y-3885000D02*
X-2415000Y-3915000D01*
X-2415000Y-4085000D02*
X-2385000Y-4115000D01*
X-2385000Y-4085000D02*
X-2415000Y-4115000D01*
X-2415000Y-4285000D02*
X-2385000Y-4315000D01*
X-2385000Y-4285000D02*
X-2415000Y-4315000D01*
X-2415000Y-4485000D02*
X-2385000Y-4515000D01*
X-2385000Y-4485000D02*
X-2415000Y-4515000D01*
X-2415000Y-4685000D02*
X-2385000Y-4715000D01*
X-2385000Y-4685000D02*
X-2415000Y-4715000D01*
X-2415000Y-4885000D02*
X-2385000Y-4915000D01*
X-2385000Y-4885000D02*
X-2415000Y-4915000D01*
X-2335000Y3635000D02*
X-2305000Y3605000D01*
X-2305000Y3635000D02*
X-2335000Y3605000D01*
X-2215000Y4915000D02*
X-2185000Y4885000D01*
X-2185000Y4915000D02*
X-2215000Y4885000D01*
X-2215000Y2515000D02*
X-2185000Y2485000D01*
X-2185000Y2515000D02*
X-2215000Y2485000D01*
X-2215000Y-1445000D02*
X-2185000Y-1475000D01*
X-2185000Y-1445000D02*
X-2215000Y-1475000D01*
X-2215000Y-4885000D02*
X-2185000Y-4915000D01*
X-2185000Y-4885000D02*
X-2215000Y-4915000D01*
X-2195000Y3515000D02*
X-2165000Y3485000D01*
X-2165000Y3515000D02*
X-2195000Y3485000D01*
X-2195000Y-685000D02*
X-2165000Y-715000D01*
X-2165000Y-685000D02*
X-2195000Y-715000D01*
X-2175000Y1015000D02*
X-2145000Y985000D01*
X-2145000Y1015000D02*
X-2175000Y985000D01*
X-2175000Y615000D02*
X-2145000Y585000D01*
X-2145000Y615000D02*
X-2175000Y585000D01*
X-2135000Y-365000D02*
X-2105000Y-395000D01*
X-2105000Y-365000D02*
X-2135000Y-395000D01*
X-2115000Y3165000D02*
X-2085000Y3135000D01*
X-2085000Y3165000D02*
X-2115000Y3135000D01*
X-2115000Y3015000D02*
X-2085000Y2985000D01*
X-2085000Y3015000D02*
X-2115000Y2985000D01*
X-2115000Y2865000D02*
X-2085000Y2835000D01*
X-2085000Y2865000D02*
X-2115000Y2835000D01*
X-2115000Y-2985000D02*
X-2085000Y-3015000D01*
X-2085000Y-2985000D02*
X-2115000Y-3015000D01*
X-2115000Y-3285000D02*
X-2085000Y-3315000D01*
X-2085000Y-3285000D02*
X-2115000Y-3315000D01*
X-2090000Y1440000D02*
X-2060000Y1410000D01*
X-2060000Y1440000D02*
X-2090000Y1410000D01*
X-2075000Y-45000D02*
X-2045000Y-75000D01*
X-2045000Y-45000D02*
X-2075000Y-75000D01*
X-2065000Y-4235000D02*
X-2035000Y-4265000D01*
X-2035000Y-4235000D02*
X-2065000Y-4265000D01*
X-2055000Y3235000D02*
X-2025000Y3205000D01*
X-2025000Y3235000D02*
X-2055000Y3205000D01*
X-2015000Y4915000D02*
X-1985000Y4885000D01*
X-1985000Y4915000D02*
X-2015000Y4885000D01*
X-2015000Y2775000D02*
X-1985000Y2745000D01*
X-1985000Y2775000D02*
X-2015000Y2745000D01*
X-2015000Y-4885000D02*
X-1985000Y-4915000D01*
X-1985000Y-4885000D02*
X-2015000Y-4915000D01*
X-1995000Y-2765000D02*
X-1965000Y-2795000D01*
X-1965000Y-2765000D02*
X-1995000Y-2795000D01*
X-1990000Y4290000D02*
X-1960000Y4260000D01*
X-1960000Y4290000D02*
X-1990000Y4260000D01*
X-1990000Y-2410000D02*
X-1960000Y-2440000D01*
X-1960000Y-2410000D02*
X-1990000Y-2440000D01*
X-1975000Y475000D02*
X-1945000Y445000D01*
X-1945000Y475000D02*
X-1975000Y445000D01*
X-1975000Y95000D02*
X-1945000Y65000D01*
X-1945000Y95000D02*
X-1975000Y65000D01*
X-1965000Y-3535000D02*
X-1935000Y-3565000D01*
X-1935000Y-3535000D02*
X-1965000Y-3565000D01*
X-1935000Y3235000D02*
X-1905000Y3205000D01*
X-1905000Y3235000D02*
X-1935000Y3205000D01*
X-1930000Y-1210000D02*
X-1900000Y-1240000D01*
X-1900000Y-1210000D02*
X-1930000Y-1240000D01*
X-1915000Y3065000D02*
X-1885000Y3035000D01*
X-1885000Y3065000D02*
X-1915000Y3035000D01*
X-1915000Y2915000D02*
X-1885000Y2885000D01*
X-1885000Y2915000D02*
X-1915000Y2885000D01*
X-1915000Y2135000D02*
X-1885000Y2105000D01*
X-1885000Y2135000D02*
X-1915000Y2105000D01*
X-1915000Y1935000D02*
X-1885000Y1905000D01*
X-1885000Y1935000D02*
X-1915000Y1905000D01*
X-1915000Y-205000D02*
X-1885000Y-235000D01*
X-1885000Y-205000D02*
X-1915000Y-235000D01*
X-1915000Y-1405000D02*
X-1885000Y-1435000D01*
X-1885000Y-1405000D02*
X-1915000Y-1435000D01*
X-1875000Y-3605000D02*
X-1845000Y-3635000D01*
X-1845000Y-3605000D02*
X-1875000Y-3635000D01*
X-1855000Y-2295000D02*
X-1825000Y-2325000D01*
X-1825000Y-2295000D02*
X-1855000Y-2325000D01*
X-1840000Y4340000D02*
X-1810000Y4310000D01*
X-1810000Y4340000D02*
X-1840000Y4310000D01*
X-1840000Y-1035000D02*
X-1810000Y-1065000D01*
X-1810000Y-1035000D02*
X-1840000Y-1065000D01*
X-1840000Y-1135000D02*
X-1810000Y-1165000D01*
X-1810000Y-1135000D02*
X-1840000Y-1165000D01*
X-1835000Y-45000D02*
X-1805000Y-75000D01*
X-1805000Y-45000D02*
X-1835000Y-75000D01*
X-1815000Y4915000D02*
X-1785000Y4885000D01*
X-1785000Y4915000D02*
X-1815000Y4885000D01*
X-1815000Y4615000D02*
X-1785000Y4585000D01*
X-1785000Y4615000D02*
X-1815000Y4585000D01*
X-1815000Y-4885000D02*
X-1785000Y-4915000D01*
X-1785000Y-4885000D02*
X-1815000Y-4915000D01*
X-1795000Y-3265000D02*
X-1765000Y-3295000D01*
X-1765000Y-3265000D02*
X-1795000Y-3295000D01*
X-1775000Y-3065000D02*
X-1745000Y-3095000D01*
X-1745000Y-3065000D02*
X-1775000Y-3095000D01*
X-1765000Y4015000D02*
X-1735000Y3985000D01*
X-1735000Y4015000D02*
X-1765000Y3985000D01*
X-1765000Y-1685000D02*
X-1735000Y-1715000D01*
X-1735000Y-1685000D02*
X-1765000Y-1715000D01*
X-1765000Y-1985000D02*
X-1735000Y-2015000D01*
X-1735000Y-1985000D02*
X-1765000Y-2015000D01*
X-1765000Y-4535000D02*
X-1735000Y-4565000D01*
X-1735000Y-4535000D02*
X-1765000Y-4565000D01*
X-1735000Y2135000D02*
X-1705000Y2105000D01*
X-1705000Y2135000D02*
X-1735000Y2105000D01*
X-1735000Y715000D02*
X-1705000Y685000D01*
X-1705000Y715000D02*
X-1735000Y685000D01*
X-1735000Y475000D02*
X-1705000Y445000D01*
X-1705000Y475000D02*
X-1735000Y445000D01*
X-1675000Y1775000D02*
X-1645000Y1745000D01*
X-1645000Y1775000D02*
X-1675000Y1745000D01*
X-1635000Y1275000D02*
X-1605000Y1245000D01*
X-1605000Y1275000D02*
X-1635000Y1245000D01*
X-1635000Y-3445000D02*
X-1605000Y-3475000D01*
X-1605000Y-3445000D02*
X-1635000Y-3475000D01*
X-1628791Y3521209D02*
X-1598791Y3491209D01*
X-1598791Y3521209D02*
X-1628791Y3491209D01*
X-1615000Y4915000D02*
X-1585000Y4885000D01*
X-1585000Y4915000D02*
X-1615000Y4885000D01*
X-1615000Y-3885000D02*
X-1585000Y-3915000D01*
X-1585000Y-3885000D02*
X-1615000Y-3915000D01*
X-1615000Y-4885000D02*
X-1585000Y-4915000D01*
X-1585000Y-4885000D02*
X-1615000Y-4915000D01*
X-1575000Y-715000D02*
X-1545000Y-745000D01*
X-1545000Y-715000D02*
X-1575000Y-745000D01*
X-1575000Y-1405000D02*
X-1545000Y-1435000D01*
X-1545000Y-1405000D02*
X-1575000Y-1435000D01*
X-1564800Y3311452D02*
X-1534800Y3281452D01*
X-1534800Y3311452D02*
X-1564800Y3281452D01*
X-1555000Y1275000D02*
X-1525000Y1245000D01*
X-1525000Y1275000D02*
X-1555000Y1245000D01*
X-1540000Y-635000D02*
X-1510000Y-665000D01*
X-1510000Y-635000D02*
X-1540000Y-665000D01*
X-1515000Y-1685000D02*
X-1485000Y-1715000D01*
X-1485000Y-1685000D02*
X-1515000Y-1715000D01*
X-1515000Y-1985000D02*
X-1485000Y-2015000D01*
X-1485000Y-1985000D02*
X-1515000Y-2015000D01*
X-1475000Y4095000D02*
X-1445000Y4065000D01*
X-1445000Y4095000D02*
X-1475000Y4065000D01*
X-1475000Y3695000D02*
X-1445000Y3665000D01*
X-1445000Y3695000D02*
X-1475000Y3665000D01*
X-1475000Y-2295000D02*
X-1445000Y-2325000D01*
X-1445000Y-2295000D02*
X-1475000Y-2325000D01*
X-1465000Y-560000D02*
X-1435000Y-590000D01*
X-1435000Y-560000D02*
X-1465000Y-590000D01*
X-1455000Y-2845000D02*
X-1425000Y-2875000D01*
X-1425000Y-2845000D02*
X-1455000Y-2875000D01*
X-1447683Y43691D02*
X-1417683Y13691D01*
X-1417683Y43691D02*
X-1447683Y13691D01*
X-1415000Y4915000D02*
X-1385000Y4885000D01*
X-1385000Y4915000D02*
X-1415000Y4885000D01*
X-1415000Y4615000D02*
X-1385000Y4585000D01*
X-1385000Y4615000D02*
X-1415000Y4585000D01*
X-1415000Y4315000D02*
X-1385000Y4285000D01*
X-1385000Y4315000D02*
X-1415000Y4285000D01*
X-1415000Y-4885000D02*
X-1385000Y-4915000D01*
X-1385000Y-4885000D02*
X-1415000Y-4915000D01*
X-1386087Y675000D02*
X-1356087Y645000D01*
X-1356087Y675000D02*
X-1386087Y645000D01*
X-1375000Y-1405000D02*
X-1345000Y-1435000D01*
X-1345000Y-1405000D02*
X-1375000Y-1435000D01*
X-1365000Y-4185000D02*
X-1335000Y-4215000D01*
X-1335000Y-4185000D02*
X-1365000Y-4215000D01*
X-1355000Y600000D02*
X-1325000Y570000D01*
X-1325000Y600000D02*
X-1355000Y570000D01*
X-1315000Y415000D02*
X-1285000Y385000D01*
X-1285000Y415000D02*
X-1315000Y385000D01*
X-1275000Y3890000D02*
X-1245000Y3860000D01*
X-1245000Y3890000D02*
X-1275000Y3860000D01*
X-1275000Y3695000D02*
X-1245000Y3665000D01*
X-1245000Y3695000D02*
X-1275000Y3665000D01*
X-1240000Y-3410000D02*
X-1210000Y-3440000D01*
X-1210000Y-3410000D02*
X-1240000Y-3440000D01*
X-1215000Y4915000D02*
X-1185000Y4885000D01*
X-1185000Y4915000D02*
X-1215000Y4885000D01*
X-1215000Y4815000D02*
X-1185000Y4785000D01*
X-1185000Y4815000D02*
X-1215000Y4785000D01*
X-1215000Y-4885000D02*
X-1185000Y-4915000D01*
X-1185000Y-4885000D02*
X-1215000Y-4915000D01*
X-1165000Y-1585000D02*
X-1135000Y-1615000D01*
X-1135000Y-1585000D02*
X-1165000Y-1615000D01*
X-1165000Y-1985000D02*
X-1135000Y-2015000D01*
X-1135000Y-1985000D02*
X-1165000Y-2015000D01*
X-1155000Y-1035000D02*
X-1125000Y-1065000D01*
X-1125000Y-1035000D02*
X-1155000Y-1065000D01*
X-1140000Y2915000D02*
X-1110000Y2885000D01*
X-1110000Y2915000D02*
X-1140000Y2885000D01*
X-1115000Y3415000D02*
X-1085000Y3385000D01*
X-1085000Y3415000D02*
X-1115000Y3385000D01*
X-1115000Y2565000D02*
X-1085000Y2535000D01*
X-1085000Y2565000D02*
X-1115000Y2535000D01*
X-1095000Y3215000D02*
X-1065000Y3185000D01*
X-1065000Y3215000D02*
X-1095000Y3185000D01*
X-1075000Y2255000D02*
X-1045000Y2225000D01*
X-1045000Y2255000D02*
X-1075000Y2225000D01*
X-1075000Y1835000D02*
X-1045000Y1805000D01*
X-1045000Y1835000D02*
X-1075000Y1805000D01*
X-1075000Y1415000D02*
X-1045000Y1385000D01*
X-1045000Y1415000D02*
X-1075000Y1385000D01*
X-1075000Y1175000D02*
X-1045000Y1145000D01*
X-1045000Y1175000D02*
X-1075000Y1145000D01*
X-1065000Y-725000D02*
X-1035000Y-755000D01*
X-1035000Y-725000D02*
X-1065000Y-755000D01*
X-1015000Y3815000D02*
X-985000Y3785000D01*
X-985000Y3815000D02*
X-1015000Y3785000D01*
X-1015000Y-4885000D02*
X-985000Y-4915000D01*
X-985000Y-4885000D02*
X-1015000Y-4915000D01*
X-995000Y-1035000D02*
X-965000Y-1065000D01*
X-965000Y-1035000D02*
X-995000Y-1065000D01*
X-990000Y4140000D02*
X-960000Y4110000D01*
X-960000Y4140000D02*
X-990000Y4110000D01*
X-955000Y-2295000D02*
X-925000Y-2325000D01*
X-925000Y-2295000D02*
X-955000Y-2325000D01*
X-935000Y2210000D02*
X-905000Y2180000D01*
X-905000Y2210000D02*
X-935000Y2180000D01*
X-915000Y4815000D02*
X-885000Y4785000D01*
X-885000Y4815000D02*
X-915000Y4785000D01*
X-915000Y-345000D02*
X-885000Y-375000D01*
X-885000Y-345000D02*
X-915000Y-375000D01*
X-915000Y-725000D02*
X-885000Y-755000D01*
X-885000Y-725000D02*
X-915000Y-755000D01*
X-905000Y4515000D02*
X-875000Y4485000D01*
X-875000Y4515000D02*
X-905000Y4485000D01*
X-895000Y3155000D02*
X-865000Y3125000D01*
X-865000Y3155000D02*
X-895000Y3125000D01*
X-895000Y2555000D02*
X-865000Y2525000D01*
X-865000Y2555000D02*
X-895000Y2525000D01*
X-895000Y-2825000D02*
X-865000Y-2855000D01*
X-865000Y-2825000D02*
X-895000Y-2855000D01*
X-895000Y-3065000D02*
X-865000Y-3095000D01*
X-865000Y-3065000D02*
X-895000Y-3095000D01*
X-895000Y-3165000D02*
X-865000Y-3195000D01*
X-865000Y-3165000D02*
X-895000Y-3195000D01*
X-875000Y1835000D02*
X-845000Y1805000D01*
X-845000Y1835000D02*
X-875000Y1805000D01*
X-875000Y495000D02*
X-845000Y465000D01*
X-845000Y495000D02*
X-875000Y465000D01*
X-865000Y815000D02*
X-835000Y785000D01*
X-835000Y815000D02*
X-865000Y785000D01*
X-865000Y-3985000D02*
X-835000Y-4015000D01*
X-835000Y-3985000D02*
X-865000Y-4015000D01*
X-865000Y-4535000D02*
X-835000Y-4565000D01*
X-835000Y-4535000D02*
X-865000Y-4565000D01*
X-858750Y406250D02*
X-828750Y376250D01*
X-828750Y406250D02*
X-858750Y376250D01*
X-855000Y4135000D02*
X-825000Y4105000D01*
X-825000Y4135000D02*
X-855000Y4105000D01*
X-855000Y625000D02*
X-825000Y595000D01*
X-825000Y625000D02*
X-855000Y595000D01*
X-825000Y-2605000D02*
X-795000Y-2635000D01*
X-795000Y-2605000D02*
X-825000Y-2635000D01*
X-815000Y4915000D02*
X-785000Y4885000D01*
X-785000Y4915000D02*
X-815000Y4885000D01*
X-815000Y-4885000D02*
X-785000Y-4915000D01*
X-785000Y-4885000D02*
X-815000Y-4915000D01*
X-775000Y-1205000D02*
X-745000Y-1235000D01*
X-745000Y-1205000D02*
X-775000Y-1235000D01*
X-775000Y-1585000D02*
X-745000Y-1615000D01*
X-745000Y-1585000D02*
X-775000Y-1615000D01*
X-775000Y-1785000D02*
X-745000Y-1815000D01*
X-745000Y-1785000D02*
X-775000Y-1815000D01*
X-775000Y-2045000D02*
X-745000Y-2075000D01*
X-745000Y-2045000D02*
X-775000Y-2075000D01*
X-735000Y-2245000D02*
X-705000Y-2275000D01*
X-705000Y-2245000D02*
X-735000Y-2275000D01*
X-715000Y4140000D02*
X-685000Y4110000D01*
X-685000Y4140000D02*
X-715000Y4110000D01*
X-715000Y3915000D02*
X-685000Y3885000D01*
X-685000Y3915000D02*
X-715000Y3885000D01*
X-695000Y475000D02*
X-665000Y445000D01*
X-665000Y475000D02*
X-695000Y445000D01*
X-695000Y-4305000D02*
X-665000Y-4335000D01*
X-665000Y-4305000D02*
X-695000Y-4335000D01*
X-695000Y-4725000D02*
X-665000Y-4755000D01*
X-665000Y-4725000D02*
X-695000Y-4755000D01*
X-690000Y3790000D02*
X-660000Y3760000D01*
X-660000Y3790000D02*
X-690000Y3760000D01*
X-690000Y1365000D02*
X-660000Y1335000D01*
X-660000Y1365000D02*
X-690000Y1335000D01*
X-690000Y1265000D02*
X-660000Y1235000D01*
X-660000Y1265000D02*
X-690000Y1235000D01*
X-665000Y-1310000D02*
X-635000Y-1340000D01*
X-635000Y-1310000D02*
X-665000Y-1340000D01*
X-665000Y-1385000D02*
X-635000Y-1415000D01*
X-635000Y-1385000D02*
X-665000Y-1415000D01*
X-665000Y-1460000D02*
X-635000Y-1490000D01*
X-635000Y-1460000D02*
X-665000Y-1490000D01*
X-655000Y-725000D02*
X-625000Y-755000D01*
X-625000Y-725000D02*
X-655000Y-755000D01*
X-640000Y-1160000D02*
X-610000Y-1190000D01*
X-610000Y-1160000D02*
X-640000Y-1190000D01*
X-635000Y55000D02*
X-605000Y25000D01*
X-605000Y55000D02*
X-635000Y25000D01*
X-635000Y-205000D02*
X-605000Y-235000D01*
X-605000Y-205000D02*
X-635000Y-235000D01*
X-630000Y2015000D02*
X-600000Y1985000D01*
X-600000Y2015000D02*
X-630000Y1985000D01*
X-615000Y4915000D02*
X-585000Y4885000D01*
X-585000Y4915000D02*
X-615000Y4885000D01*
X-615000Y3875000D02*
X-585000Y3845000D01*
X-585000Y3875000D02*
X-615000Y3845000D01*
X-615000Y-1045000D02*
X-585000Y-1075000D01*
X-585000Y-1045000D02*
X-615000Y-1075000D01*
X-615000Y-4885000D02*
X-585000Y-4915000D01*
X-585000Y-4885000D02*
X-615000Y-4915000D01*
X-595000Y1475000D02*
X-565000Y1445000D01*
X-565000Y1475000D02*
X-595000Y1445000D01*
X-595000Y-1585000D02*
X-565000Y-1615000D01*
X-565000Y-1585000D02*
X-595000Y-1615000D01*
X-595000Y-1785000D02*
X-565000Y-1815000D01*
X-565000Y-1785000D02*
X-595000Y-1815000D01*
X-590000Y-1310000D02*
X-560000Y-1340000D01*
X-560000Y-1310000D02*
X-590000Y-1340000D01*
X-590000Y-1385000D02*
X-560000Y-1415000D01*
X-560000Y-1385000D02*
X-590000Y-1415000D01*
X-590000Y-1460000D02*
X-560000Y-1490000D01*
X-560000Y-1460000D02*
X-590000Y-1490000D01*
X-575000Y2495000D02*
X-545000Y2465000D01*
X-545000Y2495000D02*
X-575000Y2465000D01*
X-575000Y2275000D02*
X-545000Y2245000D01*
X-545000Y2275000D02*
X-575000Y2245000D01*
X-565000Y-2610000D02*
X-535000Y-2640000D01*
X-535000Y-2610000D02*
X-565000Y-2640000D01*
X-535000Y-3705000D02*
X-505000Y-3735000D01*
X-505000Y-3705000D02*
X-535000Y-3735000D01*
X-515000Y3315000D02*
X-485000Y3285000D01*
X-485000Y3315000D02*
X-515000Y3285000D01*
X-515000Y865000D02*
X-485000Y835000D01*
X-485000Y865000D02*
X-515000Y835000D01*
X-515000Y615000D02*
X-485000Y585000D01*
X-485000Y615000D02*
X-515000Y585000D01*
X-515000Y415000D02*
X-485000Y385000D01*
X-485000Y415000D02*
X-515000Y385000D01*
X-515000Y-2085000D02*
X-485000Y-2115000D01*
X-485000Y-2085000D02*
X-515000Y-2115000D01*
X-495000Y-3065000D02*
X-465000Y-3095000D01*
X-465000Y-3065000D02*
X-495000Y-3095000D01*
X-495000Y-4105000D02*
X-465000Y-4135000D01*
X-465000Y-4105000D02*
X-495000Y-4135000D01*
X-490000Y1640000D02*
X-460000Y1610000D01*
X-460000Y1640000D02*
X-490000Y1610000D01*
X-455000Y2275000D02*
X-425000Y2245000D01*
X-425000Y2275000D02*
X-455000Y2245000D01*
X-415000Y1640000D02*
X-385000Y1610000D01*
X-385000Y1640000D02*
X-415000Y1610000D01*
X-415000Y115000D02*
X-385000Y85000D01*
X-385000Y115000D02*
X-415000Y85000D01*
X-415000Y-45000D02*
X-385000Y-75000D01*
X-385000Y-45000D02*
X-415000Y-75000D01*
X-415000Y-2805000D02*
X-385000Y-2835000D01*
X-385000Y-2805000D02*
X-415000Y-2835000D01*
X-415000Y-4885000D02*
X-385000Y-4915000D01*
X-385000Y-4885000D02*
X-415000Y-4915000D01*
X-405000Y975000D02*
X-375000Y945000D01*
X-375000Y975000D02*
X-405000Y945000D01*
X-395000Y4135000D02*
X-365000Y4105000D01*
X-365000Y4135000D02*
X-395000Y4105000D01*
X-395000Y-2165000D02*
X-365000Y-2195000D01*
X-365000Y-2165000D02*
X-395000Y-2195000D01*
X-395000Y-4105000D02*
X-365000Y-4135000D01*
X-365000Y-4105000D02*
X-395000Y-4135000D01*
X-390000Y-4010000D02*
X-360000Y-4040000D01*
X-360000Y-4010000D02*
X-390000Y-4040000D01*
X-365000Y4505000D02*
X-335000Y4475000D01*
X-335000Y4505000D02*
X-365000Y4475000D01*
X-355000Y3715000D02*
X-325000Y3685000D01*
X-325000Y3715000D02*
X-355000Y3685000D01*
X-340000Y1640000D02*
X-310000Y1610000D01*
X-310000Y1640000D02*
X-340000Y1610000D01*
X-335000Y-465000D02*
X-305000Y-495000D01*
X-305000Y-465000D02*
X-335000Y-495000D01*
X-295000Y-1285000D02*
X-265000Y-1315000D01*
X-265000Y-1285000D02*
X-295000Y-1315000D01*
X-295000Y-3245000D02*
X-265000Y-3275000D01*
X-265000Y-3245000D02*
X-295000Y-3275000D01*
X-295000Y-4725000D02*
X-265000Y-4755000D01*
X-265000Y-4725000D02*
X-295000Y-4755000D01*
X-290000Y-1385000D02*
X-260000Y-1415000D01*
X-260000Y-1385000D02*
X-290000Y-1415000D01*
X-290000Y-2160000D02*
X-260000Y-2190000D01*
X-260000Y-2160000D02*
X-290000Y-2190000D01*
X-265000Y3765000D02*
X-235000Y3735000D01*
X-235000Y3765000D02*
X-265000Y3735000D01*
X-265000Y1162500D02*
X-235000Y1132500D01*
X-235000Y1162500D02*
X-265000Y1132500D01*
X-265000Y1087500D02*
X-235000Y1057500D01*
X-235000Y1087500D02*
X-265000Y1057500D01*
X-255000Y2695000D02*
X-225000Y2665000D01*
X-225000Y2695000D02*
X-255000Y2665000D01*
X-255000Y-3705000D02*
X-225000Y-3735000D01*
X-225000Y-3705000D02*
X-255000Y-3735000D01*
X-228348Y314513D02*
X-198348Y284513D01*
X-198348Y314513D02*
X-228348Y284513D01*
X-215000Y4715000D02*
X-185000Y4685000D01*
X-185000Y4715000D02*
X-215000Y4685000D01*
X-215000Y4295000D02*
X-185000Y4265000D01*
X-185000Y4295000D02*
X-215000Y4265000D01*
X-215000Y3315000D02*
X-185000Y3285000D01*
X-185000Y3315000D02*
X-215000Y3285000D01*
X-215000Y3015000D02*
X-185000Y2985000D01*
X-185000Y3015000D02*
X-215000Y2985000D01*
X-215000Y1865000D02*
X-185000Y1835000D01*
X-185000Y1865000D02*
X-215000Y1835000D01*
X-215000Y1790000D02*
X-185000Y1760000D01*
X-185000Y1790000D02*
X-215000Y1760000D01*
X-215000Y-2485000D02*
X-185000Y-2515000D01*
X-185000Y-2485000D02*
X-215000Y-2515000D01*
X-215000Y-4885000D02*
X-185000Y-4915000D01*
X-185000Y-4885000D02*
X-215000Y-4915000D01*
X-190000Y1090000D02*
X-160000Y1060000D01*
X-160000Y1090000D02*
X-190000Y1060000D01*
X-175000Y-2765000D02*
X-145000Y-2795000D01*
X-145000Y-2765000D02*
X-175000Y-2795000D01*
X-140000Y3765000D02*
X-110000Y3735000D01*
X-110000Y3765000D02*
X-140000Y3735000D01*
X-140000Y-4085000D02*
X-110000Y-4115000D01*
X-110000Y-4085000D02*
X-140000Y-4115000D01*
X-135000Y-1225000D02*
X-105000Y-1255000D01*
X-105000Y-1225000D02*
X-135000Y-1255000D01*
X-135000Y-1525000D02*
X-105000Y-1555000D01*
X-105000Y-1525000D02*
X-135000Y-1555000D01*
X-135000Y-3065000D02*
X-105000Y-3095000D01*
X-105000Y-3065000D02*
X-135000Y-3095000D01*
X-115000Y1865000D02*
X-85000Y1835000D01*
X-85000Y1865000D02*
X-115000Y1835000D01*
X-115000Y1790000D02*
X-85000Y1760000D01*
X-85000Y1790000D02*
X-115000Y1760000D01*
X-115000Y-4360000D02*
X-85000Y-4390000D01*
X-85000Y-4360000D02*
X-115000Y-4390000D01*
X-65000Y165000D02*
X-35000Y135000D01*
X-35000Y165000D02*
X-65000Y135000D01*
X-15000Y3765000D02*
X15000Y3735000D01*
X15000Y3765000D02*
X-15000Y3735000D01*
X-15000Y-2945000D02*
X15000Y-2975000D01*
X15000Y-2945000D02*
X-15000Y-2975000D01*
X-15000Y-4735000D02*
X15000Y-4765000D01*
X15000Y-4735000D02*
X-15000Y-4765000D01*
X-15000Y-4885000D02*
X15000Y-4915000D01*
X15000Y-4885000D02*
X-15000Y-4915000D01*
X5000Y2155000D02*
X35000Y2125000D01*
X35000Y2155000D02*
X5000Y2125000D01*
X5000Y1845000D02*
X35000Y1815000D01*
X35000Y1845000D02*
X5000Y1815000D01*
X10000Y4135000D02*
X40000Y4105000D01*
X40000Y4135000D02*
X10000Y4105000D01*
X10000Y-4360000D02*
X40000Y-4390000D01*
X40000Y-4360000D02*
X10000Y-4390000D01*
X25000Y1175000D02*
X55000Y1145000D01*
X55000Y1175000D02*
X25000Y1145000D01*
X45000Y-1945000D02*
X75000Y-1975000D01*
X75000Y-1945000D02*
X45000Y-1975000D01*
X65000Y3715000D02*
X95000Y3685000D01*
X95000Y3715000D02*
X65000Y3685000D01*
X70000Y-385000D02*
X100000Y-415000D01*
X100000Y-385000D02*
X70000Y-415000D01*
X85000Y3015000D02*
X115000Y2985000D01*
X115000Y3015000D02*
X85000Y2985000D01*
X85000Y-2485000D02*
X115000Y-2515000D01*
X115000Y-2485000D02*
X85000Y-2515000D01*
X85000Y-3565000D02*
X115000Y-3595000D01*
X115000Y-3565000D02*
X85000Y-3595000D01*
X85000Y-4025000D02*
X115000Y-4055000D01*
X115000Y-4025000D02*
X85000Y-4055000D01*
X105000Y1175000D02*
X135000Y1145000D01*
X135000Y1175000D02*
X105000Y1145000D01*
X105000Y-65000D02*
X135000Y-95000D01*
X135000Y-65000D02*
X105000Y-95000D01*
X110000Y-210000D02*
X140000Y-240000D01*
X140000Y-210000D02*
X110000Y-240000D01*
X125000Y875000D02*
X155000Y845000D01*
X155000Y875000D02*
X125000Y845000D01*
X125000Y-1225000D02*
X155000Y-1255000D01*
X155000Y-1225000D02*
X125000Y-1255000D01*
X131032Y-1555673D02*
X161032Y-1585673D01*
X161032Y-1555673D02*
X131032Y-1585673D01*
X135000Y4590000D02*
X165000Y4560000D01*
X165000Y4590000D02*
X135000Y4560000D01*
X135000Y25000D02*
X165000Y-5000D01*
X165000Y25000D02*
X135000Y-5000D01*
X185000Y4915000D02*
X215000Y4885000D01*
X215000Y4915000D02*
X185000Y4885000D01*
X185000Y740000D02*
X215000Y710000D01*
X215000Y740000D02*
X185000Y710000D01*
X185000Y-4885000D02*
X215000Y-4915000D01*
X215000Y-4885000D02*
X185000Y-4915000D01*
X205000Y4295000D02*
X235000Y4265000D01*
X235000Y4295000D02*
X205000Y4265000D01*
X225000Y-1085000D02*
X255000Y-1115000D01*
X255000Y-1085000D02*
X225000Y-1115000D01*
X225000Y-3565000D02*
X255000Y-3595000D01*
X255000Y-3565000D02*
X225000Y-3595000D01*
X225000Y-3705000D02*
X255000Y-3735000D01*
X255000Y-3705000D02*
X225000Y-3735000D01*
X225000Y-3845000D02*
X255000Y-3875000D01*
X255000Y-3845000D02*
X225000Y-3875000D01*
X233807Y440000D02*
X263807Y410000D01*
X263807Y440000D02*
X233807Y410000D01*
X235000Y265000D02*
X265000Y235000D01*
X265000Y265000D02*
X235000Y235000D01*
X245000Y1615000D02*
X275000Y1585000D01*
X275000Y1615000D02*
X245000Y1585000D01*
X260000Y815000D02*
X290000Y785000D01*
X290000Y815000D02*
X260000Y785000D01*
X265000Y1845000D02*
X295000Y1815000D01*
X295000Y1845000D02*
X265000Y1815000D01*
X265000Y-1785000D02*
X295000Y-1815000D01*
X295000Y-1785000D02*
X265000Y-1815000D01*
X265000Y-4725000D02*
X295000Y-4755000D01*
X295000Y-4725000D02*
X265000Y-4755000D01*
X285000Y515000D02*
X315000Y485000D01*
X315000Y515000D02*
X285000Y485000D01*
X285000Y-65000D02*
X315000Y-95000D01*
X315000Y-65000D02*
X285000Y-95000D01*
X285000Y-3185000D02*
X315000Y-3215000D01*
X315000Y-3185000D02*
X285000Y-3215000D01*
X305000Y-1305000D02*
X335000Y-1335000D01*
X335000Y-1305000D02*
X305000Y-1335000D01*
X305000Y-1465000D02*
X335000Y-1495000D01*
X335000Y-1465000D02*
X305000Y-1495000D01*
X360000Y465000D02*
X390000Y435000D01*
X390000Y465000D02*
X360000Y435000D01*
X365000Y2735000D02*
X395000Y2705000D01*
X395000Y2735000D02*
X365000Y2705000D01*
X365000Y-25000D02*
X395000Y-55000D01*
X395000Y-25000D02*
X365000Y-55000D01*
X365000Y-4105000D02*
X395000Y-4135000D01*
X395000Y-4105000D02*
X365000Y-4135000D01*
X385000Y4915000D02*
X415000Y4885000D01*
X415000Y4915000D02*
X385000Y4885000D01*
X385000Y-4885000D02*
X415000Y-4915000D01*
X415000Y-4885000D02*
X385000Y-4915000D01*
X405000Y2295000D02*
X435000Y2265000D01*
X435000Y2295000D02*
X405000Y2265000D01*
X425000Y-2005000D02*
X455000Y-2035000D01*
X455000Y-2005000D02*
X425000Y-2035000D01*
X425000Y-2485000D02*
X455000Y-2515000D01*
X455000Y-2485000D02*
X425000Y-2515000D01*
X435000Y1615000D02*
X465000Y1585000D01*
X465000Y1615000D02*
X435000Y1585000D01*
X435000Y1215000D02*
X465000Y1185000D01*
X465000Y1215000D02*
X435000Y1185000D01*
X445000Y805000D02*
X475000Y775000D01*
X475000Y805000D02*
X445000Y775000D01*
X460000Y3165000D02*
X490000Y3135000D01*
X490000Y3165000D02*
X460000Y3135000D01*
X460000Y425000D02*
X490000Y395000D01*
X490000Y425000D02*
X460000Y395000D01*
X465000Y-4105000D02*
X495000Y-4135000D01*
X495000Y-4105000D02*
X465000Y-4135000D01*
X485000Y4615000D02*
X515000Y4585000D01*
X515000Y4615000D02*
X485000Y4585000D01*
X485000Y4315000D02*
X515000Y4285000D01*
X515000Y4315000D02*
X485000Y4285000D01*
X485000Y2735000D02*
X515000Y2705000D01*
X515000Y2735000D02*
X485000Y2705000D01*
X485000Y-3705000D02*
X515000Y-3735000D01*
X515000Y-3705000D02*
X485000Y-3735000D01*
X505000Y2295000D02*
X535000Y2265000D01*
X535000Y2295000D02*
X505000Y2265000D01*
X505000Y1845000D02*
X535000Y1815000D01*
X535000Y1845000D02*
X505000Y1815000D01*
X505000Y-1085000D02*
X535000Y-1115000D01*
X535000Y-1085000D02*
X505000Y-1115000D01*
X525000Y3235000D02*
X555000Y3205000D01*
X555000Y3235000D02*
X525000Y3205000D01*
X535000Y1090000D02*
X565000Y1060000D01*
X565000Y1090000D02*
X535000Y1060000D01*
X560000Y265000D02*
X590000Y235000D01*
X590000Y265000D02*
X560000Y235000D01*
X565000Y-1565000D02*
X595000Y-1595000D01*
X595000Y-1565000D02*
X565000Y-1595000D01*
X565000Y-1785000D02*
X595000Y-1815000D01*
X595000Y-1785000D02*
X565000Y-1815000D01*
X585000Y4915000D02*
X615000Y4885000D01*
X615000Y4915000D02*
X585000Y4885000D01*
X585000Y795000D02*
X615000Y765000D01*
X615000Y795000D02*
X585000Y765000D01*
X585000Y705000D02*
X615000Y675000D01*
X615000Y705000D02*
X585000Y675000D01*
X585000Y-2165000D02*
X615000Y-2195000D01*
X615000Y-2165000D02*
X585000Y-2195000D01*
X585000Y-2345000D02*
X615000Y-2375000D01*
X615000Y-2345000D02*
X585000Y-2375000D01*
X585000Y-4885000D02*
X615000Y-4915000D01*
X615000Y-4885000D02*
X585000Y-4915000D01*
X610000Y1615000D02*
X640000Y1585000D01*
X640000Y1615000D02*
X610000Y1585000D01*
X611765Y578905D02*
X641765Y548905D01*
X641765Y578905D02*
X611765Y548905D01*
X625000Y-1225000D02*
X655000Y-1255000D01*
X655000Y-1225000D02*
X625000Y-1255000D01*
X625000Y-2725000D02*
X655000Y-2755000D01*
X655000Y-2725000D02*
X625000Y-2755000D01*
X625000Y-3225000D02*
X655000Y-3255000D01*
X655000Y-3225000D02*
X625000Y-3255000D01*
X665000Y-4305000D02*
X695000Y-4335000D01*
X695000Y-4305000D02*
X665000Y-4335000D01*
X665000Y-4725000D02*
X695000Y-4755000D01*
X695000Y-4725000D02*
X665000Y-4755000D01*
X675000Y645000D02*
X705000Y615000D01*
X705000Y645000D02*
X675000Y615000D01*
X705000Y2195000D02*
X735000Y2165000D01*
X735000Y2195000D02*
X705000Y2165000D01*
X705000Y1205000D02*
X735000Y1175000D01*
X735000Y1205000D02*
X705000Y1175000D01*
X710000Y1340000D02*
X740000Y1310000D01*
X740000Y1340000D02*
X710000Y1310000D01*
X760000Y365000D02*
X790000Y335000D01*
X790000Y365000D02*
X760000Y335000D01*
X785000Y505000D02*
X815000Y475000D01*
X815000Y505000D02*
X785000Y475000D01*
X785000Y-3885000D02*
X815000Y-3915000D01*
X815000Y-3885000D02*
X785000Y-3915000D01*
X785000Y-4885000D02*
X815000Y-4915000D01*
X815000Y-4885000D02*
X785000Y-4915000D01*
X810000Y1615000D02*
X840000Y1585000D01*
X840000Y1615000D02*
X810000Y1585000D01*
X835000Y-1785000D02*
X865000Y-1815000D01*
X865000Y-1785000D02*
X835000Y-1815000D01*
X855000Y2665000D02*
X885000Y2635000D01*
X885000Y2665000D02*
X855000Y2635000D01*
X865000Y-2185000D02*
X895000Y-2215000D01*
X895000Y-2185000D02*
X865000Y-2215000D01*
X895000Y1205000D02*
X925000Y1175000D01*
X925000Y1205000D02*
X895000Y1175000D01*
X925000Y4935000D02*
X955000Y4905000D01*
X955000Y4935000D02*
X925000Y4905000D01*
X925000Y4735000D02*
X955000Y4705000D01*
X955000Y4735000D02*
X925000Y4705000D01*
X925000Y4535000D02*
X955000Y4505000D01*
X955000Y4535000D02*
X925000Y4505000D01*
X925000Y4335000D02*
X955000Y4305000D01*
X955000Y4335000D02*
X925000Y4305000D01*
X925000Y4135000D02*
X955000Y4105000D01*
X955000Y4135000D02*
X925000Y4105000D01*
X925000Y-2565000D02*
X955000Y-2595000D01*
X955000Y-2565000D02*
X925000Y-2595000D01*
X925000Y-3325000D02*
X955000Y-3355000D01*
X955000Y-3325000D02*
X925000Y-3355000D01*
X935000Y2740000D02*
X965000Y2710000D01*
X965000Y2740000D02*
X935000Y2710000D01*
X935000Y1040000D02*
X965000Y1010000D01*
X965000Y1040000D02*
X935000Y1010000D01*
X945000Y3995000D02*
X975000Y3965000D01*
X975000Y3995000D02*
X945000Y3965000D01*
X945000Y3915000D02*
X975000Y3885000D01*
X975000Y3915000D02*
X945000Y3885000D01*
X945000Y3835000D02*
X975000Y3805000D01*
X975000Y3835000D02*
X945000Y3805000D01*
X960000Y90000D02*
X990000Y60000D01*
X990000Y90000D02*
X960000Y60000D01*
X965000Y-365000D02*
X995000Y-395000D01*
X995000Y-365000D02*
X965000Y-395000D01*
X965000Y-1325000D02*
X995000Y-1355000D01*
X995000Y-1325000D02*
X965000Y-1355000D01*
X985000Y3755000D02*
X1015000Y3725000D01*
X1015000Y3755000D02*
X985000Y3725000D01*
X985000Y3215000D02*
X1015000Y3185000D01*
X1015000Y3215000D02*
X985000Y3185000D01*
X985000Y1615000D02*
X1015000Y1585000D01*
X1015000Y1615000D02*
X985000Y1585000D01*
X985000Y-745000D02*
X1015000Y-775000D01*
X1015000Y-745000D02*
X985000Y-775000D01*
X985000Y-4885000D02*
X1015000Y-4915000D01*
X1015000Y-4885000D02*
X985000Y-4915000D01*
X1025000Y1025000D02*
X1055000Y995000D01*
X1055000Y1025000D02*
X1025000Y995000D01*
X1035000Y1115000D02*
X1065000Y1085000D01*
X1065000Y1115000D02*
X1035000Y1085000D01*
X1042573Y272574D02*
X1072574Y242573D01*
X1072574Y272574D02*
X1042573Y242573D01*
X1045000Y2715000D02*
X1075000Y2685000D01*
X1075000Y2715000D02*
X1045000Y2685000D01*
X1065000Y3695000D02*
X1095000Y3665000D01*
X1095000Y3695000D02*
X1065000Y3665000D01*
X1065000Y-265000D02*
X1095000Y-295000D01*
X1095000Y-265000D02*
X1065000Y-295000D01*
X1065000Y-2005000D02*
X1095000Y-2035000D01*
X1095000Y-2005000D02*
X1065000Y-2035000D01*
X1065000Y-2385000D02*
X1095000Y-2415000D01*
X1095000Y-2385000D02*
X1065000Y-2415000D01*
X1105000Y35000D02*
X1135000Y5000D01*
X1135000Y35000D02*
X1105000Y5000D01*
X1105000Y-565000D02*
X1135000Y-595000D01*
X1135000Y-565000D02*
X1105000Y-595000D01*
X1105000Y-2725000D02*
X1135000Y-2755000D01*
X1135000Y-2725000D02*
X1105000Y-2755000D01*
X1105000Y-3505000D02*
X1135000Y-3535000D01*
X1135000Y-3505000D02*
X1105000Y-3535000D01*
X1125000Y-3245000D02*
X1155000Y-3275000D01*
X1155000Y-3245000D02*
X1125000Y-3275000D01*
X1125000Y-3665000D02*
X1155000Y-3695000D01*
X1155000Y-3665000D02*
X1125000Y-3695000D01*
X1125000Y-3885000D02*
X1155000Y-3915000D01*
X1155000Y-3885000D02*
X1125000Y-3915000D01*
X1160000Y1615000D02*
X1190000Y1585000D01*
X1190000Y1615000D02*
X1160000Y1585000D01*
X1160000Y-1435000D02*
X1190000Y-1465000D01*
X1190000Y-1435000D02*
X1160000Y-1465000D01*
X1165000Y-1325000D02*
X1195000Y-1355000D01*
X1195000Y-1325000D02*
X1165000Y-1355000D01*
X1185000Y3695000D02*
X1215000Y3665000D01*
X1215000Y3695000D02*
X1185000Y3665000D01*
X1185000Y2715000D02*
X1215000Y2685000D01*
X1215000Y2715000D02*
X1185000Y2685000D01*
X1185000Y-4885000D02*
X1215000Y-4915000D01*
X1215000Y-4885000D02*
X1185000Y-4915000D01*
X1210000Y90000D02*
X1240000Y60000D01*
X1240000Y90000D02*
X1210000Y60000D01*
X1225000Y-465000D02*
X1255000Y-495000D01*
X1255000Y-465000D02*
X1225000Y-495000D01*
X1265000Y-2725000D02*
X1295000Y-2755000D01*
X1295000Y-2725000D02*
X1265000Y-2755000D01*
X1265000Y-3245000D02*
X1295000Y-3275000D01*
X1295000Y-3245000D02*
X1265000Y-3275000D01*
X1305000Y3695000D02*
X1335000Y3665000D01*
X1335000Y3695000D02*
X1305000Y3665000D01*
X1305000Y2715000D02*
X1335000Y2685000D01*
X1335000Y2715000D02*
X1305000Y2685000D01*
X1305000Y-2385000D02*
X1335000Y-2415000D01*
X1335000Y-2385000D02*
X1305000Y-2415000D01*
X1325000Y-205000D02*
X1355000Y-235000D01*
X1355000Y-205000D02*
X1325000Y-235000D01*
X1325000Y-885000D02*
X1355000Y-915000D01*
X1355000Y-885000D02*
X1325000Y-915000D01*
X1325000Y-1185000D02*
X1355000Y-1215000D01*
X1355000Y-1185000D02*
X1325000Y-1215000D01*
X1335000Y565000D02*
X1365000Y535000D01*
X1365000Y565000D02*
X1335000Y535000D01*
X1365000Y-4305000D02*
X1395000Y-4335000D01*
X1395000Y-4305000D02*
X1365000Y-4335000D01*
X1385000Y3755000D02*
X1415000Y3725000D01*
X1415000Y3755000D02*
X1385000Y3725000D01*
X1385000Y3215000D02*
X1415000Y3185000D01*
X1415000Y3215000D02*
X1385000Y3185000D01*
X1385000Y-2105000D02*
X1415000Y-2135000D01*
X1415000Y-2105000D02*
X1385000Y-2135000D01*
X1385000Y-4885000D02*
X1415000Y-4915000D01*
X1415000Y-4885000D02*
X1385000Y-4915000D01*
X1425000Y3995000D02*
X1455000Y3965000D01*
X1455000Y3995000D02*
X1425000Y3965000D01*
X1425000Y3915000D02*
X1455000Y3885000D01*
X1455000Y3915000D02*
X1425000Y3885000D01*
X1425000Y3835000D02*
X1455000Y3805000D01*
X1455000Y3835000D02*
X1425000Y3805000D01*
X1435000Y2340000D02*
X1465000Y2310000D01*
X1465000Y2340000D02*
X1435000Y2310000D01*
X1435000Y2215000D02*
X1465000Y2185000D01*
X1465000Y2215000D02*
X1435000Y2185000D01*
X1435000Y2090000D02*
X1465000Y2060000D01*
X1465000Y2090000D02*
X1435000Y2060000D01*
X1445000Y4935000D02*
X1475000Y4905000D01*
X1475000Y4935000D02*
X1445000Y4905000D01*
X1445000Y4735000D02*
X1475000Y4705000D01*
X1475000Y4735000D02*
X1445000Y4705000D01*
X1445000Y4535000D02*
X1475000Y4505000D01*
X1475000Y4535000D02*
X1445000Y4505000D01*
X1445000Y4335000D02*
X1475000Y4305000D01*
X1475000Y4335000D02*
X1445000Y4305000D01*
X1445000Y4135000D02*
X1475000Y4105000D01*
X1475000Y4135000D02*
X1445000Y4105000D01*
X1445000Y-1645000D02*
X1475000Y-1675000D01*
X1475000Y-1645000D02*
X1445000Y-1675000D01*
X1445000Y-2565000D02*
X1475000Y-2595000D01*
X1475000Y-2565000D02*
X1445000Y-2595000D01*
X1459722Y2008748D02*
X1489722Y1978748D01*
X1489722Y2008748D02*
X1459722Y1978748D01*
X1465000Y2555000D02*
X1495000Y2525000D01*
X1495000Y2555000D02*
X1465000Y2525000D01*
X1465000Y2455000D02*
X1495000Y2425000D01*
X1495000Y2455000D02*
X1465000Y2425000D01*
X1485000Y190000D02*
X1515000Y160000D01*
X1515000Y190000D02*
X1485000Y160000D01*
X1485000Y35000D02*
X1515000Y5000D01*
X1515000Y35000D02*
X1485000Y5000D01*
X1505000Y-205000D02*
X1535000Y-235000D01*
X1535000Y-205000D02*
X1505000Y-235000D01*
X1525000Y-1185000D02*
X1555000Y-1215000D01*
X1555000Y-1185000D02*
X1525000Y-1215000D01*
X1565000Y-4305000D02*
X1595000Y-4335000D01*
X1595000Y-4305000D02*
X1565000Y-4335000D01*
X1565000Y-4585000D02*
X1595000Y-4615000D01*
X1595000Y-4585000D02*
X1565000Y-4615000D01*
X1585000Y665000D02*
X1615000Y635000D01*
X1615000Y665000D02*
X1585000Y635000D01*
X1585000Y-3885000D02*
X1615000Y-3915000D01*
X1615000Y-3885000D02*
X1585000Y-3915000D01*
X1585000Y-4885000D02*
X1615000Y-4915000D01*
X1615000Y-4885000D02*
X1585000Y-4915000D01*
X1605000Y-765000D02*
X1635000Y-795000D01*
X1635000Y-765000D02*
X1605000Y-795000D01*
X1610000Y-1060000D02*
X1640000Y-1090000D01*
X1640000Y-1060000D02*
X1610000Y-1090000D01*
X1610000Y-3047500D02*
X1640000Y-3077500D01*
X1640000Y-3047500D02*
X1610000Y-3077500D01*
X1610000Y-3175500D02*
X1640000Y-3205500D01*
X1640000Y-3175500D02*
X1610000Y-3205500D01*
X1625000Y-545000D02*
X1655000Y-575000D01*
X1655000Y-545000D02*
X1625000Y-575000D01*
X1635000Y915000D02*
X1665000Y885000D01*
X1665000Y915000D02*
X1635000Y885000D01*
X1635000Y-410000D02*
X1665000Y-440000D01*
X1665000Y-410000D02*
X1635000Y-440000D01*
X1645000Y1855000D02*
X1675000Y1825000D01*
X1675000Y1855000D02*
X1645000Y1825000D01*
X1645000Y-2885000D02*
X1675000Y-2915000D01*
X1675000Y-2885000D02*
X1645000Y-2915000D01*
X1705000Y-3265000D02*
X1735000Y-3295000D01*
X1735000Y-3265000D02*
X1705000Y-3295000D01*
X1725000Y2315000D02*
X1755000Y2285000D01*
X1755000Y2315000D02*
X1725000Y2285000D01*
X1725000Y-3545000D02*
X1755000Y-3575000D01*
X1755000Y-3545000D02*
X1725000Y-3575000D01*
X1735000Y-3660000D02*
X1765000Y-3690000D01*
X1765000Y-3660000D02*
X1735000Y-3690000D01*
X1785000Y-765000D02*
X1815000Y-795000D01*
X1815000Y-765000D02*
X1785000Y-795000D01*
X1785000Y-3985000D02*
X1815000Y-4015000D01*
X1815000Y-3985000D02*
X1785000Y-4015000D01*
X1785000Y-4165000D02*
X1815000Y-4195000D01*
X1815000Y-4165000D02*
X1785000Y-4195000D01*
X1785000Y-4885000D02*
X1815000Y-4915000D01*
X1815000Y-4885000D02*
X1785000Y-4915000D01*
X1793750Y2490000D02*
X1823750Y2460000D01*
X1823750Y2490000D02*
X1793750Y2460000D01*
X1805000Y415000D02*
X1835000Y385000D01*
X1835000Y415000D02*
X1805000Y385000D01*
X1835000Y-4385000D02*
X1865000Y-4415000D01*
X1865000Y-4385000D02*
X1835000Y-4415000D01*
X1885000Y4915000D02*
X1915000Y4885000D01*
X1915000Y4915000D02*
X1885000Y4885000D01*
X1885000Y4415000D02*
X1915000Y4385000D01*
X1915000Y4415000D02*
X1885000Y4385000D01*
X1885594Y-997203D02*
X1915594Y-1027203D01*
X1915594Y-997203D02*
X1885594Y-1027203D01*
X1905000Y2135000D02*
X1935000Y2105000D01*
X1935000Y2135000D02*
X1905000Y2105000D01*
X1905000Y-2465000D02*
X1935000Y-2495000D01*
X1935000Y-2465000D02*
X1905000Y-2495000D01*
X1905000Y-2585000D02*
X1935000Y-2615000D01*
X1935000Y-2585000D02*
X1905000Y-2615000D01*
X1910000Y-1285000D02*
X1940000Y-1315000D01*
X1940000Y-1285000D02*
X1910000Y-1315000D01*
X1935000Y-1585000D02*
X1965000Y-1615000D01*
X1965000Y-1585000D02*
X1935000Y-1615000D01*
X1985000Y2495000D02*
X2015000Y2465000D01*
X2015000Y2495000D02*
X1985000Y2465000D01*
X1985000Y665000D02*
X2015000Y635000D01*
X2015000Y665000D02*
X1985000Y635000D01*
X1985000Y-4165000D02*
X2015000Y-4195000D01*
X2015000Y-4165000D02*
X1985000Y-4195000D01*
X1985000Y-4885000D02*
X2015000Y-4915000D01*
X2015000Y-4885000D02*
X1985000Y-4915000D01*
X2035000Y1915000D02*
X2065000Y1885000D01*
X2065000Y1915000D02*
X2035000Y1885000D01*
X2045000Y-2465000D02*
X2075000Y-2495000D01*
X2075000Y-2465000D02*
X2045000Y-2495000D01*
X2045000Y-2585000D02*
X2075000Y-2615000D01*
X2075000Y-2585000D02*
X2045000Y-2615000D01*
X2060000Y1240000D02*
X2090000Y1210000D01*
X2090000Y1240000D02*
X2060000Y1210000D01*
X2065000Y1355000D02*
X2095000Y1325000D01*
X2095000Y1355000D02*
X2065000Y1325000D01*
X2065000Y-1285000D02*
X2095000Y-1315000D01*
X2095000Y-1285000D02*
X2065000Y-1315000D01*
X2145000Y2315000D02*
X2175000Y2285000D01*
X2175000Y2315000D02*
X2145000Y2285000D01*
X2165000Y-3985000D02*
X2195000Y-4015000D01*
X2195000Y-3985000D02*
X2165000Y-4015000D01*
X2165000Y-4165000D02*
X2195000Y-4195000D01*
X2195000Y-4165000D02*
X2165000Y-4195000D01*
X2185000Y4915000D02*
X2215000Y4885000D01*
X2215000Y4915000D02*
X2185000Y4885000D01*
X2185000Y-4885000D02*
X2215000Y-4915000D01*
X2215000Y-4885000D02*
X2185000Y-4915000D01*
X2224513Y-2995730D02*
X2254513Y-3025730D01*
X2254513Y-2995730D02*
X2224513Y-3025730D01*
X2285000Y-760000D02*
X2315000Y-790000D01*
X2315000Y-760000D02*
X2285000Y-790000D01*
X2285000Y-885000D02*
X2315000Y-915000D01*
X2315000Y-885000D02*
X2285000Y-915000D01*
X2285000Y-1135000D02*
X2315000Y-1165000D01*
X2315000Y-1135000D02*
X2285000Y-1165000D01*
X2385000Y4915000D02*
X2415000Y4885000D01*
X2415000Y4915000D02*
X2385000Y4885000D01*
X2385000Y4715000D02*
X2415000Y4685000D01*
X2415000Y4715000D02*
X2385000Y4685000D01*
X2385000Y4515000D02*
X2415000Y4485000D01*
X2415000Y4515000D02*
X2385000Y4485000D01*
X2385000Y4315000D02*
X2415000Y4285000D01*
X2415000Y4315000D02*
X2385000Y4285000D01*
X2385000Y4115000D02*
X2415000Y4085000D01*
X2415000Y4115000D02*
X2385000Y4085000D01*
X2385000Y3915000D02*
X2415000Y3885000D01*
X2415000Y3915000D02*
X2385000Y3885000D01*
X2385000Y3715000D02*
X2415000Y3685000D01*
X2415000Y3715000D02*
X2385000Y3685000D01*
X2385000Y3515000D02*
X2415000Y3485000D01*
X2415000Y3515000D02*
X2385000Y3485000D01*
X2385000Y3315000D02*
X2415000Y3285000D01*
X2415000Y3315000D02*
X2385000Y3285000D01*
X2385000Y3115000D02*
X2415000Y3085000D01*
X2415000Y3115000D02*
X2385000Y3085000D01*
X2385000Y2915000D02*
X2415000Y2885000D01*
X2415000Y2915000D02*
X2385000Y2885000D01*
X2385000Y2715000D02*
X2415000Y2685000D01*
X2415000Y2715000D02*
X2385000Y2685000D01*
X2385000Y2515000D02*
X2415000Y2485000D01*
X2415000Y2515000D02*
X2385000Y2485000D01*
X2385000Y2315000D02*
X2415000Y2285000D01*
X2415000Y2315000D02*
X2385000Y2285000D01*
X2385000Y2115000D02*
X2415000Y2085000D01*
X2415000Y2115000D02*
X2385000Y2085000D01*
X2385000Y1915000D02*
X2415000Y1885000D01*
X2415000Y1915000D02*
X2385000Y1885000D01*
X2385000Y1715000D02*
X2415000Y1685000D01*
X2415000Y1715000D02*
X2385000Y1685000D01*
X2385000Y1515000D02*
X2415000Y1485000D01*
X2415000Y1515000D02*
X2385000Y1485000D01*
X2385000Y1315000D02*
X2415000Y1285000D01*
X2415000Y1315000D02*
X2385000Y1285000D01*
X2385000Y1115000D02*
X2415000Y1085000D01*
X2415000Y1115000D02*
X2385000Y1085000D01*
X2385000Y915000D02*
X2415000Y885000D01*
X2415000Y915000D02*
X2385000Y885000D01*
X2385000Y715000D02*
X2415000Y685000D01*
X2415000Y715000D02*
X2385000Y685000D01*
X2385000Y315000D02*
X2415000Y285000D01*
X2415000Y315000D02*
X2385000Y285000D01*
X2385000Y-285000D02*
X2415000Y-315000D01*
X2415000Y-285000D02*
X2385000Y-315000D01*
X2385000Y-585000D02*
X2415000Y-615000D01*
X2415000Y-585000D02*
X2385000Y-615000D01*
X2385000Y-885000D02*
X2415000Y-915000D01*
X2415000Y-885000D02*
X2385000Y-915000D01*
X2385000Y-1285000D02*
X2415000Y-1315000D01*
X2415000Y-1285000D02*
X2385000Y-1315000D01*
X2385000Y-1485000D02*
X2415000Y-1515000D01*
X2415000Y-1485000D02*
X2385000Y-1515000D01*
X2385000Y-1685000D02*
X2415000Y-1715000D01*
X2415000Y-1685000D02*
X2385000Y-1715000D01*
X2385000Y-1885000D02*
X2415000Y-1915000D01*
X2415000Y-1885000D02*
X2385000Y-1915000D01*
X2385000Y-2085000D02*
X2415000Y-2115000D01*
X2415000Y-2085000D02*
X2385000Y-2115000D01*
X2385000Y-2285000D02*
X2415000Y-2315000D01*
X2415000Y-2285000D02*
X2385000Y-2315000D01*
X2385000Y-2485000D02*
X2415000Y-2515000D01*
X2415000Y-2485000D02*
X2385000Y-2515000D01*
X2385000Y-2685000D02*
X2415000Y-2715000D01*
X2415000Y-2685000D02*
X2385000Y-2715000D01*
X2385000Y-2885000D02*
X2415000Y-2915000D01*
X2415000Y-2885000D02*
X2385000Y-2915000D01*
X2385000Y-3085000D02*
X2415000Y-3115000D01*
X2415000Y-3085000D02*
X2385000Y-3115000D01*
X2385000Y-3285000D02*
X2415000Y-3315000D01*
X2415000Y-3285000D02*
X2385000Y-3315000D01*
X2385000Y-3485000D02*
X2415000Y-3515000D01*
X2415000Y-3485000D02*
X2385000Y-3515000D01*
X2385000Y-3685000D02*
X2415000Y-3715000D01*
X2415000Y-3685000D02*
X2385000Y-3715000D01*
X2385000Y-3885000D02*
X2415000Y-3915000D01*
X2415000Y-3885000D02*
X2385000Y-3915000D01*
X2385000Y-4085000D02*
X2415000Y-4115000D01*
X2415000Y-4085000D02*
X2385000Y-4115000D01*
X2385000Y-4285000D02*
X2415000Y-4315000D01*
X2415000Y-4285000D02*
X2385000Y-4315000D01*
X2385000Y-4485000D02*
X2415000Y-4515000D01*
X2415000Y-4485000D02*
X2385000Y-4515000D01*
X2385000Y-4685000D02*
X2415000Y-4715000D01*
X2415000Y-4685000D02*
X2385000Y-4715000D01*
X2385000Y-4885000D02*
X2415000Y-4915000D01*
X2415000Y-4885000D02*
X2385000Y-4915000D01*
X-1285000Y-2500000D02*
G75*
G02*
X-1315000Y-2500000I-15000J0D01*
G01*
X-1315000Y-2500000D02*
G75*
G02*
X-1285000Y-2500000I15000J0D01*
G01*
X-1285000Y-2700000D02*
G75*
G02*
X-1315000Y-2700000I-15000J0D01*
G01*
X-1315000Y-2700000D02*
G75*
G02*
X-1285000Y-2700000I15000J0D01*
G01*
X-1185000Y-2600000D02*
G75*
G02*
X-1215000Y-2600000I-15000J0D01*
G01*
X-1215000Y-2600000D02*
G75*
G02*
X-1185000Y-2600000I15000J0D01*
G01*
X-1085000Y-2500000D02*
G75*
G02*
X-1115000Y-2500000I-15000J0D01*
G01*
X-1115000Y-2500000D02*
G75*
G02*
X-1085000Y-2500000I15000J0D01*
G01*
X-1085000Y-2700000D02*
G75*
G02*
X-1115000Y-2700000I-15000J0D01*
G01*
X-1115000Y-2700000D02*
G75*
G02*
X-1085000Y-2700000I15000J0D01*
G01*
X-432000Y-4289500D02*
X-432000Y-4349500D01*
X-462000Y-4319500D02*
X-402000Y-4319500D01*
X-402000Y-4374500D02*
X-402000Y-4264500D01*
X-462000Y-4264500D02*
G75*
G02*
X-402000Y-4264500I30000J0D01*
G01*
X-462000Y-4264500D02*
X-462000Y-4374500D01*
X-462000Y-4374500D02*
G75*
G03*
X-402000Y-4374500I30000J0D01*
G01*
X-432000Y-4707500D02*
X-432000Y-4767500D01*
X-462000Y-4737500D02*
X-402000Y-4737500D01*
X-402000Y-4777500D02*
X-402000Y-4697500D01*
X-462000Y-4697500D02*
G75*
G02*
X-402000Y-4697500I30000J0D01*
G01*
X-462000Y-4697500D02*
X-462000Y-4777500D01*
X-462000Y-4777500D02*
G75*
G03*
X-402000Y-4777500I30000J0D01*
G01*
X432000Y-4289500D02*
X432000Y-4349500D01*
X402000Y-4319500D02*
X462000Y-4319500D01*
X462000Y-4374500D02*
X462000Y-4264500D01*
X402000Y-4264500D02*
G75*
G02*
X462000Y-4264500I30000J0D01*
G01*
X402000Y-4264500D02*
X402000Y-4374500D01*
X402000Y-4374500D02*
G75*
G03*
X462000Y-4374500I30000J0D01*
G01*
X432000Y-4707500D02*
X432000Y-4767500D01*
X402000Y-4737500D02*
X462000Y-4737500D01*
X462000Y-4777500D02*
X462000Y-4697500D01*
X402000Y-4697500D02*
G75*
G02*
X462000Y-4697500I30000J0D01*
G01*
X402000Y-4697500D02*
X402000Y-4777500D01*
X402000Y-4777500D02*
G75*
G03*
X462000Y-4777500I30000J0D01*
G01*
X-1171716Y-3928284D02*
X-1171716Y-3871715D01*
X-1228285Y-3871715D01*
X-1228285Y-3928284D01*
X-1171716Y-3928284D01*
X-1160000Y-4010000D02*
X-1160000Y-3790000D01*
X-1240000Y-3790000D02*
G75*
G02*
X-1160000Y-3790000I40000J0D01*
G01*
X-1240000Y-3790000D02*
X-1240000Y-4010000D01*
X-1240000Y-4010000D02*
G75*
G03*
X-1160000Y-4010000I40000J0D01*
G01*
X-1171716Y-4528285D02*
X-1171716Y-4471716D01*
X-1228285Y-4471716D01*
X-1228285Y-4528285D01*
X-1171716Y-4528285D01*
X-1160000Y-4610000D02*
X-1160000Y-4390000D01*
X-1240000Y-4390000D02*
G75*
G02*
X-1160000Y-4390000I40000J0D01*
G01*
X-1240000Y-4390000D02*
X-1240000Y-4610000D01*
X-1240000Y-4610000D02*
G75*
G03*
X-1160000Y-4610000I40000J0D01*
G01*
X2028284Y-3828284D02*
X2028284Y-3771715D01*
X1971715Y-3771715D01*
X1971715Y-3828284D01*
X2028284Y-3828284D01*
X2028284Y-4028284D02*
X2028284Y-3971715D01*
X1971715Y-3971715D01*
X1971715Y-4028284D01*
X2028284Y-4028284D01*
X-1143000Y-945000D02*
X-1098000Y-900000D01*
X-1143000Y-855000D01*
X-1188000Y-900000D01*
X-1143000Y-945000D01*
X-889000Y-945000D02*
X-844000Y-900000D01*
X-889000Y-855000D01*
X-934000Y-900000D01*
X-889000Y-945000D01*
X-635000Y-945000D02*
X-590000Y-900000D01*
X-635000Y-855000D01*
X-680000Y-900000D01*
X-635000Y-945000D01*
X-381000Y-945000D02*
X-336000Y-900000D01*
X-381000Y-855000D01*
X-426000Y-900000D01*
X-381000Y-945000D01*
X-127000Y-945000D02*
X-82000Y-900000D01*
X-127000Y-855000D01*
X-172000Y-900000D01*
X-127000Y-945000D01*
X127000Y-945000D02*
X172000Y-900000D01*
X127000Y-855000D01*
X82000Y-900000D01*
X127000Y-945000D01*
X381000Y-945000D02*
X426000Y-900000D01*
X381000Y-855000D01*
X336000Y-900000D01*
X381000Y-945000D01*
X635000Y-945000D02*
X680000Y-900000D01*
X635000Y-855000D01*
X590000Y-900000D01*
X635000Y-945000D01*
X889000Y-945000D02*
X934000Y-900000D01*
X889000Y-855000D01*
X844000Y-900000D01*
X889000Y-945000D01*
X1143000Y-945000D02*
X1188000Y-900000D01*
X1143000Y-855000D01*
X1098000Y-900000D01*
X1143000Y-945000D01*
X1773000Y4055000D02*
X1818000Y4100000D01*
X1773000Y4145000D01*
X1728000Y4100000D01*
X1773000Y4055000D01*
X1773000Y3455000D02*
X1818000Y3500000D01*
X1773000Y3545000D01*
X1728000Y3500000D01*
X1773000Y3455000D01*
X1773000Y2855000D02*
X1818000Y2900000D01*
X1773000Y2945000D01*
X1728000Y2900000D01*
X1773000Y2855000D01*
X2027000Y4055000D02*
X2072000Y4100000D01*
X2027000Y4145000D01*
X1982000Y4100000D01*
X2027000Y4055000D01*
X2027000Y3455000D02*
X2072000Y3500000D01*
X2027000Y3545000D01*
X1982000Y3500000D01*
X2027000Y3455000D01*
X2027000Y2855000D02*
X2072000Y2900000D01*
X2027000Y2945000D01*
X1982000Y2900000D01*
X2027000Y2855000D01*
X-2350000Y804000D02*
X-2250000Y704000D01*
X-2250000Y804000D02*
X-2350000Y704000D01*
X-2250000Y754000D02*
G75*
G02*
X-2350000Y754000I-50000J0D01*
G01*
X-2350000Y754000D02*
G75*
G02*
X-2250000Y754000I50000J0D01*
G01*
X-2350000Y550000D02*
X-2250000Y450000D01*
X-2250000Y550000D02*
X-2350000Y450000D01*
X-2250000Y500000D02*
G75*
G02*
X-2350000Y500000I-50000J0D01*
G01*
X-2350000Y500000D02*
G75*
G02*
X-2250000Y500000I50000J0D01*
G01*
X-2350000Y296000D02*
X-2250000Y196000D01*
X-2250000Y296000D02*
X-2350000Y196000D01*
X-2250000Y246000D02*
G75*
G02*
X-2350000Y246000I-50000J0D01*
G01*
X-2350000Y246000D02*
G75*
G02*
X-2250000Y246000I50000J0D01*
G01*
X-2350000Y-515000D02*
X-2250000Y-615000D01*
X-2250000Y-515000D02*
X-2350000Y-615000D01*
X-2250000Y-565000D02*
G75*
G02*
X-2350000Y-565000I-50000J0D01*
G01*
X-2350000Y-565000D02*
G75*
G02*
X-2250000Y-565000I50000J0D01*
G01*
X-2350000Y-769000D02*
X-2250000Y-869000D01*
X-2250000Y-769000D02*
X-2350000Y-869000D01*
X-2250000Y-819000D02*
G75*
G02*
X-2350000Y-819000I-50000J0D01*
G01*
X-2350000Y-819000D02*
G75*
G02*
X-2250000Y-819000I50000J0D01*
G01*
X-2350000Y-1023000D02*
X-2250000Y-1123000D01*
X-2250000Y-1023000D02*
X-2350000Y-1123000D01*
X-2250000Y-1073000D02*
G75*
G02*
X-2350000Y-1073000I-50000J0D01*
G01*
X-2350000Y-1073000D02*
G75*
G02*
X-2250000Y-1073000I50000J0D01*
G01*
X-2350000Y-1277000D02*
X-2250000Y-1377000D01*
X-2250000Y-1277000D02*
X-2350000Y-1377000D01*
X-2250000Y-1327000D02*
G75*
G02*
X-2350000Y-1327000I-50000J0D01*
G01*
X-2350000Y-1327000D02*
G75*
G02*
X-2250000Y-1327000I50000J0D01*
G01*
X-2350000Y-1531000D02*
X-2250000Y-1631000D01*
X-2250000Y-1531000D02*
X-2350000Y-1631000D01*
X-2250000Y-1581000D02*
G75*
G02*
X-2350000Y-1581000I-50000J0D01*
G01*
X-2350000Y-1581000D02*
G75*
G02*
X-2250000Y-1581000I50000J0D01*
G01*
X-2350000Y-1785000D02*
X-2250000Y-1885000D01*
X-2250000Y-1785000D02*
X-2350000Y-1885000D01*
X-2250000Y-1835000D02*
G75*
G02*
X-2350000Y-1835000I-50000J0D01*
G01*
X-2350000Y-1835000D02*
G75*
G02*
X-2250000Y-1835000I50000J0D01*
G01*
X-2350000Y-2596000D02*
X-2250000Y-2696000D01*
X-2250000Y-2596000D02*
X-2350000Y-2696000D01*
X-2250000Y-2646000D02*
G75*
G02*
X-2350000Y-2646000I-50000J0D01*
G01*
X-2350000Y-2646000D02*
G75*
G02*
X-2250000Y-2646000I50000J0D01*
G01*
X-2350000Y-2850000D02*
X-2250000Y-2950000D01*
X-2250000Y-2850000D02*
X-2350000Y-2950000D01*
X-2250000Y-2900000D02*
G75*
G02*
X-2350000Y-2900000I-50000J0D01*
G01*
X-2350000Y-2900000D02*
G75*
G02*
X-2250000Y-2900000I50000J0D01*
G01*
X-2350000Y-3104000D02*
X-2250000Y-3204000D01*
X-2250000Y-3104000D02*
X-2350000Y-3204000D01*
X-2250000Y-3154000D02*
G75*
G02*
X-2350000Y-3154000I-50000J0D01*
G01*
X-2350000Y-3154000D02*
G75*
G02*
X-2250000Y-3154000I50000J0D01*
G01*
D11*
X-2244223Y-5316484D02*
X-2244223Y-5116484D01*
X-2244223Y-5116484D02*
X-2196604Y-5116484D01*
X-2196604Y-5116484D02*
X-2168033Y-5126008D01*
X-2168033Y-5126008D02*
X-2148985Y-5145055D01*
X-2148985Y-5145055D02*
X-2139461Y-5164103D01*
X-2139461Y-5164103D02*
X-2129938Y-5202198D01*
X-2129938Y-5202198D02*
X-2129938Y-5230770D01*
X-2129938Y-5230770D02*
X-2139461Y-5268865D01*
X-2139461Y-5268865D02*
X-2148985Y-5287912D01*
X-2148985Y-5287912D02*
X-2168033Y-5306960D01*
X-2168033Y-5306960D02*
X-2196604Y-5316484D01*
X-2196604Y-5316484D02*
X-2244223Y-5316484D01*
X-2044223Y-5316484D02*
X-2044223Y-5183150D01*
X-2044223Y-5221246D02*
X-2034699Y-5202198D01*
X-2034699Y-5202198D02*
X-2025176Y-5192674D01*
X-2025176Y-5192674D02*
X-2006128Y-5183150D01*
X-2006128Y-5183150D02*
X-1987080Y-5183150D01*
X-1920414Y-5316484D02*
X-1920414Y-5183150D01*
X-1920414Y-5116484D02*
X-1929937Y-5126008D01*
X-1929937Y-5126008D02*
X-1920414Y-5135531D01*
X-1920414Y-5135531D02*
X-1910890Y-5126008D01*
X-1910890Y-5126008D02*
X-1920414Y-5116484D01*
X-1920414Y-5116484D02*
X-1920414Y-5135531D01*
X-1796604Y-5316484D02*
X-1815652Y-5306960D01*
X-1815652Y-5306960D02*
X-1825176Y-5287912D01*
X-1825176Y-5287912D02*
X-1825176Y-5116484D01*
X-1691842Y-5316484D02*
X-1710890Y-5306960D01*
X-1710890Y-5306960D02*
X-1720414Y-5287912D01*
X-1720414Y-5287912D02*
X-1720414Y-5116484D01*
X-1463271Y-5316484D02*
X-1463271Y-5116484D01*
X-1463271Y-5116484D02*
X-1396604Y-5259341D01*
X-1396604Y-5259341D02*
X-1329938Y-5116484D01*
X-1329938Y-5116484D02*
X-1329938Y-5316484D01*
X-1148985Y-5316484D02*
X-1148985Y-5211722D01*
X-1148985Y-5211722D02*
X-1158509Y-5192674D01*
X-1158509Y-5192674D02*
X-1177557Y-5183150D01*
X-1177557Y-5183150D02*
X-1215652Y-5183150D01*
X-1215652Y-5183150D02*
X-1234699Y-5192674D01*
X-1148985Y-5306960D02*
X-1168033Y-5316484D01*
X-1168033Y-5316484D02*
X-1215652Y-5316484D01*
X-1215652Y-5316484D02*
X-1234699Y-5306960D01*
X-1234699Y-5306960D02*
X-1244223Y-5287912D01*
X-1244223Y-5287912D02*
X-1244223Y-5268865D01*
X-1244223Y-5268865D02*
X-1234699Y-5249817D01*
X-1234699Y-5249817D02*
X-1215652Y-5240293D01*
X-1215652Y-5240293D02*
X-1168033Y-5240293D01*
X-1168033Y-5240293D02*
X-1148985Y-5230770D01*
X-1053747Y-5183150D02*
X-1053747Y-5383150D01*
X-1053747Y-5192674D02*
X-1034699Y-5183150D01*
X-1034699Y-5183150D02*
X-996604Y-5183150D01*
X-996604Y-5183150D02*
X-977556Y-5192674D01*
X-977556Y-5192674D02*
X-968033Y-5202198D01*
X-968033Y-5202198D02*
X-958509Y-5221246D01*
X-958509Y-5221246D02*
X-958509Y-5278389D01*
X-958509Y-5278389D02*
X-968033Y-5297436D01*
X-968033Y-5297436D02*
X-977556Y-5306960D01*
X-977556Y-5306960D02*
X-996604Y-5316484D01*
X-996604Y-5316484D02*
X-1034699Y-5316484D01*
X-1034699Y-5316484D02*
X-1053747Y-5306960D01*
X-872795Y-5297436D02*
X-863271Y-5306960D01*
X-863271Y-5306960D02*
X-872795Y-5316484D01*
X-872795Y-5316484D02*
X-882318Y-5306960D01*
X-882318Y-5306960D02*
X-872795Y-5297436D01*
X-872795Y-5297436D02*
X-872795Y-5316484D01*
X-872795Y-5192674D02*
X-863271Y-5202198D01*
X-863271Y-5202198D02*
X-872795Y-5211722D01*
X-872795Y-5211722D02*
X-882318Y-5202198D01*
X-882318Y-5202198D02*
X-872795Y-5192674D01*
X-872795Y-5192674D02*
X-872795Y-5211722D01*
D10*
X-2535000Y-5630000D02*
X-2505000Y-5660000D01*
X-2505000Y-5630000D02*
X-2535000Y-5660000D01*
D11*
X-2206128Y-5536484D02*
X-2187080Y-5536484D01*
X-2187080Y-5536484D02*
X-2168033Y-5546008D01*
X-2168033Y-5546008D02*
X-2158509Y-5555531D01*
X-2158509Y-5555531D02*
X-2148985Y-5574579D01*
X-2148985Y-5574579D02*
X-2139461Y-5612674D01*
X-2139461Y-5612674D02*
X-2139461Y-5660293D01*
X-2139461Y-5660293D02*
X-2148985Y-5698388D01*
X-2148985Y-5698388D02*
X-2158509Y-5717436D01*
X-2158509Y-5717436D02*
X-2168033Y-5726960D01*
X-2168033Y-5726960D02*
X-2187080Y-5736484D01*
X-2187080Y-5736484D02*
X-2206128Y-5736484D01*
X-2206128Y-5736484D02*
X-2225176Y-5726960D01*
X-2225176Y-5726960D02*
X-2234699Y-5717436D01*
X-2234699Y-5717436D02*
X-2244223Y-5698388D01*
X-2244223Y-5698388D02*
X-2253747Y-5660293D01*
X-2253747Y-5660293D02*
X-2253747Y-5612674D01*
X-2253747Y-5612674D02*
X-2244223Y-5574579D01*
X-2244223Y-5574579D02*
X-2234699Y-5555531D01*
X-2234699Y-5555531D02*
X-2225176Y-5546008D01*
X-2225176Y-5546008D02*
X-2206128Y-5536484D01*
X-2053747Y-5717436D02*
X-2044223Y-5726960D01*
X-2044223Y-5726960D02*
X-2053747Y-5736484D01*
X-2053747Y-5736484D02*
X-2063271Y-5726960D01*
X-2063271Y-5726960D02*
X-2053747Y-5717436D01*
X-2053747Y-5717436D02*
X-2053747Y-5736484D01*
X-1977556Y-5536484D02*
X-1853747Y-5536484D01*
X-1853747Y-5536484D02*
X-1920414Y-5612674D01*
X-1920414Y-5612674D02*
X-1891842Y-5612674D01*
X-1891842Y-5612674D02*
X-1872795Y-5622198D01*
X-1872795Y-5622198D02*
X-1863271Y-5631722D01*
X-1863271Y-5631722D02*
X-1853747Y-5650769D01*
X-1853747Y-5650769D02*
X-1853747Y-5698388D01*
X-1853747Y-5698388D02*
X-1863271Y-5717436D01*
X-1863271Y-5717436D02*
X-1872795Y-5726960D01*
X-1872795Y-5726960D02*
X-1891842Y-5736484D01*
X-1891842Y-5736484D02*
X-1948985Y-5736484D01*
X-1948985Y-5736484D02*
X-1968033Y-5726960D01*
X-1968033Y-5726960D02*
X-1977556Y-5717436D01*
X-1729937Y-5536484D02*
X-1710890Y-5536484D01*
X-1710890Y-5536484D02*
X-1691842Y-5546008D01*
X-1691842Y-5546008D02*
X-1682318Y-5555531D01*
X-1682318Y-5555531D02*
X-1672795Y-5574579D01*
X-1672795Y-5574579D02*
X-1663271Y-5612674D01*
X-1663271Y-5612674D02*
X-1663271Y-5660293D01*
X-1663271Y-5660293D02*
X-1672795Y-5698388D01*
X-1672795Y-5698388D02*
X-1682318Y-5717436D01*
X-1682318Y-5717436D02*
X-1691842Y-5726960D01*
X-1691842Y-5726960D02*
X-1710890Y-5736484D01*
X-1710890Y-5736484D02*
X-1729937Y-5736484D01*
X-1729937Y-5736484D02*
X-1748985Y-5726960D01*
X-1748985Y-5726960D02*
X-1758509Y-5717436D01*
X-1758509Y-5717436D02*
X-1768033Y-5698388D01*
X-1768033Y-5698388D02*
X-1777556Y-5660293D01*
X-1777556Y-5660293D02*
X-1777556Y-5612674D01*
X-1777556Y-5612674D02*
X-1768033Y-5574579D01*
X-1768033Y-5574579D02*
X-1758509Y-5555531D01*
X-1758509Y-5555531D02*
X-1748985Y-5546008D01*
X-1748985Y-5546008D02*
X-1729937Y-5536484D01*
X-1539461Y-5536484D02*
X-1520414Y-5536484D01*
X-1520414Y-5536484D02*
X-1501366Y-5546008D01*
X-1501366Y-5546008D02*
X-1491842Y-5555531D01*
X-1491842Y-5555531D02*
X-1482318Y-5574579D01*
X-1482318Y-5574579D02*
X-1472795Y-5612674D01*
X-1472795Y-5612674D02*
X-1472795Y-5660293D01*
X-1472795Y-5660293D02*
X-1482318Y-5698388D01*
X-1482318Y-5698388D02*
X-1491842Y-5717436D01*
X-1491842Y-5717436D02*
X-1501366Y-5726960D01*
X-1501366Y-5726960D02*
X-1520414Y-5736484D01*
X-1520414Y-5736484D02*
X-1539461Y-5736484D01*
X-1539461Y-5736484D02*
X-1558509Y-5726960D01*
X-1558509Y-5726960D02*
X-1568033Y-5717436D01*
X-1568033Y-5717436D02*
X-1577556Y-5698388D01*
X-1577556Y-5698388D02*
X-1587080Y-5660293D01*
X-1587080Y-5660293D02*
X-1587080Y-5612674D01*
X-1587080Y-5612674D02*
X-1577556Y-5574579D01*
X-1577556Y-5574579D02*
X-1568033Y-5555531D01*
X-1568033Y-5555531D02*
X-1558509Y-5546008D01*
X-1558509Y-5546008D02*
X-1539461Y-5536484D01*
X-1387080Y-5736484D02*
X-1387080Y-5603150D01*
X-1387080Y-5622198D02*
X-1377557Y-5612674D01*
X-1377557Y-5612674D02*
X-1358509Y-5603150D01*
X-1358509Y-5603150D02*
X-1329937Y-5603150D01*
X-1329937Y-5603150D02*
X-1310890Y-5612674D01*
X-1310890Y-5612674D02*
X-1301366Y-5631722D01*
X-1301366Y-5631722D02*
X-1301366Y-5736484D01*
X-1301366Y-5631722D02*
X-1291842Y-5612674D01*
X-1291842Y-5612674D02*
X-1272795Y-5603150D01*
X-1272795Y-5603150D02*
X-1244223Y-5603150D01*
X-1244223Y-5603150D02*
X-1225176Y-5612674D01*
X-1225176Y-5612674D02*
X-1215652Y-5631722D01*
X-1215652Y-5631722D02*
X-1215652Y-5736484D01*
X-1120414Y-5736484D02*
X-1120414Y-5603150D01*
X-1120414Y-5622198D02*
X-1110890Y-5612674D01*
X-1110890Y-5612674D02*
X-1091842Y-5603150D01*
X-1091842Y-5603150D02*
X-1063271Y-5603150D01*
X-1063271Y-5603150D02*
X-1044223Y-5612674D01*
X-1044223Y-5612674D02*
X-1034699Y-5631722D01*
X-1034699Y-5631722D02*
X-1034699Y-5736484D01*
X-1034699Y-5631722D02*
X-1025175Y-5612674D01*
X-1025175Y-5612674D02*
X-1006128Y-5603150D01*
X-1006128Y-5603150D02*
X-977556Y-5603150D01*
X-977556Y-5603150D02*
X-958509Y-5612674D01*
X-958509Y-5612674D02*
X-948985Y-5631722D01*
X-948985Y-5631722D02*
X-948985Y-5736484D01*
X-558509Y-5526960D02*
X-729937Y-5784103D01*
X-301366Y-5536484D02*
X-282318Y-5536484D01*
X-282318Y-5536484D02*
X-263271Y-5546008D01*
X-263271Y-5546008D02*
X-253747Y-5555531D01*
X-253747Y-5555531D02*
X-244223Y-5574579D01*
X-244223Y-5574579D02*
X-234699Y-5612674D01*
X-234699Y-5612674D02*
X-234699Y-5660293D01*
X-234699Y-5660293D02*
X-244223Y-5698388D01*
X-244223Y-5698388D02*
X-253747Y-5717436D01*
X-253747Y-5717436D02*
X-263271Y-5726960D01*
X-263271Y-5726960D02*
X-282318Y-5736484D01*
X-282318Y-5736484D02*
X-301366Y-5736484D01*
X-301366Y-5736484D02*
X-320414Y-5726960D01*
X-320414Y-5726960D02*
X-329937Y-5717436D01*
X-329937Y-5717436D02*
X-339461Y-5698388D01*
X-339461Y-5698388D02*
X-348985Y-5660293D01*
X-348985Y-5660293D02*
X-348985Y-5612674D01*
X-348985Y-5612674D02*
X-339461Y-5574579D01*
X-339461Y-5574579D02*
X-329937Y-5555531D01*
X-329937Y-5555531D02*
X-320414Y-5546008D01*
X-320414Y-5546008D02*
X-301366Y-5536484D01*
X-148985Y-5717436D02*
X-139461Y-5726960D01*
X-139461Y-5726960D02*
X-148985Y-5736484D01*
X-148985Y-5736484D02*
X-158509Y-5726960D01*
X-158509Y-5726960D02*
X-148985Y-5717436D01*
X-148985Y-5717436D02*
X-148985Y-5736484D01*
X-15652Y-5536484D02*
X3396Y-5536484D01*
X3396Y-5536484D02*
X22444Y-5546008D01*
X22444Y-5546008D02*
X31967Y-5555531D01*
X31967Y-5555531D02*
X41491Y-5574579D01*
X41491Y-5574579D02*
X51015Y-5612674D01*
X51015Y-5612674D02*
X51015Y-5660293D01*
X51015Y-5660293D02*
X41491Y-5698388D01*
X41491Y-5698388D02*
X31967Y-5717436D01*
X31967Y-5717436D02*
X22444Y-5726960D01*
X22444Y-5726960D02*
X3396Y-5736484D01*
X3396Y-5736484D02*
X-15652Y-5736484D01*
X-15652Y-5736484D02*
X-34699Y-5726960D01*
X-34699Y-5726960D02*
X-44223Y-5717436D01*
X-44223Y-5717436D02*
X-53747Y-5698388D01*
X-53747Y-5698388D02*
X-63271Y-5660293D01*
X-63271Y-5660293D02*
X-63271Y-5612674D01*
X-63271Y-5612674D02*
X-53747Y-5574579D01*
X-53747Y-5574579D02*
X-44223Y-5555531D01*
X-44223Y-5555531D02*
X-34699Y-5546008D01*
X-34699Y-5546008D02*
X-15652Y-5536484D01*
X241491Y-5736484D02*
X127206Y-5736484D01*
X184348Y-5736484D02*
X184348Y-5536484D01*
X184348Y-5536484D02*
X165301Y-5565055D01*
X165301Y-5565055D02*
X146253Y-5584103D01*
X146253Y-5584103D02*
X127206Y-5593627D01*
X431967Y-5736484D02*
X317682Y-5736484D01*
X374825Y-5736484D02*
X374825Y-5536484D01*
X374825Y-5536484D02*
X355777Y-5565055D01*
X355777Y-5565055D02*
X336729Y-5584103D01*
X336729Y-5584103D02*
X317682Y-5593627D01*
X546253Y-5622198D02*
X527206Y-5612674D01*
X527206Y-5612674D02*
X517682Y-5603150D01*
X517682Y-5603150D02*
X508158Y-5584103D01*
X508158Y-5584103D02*
X508158Y-5574579D01*
X508158Y-5574579D02*
X517682Y-5555531D01*
X517682Y-5555531D02*
X527206Y-5546008D01*
X527206Y-5546008D02*
X546253Y-5536484D01*
X546253Y-5536484D02*
X584349Y-5536484D01*
X584349Y-5536484D02*
X603396Y-5546008D01*
X603396Y-5546008D02*
X612920Y-5555531D01*
X612920Y-5555531D02*
X622444Y-5574579D01*
X622444Y-5574579D02*
X622444Y-5584103D01*
X622444Y-5584103D02*
X612920Y-5603150D01*
X612920Y-5603150D02*
X603396Y-5612674D01*
X603396Y-5612674D02*
X584349Y-5622198D01*
X584349Y-5622198D02*
X546253Y-5622198D01*
X546253Y-5622198D02*
X527206Y-5631722D01*
X527206Y-5631722D02*
X517682Y-5641246D01*
X517682Y-5641246D02*
X508158Y-5660293D01*
X508158Y-5660293D02*
X508158Y-5698388D01*
X508158Y-5698388D02*
X517682Y-5717436D01*
X517682Y-5717436D02*
X527206Y-5726960D01*
X527206Y-5726960D02*
X546253Y-5736484D01*
X546253Y-5736484D02*
X584349Y-5736484D01*
X584349Y-5736484D02*
X603396Y-5726960D01*
X603396Y-5726960D02*
X612920Y-5717436D01*
X612920Y-5717436D02*
X622444Y-5698388D01*
X622444Y-5698388D02*
X622444Y-5660293D01*
X622444Y-5660293D02*
X612920Y-5641246D01*
X612920Y-5641246D02*
X603396Y-5631722D01*
X603396Y-5631722D02*
X584349Y-5622198D01*
X698634Y-5536484D02*
X698634Y-5574579D01*
X774825Y-5536484D02*
X774825Y-5574579D01*
X1070063Y-5812674D02*
X1060539Y-5803150D01*
X1060539Y-5803150D02*
X1041491Y-5774579D01*
X1041491Y-5774579D02*
X1031968Y-5755531D01*
X1031968Y-5755531D02*
X1022444Y-5726960D01*
X1022444Y-5726960D02*
X1012920Y-5679341D01*
X1012920Y-5679341D02*
X1012920Y-5641246D01*
X1012920Y-5641246D02*
X1022444Y-5593627D01*
X1022444Y-5593627D02*
X1031968Y-5565055D01*
X1031968Y-5565055D02*
X1041491Y-5546008D01*
X1041491Y-5546008D02*
X1060539Y-5517436D01*
X1060539Y-5517436D02*
X1070063Y-5507912D01*
X1241491Y-5536484D02*
X1146253Y-5536484D01*
X1146253Y-5536484D02*
X1136730Y-5631722D01*
X1136730Y-5631722D02*
X1146253Y-5622198D01*
X1146253Y-5622198D02*
X1165301Y-5612674D01*
X1165301Y-5612674D02*
X1212920Y-5612674D01*
X1212920Y-5612674D02*
X1231968Y-5622198D01*
X1231968Y-5622198D02*
X1241491Y-5631722D01*
X1241491Y-5631722D02*
X1251015Y-5650769D01*
X1251015Y-5650769D02*
X1251015Y-5698388D01*
X1251015Y-5698388D02*
X1241491Y-5717436D01*
X1241491Y-5717436D02*
X1231968Y-5726960D01*
X1231968Y-5726960D02*
X1212920Y-5736484D01*
X1212920Y-5736484D02*
X1165301Y-5736484D01*
X1165301Y-5736484D02*
X1146253Y-5726960D01*
X1146253Y-5726960D02*
X1136730Y-5717436D01*
X1441491Y-5736484D02*
X1327206Y-5736484D01*
X1384349Y-5736484D02*
X1384349Y-5536484D01*
X1384349Y-5536484D02*
X1365301Y-5565055D01*
X1365301Y-5565055D02*
X1346253Y-5584103D01*
X1346253Y-5584103D02*
X1327206Y-5593627D01*
X1508158Y-5536484D02*
X1641491Y-5536484D01*
X1641491Y-5536484D02*
X1555777Y-5736484D01*
X1870063Y-5736484D02*
X1870063Y-5536484D01*
X1955777Y-5736484D02*
X1955777Y-5631722D01*
X1955777Y-5631722D02*
X1946253Y-5612674D01*
X1946253Y-5612674D02*
X1927206Y-5603150D01*
X1927206Y-5603150D02*
X1898634Y-5603150D01*
X1898634Y-5603150D02*
X1879587Y-5612674D01*
X1879587Y-5612674D02*
X1870063Y-5622198D01*
X2079587Y-5736484D02*
X2060539Y-5726960D01*
X2060539Y-5726960D02*
X2051015Y-5717436D01*
X2051015Y-5717436D02*
X2041491Y-5698388D01*
X2041491Y-5698388D02*
X2041491Y-5641246D01*
X2041491Y-5641246D02*
X2051015Y-5622198D01*
X2051015Y-5622198D02*
X2060539Y-5612674D01*
X2060539Y-5612674D02*
X2079587Y-5603150D01*
X2079587Y-5603150D02*
X2108158Y-5603150D01*
X2108158Y-5603150D02*
X2127206Y-5612674D01*
X2127206Y-5612674D02*
X2136730Y-5622198D01*
X2136730Y-5622198D02*
X2146253Y-5641246D01*
X2146253Y-5641246D02*
X2146253Y-5698388D01*
X2146253Y-5698388D02*
X2136730Y-5717436D01*
X2136730Y-5717436D02*
X2127206Y-5726960D01*
X2127206Y-5726960D02*
X2108158Y-5736484D01*
X2108158Y-5736484D02*
X2079587Y-5736484D01*
X2260539Y-5736484D02*
X2241492Y-5726960D01*
X2241492Y-5726960D02*
X2231968Y-5707912D01*
X2231968Y-5707912D02*
X2231968Y-5536484D01*
X2412920Y-5726960D02*
X2393873Y-5736484D01*
X2393873Y-5736484D02*
X2355777Y-5736484D01*
X2355777Y-5736484D02*
X2336730Y-5726960D01*
X2336730Y-5726960D02*
X2327206Y-5707912D01*
X2327206Y-5707912D02*
X2327206Y-5631722D01*
X2327206Y-5631722D02*
X2336730Y-5612674D01*
X2336730Y-5612674D02*
X2355777Y-5603150D01*
X2355777Y-5603150D02*
X2393873Y-5603150D01*
X2393873Y-5603150D02*
X2412920Y-5612674D01*
X2412920Y-5612674D02*
X2422444Y-5631722D01*
X2422444Y-5631722D02*
X2422444Y-5650769D01*
X2422444Y-5650769D02*
X2327206Y-5669817D01*
X2498634Y-5726960D02*
X2517682Y-5736484D01*
X2517682Y-5736484D02*
X2555777Y-5736484D01*
X2555777Y-5736484D02*
X2574825Y-5726960D01*
X2574825Y-5726960D02*
X2584349Y-5707912D01*
X2584349Y-5707912D02*
X2584349Y-5698388D01*
X2584349Y-5698388D02*
X2574825Y-5679341D01*
X2574825Y-5679341D02*
X2555777Y-5669817D01*
X2555777Y-5669817D02*
X2527206Y-5669817D01*
X2527206Y-5669817D02*
X2508158Y-5660293D01*
X2508158Y-5660293D02*
X2498634Y-5641246D01*
X2498634Y-5641246D02*
X2498634Y-5631722D01*
X2498634Y-5631722D02*
X2508158Y-5612674D01*
X2508158Y-5612674D02*
X2527206Y-5603150D01*
X2527206Y-5603150D02*
X2555777Y-5603150D01*
X2555777Y-5603150D02*
X2574825Y-5612674D01*
X2651015Y-5812674D02*
X2660539Y-5803150D01*
X2660539Y-5803150D02*
X2679587Y-5774579D01*
X2679587Y-5774579D02*
X2689111Y-5755531D01*
X2689111Y-5755531D02*
X2698634Y-5726960D01*
X2698634Y-5726960D02*
X2708158Y-5679341D01*
X2708158Y-5679341D02*
X2708158Y-5641246D01*
X2708158Y-5641246D02*
X2698634Y-5593627D01*
X2698634Y-5593627D02*
X2689111Y-5565055D01*
X2689111Y-5565055D02*
X2679587Y-5546008D01*
X2679587Y-5546008D02*
X2660539Y-5517436D01*
X2660539Y-5517436D02*
X2651015Y-5507912D01*
D10*
X-2505000Y-5909000D02*
G75*
G02*
X-2535000Y-5909000I-15000J0D01*
G01*
X-2535000Y-5909000D02*
G75*
G02*
X-2505000Y-5909000I15000J0D01*
G01*
D11*
X-2206128Y-5800484D02*
X-2187080Y-5800484D01*
X-2187080Y-5800484D02*
X-2168033Y-5810008D01*
X-2168033Y-5810008D02*
X-2158509Y-5819531D01*
X-2158509Y-5819531D02*
X-2148985Y-5838579D01*
X-2148985Y-5838579D02*
X-2139461Y-5876674D01*
X-2139461Y-5876674D02*
X-2139461Y-5924293D01*
X-2139461Y-5924293D02*
X-2148985Y-5962388D01*
X-2148985Y-5962388D02*
X-2158509Y-5981436D01*
X-2158509Y-5981436D02*
X-2168033Y-5990960D01*
X-2168033Y-5990960D02*
X-2187080Y-6000484D01*
X-2187080Y-6000484D02*
X-2206128Y-6000484D01*
X-2206128Y-6000484D02*
X-2225176Y-5990960D01*
X-2225176Y-5990960D02*
X-2234699Y-5981436D01*
X-2234699Y-5981436D02*
X-2244223Y-5962388D01*
X-2244223Y-5962388D02*
X-2253747Y-5924293D01*
X-2253747Y-5924293D02*
X-2253747Y-5876674D01*
X-2253747Y-5876674D02*
X-2244223Y-5838579D01*
X-2244223Y-5838579D02*
X-2234699Y-5819531D01*
X-2234699Y-5819531D02*
X-2225176Y-5810008D01*
X-2225176Y-5810008D02*
X-2206128Y-5800484D01*
X-2053747Y-5981436D02*
X-2044223Y-5990960D01*
X-2044223Y-5990960D02*
X-2053747Y-6000484D01*
X-2053747Y-6000484D02*
X-2063271Y-5990960D01*
X-2063271Y-5990960D02*
X-2053747Y-5981436D01*
X-2053747Y-5981436D02*
X-2053747Y-6000484D01*
X-1977556Y-5800484D02*
X-1853747Y-5800484D01*
X-1853747Y-5800484D02*
X-1920414Y-5876674D01*
X-1920414Y-5876674D02*
X-1891842Y-5876674D01*
X-1891842Y-5876674D02*
X-1872795Y-5886198D01*
X-1872795Y-5886198D02*
X-1863271Y-5895722D01*
X-1863271Y-5895722D02*
X-1853747Y-5914769D01*
X-1853747Y-5914769D02*
X-1853747Y-5962388D01*
X-1853747Y-5962388D02*
X-1863271Y-5981436D01*
X-1863271Y-5981436D02*
X-1872795Y-5990960D01*
X-1872795Y-5990960D02*
X-1891842Y-6000484D01*
X-1891842Y-6000484D02*
X-1948985Y-6000484D01*
X-1948985Y-6000484D02*
X-1968033Y-5990960D01*
X-1968033Y-5990960D02*
X-1977556Y-5981436D01*
X-1729937Y-5800484D02*
X-1710890Y-5800484D01*
X-1710890Y-5800484D02*
X-1691842Y-5810008D01*
X-1691842Y-5810008D02*
X-1682318Y-5819531D01*
X-1682318Y-5819531D02*
X-1672795Y-5838579D01*
X-1672795Y-5838579D02*
X-1663271Y-5876674D01*
X-1663271Y-5876674D02*
X-1663271Y-5924293D01*
X-1663271Y-5924293D02*
X-1672795Y-5962388D01*
X-1672795Y-5962388D02*
X-1682318Y-5981436D01*
X-1682318Y-5981436D02*
X-1691842Y-5990960D01*
X-1691842Y-5990960D02*
X-1710890Y-6000484D01*
X-1710890Y-6000484D02*
X-1729937Y-6000484D01*
X-1729937Y-6000484D02*
X-1748985Y-5990960D01*
X-1748985Y-5990960D02*
X-1758509Y-5981436D01*
X-1758509Y-5981436D02*
X-1768033Y-5962388D01*
X-1768033Y-5962388D02*
X-1777556Y-5924293D01*
X-1777556Y-5924293D02*
X-1777556Y-5876674D01*
X-1777556Y-5876674D02*
X-1768033Y-5838579D01*
X-1768033Y-5838579D02*
X-1758509Y-5819531D01*
X-1758509Y-5819531D02*
X-1748985Y-5810008D01*
X-1748985Y-5810008D02*
X-1729937Y-5800484D01*
X-1539461Y-5800484D02*
X-1520414Y-5800484D01*
X-1520414Y-5800484D02*
X-1501366Y-5810008D01*
X-1501366Y-5810008D02*
X-1491842Y-5819531D01*
X-1491842Y-5819531D02*
X-1482318Y-5838579D01*
X-1482318Y-5838579D02*
X-1472795Y-5876674D01*
X-1472795Y-5876674D02*
X-1472795Y-5924293D01*
X-1472795Y-5924293D02*
X-1482318Y-5962388D01*
X-1482318Y-5962388D02*
X-1491842Y-5981436D01*
X-1491842Y-5981436D02*
X-1501366Y-5990960D01*
X-1501366Y-5990960D02*
X-1520414Y-6000484D01*
X-1520414Y-6000484D02*
X-1539461Y-6000484D01*
X-1539461Y-6000484D02*
X-1558509Y-5990960D01*
X-1558509Y-5990960D02*
X-1568033Y-5981436D01*
X-1568033Y-5981436D02*
X-1577556Y-5962388D01*
X-1577556Y-5962388D02*
X-1587080Y-5924293D01*
X-1587080Y-5924293D02*
X-1587080Y-5876674D01*
X-1587080Y-5876674D02*
X-1577556Y-5838579D01*
X-1577556Y-5838579D02*
X-1568033Y-5819531D01*
X-1568033Y-5819531D02*
X-1558509Y-5810008D01*
X-1558509Y-5810008D02*
X-1539461Y-5800484D01*
X-1387080Y-6000484D02*
X-1387080Y-5867150D01*
X-1387080Y-5886198D02*
X-1377557Y-5876674D01*
X-1377557Y-5876674D02*
X-1358509Y-5867150D01*
X-1358509Y-5867150D02*
X-1329937Y-5867150D01*
X-1329937Y-5867150D02*
X-1310890Y-5876674D01*
X-1310890Y-5876674D02*
X-1301366Y-5895722D01*
X-1301366Y-5895722D02*
X-1301366Y-6000484D01*
X-1301366Y-5895722D02*
X-1291842Y-5876674D01*
X-1291842Y-5876674D02*
X-1272795Y-5867150D01*
X-1272795Y-5867150D02*
X-1244223Y-5867150D01*
X-1244223Y-5867150D02*
X-1225176Y-5876674D01*
X-1225176Y-5876674D02*
X-1215652Y-5895722D01*
X-1215652Y-5895722D02*
X-1215652Y-6000484D01*
X-1120414Y-6000484D02*
X-1120414Y-5867150D01*
X-1120414Y-5886198D02*
X-1110890Y-5876674D01*
X-1110890Y-5876674D02*
X-1091842Y-5867150D01*
X-1091842Y-5867150D02*
X-1063271Y-5867150D01*
X-1063271Y-5867150D02*
X-1044223Y-5876674D01*
X-1044223Y-5876674D02*
X-1034699Y-5895722D01*
X-1034699Y-5895722D02*
X-1034699Y-6000484D01*
X-1034699Y-5895722D02*
X-1025175Y-5876674D01*
X-1025175Y-5876674D02*
X-1006128Y-5867150D01*
X-1006128Y-5867150D02*
X-977556Y-5867150D01*
X-977556Y-5867150D02*
X-958509Y-5876674D01*
X-958509Y-5876674D02*
X-948985Y-5895722D01*
X-948985Y-5895722D02*
X-948985Y-6000484D01*
X-558509Y-5790960D02*
X-729937Y-6048103D01*
X-301366Y-5800484D02*
X-282318Y-5800484D01*
X-282318Y-5800484D02*
X-263271Y-5810008D01*
X-263271Y-5810008D02*
X-253747Y-5819531D01*
X-253747Y-5819531D02*
X-244223Y-5838579D01*
X-244223Y-5838579D02*
X-234699Y-5876674D01*
X-234699Y-5876674D02*
X-234699Y-5924293D01*
X-234699Y-5924293D02*
X-244223Y-5962388D01*
X-244223Y-5962388D02*
X-253747Y-5981436D01*
X-253747Y-5981436D02*
X-263271Y-5990960D01*
X-263271Y-5990960D02*
X-282318Y-6000484D01*
X-282318Y-6000484D02*
X-301366Y-6000484D01*
X-301366Y-6000484D02*
X-320414Y-5990960D01*
X-320414Y-5990960D02*
X-329937Y-5981436D01*
X-329937Y-5981436D02*
X-339461Y-5962388D01*
X-339461Y-5962388D02*
X-348985Y-5924293D01*
X-348985Y-5924293D02*
X-348985Y-5876674D01*
X-348985Y-5876674D02*
X-339461Y-5838579D01*
X-339461Y-5838579D02*
X-329937Y-5819531D01*
X-329937Y-5819531D02*
X-320414Y-5810008D01*
X-320414Y-5810008D02*
X-301366Y-5800484D01*
X-148985Y-5981436D02*
X-139461Y-5990960D01*
X-139461Y-5990960D02*
X-148985Y-6000484D01*
X-148985Y-6000484D02*
X-158509Y-5990960D01*
X-158509Y-5990960D02*
X-148985Y-5981436D01*
X-148985Y-5981436D02*
X-148985Y-6000484D01*
X-15652Y-5800484D02*
X3396Y-5800484D01*
X3396Y-5800484D02*
X22444Y-5810008D01*
X22444Y-5810008D02*
X31967Y-5819531D01*
X31967Y-5819531D02*
X41491Y-5838579D01*
X41491Y-5838579D02*
X51015Y-5876674D01*
X51015Y-5876674D02*
X51015Y-5924293D01*
X51015Y-5924293D02*
X41491Y-5962388D01*
X41491Y-5962388D02*
X31967Y-5981436D01*
X31967Y-5981436D02*
X22444Y-5990960D01*
X22444Y-5990960D02*
X3396Y-6000484D01*
X3396Y-6000484D02*
X-15652Y-6000484D01*
X-15652Y-6000484D02*
X-34699Y-5990960D01*
X-34699Y-5990960D02*
X-44223Y-5981436D01*
X-44223Y-5981436D02*
X-53747Y-5962388D01*
X-53747Y-5962388D02*
X-63271Y-5924293D01*
X-63271Y-5924293D02*
X-63271Y-5876674D01*
X-63271Y-5876674D02*
X-53747Y-5838579D01*
X-53747Y-5838579D02*
X-44223Y-5819531D01*
X-44223Y-5819531D02*
X-34699Y-5810008D01*
X-34699Y-5810008D02*
X-15652Y-5800484D01*
X241491Y-6000484D02*
X127206Y-6000484D01*
X184348Y-6000484D02*
X184348Y-5800484D01*
X184348Y-5800484D02*
X165301Y-5829055D01*
X165301Y-5829055D02*
X146253Y-5848103D01*
X146253Y-5848103D02*
X127206Y-5857627D01*
X431967Y-6000484D02*
X317682Y-6000484D01*
X374825Y-6000484D02*
X374825Y-5800484D01*
X374825Y-5800484D02*
X355777Y-5829055D01*
X355777Y-5829055D02*
X336729Y-5848103D01*
X336729Y-5848103D02*
X317682Y-5857627D01*
X546253Y-5886198D02*
X527206Y-5876674D01*
X527206Y-5876674D02*
X517682Y-5867150D01*
X517682Y-5867150D02*
X508158Y-5848103D01*
X508158Y-5848103D02*
X508158Y-5838579D01*
X508158Y-5838579D02*
X517682Y-5819531D01*
X517682Y-5819531D02*
X527206Y-5810008D01*
X527206Y-5810008D02*
X546253Y-5800484D01*
X546253Y-5800484D02*
X584349Y-5800484D01*
X584349Y-5800484D02*
X603396Y-5810008D01*
X603396Y-5810008D02*
X612920Y-5819531D01*
X612920Y-5819531D02*
X622444Y-5838579D01*
X622444Y-5838579D02*
X622444Y-5848103D01*
X622444Y-5848103D02*
X612920Y-5867150D01*
X612920Y-5867150D02*
X603396Y-5876674D01*
X603396Y-5876674D02*
X584349Y-5886198D01*
X584349Y-5886198D02*
X546253Y-5886198D01*
X546253Y-5886198D02*
X527206Y-5895722D01*
X527206Y-5895722D02*
X517682Y-5905246D01*
X517682Y-5905246D02*
X508158Y-5924293D01*
X508158Y-5924293D02*
X508158Y-5962388D01*
X508158Y-5962388D02*
X517682Y-5981436D01*
X517682Y-5981436D02*
X527206Y-5990960D01*
X527206Y-5990960D02*
X546253Y-6000484D01*
X546253Y-6000484D02*
X584349Y-6000484D01*
X584349Y-6000484D02*
X603396Y-5990960D01*
X603396Y-5990960D02*
X612920Y-5981436D01*
X612920Y-5981436D02*
X622444Y-5962388D01*
X622444Y-5962388D02*
X622444Y-5924293D01*
X622444Y-5924293D02*
X612920Y-5905246D01*
X612920Y-5905246D02*
X603396Y-5895722D01*
X603396Y-5895722D02*
X584349Y-5886198D01*
X698634Y-5800484D02*
X698634Y-5838579D01*
X774825Y-5800484D02*
X774825Y-5838579D01*
X1070063Y-6076674D02*
X1060539Y-6067150D01*
X1060539Y-6067150D02*
X1041491Y-6038579D01*
X1041491Y-6038579D02*
X1031968Y-6019531D01*
X1031968Y-6019531D02*
X1022444Y-5990960D01*
X1022444Y-5990960D02*
X1012920Y-5943341D01*
X1012920Y-5943341D02*
X1012920Y-5905246D01*
X1012920Y-5905246D02*
X1022444Y-5857627D01*
X1022444Y-5857627D02*
X1031968Y-5829055D01*
X1031968Y-5829055D02*
X1041491Y-5810008D01*
X1041491Y-5810008D02*
X1060539Y-5781436D01*
X1060539Y-5781436D02*
X1070063Y-5771912D01*
X1241491Y-5800484D02*
X1146253Y-5800484D01*
X1146253Y-5800484D02*
X1136730Y-5895722D01*
X1136730Y-5895722D02*
X1146253Y-5886198D01*
X1146253Y-5886198D02*
X1165301Y-5876674D01*
X1165301Y-5876674D02*
X1212920Y-5876674D01*
X1212920Y-5876674D02*
X1231968Y-5886198D01*
X1231968Y-5886198D02*
X1241491Y-5895722D01*
X1241491Y-5895722D02*
X1251015Y-5914769D01*
X1251015Y-5914769D02*
X1251015Y-5962388D01*
X1251015Y-5962388D02*
X1241491Y-5981436D01*
X1241491Y-5981436D02*
X1231968Y-5990960D01*
X1231968Y-5990960D02*
X1212920Y-6000484D01*
X1212920Y-6000484D02*
X1165301Y-6000484D01*
X1165301Y-6000484D02*
X1146253Y-5990960D01*
X1146253Y-5990960D02*
X1136730Y-5981436D01*
X1489110Y-6000484D02*
X1489110Y-5800484D01*
X1574825Y-6000484D02*
X1574825Y-5895722D01*
X1574825Y-5895722D02*
X1565301Y-5876674D01*
X1565301Y-5876674D02*
X1546253Y-5867150D01*
X1546253Y-5867150D02*
X1517682Y-5867150D01*
X1517682Y-5867150D02*
X1498634Y-5876674D01*
X1498634Y-5876674D02*
X1489110Y-5886198D01*
X1698634Y-6000484D02*
X1679587Y-5990960D01*
X1679587Y-5990960D02*
X1670063Y-5981436D01*
X1670063Y-5981436D02*
X1660539Y-5962388D01*
X1660539Y-5962388D02*
X1660539Y-5905246D01*
X1660539Y-5905246D02*
X1670063Y-5886198D01*
X1670063Y-5886198D02*
X1679587Y-5876674D01*
X1679587Y-5876674D02*
X1698634Y-5867150D01*
X1698634Y-5867150D02*
X1727206Y-5867150D01*
X1727206Y-5867150D02*
X1746253Y-5876674D01*
X1746253Y-5876674D02*
X1755777Y-5886198D01*
X1755777Y-5886198D02*
X1765301Y-5905246D01*
X1765301Y-5905246D02*
X1765301Y-5962388D01*
X1765301Y-5962388D02*
X1755777Y-5981436D01*
X1755777Y-5981436D02*
X1746253Y-5990960D01*
X1746253Y-5990960D02*
X1727206Y-6000484D01*
X1727206Y-6000484D02*
X1698634Y-6000484D01*
X1879587Y-6000484D02*
X1860539Y-5990960D01*
X1860539Y-5990960D02*
X1851015Y-5971912D01*
X1851015Y-5971912D02*
X1851015Y-5800484D01*
X2031968Y-5990960D02*
X2012920Y-6000484D01*
X2012920Y-6000484D02*
X1974825Y-6000484D01*
X1974825Y-6000484D02*
X1955777Y-5990960D01*
X1955777Y-5990960D02*
X1946253Y-5971912D01*
X1946253Y-5971912D02*
X1946253Y-5895722D01*
X1946253Y-5895722D02*
X1955777Y-5876674D01*
X1955777Y-5876674D02*
X1974825Y-5867150D01*
X1974825Y-5867150D02*
X2012920Y-5867150D01*
X2012920Y-5867150D02*
X2031968Y-5876674D01*
X2031968Y-5876674D02*
X2041491Y-5895722D01*
X2041491Y-5895722D02*
X2041491Y-5914769D01*
X2041491Y-5914769D02*
X1946253Y-5933817D01*
X2117682Y-5990960D02*
X2136730Y-6000484D01*
X2136730Y-6000484D02*
X2174825Y-6000484D01*
X2174825Y-6000484D02*
X2193873Y-5990960D01*
X2193873Y-5990960D02*
X2203396Y-5971912D01*
X2203396Y-5971912D02*
X2203396Y-5962388D01*
X2203396Y-5962388D02*
X2193873Y-5943341D01*
X2193873Y-5943341D02*
X2174825Y-5933817D01*
X2174825Y-5933817D02*
X2146253Y-5933817D01*
X2146253Y-5933817D02*
X2127206Y-5924293D01*
X2127206Y-5924293D02*
X2117682Y-5905246D01*
X2117682Y-5905246D02*
X2117682Y-5895722D01*
X2117682Y-5895722D02*
X2127206Y-5876674D01*
X2127206Y-5876674D02*
X2146253Y-5867150D01*
X2146253Y-5867150D02*
X2174825Y-5867150D01*
X2174825Y-5867150D02*
X2193873Y-5876674D01*
X2270063Y-6076674D02*
X2279587Y-6067150D01*
X2279587Y-6067150D02*
X2298634Y-6038579D01*
X2298634Y-6038579D02*
X2308158Y-6019531D01*
X2308158Y-6019531D02*
X2317682Y-5990960D01*
X2317682Y-5990960D02*
X2327206Y-5943341D01*
X2327206Y-5943341D02*
X2327206Y-5905246D01*
X2327206Y-5905246D02*
X2317682Y-5857627D01*
X2317682Y-5857627D02*
X2308158Y-5829055D01*
X2308158Y-5829055D02*
X2298634Y-5810008D01*
X2298634Y-5810008D02*
X2279587Y-5781436D01*
X2279587Y-5781436D02*
X2270063Y-5771912D01*
D10*
X-2535000Y-6143000D02*
X-2535000Y-6203000D01*
X-2565000Y-6173000D02*
X-2505000Y-6173000D01*
D11*
X-2206128Y-6064484D02*
X-2187080Y-6064484D01*
X-2187080Y-6064484D02*
X-2168033Y-6074008D01*
X-2168033Y-6074008D02*
X-2158509Y-6083531D01*
X-2158509Y-6083531D02*
X-2148985Y-6102579D01*
X-2148985Y-6102579D02*
X-2139461Y-6140674D01*
X-2139461Y-6140674D02*
X-2139461Y-6188293D01*
X-2139461Y-6188293D02*
X-2148985Y-6226388D01*
X-2148985Y-6226388D02*
X-2158509Y-6245436D01*
X-2158509Y-6245436D02*
X-2168033Y-6254960D01*
X-2168033Y-6254960D02*
X-2187080Y-6264484D01*
X-2187080Y-6264484D02*
X-2206128Y-6264484D01*
X-2206128Y-6264484D02*
X-2225176Y-6254960D01*
X-2225176Y-6254960D02*
X-2234699Y-6245436D01*
X-2234699Y-6245436D02*
X-2244223Y-6226388D01*
X-2244223Y-6226388D02*
X-2253747Y-6188293D01*
X-2253747Y-6188293D02*
X-2253747Y-6140674D01*
X-2253747Y-6140674D02*
X-2244223Y-6102579D01*
X-2244223Y-6102579D02*
X-2234699Y-6083531D01*
X-2234699Y-6083531D02*
X-2225176Y-6074008D01*
X-2225176Y-6074008D02*
X-2206128Y-6064484D01*
X-2053747Y-6245436D02*
X-2044223Y-6254960D01*
X-2044223Y-6254960D02*
X-2053747Y-6264484D01*
X-2053747Y-6264484D02*
X-2063271Y-6254960D01*
X-2063271Y-6254960D02*
X-2053747Y-6245436D01*
X-2053747Y-6245436D02*
X-2053747Y-6264484D01*
X-1872795Y-6064484D02*
X-1910890Y-6064484D01*
X-1910890Y-6064484D02*
X-1929937Y-6074008D01*
X-1929937Y-6074008D02*
X-1939461Y-6083531D01*
X-1939461Y-6083531D02*
X-1958509Y-6112103D01*
X-1958509Y-6112103D02*
X-1968033Y-6150198D01*
X-1968033Y-6150198D02*
X-1968033Y-6226388D01*
X-1968033Y-6226388D02*
X-1958509Y-6245436D01*
X-1958509Y-6245436D02*
X-1948985Y-6254960D01*
X-1948985Y-6254960D02*
X-1929937Y-6264484D01*
X-1929937Y-6264484D02*
X-1891842Y-6264484D01*
X-1891842Y-6264484D02*
X-1872795Y-6254960D01*
X-1872795Y-6254960D02*
X-1863271Y-6245436D01*
X-1863271Y-6245436D02*
X-1853747Y-6226388D01*
X-1853747Y-6226388D02*
X-1853747Y-6178769D01*
X-1853747Y-6178769D02*
X-1863271Y-6159722D01*
X-1863271Y-6159722D02*
X-1872795Y-6150198D01*
X-1872795Y-6150198D02*
X-1891842Y-6140674D01*
X-1891842Y-6140674D02*
X-1929937Y-6140674D01*
X-1929937Y-6140674D02*
X-1948985Y-6150198D01*
X-1948985Y-6150198D02*
X-1958509Y-6159722D01*
X-1958509Y-6159722D02*
X-1968033Y-6178769D01*
X-1729937Y-6064484D02*
X-1710890Y-6064484D01*
X-1710890Y-6064484D02*
X-1691842Y-6074008D01*
X-1691842Y-6074008D02*
X-1682318Y-6083531D01*
X-1682318Y-6083531D02*
X-1672795Y-6102579D01*
X-1672795Y-6102579D02*
X-1663271Y-6140674D01*
X-1663271Y-6140674D02*
X-1663271Y-6188293D01*
X-1663271Y-6188293D02*
X-1672795Y-6226388D01*
X-1672795Y-6226388D02*
X-1682318Y-6245436D01*
X-1682318Y-6245436D02*
X-1691842Y-6254960D01*
X-1691842Y-6254960D02*
X-1710890Y-6264484D01*
X-1710890Y-6264484D02*
X-1729937Y-6264484D01*
X-1729937Y-6264484D02*
X-1748985Y-6254960D01*
X-1748985Y-6254960D02*
X-1758509Y-6245436D01*
X-1758509Y-6245436D02*
X-1768033Y-6226388D01*
X-1768033Y-6226388D02*
X-1777556Y-6188293D01*
X-1777556Y-6188293D02*
X-1777556Y-6140674D01*
X-1777556Y-6140674D02*
X-1768033Y-6102579D01*
X-1768033Y-6102579D02*
X-1758509Y-6083531D01*
X-1758509Y-6083531D02*
X-1748985Y-6074008D01*
X-1748985Y-6074008D02*
X-1729937Y-6064484D01*
X-1539461Y-6064484D02*
X-1520414Y-6064484D01*
X-1520414Y-6064484D02*
X-1501366Y-6074008D01*
X-1501366Y-6074008D02*
X-1491842Y-6083531D01*
X-1491842Y-6083531D02*
X-1482318Y-6102579D01*
X-1482318Y-6102579D02*
X-1472795Y-6140674D01*
X-1472795Y-6140674D02*
X-1472795Y-6188293D01*
X-1472795Y-6188293D02*
X-1482318Y-6226388D01*
X-1482318Y-6226388D02*
X-1491842Y-6245436D01*
X-1491842Y-6245436D02*
X-1501366Y-6254960D01*
X-1501366Y-6254960D02*
X-1520414Y-6264484D01*
X-1520414Y-6264484D02*
X-1539461Y-6264484D01*
X-1539461Y-6264484D02*
X-1558509Y-6254960D01*
X-1558509Y-6254960D02*
X-1568033Y-6245436D01*
X-1568033Y-6245436D02*
X-1577556Y-6226388D01*
X-1577556Y-6226388D02*
X-1587080Y-6188293D01*
X-1587080Y-6188293D02*
X-1587080Y-6140674D01*
X-1587080Y-6140674D02*
X-1577556Y-6102579D01*
X-1577556Y-6102579D02*
X-1568033Y-6083531D01*
X-1568033Y-6083531D02*
X-1558509Y-6074008D01*
X-1558509Y-6074008D02*
X-1539461Y-6064484D01*
X-1387080Y-6264484D02*
X-1387080Y-6131150D01*
X-1387080Y-6150198D02*
X-1377557Y-6140674D01*
X-1377557Y-6140674D02*
X-1358509Y-6131150D01*
X-1358509Y-6131150D02*
X-1329937Y-6131150D01*
X-1329937Y-6131150D02*
X-1310890Y-6140674D01*
X-1310890Y-6140674D02*
X-1301366Y-6159722D01*
X-1301366Y-6159722D02*
X-1301366Y-6264484D01*
X-1301366Y-6159722D02*
X-1291842Y-6140674D01*
X-1291842Y-6140674D02*
X-1272795Y-6131150D01*
X-1272795Y-6131150D02*
X-1244223Y-6131150D01*
X-1244223Y-6131150D02*
X-1225176Y-6140674D01*
X-1225176Y-6140674D02*
X-1215652Y-6159722D01*
X-1215652Y-6159722D02*
X-1215652Y-6264484D01*
X-1120414Y-6264484D02*
X-1120414Y-6131150D01*
X-1120414Y-6150198D02*
X-1110890Y-6140674D01*
X-1110890Y-6140674D02*
X-1091842Y-6131150D01*
X-1091842Y-6131150D02*
X-1063271Y-6131150D01*
X-1063271Y-6131150D02*
X-1044223Y-6140674D01*
X-1044223Y-6140674D02*
X-1034699Y-6159722D01*
X-1034699Y-6159722D02*
X-1034699Y-6264484D01*
X-1034699Y-6159722D02*
X-1025175Y-6140674D01*
X-1025175Y-6140674D02*
X-1006128Y-6131150D01*
X-1006128Y-6131150D02*
X-977556Y-6131150D01*
X-977556Y-6131150D02*
X-958509Y-6140674D01*
X-958509Y-6140674D02*
X-948985Y-6159722D01*
X-948985Y-6159722D02*
X-948985Y-6264484D01*
X-558509Y-6054960D02*
X-729937Y-6312103D01*
X-301366Y-6064484D02*
X-282318Y-6064484D01*
X-282318Y-6064484D02*
X-263271Y-6074008D01*
X-263271Y-6074008D02*
X-253747Y-6083531D01*
X-253747Y-6083531D02*
X-244223Y-6102579D01*
X-244223Y-6102579D02*
X-234699Y-6140674D01*
X-234699Y-6140674D02*
X-234699Y-6188293D01*
X-234699Y-6188293D02*
X-244223Y-6226388D01*
X-244223Y-6226388D02*
X-253747Y-6245436D01*
X-253747Y-6245436D02*
X-263271Y-6254960D01*
X-263271Y-6254960D02*
X-282318Y-6264484D01*
X-282318Y-6264484D02*
X-301366Y-6264484D01*
X-301366Y-6264484D02*
X-320414Y-6254960D01*
X-320414Y-6254960D02*
X-329937Y-6245436D01*
X-329937Y-6245436D02*
X-339461Y-6226388D01*
X-339461Y-6226388D02*
X-348985Y-6188293D01*
X-348985Y-6188293D02*
X-348985Y-6140674D01*
X-348985Y-6140674D02*
X-339461Y-6102579D01*
X-339461Y-6102579D02*
X-329937Y-6083531D01*
X-329937Y-6083531D02*
X-320414Y-6074008D01*
X-320414Y-6074008D02*
X-301366Y-6064484D01*
X-148985Y-6245436D02*
X-139461Y-6254960D01*
X-139461Y-6254960D02*
X-148985Y-6264484D01*
X-148985Y-6264484D02*
X-158509Y-6254960D01*
X-158509Y-6254960D02*
X-148985Y-6245436D01*
X-148985Y-6245436D02*
X-148985Y-6264484D01*
X-15652Y-6064484D02*
X3396Y-6064484D01*
X3396Y-6064484D02*
X22444Y-6074008D01*
X22444Y-6074008D02*
X31967Y-6083531D01*
X31967Y-6083531D02*
X41491Y-6102579D01*
X41491Y-6102579D02*
X51015Y-6140674D01*
X51015Y-6140674D02*
X51015Y-6188293D01*
X51015Y-6188293D02*
X41491Y-6226388D01*
X41491Y-6226388D02*
X31967Y-6245436D01*
X31967Y-6245436D02*
X22444Y-6254960D01*
X22444Y-6254960D02*
X3396Y-6264484D01*
X3396Y-6264484D02*
X-15652Y-6264484D01*
X-15652Y-6264484D02*
X-34699Y-6254960D01*
X-34699Y-6254960D02*
X-44223Y-6245436D01*
X-44223Y-6245436D02*
X-53747Y-6226388D01*
X-53747Y-6226388D02*
X-63271Y-6188293D01*
X-63271Y-6188293D02*
X-63271Y-6140674D01*
X-63271Y-6140674D02*
X-53747Y-6102579D01*
X-53747Y-6102579D02*
X-44223Y-6083531D01*
X-44223Y-6083531D02*
X-34699Y-6074008D01*
X-34699Y-6074008D02*
X-15652Y-6064484D01*
X127206Y-6083531D02*
X136729Y-6074008D01*
X136729Y-6074008D02*
X155777Y-6064484D01*
X155777Y-6064484D02*
X203396Y-6064484D01*
X203396Y-6064484D02*
X222444Y-6074008D01*
X222444Y-6074008D02*
X231967Y-6083531D01*
X231967Y-6083531D02*
X241491Y-6102579D01*
X241491Y-6102579D02*
X241491Y-6121627D01*
X241491Y-6121627D02*
X231967Y-6150198D01*
X231967Y-6150198D02*
X117682Y-6264484D01*
X117682Y-6264484D02*
X241491Y-6264484D01*
X308158Y-6064484D02*
X431967Y-6064484D01*
X431967Y-6064484D02*
X365301Y-6140674D01*
X365301Y-6140674D02*
X393872Y-6140674D01*
X393872Y-6140674D02*
X412920Y-6150198D01*
X412920Y-6150198D02*
X422444Y-6159722D01*
X422444Y-6159722D02*
X431967Y-6178769D01*
X431967Y-6178769D02*
X431967Y-6226388D01*
X431967Y-6226388D02*
X422444Y-6245436D01*
X422444Y-6245436D02*
X412920Y-6254960D01*
X412920Y-6254960D02*
X393872Y-6264484D01*
X393872Y-6264484D02*
X336729Y-6264484D01*
X336729Y-6264484D02*
X317682Y-6254960D01*
X317682Y-6254960D02*
X308158Y-6245436D01*
X603396Y-6064484D02*
X565301Y-6064484D01*
X565301Y-6064484D02*
X546253Y-6074008D01*
X546253Y-6074008D02*
X536729Y-6083531D01*
X536729Y-6083531D02*
X517682Y-6112103D01*
X517682Y-6112103D02*
X508158Y-6150198D01*
X508158Y-6150198D02*
X508158Y-6226388D01*
X508158Y-6226388D02*
X517682Y-6245436D01*
X517682Y-6245436D02*
X527206Y-6254960D01*
X527206Y-6254960D02*
X546253Y-6264484D01*
X546253Y-6264484D02*
X584349Y-6264484D01*
X584349Y-6264484D02*
X603396Y-6254960D01*
X603396Y-6254960D02*
X612920Y-6245436D01*
X612920Y-6245436D02*
X622444Y-6226388D01*
X622444Y-6226388D02*
X622444Y-6178769D01*
X622444Y-6178769D02*
X612920Y-6159722D01*
X612920Y-6159722D02*
X603396Y-6150198D01*
X603396Y-6150198D02*
X584349Y-6140674D01*
X584349Y-6140674D02*
X546253Y-6140674D01*
X546253Y-6140674D02*
X527206Y-6150198D01*
X527206Y-6150198D02*
X517682Y-6159722D01*
X517682Y-6159722D02*
X508158Y-6178769D01*
X698634Y-6064484D02*
X698634Y-6102579D01*
X774825Y-6064484D02*
X774825Y-6102579D01*
X1070063Y-6340674D02*
X1060539Y-6331150D01*
X1060539Y-6331150D02*
X1041491Y-6302579D01*
X1041491Y-6302579D02*
X1031968Y-6283531D01*
X1031968Y-6283531D02*
X1022444Y-6254960D01*
X1022444Y-6254960D02*
X1012920Y-6207341D01*
X1012920Y-6207341D02*
X1012920Y-6169246D01*
X1012920Y-6169246D02*
X1022444Y-6121627D01*
X1022444Y-6121627D02*
X1031968Y-6093055D01*
X1031968Y-6093055D02*
X1041491Y-6074008D01*
X1041491Y-6074008D02*
X1060539Y-6045436D01*
X1060539Y-6045436D02*
X1070063Y-6035912D01*
X1184349Y-6064484D02*
X1203396Y-6064484D01*
X1203396Y-6064484D02*
X1222444Y-6074008D01*
X1222444Y-6074008D02*
X1231968Y-6083531D01*
X1231968Y-6083531D02*
X1241491Y-6102579D01*
X1241491Y-6102579D02*
X1251015Y-6140674D01*
X1251015Y-6140674D02*
X1251015Y-6188293D01*
X1251015Y-6188293D02*
X1241491Y-6226388D01*
X1241491Y-6226388D02*
X1231968Y-6245436D01*
X1231968Y-6245436D02*
X1222444Y-6254960D01*
X1222444Y-6254960D02*
X1203396Y-6264484D01*
X1203396Y-6264484D02*
X1184349Y-6264484D01*
X1184349Y-6264484D02*
X1165301Y-6254960D01*
X1165301Y-6254960D02*
X1155777Y-6245436D01*
X1155777Y-6245436D02*
X1146253Y-6226388D01*
X1146253Y-6226388D02*
X1136730Y-6188293D01*
X1136730Y-6188293D02*
X1136730Y-6140674D01*
X1136730Y-6140674D02*
X1146253Y-6102579D01*
X1146253Y-6102579D02*
X1155777Y-6083531D01*
X1155777Y-6083531D02*
X1165301Y-6074008D01*
X1165301Y-6074008D02*
X1184349Y-6064484D01*
X1489110Y-6264484D02*
X1489110Y-6064484D01*
X1574825Y-6264484D02*
X1574825Y-6159722D01*
X1574825Y-6159722D02*
X1565301Y-6140674D01*
X1565301Y-6140674D02*
X1546253Y-6131150D01*
X1546253Y-6131150D02*
X1517682Y-6131150D01*
X1517682Y-6131150D02*
X1498634Y-6140674D01*
X1498634Y-6140674D02*
X1489110Y-6150198D01*
X1698634Y-6264484D02*
X1679587Y-6254960D01*
X1679587Y-6254960D02*
X1670063Y-6245436D01*
X1670063Y-6245436D02*
X1660539Y-6226388D01*
X1660539Y-6226388D02*
X1660539Y-6169246D01*
X1660539Y-6169246D02*
X1670063Y-6150198D01*
X1670063Y-6150198D02*
X1679587Y-6140674D01*
X1679587Y-6140674D02*
X1698634Y-6131150D01*
X1698634Y-6131150D02*
X1727206Y-6131150D01*
X1727206Y-6131150D02*
X1746253Y-6140674D01*
X1746253Y-6140674D02*
X1755777Y-6150198D01*
X1755777Y-6150198D02*
X1765301Y-6169246D01*
X1765301Y-6169246D02*
X1765301Y-6226388D01*
X1765301Y-6226388D02*
X1755777Y-6245436D01*
X1755777Y-6245436D02*
X1746253Y-6254960D01*
X1746253Y-6254960D02*
X1727206Y-6264484D01*
X1727206Y-6264484D02*
X1698634Y-6264484D01*
X1879587Y-6264484D02*
X1860539Y-6254960D01*
X1860539Y-6254960D02*
X1851015Y-6235912D01*
X1851015Y-6235912D02*
X1851015Y-6064484D01*
X2031968Y-6254960D02*
X2012920Y-6264484D01*
X2012920Y-6264484D02*
X1974825Y-6264484D01*
X1974825Y-6264484D02*
X1955777Y-6254960D01*
X1955777Y-6254960D02*
X1946253Y-6235912D01*
X1946253Y-6235912D02*
X1946253Y-6159722D01*
X1946253Y-6159722D02*
X1955777Y-6140674D01*
X1955777Y-6140674D02*
X1974825Y-6131150D01*
X1974825Y-6131150D02*
X2012920Y-6131150D01*
X2012920Y-6131150D02*
X2031968Y-6140674D01*
X2031968Y-6140674D02*
X2041491Y-6159722D01*
X2041491Y-6159722D02*
X2041491Y-6178769D01*
X2041491Y-6178769D02*
X1946253Y-6197817D01*
X2117682Y-6254960D02*
X2136730Y-6264484D01*
X2136730Y-6264484D02*
X2174825Y-6264484D01*
X2174825Y-6264484D02*
X2193873Y-6254960D01*
X2193873Y-6254960D02*
X2203396Y-6235912D01*
X2203396Y-6235912D02*
X2203396Y-6226388D01*
X2203396Y-6226388D02*
X2193873Y-6207341D01*
X2193873Y-6207341D02*
X2174825Y-6197817D01*
X2174825Y-6197817D02*
X2146253Y-6197817D01*
X2146253Y-6197817D02*
X2127206Y-6188293D01*
X2127206Y-6188293D02*
X2117682Y-6169246D01*
X2117682Y-6169246D02*
X2117682Y-6159722D01*
X2117682Y-6159722D02*
X2127206Y-6140674D01*
X2127206Y-6140674D02*
X2146253Y-6131150D01*
X2146253Y-6131150D02*
X2174825Y-6131150D01*
X2174825Y-6131150D02*
X2193873Y-6140674D01*
X2441492Y-6188293D02*
X2593873Y-6188293D01*
X2517682Y-6264484D02*
X2517682Y-6112103D01*
X2927206Y-6131150D02*
X2927206Y-6264484D01*
X2879587Y-6054960D02*
X2831968Y-6197817D01*
X2831968Y-6197817D02*
X2955777Y-6197817D01*
X3174825Y-6254960D02*
X3193873Y-6264484D01*
X3193873Y-6264484D02*
X3231968Y-6264484D01*
X3231968Y-6264484D02*
X3251015Y-6254960D01*
X3251015Y-6254960D02*
X3260539Y-6235912D01*
X3260539Y-6235912D02*
X3260539Y-6226388D01*
X3260539Y-6226388D02*
X3251015Y-6207341D01*
X3251015Y-6207341D02*
X3231968Y-6197817D01*
X3231968Y-6197817D02*
X3203396Y-6197817D01*
X3203396Y-6197817D02*
X3184349Y-6188293D01*
X3184349Y-6188293D02*
X3174825Y-6169246D01*
X3174825Y-6169246D02*
X3174825Y-6159722D01*
X3174825Y-6159722D02*
X3184349Y-6140674D01*
X3184349Y-6140674D02*
X3203396Y-6131150D01*
X3203396Y-6131150D02*
X3231968Y-6131150D01*
X3231968Y-6131150D02*
X3251015Y-6140674D01*
X3374825Y-6264484D02*
X3355777Y-6254960D01*
X3355777Y-6254960D02*
X3346254Y-6235912D01*
X3346254Y-6235912D02*
X3346254Y-6064484D01*
X3479587Y-6264484D02*
X3460539Y-6254960D01*
X3460539Y-6254960D02*
X3451015Y-6245436D01*
X3451015Y-6245436D02*
X3441492Y-6226388D01*
X3441492Y-6226388D02*
X3441492Y-6169246D01*
X3441492Y-6169246D02*
X3451015Y-6150198D01*
X3451015Y-6150198D02*
X3460539Y-6140674D01*
X3460539Y-6140674D02*
X3479587Y-6131150D01*
X3479587Y-6131150D02*
X3508158Y-6131150D01*
X3508158Y-6131150D02*
X3527206Y-6140674D01*
X3527206Y-6140674D02*
X3536730Y-6150198D01*
X3536730Y-6150198D02*
X3546254Y-6169246D01*
X3546254Y-6169246D02*
X3546254Y-6226388D01*
X3546254Y-6226388D02*
X3536730Y-6245436D01*
X3536730Y-6245436D02*
X3527206Y-6254960D01*
X3527206Y-6254960D02*
X3508158Y-6264484D01*
X3508158Y-6264484D02*
X3479587Y-6264484D01*
X3603396Y-6131150D02*
X3679587Y-6131150D01*
X3631968Y-6064484D02*
X3631968Y-6235912D01*
X3631968Y-6235912D02*
X3641492Y-6254960D01*
X3641492Y-6254960D02*
X3660539Y-6264484D01*
X3660539Y-6264484D02*
X3679587Y-6264484D01*
X3736730Y-6254960D02*
X3755777Y-6264484D01*
X3755777Y-6264484D02*
X3793873Y-6264484D01*
X3793873Y-6264484D02*
X3812920Y-6254960D01*
X3812920Y-6254960D02*
X3822444Y-6235912D01*
X3822444Y-6235912D02*
X3822444Y-6226388D01*
X3822444Y-6226388D02*
X3812920Y-6207341D01*
X3812920Y-6207341D02*
X3793873Y-6197817D01*
X3793873Y-6197817D02*
X3765301Y-6197817D01*
X3765301Y-6197817D02*
X3746254Y-6188293D01*
X3746254Y-6188293D02*
X3736730Y-6169246D01*
X3736730Y-6169246D02*
X3736730Y-6159722D01*
X3736730Y-6159722D02*
X3746254Y-6140674D01*
X3746254Y-6140674D02*
X3765301Y-6131150D01*
X3765301Y-6131150D02*
X3793873Y-6131150D01*
X3793873Y-6131150D02*
X3812920Y-6140674D01*
X3889111Y-6340674D02*
X3898635Y-6331150D01*
X3898635Y-6331150D02*
X3917682Y-6302579D01*
X3917682Y-6302579D02*
X3927206Y-6283531D01*
X3927206Y-6283531D02*
X3936730Y-6254960D01*
X3936730Y-6254960D02*
X3946254Y-6207341D01*
X3946254Y-6207341D02*
X3946254Y-6169246D01*
X3946254Y-6169246D02*
X3936730Y-6121627D01*
X3936730Y-6121627D02*
X3927206Y-6093055D01*
X3927206Y-6093055D02*
X3917682Y-6074008D01*
X3917682Y-6074008D02*
X3898635Y-6045436D01*
X3898635Y-6045436D02*
X3889111Y-6035912D01*
D10*
X-2516716Y-6465284D02*
X-2516716Y-6408715D01*
X-2573285Y-6408715D01*
X-2573285Y-6465284D01*
X-2516716Y-6465284D01*
D11*
X-2206128Y-6328484D02*
X-2187080Y-6328484D01*
X-2187080Y-6328484D02*
X-2168033Y-6338008D01*
X-2168033Y-6338008D02*
X-2158509Y-6347531D01*
X-2158509Y-6347531D02*
X-2148985Y-6366579D01*
X-2148985Y-6366579D02*
X-2139461Y-6404674D01*
X-2139461Y-6404674D02*
X-2139461Y-6452293D01*
X-2139461Y-6452293D02*
X-2148985Y-6490388D01*
X-2148985Y-6490388D02*
X-2158509Y-6509436D01*
X-2158509Y-6509436D02*
X-2168033Y-6518960D01*
X-2168033Y-6518960D02*
X-2187080Y-6528484D01*
X-2187080Y-6528484D02*
X-2206128Y-6528484D01*
X-2206128Y-6528484D02*
X-2225176Y-6518960D01*
X-2225176Y-6518960D02*
X-2234699Y-6509436D01*
X-2234699Y-6509436D02*
X-2244223Y-6490388D01*
X-2244223Y-6490388D02*
X-2253747Y-6452293D01*
X-2253747Y-6452293D02*
X-2253747Y-6404674D01*
X-2253747Y-6404674D02*
X-2244223Y-6366579D01*
X-2244223Y-6366579D02*
X-2234699Y-6347531D01*
X-2234699Y-6347531D02*
X-2225176Y-6338008D01*
X-2225176Y-6338008D02*
X-2206128Y-6328484D01*
X-2053747Y-6509436D02*
X-2044223Y-6518960D01*
X-2044223Y-6518960D02*
X-2053747Y-6528484D01*
X-2053747Y-6528484D02*
X-2063271Y-6518960D01*
X-2063271Y-6518960D02*
X-2053747Y-6509436D01*
X-2053747Y-6509436D02*
X-2053747Y-6528484D01*
X-1929937Y-6414198D02*
X-1948985Y-6404674D01*
X-1948985Y-6404674D02*
X-1958509Y-6395150D01*
X-1958509Y-6395150D02*
X-1968033Y-6376103D01*
X-1968033Y-6376103D02*
X-1968033Y-6366579D01*
X-1968033Y-6366579D02*
X-1958509Y-6347531D01*
X-1958509Y-6347531D02*
X-1948985Y-6338008D01*
X-1948985Y-6338008D02*
X-1929937Y-6328484D01*
X-1929937Y-6328484D02*
X-1891842Y-6328484D01*
X-1891842Y-6328484D02*
X-1872795Y-6338008D01*
X-1872795Y-6338008D02*
X-1863271Y-6347531D01*
X-1863271Y-6347531D02*
X-1853747Y-6366579D01*
X-1853747Y-6366579D02*
X-1853747Y-6376103D01*
X-1853747Y-6376103D02*
X-1863271Y-6395150D01*
X-1863271Y-6395150D02*
X-1872795Y-6404674D01*
X-1872795Y-6404674D02*
X-1891842Y-6414198D01*
X-1891842Y-6414198D02*
X-1929937Y-6414198D01*
X-1929937Y-6414198D02*
X-1948985Y-6423722D01*
X-1948985Y-6423722D02*
X-1958509Y-6433246D01*
X-1958509Y-6433246D02*
X-1968033Y-6452293D01*
X-1968033Y-6452293D02*
X-1968033Y-6490388D01*
X-1968033Y-6490388D02*
X-1958509Y-6509436D01*
X-1958509Y-6509436D02*
X-1948985Y-6518960D01*
X-1948985Y-6518960D02*
X-1929937Y-6528484D01*
X-1929937Y-6528484D02*
X-1891842Y-6528484D01*
X-1891842Y-6528484D02*
X-1872795Y-6518960D01*
X-1872795Y-6518960D02*
X-1863271Y-6509436D01*
X-1863271Y-6509436D02*
X-1853747Y-6490388D01*
X-1853747Y-6490388D02*
X-1853747Y-6452293D01*
X-1853747Y-6452293D02*
X-1863271Y-6433246D01*
X-1863271Y-6433246D02*
X-1872795Y-6423722D01*
X-1872795Y-6423722D02*
X-1891842Y-6414198D01*
X-1729937Y-6328484D02*
X-1710890Y-6328484D01*
X-1710890Y-6328484D02*
X-1691842Y-6338008D01*
X-1691842Y-6338008D02*
X-1682318Y-6347531D01*
X-1682318Y-6347531D02*
X-1672795Y-6366579D01*
X-1672795Y-6366579D02*
X-1663271Y-6404674D01*
X-1663271Y-6404674D02*
X-1663271Y-6452293D01*
X-1663271Y-6452293D02*
X-1672795Y-6490388D01*
X-1672795Y-6490388D02*
X-1682318Y-6509436D01*
X-1682318Y-6509436D02*
X-1691842Y-6518960D01*
X-1691842Y-6518960D02*
X-1710890Y-6528484D01*
X-1710890Y-6528484D02*
X-1729937Y-6528484D01*
X-1729937Y-6528484D02*
X-1748985Y-6518960D01*
X-1748985Y-6518960D02*
X-1758509Y-6509436D01*
X-1758509Y-6509436D02*
X-1768033Y-6490388D01*
X-1768033Y-6490388D02*
X-1777556Y-6452293D01*
X-1777556Y-6452293D02*
X-1777556Y-6404674D01*
X-1777556Y-6404674D02*
X-1768033Y-6366579D01*
X-1768033Y-6366579D02*
X-1758509Y-6347531D01*
X-1758509Y-6347531D02*
X-1748985Y-6338008D01*
X-1748985Y-6338008D02*
X-1729937Y-6328484D01*
X-1539461Y-6328484D02*
X-1520414Y-6328484D01*
X-1520414Y-6328484D02*
X-1501366Y-6338008D01*
X-1501366Y-6338008D02*
X-1491842Y-6347531D01*
X-1491842Y-6347531D02*
X-1482318Y-6366579D01*
X-1482318Y-6366579D02*
X-1472795Y-6404674D01*
X-1472795Y-6404674D02*
X-1472795Y-6452293D01*
X-1472795Y-6452293D02*
X-1482318Y-6490388D01*
X-1482318Y-6490388D02*
X-1491842Y-6509436D01*
X-1491842Y-6509436D02*
X-1501366Y-6518960D01*
X-1501366Y-6518960D02*
X-1520414Y-6528484D01*
X-1520414Y-6528484D02*
X-1539461Y-6528484D01*
X-1539461Y-6528484D02*
X-1558509Y-6518960D01*
X-1558509Y-6518960D02*
X-1568033Y-6509436D01*
X-1568033Y-6509436D02*
X-1577556Y-6490388D01*
X-1577556Y-6490388D02*
X-1587080Y-6452293D01*
X-1587080Y-6452293D02*
X-1587080Y-6404674D01*
X-1587080Y-6404674D02*
X-1577556Y-6366579D01*
X-1577556Y-6366579D02*
X-1568033Y-6347531D01*
X-1568033Y-6347531D02*
X-1558509Y-6338008D01*
X-1558509Y-6338008D02*
X-1539461Y-6328484D01*
X-1387080Y-6528484D02*
X-1387080Y-6395150D01*
X-1387080Y-6414198D02*
X-1377557Y-6404674D01*
X-1377557Y-6404674D02*
X-1358509Y-6395150D01*
X-1358509Y-6395150D02*
X-1329937Y-6395150D01*
X-1329937Y-6395150D02*
X-1310890Y-6404674D01*
X-1310890Y-6404674D02*
X-1301366Y-6423722D01*
X-1301366Y-6423722D02*
X-1301366Y-6528484D01*
X-1301366Y-6423722D02*
X-1291842Y-6404674D01*
X-1291842Y-6404674D02*
X-1272795Y-6395150D01*
X-1272795Y-6395150D02*
X-1244223Y-6395150D01*
X-1244223Y-6395150D02*
X-1225176Y-6404674D01*
X-1225176Y-6404674D02*
X-1215652Y-6423722D01*
X-1215652Y-6423722D02*
X-1215652Y-6528484D01*
X-1120414Y-6528484D02*
X-1120414Y-6395150D01*
X-1120414Y-6414198D02*
X-1110890Y-6404674D01*
X-1110890Y-6404674D02*
X-1091842Y-6395150D01*
X-1091842Y-6395150D02*
X-1063271Y-6395150D01*
X-1063271Y-6395150D02*
X-1044223Y-6404674D01*
X-1044223Y-6404674D02*
X-1034699Y-6423722D01*
X-1034699Y-6423722D02*
X-1034699Y-6528484D01*
X-1034699Y-6423722D02*
X-1025175Y-6404674D01*
X-1025175Y-6404674D02*
X-1006128Y-6395150D01*
X-1006128Y-6395150D02*
X-977556Y-6395150D01*
X-977556Y-6395150D02*
X-958509Y-6404674D01*
X-958509Y-6404674D02*
X-948985Y-6423722D01*
X-948985Y-6423722D02*
X-948985Y-6528484D01*
X-558509Y-6318960D02*
X-729937Y-6576103D01*
X-301366Y-6328484D02*
X-282318Y-6328484D01*
X-282318Y-6328484D02*
X-263271Y-6338008D01*
X-263271Y-6338008D02*
X-253747Y-6347531D01*
X-253747Y-6347531D02*
X-244223Y-6366579D01*
X-244223Y-6366579D02*
X-234699Y-6404674D01*
X-234699Y-6404674D02*
X-234699Y-6452293D01*
X-234699Y-6452293D02*
X-244223Y-6490388D01*
X-244223Y-6490388D02*
X-253747Y-6509436D01*
X-253747Y-6509436D02*
X-263271Y-6518960D01*
X-263271Y-6518960D02*
X-282318Y-6528484D01*
X-282318Y-6528484D02*
X-301366Y-6528484D01*
X-301366Y-6528484D02*
X-320414Y-6518960D01*
X-320414Y-6518960D02*
X-329937Y-6509436D01*
X-329937Y-6509436D02*
X-339461Y-6490388D01*
X-339461Y-6490388D02*
X-348985Y-6452293D01*
X-348985Y-6452293D02*
X-348985Y-6404674D01*
X-348985Y-6404674D02*
X-339461Y-6366579D01*
X-339461Y-6366579D02*
X-329937Y-6347531D01*
X-329937Y-6347531D02*
X-320414Y-6338008D01*
X-320414Y-6338008D02*
X-301366Y-6328484D01*
X-148985Y-6509436D02*
X-139461Y-6518960D01*
X-139461Y-6518960D02*
X-148985Y-6528484D01*
X-148985Y-6528484D02*
X-158509Y-6518960D01*
X-158509Y-6518960D02*
X-148985Y-6509436D01*
X-148985Y-6509436D02*
X-148985Y-6528484D01*
X-15652Y-6328484D02*
X3396Y-6328484D01*
X3396Y-6328484D02*
X22444Y-6338008D01*
X22444Y-6338008D02*
X31967Y-6347531D01*
X31967Y-6347531D02*
X41491Y-6366579D01*
X41491Y-6366579D02*
X51015Y-6404674D01*
X51015Y-6404674D02*
X51015Y-6452293D01*
X51015Y-6452293D02*
X41491Y-6490388D01*
X41491Y-6490388D02*
X31967Y-6509436D01*
X31967Y-6509436D02*
X22444Y-6518960D01*
X22444Y-6518960D02*
X3396Y-6528484D01*
X3396Y-6528484D02*
X-15652Y-6528484D01*
X-15652Y-6528484D02*
X-34699Y-6518960D01*
X-34699Y-6518960D02*
X-44223Y-6509436D01*
X-44223Y-6509436D02*
X-53747Y-6490388D01*
X-53747Y-6490388D02*
X-63271Y-6452293D01*
X-63271Y-6452293D02*
X-63271Y-6404674D01*
X-63271Y-6404674D02*
X-53747Y-6366579D01*
X-53747Y-6366579D02*
X-44223Y-6347531D01*
X-44223Y-6347531D02*
X-34699Y-6338008D01*
X-34699Y-6338008D02*
X-15652Y-6328484D01*
X117682Y-6328484D02*
X241491Y-6328484D01*
X241491Y-6328484D02*
X174825Y-6404674D01*
X174825Y-6404674D02*
X203396Y-6404674D01*
X203396Y-6404674D02*
X222444Y-6414198D01*
X222444Y-6414198D02*
X231967Y-6423722D01*
X231967Y-6423722D02*
X241491Y-6442769D01*
X241491Y-6442769D02*
X241491Y-6490388D01*
X241491Y-6490388D02*
X231967Y-6509436D01*
X231967Y-6509436D02*
X222444Y-6518960D01*
X222444Y-6518960D02*
X203396Y-6528484D01*
X203396Y-6528484D02*
X146253Y-6528484D01*
X146253Y-6528484D02*
X127206Y-6518960D01*
X127206Y-6518960D02*
X117682Y-6509436D01*
X431967Y-6528484D02*
X317682Y-6528484D01*
X374825Y-6528484D02*
X374825Y-6328484D01*
X374825Y-6328484D02*
X355777Y-6357055D01*
X355777Y-6357055D02*
X336729Y-6376103D01*
X336729Y-6376103D02*
X317682Y-6385627D01*
X612920Y-6328484D02*
X517682Y-6328484D01*
X517682Y-6328484D02*
X508158Y-6423722D01*
X508158Y-6423722D02*
X517682Y-6414198D01*
X517682Y-6414198D02*
X536729Y-6404674D01*
X536729Y-6404674D02*
X584349Y-6404674D01*
X584349Y-6404674D02*
X603396Y-6414198D01*
X603396Y-6414198D02*
X612920Y-6423722D01*
X612920Y-6423722D02*
X622444Y-6442769D01*
X622444Y-6442769D02*
X622444Y-6490388D01*
X622444Y-6490388D02*
X612920Y-6509436D01*
X612920Y-6509436D02*
X603396Y-6518960D01*
X603396Y-6518960D02*
X584349Y-6528484D01*
X584349Y-6528484D02*
X536729Y-6528484D01*
X536729Y-6528484D02*
X517682Y-6518960D01*
X517682Y-6518960D02*
X508158Y-6509436D01*
X698634Y-6328484D02*
X698634Y-6366579D01*
X774825Y-6328484D02*
X774825Y-6366579D01*
X1070063Y-6604674D02*
X1060539Y-6595150D01*
X1060539Y-6595150D02*
X1041491Y-6566579D01*
X1041491Y-6566579D02*
X1031968Y-6547531D01*
X1031968Y-6547531D02*
X1022444Y-6518960D01*
X1022444Y-6518960D02*
X1012920Y-6471341D01*
X1012920Y-6471341D02*
X1012920Y-6433246D01*
X1012920Y-6433246D02*
X1022444Y-6385627D01*
X1022444Y-6385627D02*
X1031968Y-6357055D01*
X1031968Y-6357055D02*
X1041491Y-6338008D01*
X1041491Y-6338008D02*
X1060539Y-6309436D01*
X1060539Y-6309436D02*
X1070063Y-6299912D01*
X1136730Y-6347531D02*
X1146253Y-6338008D01*
X1146253Y-6338008D02*
X1165301Y-6328484D01*
X1165301Y-6328484D02*
X1212920Y-6328484D01*
X1212920Y-6328484D02*
X1231968Y-6338008D01*
X1231968Y-6338008D02*
X1241491Y-6347531D01*
X1241491Y-6347531D02*
X1251015Y-6366579D01*
X1251015Y-6366579D02*
X1251015Y-6385627D01*
X1251015Y-6385627D02*
X1241491Y-6414198D01*
X1241491Y-6414198D02*
X1127206Y-6528484D01*
X1127206Y-6528484D02*
X1251015Y-6528484D01*
X1489110Y-6528484D02*
X1489110Y-6328484D01*
X1574825Y-6528484D02*
X1574825Y-6423722D01*
X1574825Y-6423722D02*
X1565301Y-6404674D01*
X1565301Y-6404674D02*
X1546253Y-6395150D01*
X1546253Y-6395150D02*
X1517682Y-6395150D01*
X1517682Y-6395150D02*
X1498634Y-6404674D01*
X1498634Y-6404674D02*
X1489110Y-6414198D01*
X1698634Y-6528484D02*
X1679587Y-6518960D01*
X1679587Y-6518960D02*
X1670063Y-6509436D01*
X1670063Y-6509436D02*
X1660539Y-6490388D01*
X1660539Y-6490388D02*
X1660539Y-6433246D01*
X1660539Y-6433246D02*
X1670063Y-6414198D01*
X1670063Y-6414198D02*
X1679587Y-6404674D01*
X1679587Y-6404674D02*
X1698634Y-6395150D01*
X1698634Y-6395150D02*
X1727206Y-6395150D01*
X1727206Y-6395150D02*
X1746253Y-6404674D01*
X1746253Y-6404674D02*
X1755777Y-6414198D01*
X1755777Y-6414198D02*
X1765301Y-6433246D01*
X1765301Y-6433246D02*
X1765301Y-6490388D01*
X1765301Y-6490388D02*
X1755777Y-6509436D01*
X1755777Y-6509436D02*
X1746253Y-6518960D01*
X1746253Y-6518960D02*
X1727206Y-6528484D01*
X1727206Y-6528484D02*
X1698634Y-6528484D01*
X1879587Y-6528484D02*
X1860539Y-6518960D01*
X1860539Y-6518960D02*
X1851015Y-6499912D01*
X1851015Y-6499912D02*
X1851015Y-6328484D01*
X2031968Y-6518960D02*
X2012920Y-6528484D01*
X2012920Y-6528484D02*
X1974825Y-6528484D01*
X1974825Y-6528484D02*
X1955777Y-6518960D01*
X1955777Y-6518960D02*
X1946253Y-6499912D01*
X1946253Y-6499912D02*
X1946253Y-6423722D01*
X1946253Y-6423722D02*
X1955777Y-6404674D01*
X1955777Y-6404674D02*
X1974825Y-6395150D01*
X1974825Y-6395150D02*
X2012920Y-6395150D01*
X2012920Y-6395150D02*
X2031968Y-6404674D01*
X2031968Y-6404674D02*
X2041491Y-6423722D01*
X2041491Y-6423722D02*
X2041491Y-6442769D01*
X2041491Y-6442769D02*
X1946253Y-6461817D01*
X2117682Y-6518960D02*
X2136730Y-6528484D01*
X2136730Y-6528484D02*
X2174825Y-6528484D01*
X2174825Y-6528484D02*
X2193873Y-6518960D01*
X2193873Y-6518960D02*
X2203396Y-6499912D01*
X2203396Y-6499912D02*
X2203396Y-6490388D01*
X2203396Y-6490388D02*
X2193873Y-6471341D01*
X2193873Y-6471341D02*
X2174825Y-6461817D01*
X2174825Y-6461817D02*
X2146253Y-6461817D01*
X2146253Y-6461817D02*
X2127206Y-6452293D01*
X2127206Y-6452293D02*
X2117682Y-6433246D01*
X2117682Y-6433246D02*
X2117682Y-6423722D01*
X2117682Y-6423722D02*
X2127206Y-6404674D01*
X2127206Y-6404674D02*
X2146253Y-6395150D01*
X2146253Y-6395150D02*
X2174825Y-6395150D01*
X2174825Y-6395150D02*
X2193873Y-6404674D01*
X2441492Y-6452293D02*
X2593873Y-6452293D01*
X2517682Y-6528484D02*
X2517682Y-6376103D01*
X2831968Y-6347531D02*
X2841492Y-6338008D01*
X2841492Y-6338008D02*
X2860539Y-6328484D01*
X2860539Y-6328484D02*
X2908158Y-6328484D01*
X2908158Y-6328484D02*
X2927206Y-6338008D01*
X2927206Y-6338008D02*
X2936730Y-6347531D01*
X2936730Y-6347531D02*
X2946253Y-6366579D01*
X2946253Y-6366579D02*
X2946253Y-6385627D01*
X2946253Y-6385627D02*
X2936730Y-6414198D01*
X2936730Y-6414198D02*
X2822444Y-6528484D01*
X2822444Y-6528484D02*
X2946253Y-6528484D01*
X3174825Y-6518960D02*
X3193873Y-6528484D01*
X3193873Y-6528484D02*
X3231968Y-6528484D01*
X3231968Y-6528484D02*
X3251015Y-6518960D01*
X3251015Y-6518960D02*
X3260539Y-6499912D01*
X3260539Y-6499912D02*
X3260539Y-6490388D01*
X3260539Y-6490388D02*
X3251015Y-6471341D01*
X3251015Y-6471341D02*
X3231968Y-6461817D01*
X3231968Y-6461817D02*
X3203396Y-6461817D01*
X3203396Y-6461817D02*
X3184349Y-6452293D01*
X3184349Y-6452293D02*
X3174825Y-6433246D01*
X3174825Y-6433246D02*
X3174825Y-6423722D01*
X3174825Y-6423722D02*
X3184349Y-6404674D01*
X3184349Y-6404674D02*
X3203396Y-6395150D01*
X3203396Y-6395150D02*
X3231968Y-6395150D01*
X3231968Y-6395150D02*
X3251015Y-6404674D01*
X3374825Y-6528484D02*
X3355777Y-6518960D01*
X3355777Y-6518960D02*
X3346254Y-6499912D01*
X3346254Y-6499912D02*
X3346254Y-6328484D01*
X3479587Y-6528484D02*
X3460539Y-6518960D01*
X3460539Y-6518960D02*
X3451015Y-6509436D01*
X3451015Y-6509436D02*
X3441492Y-6490388D01*
X3441492Y-6490388D02*
X3441492Y-6433246D01*
X3441492Y-6433246D02*
X3451015Y-6414198D01*
X3451015Y-6414198D02*
X3460539Y-6404674D01*
X3460539Y-6404674D02*
X3479587Y-6395150D01*
X3479587Y-6395150D02*
X3508158Y-6395150D01*
X3508158Y-6395150D02*
X3527206Y-6404674D01*
X3527206Y-6404674D02*
X3536730Y-6414198D01*
X3536730Y-6414198D02*
X3546254Y-6433246D01*
X3546254Y-6433246D02*
X3546254Y-6490388D01*
X3546254Y-6490388D02*
X3536730Y-6509436D01*
X3536730Y-6509436D02*
X3527206Y-6518960D01*
X3527206Y-6518960D02*
X3508158Y-6528484D01*
X3508158Y-6528484D02*
X3479587Y-6528484D01*
X3603396Y-6395150D02*
X3679587Y-6395150D01*
X3631968Y-6328484D02*
X3631968Y-6499912D01*
X3631968Y-6499912D02*
X3641492Y-6518960D01*
X3641492Y-6518960D02*
X3660539Y-6528484D01*
X3660539Y-6528484D02*
X3679587Y-6528484D01*
X3736730Y-6518960D02*
X3755777Y-6528484D01*
X3755777Y-6528484D02*
X3793873Y-6528484D01*
X3793873Y-6528484D02*
X3812920Y-6518960D01*
X3812920Y-6518960D02*
X3822444Y-6499912D01*
X3822444Y-6499912D02*
X3822444Y-6490388D01*
X3822444Y-6490388D02*
X3812920Y-6471341D01*
X3812920Y-6471341D02*
X3793873Y-6461817D01*
X3793873Y-6461817D02*
X3765301Y-6461817D01*
X3765301Y-6461817D02*
X3746254Y-6452293D01*
X3746254Y-6452293D02*
X3736730Y-6433246D01*
X3736730Y-6433246D02*
X3736730Y-6423722D01*
X3736730Y-6423722D02*
X3746254Y-6404674D01*
X3746254Y-6404674D02*
X3765301Y-6395150D01*
X3765301Y-6395150D02*
X3793873Y-6395150D01*
X3793873Y-6395150D02*
X3812920Y-6404674D01*
X3889111Y-6604674D02*
X3898635Y-6595150D01*
X3898635Y-6595150D02*
X3917682Y-6566579D01*
X3917682Y-6566579D02*
X3927206Y-6547531D01*
X3927206Y-6547531D02*
X3936730Y-6518960D01*
X3936730Y-6518960D02*
X3946254Y-6471341D01*
X3946254Y-6471341D02*
X3946254Y-6433246D01*
X3946254Y-6433246D02*
X3936730Y-6385627D01*
X3936730Y-6385627D02*
X3927206Y-6357055D01*
X3927206Y-6357055D02*
X3917682Y-6338008D01*
X3917682Y-6338008D02*
X3898635Y-6309436D01*
X3898635Y-6309436D02*
X3889111Y-6299912D01*
D10*
X-2550000Y-6746000D02*
X-2505000Y-6701000D01*
X-2550000Y-6656000D01*
X-2595000Y-6701000D01*
X-2550000Y-6746000D01*
D11*
X-2206128Y-6592484D02*
X-2187080Y-6592484D01*
X-2187080Y-6592484D02*
X-2168033Y-6602008D01*
X-2168033Y-6602008D02*
X-2158509Y-6611531D01*
X-2158509Y-6611531D02*
X-2148985Y-6630579D01*
X-2148985Y-6630579D02*
X-2139461Y-6668674D01*
X-2139461Y-6668674D02*
X-2139461Y-6716293D01*
X-2139461Y-6716293D02*
X-2148985Y-6754388D01*
X-2148985Y-6754388D02*
X-2158509Y-6773436D01*
X-2158509Y-6773436D02*
X-2168033Y-6782960D01*
X-2168033Y-6782960D02*
X-2187080Y-6792484D01*
X-2187080Y-6792484D02*
X-2206128Y-6792484D01*
X-2206128Y-6792484D02*
X-2225176Y-6782960D01*
X-2225176Y-6782960D02*
X-2234699Y-6773436D01*
X-2234699Y-6773436D02*
X-2244223Y-6754388D01*
X-2244223Y-6754388D02*
X-2253747Y-6716293D01*
X-2253747Y-6716293D02*
X-2253747Y-6668674D01*
X-2253747Y-6668674D02*
X-2244223Y-6630579D01*
X-2244223Y-6630579D02*
X-2234699Y-6611531D01*
X-2234699Y-6611531D02*
X-2225176Y-6602008D01*
X-2225176Y-6602008D02*
X-2206128Y-6592484D01*
X-2053747Y-6773436D02*
X-2044223Y-6782960D01*
X-2044223Y-6782960D02*
X-2053747Y-6792484D01*
X-2053747Y-6792484D02*
X-2063271Y-6782960D01*
X-2063271Y-6782960D02*
X-2053747Y-6773436D01*
X-2053747Y-6773436D02*
X-2053747Y-6792484D01*
X-1948985Y-6792484D02*
X-1910890Y-6792484D01*
X-1910890Y-6792484D02*
X-1891842Y-6782960D01*
X-1891842Y-6782960D02*
X-1882318Y-6773436D01*
X-1882318Y-6773436D02*
X-1863271Y-6744865D01*
X-1863271Y-6744865D02*
X-1853747Y-6706769D01*
X-1853747Y-6706769D02*
X-1853747Y-6630579D01*
X-1853747Y-6630579D02*
X-1863271Y-6611531D01*
X-1863271Y-6611531D02*
X-1872795Y-6602008D01*
X-1872795Y-6602008D02*
X-1891842Y-6592484D01*
X-1891842Y-6592484D02*
X-1929937Y-6592484D01*
X-1929937Y-6592484D02*
X-1948985Y-6602008D01*
X-1948985Y-6602008D02*
X-1958509Y-6611531D01*
X-1958509Y-6611531D02*
X-1968033Y-6630579D01*
X-1968033Y-6630579D02*
X-1968033Y-6678198D01*
X-1968033Y-6678198D02*
X-1958509Y-6697246D01*
X-1958509Y-6697246D02*
X-1948985Y-6706769D01*
X-1948985Y-6706769D02*
X-1929937Y-6716293D01*
X-1929937Y-6716293D02*
X-1891842Y-6716293D01*
X-1891842Y-6716293D02*
X-1872795Y-6706769D01*
X-1872795Y-6706769D02*
X-1863271Y-6697246D01*
X-1863271Y-6697246D02*
X-1853747Y-6678198D01*
X-1729937Y-6592484D02*
X-1710890Y-6592484D01*
X-1710890Y-6592484D02*
X-1691842Y-6602008D01*
X-1691842Y-6602008D02*
X-1682318Y-6611531D01*
X-1682318Y-6611531D02*
X-1672795Y-6630579D01*
X-1672795Y-6630579D02*
X-1663271Y-6668674D01*
X-1663271Y-6668674D02*
X-1663271Y-6716293D01*
X-1663271Y-6716293D02*
X-1672795Y-6754388D01*
X-1672795Y-6754388D02*
X-1682318Y-6773436D01*
X-1682318Y-6773436D02*
X-1691842Y-6782960D01*
X-1691842Y-6782960D02*
X-1710890Y-6792484D01*
X-1710890Y-6792484D02*
X-1729937Y-6792484D01*
X-1729937Y-6792484D02*
X-1748985Y-6782960D01*
X-1748985Y-6782960D02*
X-1758509Y-6773436D01*
X-1758509Y-6773436D02*
X-1768033Y-6754388D01*
X-1768033Y-6754388D02*
X-1777556Y-6716293D01*
X-1777556Y-6716293D02*
X-1777556Y-6668674D01*
X-1777556Y-6668674D02*
X-1768033Y-6630579D01*
X-1768033Y-6630579D02*
X-1758509Y-6611531D01*
X-1758509Y-6611531D02*
X-1748985Y-6602008D01*
X-1748985Y-6602008D02*
X-1729937Y-6592484D01*
X-1539461Y-6592484D02*
X-1520414Y-6592484D01*
X-1520414Y-6592484D02*
X-1501366Y-6602008D01*
X-1501366Y-6602008D02*
X-1491842Y-6611531D01*
X-1491842Y-6611531D02*
X-1482318Y-6630579D01*
X-1482318Y-6630579D02*
X-1472795Y-6668674D01*
X-1472795Y-6668674D02*
X-1472795Y-6716293D01*
X-1472795Y-6716293D02*
X-1482318Y-6754388D01*
X-1482318Y-6754388D02*
X-1491842Y-6773436D01*
X-1491842Y-6773436D02*
X-1501366Y-6782960D01*
X-1501366Y-6782960D02*
X-1520414Y-6792484D01*
X-1520414Y-6792484D02*
X-1539461Y-6792484D01*
X-1539461Y-6792484D02*
X-1558509Y-6782960D01*
X-1558509Y-6782960D02*
X-1568033Y-6773436D01*
X-1568033Y-6773436D02*
X-1577556Y-6754388D01*
X-1577556Y-6754388D02*
X-1587080Y-6716293D01*
X-1587080Y-6716293D02*
X-1587080Y-6668674D01*
X-1587080Y-6668674D02*
X-1577556Y-6630579D01*
X-1577556Y-6630579D02*
X-1568033Y-6611531D01*
X-1568033Y-6611531D02*
X-1558509Y-6602008D01*
X-1558509Y-6602008D02*
X-1539461Y-6592484D01*
X-1387080Y-6792484D02*
X-1387080Y-6659150D01*
X-1387080Y-6678198D02*
X-1377557Y-6668674D01*
X-1377557Y-6668674D02*
X-1358509Y-6659150D01*
X-1358509Y-6659150D02*
X-1329937Y-6659150D01*
X-1329937Y-6659150D02*
X-1310890Y-6668674D01*
X-1310890Y-6668674D02*
X-1301366Y-6687722D01*
X-1301366Y-6687722D02*
X-1301366Y-6792484D01*
X-1301366Y-6687722D02*
X-1291842Y-6668674D01*
X-1291842Y-6668674D02*
X-1272795Y-6659150D01*
X-1272795Y-6659150D02*
X-1244223Y-6659150D01*
X-1244223Y-6659150D02*
X-1225176Y-6668674D01*
X-1225176Y-6668674D02*
X-1215652Y-6687722D01*
X-1215652Y-6687722D02*
X-1215652Y-6792484D01*
X-1120414Y-6792484D02*
X-1120414Y-6659150D01*
X-1120414Y-6678198D02*
X-1110890Y-6668674D01*
X-1110890Y-6668674D02*
X-1091842Y-6659150D01*
X-1091842Y-6659150D02*
X-1063271Y-6659150D01*
X-1063271Y-6659150D02*
X-1044223Y-6668674D01*
X-1044223Y-6668674D02*
X-1034699Y-6687722D01*
X-1034699Y-6687722D02*
X-1034699Y-6792484D01*
X-1034699Y-6687722D02*
X-1025175Y-6668674D01*
X-1025175Y-6668674D02*
X-1006128Y-6659150D01*
X-1006128Y-6659150D02*
X-977556Y-6659150D01*
X-977556Y-6659150D02*
X-958509Y-6668674D01*
X-958509Y-6668674D02*
X-948985Y-6687722D01*
X-948985Y-6687722D02*
X-948985Y-6792484D01*
X-558509Y-6582960D02*
X-729937Y-6840103D01*
X-301366Y-6592484D02*
X-282318Y-6592484D01*
X-282318Y-6592484D02*
X-263271Y-6602008D01*
X-263271Y-6602008D02*
X-253747Y-6611531D01*
X-253747Y-6611531D02*
X-244223Y-6630579D01*
X-244223Y-6630579D02*
X-234699Y-6668674D01*
X-234699Y-6668674D02*
X-234699Y-6716293D01*
X-234699Y-6716293D02*
X-244223Y-6754388D01*
X-244223Y-6754388D02*
X-253747Y-6773436D01*
X-253747Y-6773436D02*
X-263271Y-6782960D01*
X-263271Y-6782960D02*
X-282318Y-6792484D01*
X-282318Y-6792484D02*
X-301366Y-6792484D01*
X-301366Y-6792484D02*
X-320414Y-6782960D01*
X-320414Y-6782960D02*
X-329937Y-6773436D01*
X-329937Y-6773436D02*
X-339461Y-6754388D01*
X-339461Y-6754388D02*
X-348985Y-6716293D01*
X-348985Y-6716293D02*
X-348985Y-6668674D01*
X-348985Y-6668674D02*
X-339461Y-6630579D01*
X-339461Y-6630579D02*
X-329937Y-6611531D01*
X-329937Y-6611531D02*
X-320414Y-6602008D01*
X-320414Y-6602008D02*
X-301366Y-6592484D01*
X-148985Y-6773436D02*
X-139461Y-6782960D01*
X-139461Y-6782960D02*
X-148985Y-6792484D01*
X-148985Y-6792484D02*
X-158509Y-6782960D01*
X-158509Y-6782960D02*
X-148985Y-6773436D01*
X-148985Y-6773436D02*
X-148985Y-6792484D01*
X-15652Y-6592484D02*
X3396Y-6592484D01*
X3396Y-6592484D02*
X22444Y-6602008D01*
X22444Y-6602008D02*
X31967Y-6611531D01*
X31967Y-6611531D02*
X41491Y-6630579D01*
X41491Y-6630579D02*
X51015Y-6668674D01*
X51015Y-6668674D02*
X51015Y-6716293D01*
X51015Y-6716293D02*
X41491Y-6754388D01*
X41491Y-6754388D02*
X31967Y-6773436D01*
X31967Y-6773436D02*
X22444Y-6782960D01*
X22444Y-6782960D02*
X3396Y-6792484D01*
X3396Y-6792484D02*
X-15652Y-6792484D01*
X-15652Y-6792484D02*
X-34699Y-6782960D01*
X-34699Y-6782960D02*
X-44223Y-6773436D01*
X-44223Y-6773436D02*
X-53747Y-6754388D01*
X-53747Y-6754388D02*
X-63271Y-6716293D01*
X-63271Y-6716293D02*
X-63271Y-6668674D01*
X-63271Y-6668674D02*
X-53747Y-6630579D01*
X-53747Y-6630579D02*
X-44223Y-6611531D01*
X-44223Y-6611531D02*
X-34699Y-6602008D01*
X-34699Y-6602008D02*
X-15652Y-6592484D01*
X117682Y-6592484D02*
X241491Y-6592484D01*
X241491Y-6592484D02*
X174825Y-6668674D01*
X174825Y-6668674D02*
X203396Y-6668674D01*
X203396Y-6668674D02*
X222444Y-6678198D01*
X222444Y-6678198D02*
X231967Y-6687722D01*
X231967Y-6687722D02*
X241491Y-6706769D01*
X241491Y-6706769D02*
X241491Y-6754388D01*
X241491Y-6754388D02*
X231967Y-6773436D01*
X231967Y-6773436D02*
X222444Y-6782960D01*
X222444Y-6782960D02*
X203396Y-6792484D01*
X203396Y-6792484D02*
X146253Y-6792484D01*
X146253Y-6792484D02*
X127206Y-6782960D01*
X127206Y-6782960D02*
X117682Y-6773436D01*
X422444Y-6592484D02*
X327206Y-6592484D01*
X327206Y-6592484D02*
X317682Y-6687722D01*
X317682Y-6687722D02*
X327206Y-6678198D01*
X327206Y-6678198D02*
X346253Y-6668674D01*
X346253Y-6668674D02*
X393872Y-6668674D01*
X393872Y-6668674D02*
X412920Y-6678198D01*
X412920Y-6678198D02*
X422444Y-6687722D01*
X422444Y-6687722D02*
X431967Y-6706769D01*
X431967Y-6706769D02*
X431967Y-6754388D01*
X431967Y-6754388D02*
X422444Y-6773436D01*
X422444Y-6773436D02*
X412920Y-6782960D01*
X412920Y-6782960D02*
X393872Y-6792484D01*
X393872Y-6792484D02*
X346253Y-6792484D01*
X346253Y-6792484D02*
X327206Y-6782960D01*
X327206Y-6782960D02*
X317682Y-6773436D01*
X603396Y-6659150D02*
X603396Y-6792484D01*
X555777Y-6582960D02*
X508158Y-6725817D01*
X508158Y-6725817D02*
X631968Y-6725817D01*
X698634Y-6592484D02*
X698634Y-6630579D01*
X774825Y-6592484D02*
X774825Y-6630579D01*
X1070063Y-6868674D02*
X1060539Y-6859150D01*
X1060539Y-6859150D02*
X1041491Y-6830579D01*
X1041491Y-6830579D02*
X1031968Y-6811531D01*
X1031968Y-6811531D02*
X1022444Y-6782960D01*
X1022444Y-6782960D02*
X1012920Y-6735341D01*
X1012920Y-6735341D02*
X1012920Y-6697246D01*
X1012920Y-6697246D02*
X1022444Y-6649627D01*
X1022444Y-6649627D02*
X1031968Y-6621055D01*
X1031968Y-6621055D02*
X1041491Y-6602008D01*
X1041491Y-6602008D02*
X1060539Y-6573436D01*
X1060539Y-6573436D02*
X1070063Y-6563912D01*
X1251015Y-6792484D02*
X1136730Y-6792484D01*
X1193872Y-6792484D02*
X1193872Y-6592484D01*
X1193872Y-6592484D02*
X1174825Y-6621055D01*
X1174825Y-6621055D02*
X1155777Y-6640103D01*
X1155777Y-6640103D02*
X1136730Y-6649627D01*
X1422444Y-6592484D02*
X1384349Y-6592484D01*
X1384349Y-6592484D02*
X1365301Y-6602008D01*
X1365301Y-6602008D02*
X1355777Y-6611531D01*
X1355777Y-6611531D02*
X1336730Y-6640103D01*
X1336730Y-6640103D02*
X1327206Y-6678198D01*
X1327206Y-6678198D02*
X1327206Y-6754388D01*
X1327206Y-6754388D02*
X1336730Y-6773436D01*
X1336730Y-6773436D02*
X1346253Y-6782960D01*
X1346253Y-6782960D02*
X1365301Y-6792484D01*
X1365301Y-6792484D02*
X1403396Y-6792484D01*
X1403396Y-6792484D02*
X1422444Y-6782960D01*
X1422444Y-6782960D02*
X1431968Y-6773436D01*
X1431968Y-6773436D02*
X1441491Y-6754388D01*
X1441491Y-6754388D02*
X1441491Y-6706769D01*
X1441491Y-6706769D02*
X1431968Y-6687722D01*
X1431968Y-6687722D02*
X1422444Y-6678198D01*
X1422444Y-6678198D02*
X1403396Y-6668674D01*
X1403396Y-6668674D02*
X1365301Y-6668674D01*
X1365301Y-6668674D02*
X1346253Y-6678198D01*
X1346253Y-6678198D02*
X1336730Y-6687722D01*
X1336730Y-6687722D02*
X1327206Y-6706769D01*
X1679587Y-6792484D02*
X1679587Y-6592484D01*
X1765301Y-6792484D02*
X1765301Y-6687722D01*
X1765301Y-6687722D02*
X1755777Y-6668674D01*
X1755777Y-6668674D02*
X1736730Y-6659150D01*
X1736730Y-6659150D02*
X1708158Y-6659150D01*
X1708158Y-6659150D02*
X1689110Y-6668674D01*
X1689110Y-6668674D02*
X1679587Y-6678198D01*
X1889110Y-6792484D02*
X1870063Y-6782960D01*
X1870063Y-6782960D02*
X1860539Y-6773436D01*
X1860539Y-6773436D02*
X1851015Y-6754388D01*
X1851015Y-6754388D02*
X1851015Y-6697246D01*
X1851015Y-6697246D02*
X1860539Y-6678198D01*
X1860539Y-6678198D02*
X1870063Y-6668674D01*
X1870063Y-6668674D02*
X1889110Y-6659150D01*
X1889110Y-6659150D02*
X1917682Y-6659150D01*
X1917682Y-6659150D02*
X1936730Y-6668674D01*
X1936730Y-6668674D02*
X1946253Y-6678198D01*
X1946253Y-6678198D02*
X1955777Y-6697246D01*
X1955777Y-6697246D02*
X1955777Y-6754388D01*
X1955777Y-6754388D02*
X1946253Y-6773436D01*
X1946253Y-6773436D02*
X1936730Y-6782960D01*
X1936730Y-6782960D02*
X1917682Y-6792484D01*
X1917682Y-6792484D02*
X1889110Y-6792484D01*
X2070063Y-6792484D02*
X2051015Y-6782960D01*
X2051015Y-6782960D02*
X2041491Y-6763912D01*
X2041491Y-6763912D02*
X2041491Y-6592484D01*
X2222444Y-6782960D02*
X2203396Y-6792484D01*
X2203396Y-6792484D02*
X2165301Y-6792484D01*
X2165301Y-6792484D02*
X2146253Y-6782960D01*
X2146253Y-6782960D02*
X2136730Y-6763912D01*
X2136730Y-6763912D02*
X2136730Y-6687722D01*
X2136730Y-6687722D02*
X2146253Y-6668674D01*
X2146253Y-6668674D02*
X2165301Y-6659150D01*
X2165301Y-6659150D02*
X2203396Y-6659150D01*
X2203396Y-6659150D02*
X2222444Y-6668674D01*
X2222444Y-6668674D02*
X2231968Y-6687722D01*
X2231968Y-6687722D02*
X2231968Y-6706769D01*
X2231968Y-6706769D02*
X2136730Y-6725817D01*
X2308158Y-6782960D02*
X2327206Y-6792484D01*
X2327206Y-6792484D02*
X2365301Y-6792484D01*
X2365301Y-6792484D02*
X2384349Y-6782960D01*
X2384349Y-6782960D02*
X2393873Y-6763912D01*
X2393873Y-6763912D02*
X2393873Y-6754388D01*
X2393873Y-6754388D02*
X2384349Y-6735341D01*
X2384349Y-6735341D02*
X2365301Y-6725817D01*
X2365301Y-6725817D02*
X2336730Y-6725817D01*
X2336730Y-6725817D02*
X2317682Y-6716293D01*
X2317682Y-6716293D02*
X2308158Y-6697246D01*
X2308158Y-6697246D02*
X2308158Y-6687722D01*
X2308158Y-6687722D02*
X2317682Y-6668674D01*
X2317682Y-6668674D02*
X2336730Y-6659150D01*
X2336730Y-6659150D02*
X2365301Y-6659150D01*
X2365301Y-6659150D02*
X2384349Y-6668674D01*
X2460539Y-6868674D02*
X2470063Y-6859150D01*
X2470063Y-6859150D02*
X2489111Y-6830579D01*
X2489111Y-6830579D02*
X2498634Y-6811531D01*
X2498634Y-6811531D02*
X2508158Y-6782960D01*
X2508158Y-6782960D02*
X2517682Y-6735341D01*
X2517682Y-6735341D02*
X2517682Y-6697246D01*
X2517682Y-6697246D02*
X2508158Y-6649627D01*
X2508158Y-6649627D02*
X2498634Y-6621055D01*
X2498634Y-6621055D02*
X2489111Y-6602008D01*
X2489111Y-6602008D02*
X2470063Y-6573436D01*
X2470063Y-6573436D02*
X2460539Y-6563912D01*
D10*
X-2605000Y-6915000D02*
X-2505000Y-7015000D01*
X-2505000Y-6915000D02*
X-2605000Y-7015000D01*
X-2505000Y-6965000D02*
G75*
G02*
X-2605000Y-6965000I-50000J0D01*
G01*
X-2605000Y-6965000D02*
G75*
G02*
X-2505000Y-6965000I50000J0D01*
G01*
D11*
X-2139461Y-7056484D02*
X-2253747Y-7056484D01*
X-2196604Y-7056484D02*
X-2196604Y-6856484D01*
X-2196604Y-6856484D02*
X-2215652Y-6885055D01*
X-2215652Y-6885055D02*
X-2234699Y-6904103D01*
X-2234699Y-6904103D02*
X-2253747Y-6913627D01*
X-2053747Y-7037436D02*
X-2044223Y-7046960D01*
X-2044223Y-7046960D02*
X-2053747Y-7056484D01*
X-2053747Y-7056484D02*
X-2063271Y-7046960D01*
X-2063271Y-7046960D02*
X-2053747Y-7037436D01*
X-2053747Y-7037436D02*
X-2053747Y-7056484D01*
X-1920414Y-6856484D02*
X-1901366Y-6856484D01*
X-1901366Y-6856484D02*
X-1882318Y-6866008D01*
X-1882318Y-6866008D02*
X-1872795Y-6875531D01*
X-1872795Y-6875531D02*
X-1863271Y-6894579D01*
X-1863271Y-6894579D02*
X-1853747Y-6932674D01*
X-1853747Y-6932674D02*
X-1853747Y-6980293D01*
X-1853747Y-6980293D02*
X-1863271Y-7018388D01*
X-1863271Y-7018388D02*
X-1872795Y-7037436D01*
X-1872795Y-7037436D02*
X-1882318Y-7046960D01*
X-1882318Y-7046960D02*
X-1901366Y-7056484D01*
X-1901366Y-7056484D02*
X-1920414Y-7056484D01*
X-1920414Y-7056484D02*
X-1939461Y-7046960D01*
X-1939461Y-7046960D02*
X-1948985Y-7037436D01*
X-1948985Y-7037436D02*
X-1958509Y-7018388D01*
X-1958509Y-7018388D02*
X-1968033Y-6980293D01*
X-1968033Y-6980293D02*
X-1968033Y-6932674D01*
X-1968033Y-6932674D02*
X-1958509Y-6894579D01*
X-1958509Y-6894579D02*
X-1948985Y-6875531D01*
X-1948985Y-6875531D02*
X-1939461Y-6866008D01*
X-1939461Y-6866008D02*
X-1920414Y-6856484D01*
X-1729937Y-6856484D02*
X-1710890Y-6856484D01*
X-1710890Y-6856484D02*
X-1691842Y-6866008D01*
X-1691842Y-6866008D02*
X-1682318Y-6875531D01*
X-1682318Y-6875531D02*
X-1672795Y-6894579D01*
X-1672795Y-6894579D02*
X-1663271Y-6932674D01*
X-1663271Y-6932674D02*
X-1663271Y-6980293D01*
X-1663271Y-6980293D02*
X-1672795Y-7018388D01*
X-1672795Y-7018388D02*
X-1682318Y-7037436D01*
X-1682318Y-7037436D02*
X-1691842Y-7046960D01*
X-1691842Y-7046960D02*
X-1710890Y-7056484D01*
X-1710890Y-7056484D02*
X-1729937Y-7056484D01*
X-1729937Y-7056484D02*
X-1748985Y-7046960D01*
X-1748985Y-7046960D02*
X-1758509Y-7037436D01*
X-1758509Y-7037436D02*
X-1768033Y-7018388D01*
X-1768033Y-7018388D02*
X-1777556Y-6980293D01*
X-1777556Y-6980293D02*
X-1777556Y-6932674D01*
X-1777556Y-6932674D02*
X-1768033Y-6894579D01*
X-1768033Y-6894579D02*
X-1758509Y-6875531D01*
X-1758509Y-6875531D02*
X-1748985Y-6866008D01*
X-1748985Y-6866008D02*
X-1729937Y-6856484D01*
X-1539461Y-6856484D02*
X-1520414Y-6856484D01*
X-1520414Y-6856484D02*
X-1501366Y-6866008D01*
X-1501366Y-6866008D02*
X-1491842Y-6875531D01*
X-1491842Y-6875531D02*
X-1482318Y-6894579D01*
X-1482318Y-6894579D02*
X-1472795Y-6932674D01*
X-1472795Y-6932674D02*
X-1472795Y-6980293D01*
X-1472795Y-6980293D02*
X-1482318Y-7018388D01*
X-1482318Y-7018388D02*
X-1491842Y-7037436D01*
X-1491842Y-7037436D02*
X-1501366Y-7046960D01*
X-1501366Y-7046960D02*
X-1520414Y-7056484D01*
X-1520414Y-7056484D02*
X-1539461Y-7056484D01*
X-1539461Y-7056484D02*
X-1558509Y-7046960D01*
X-1558509Y-7046960D02*
X-1568033Y-7037436D01*
X-1568033Y-7037436D02*
X-1577556Y-7018388D01*
X-1577556Y-7018388D02*
X-1587080Y-6980293D01*
X-1587080Y-6980293D02*
X-1587080Y-6932674D01*
X-1587080Y-6932674D02*
X-1577556Y-6894579D01*
X-1577556Y-6894579D02*
X-1568033Y-6875531D01*
X-1568033Y-6875531D02*
X-1558509Y-6866008D01*
X-1558509Y-6866008D02*
X-1539461Y-6856484D01*
X-1387080Y-7056484D02*
X-1387080Y-6923150D01*
X-1387080Y-6942198D02*
X-1377557Y-6932674D01*
X-1377557Y-6932674D02*
X-1358509Y-6923150D01*
X-1358509Y-6923150D02*
X-1329937Y-6923150D01*
X-1329937Y-6923150D02*
X-1310890Y-6932674D01*
X-1310890Y-6932674D02*
X-1301366Y-6951722D01*
X-1301366Y-6951722D02*
X-1301366Y-7056484D01*
X-1301366Y-6951722D02*
X-1291842Y-6932674D01*
X-1291842Y-6932674D02*
X-1272795Y-6923150D01*
X-1272795Y-6923150D02*
X-1244223Y-6923150D01*
X-1244223Y-6923150D02*
X-1225176Y-6932674D01*
X-1225176Y-6932674D02*
X-1215652Y-6951722D01*
X-1215652Y-6951722D02*
X-1215652Y-7056484D01*
X-1120414Y-7056484D02*
X-1120414Y-6923150D01*
X-1120414Y-6942198D02*
X-1110890Y-6932674D01*
X-1110890Y-6932674D02*
X-1091842Y-6923150D01*
X-1091842Y-6923150D02*
X-1063271Y-6923150D01*
X-1063271Y-6923150D02*
X-1044223Y-6932674D01*
X-1044223Y-6932674D02*
X-1034699Y-6951722D01*
X-1034699Y-6951722D02*
X-1034699Y-7056484D01*
X-1034699Y-6951722D02*
X-1025175Y-6932674D01*
X-1025175Y-6932674D02*
X-1006128Y-6923150D01*
X-1006128Y-6923150D02*
X-977556Y-6923150D01*
X-977556Y-6923150D02*
X-958509Y-6932674D01*
X-958509Y-6932674D02*
X-948985Y-6951722D01*
X-948985Y-6951722D02*
X-948985Y-7056484D01*
X-558509Y-6846960D02*
X-729937Y-7104103D01*
X-301366Y-6856484D02*
X-282318Y-6856484D01*
X-282318Y-6856484D02*
X-263271Y-6866008D01*
X-263271Y-6866008D02*
X-253747Y-6875531D01*
X-253747Y-6875531D02*
X-244223Y-6894579D01*
X-244223Y-6894579D02*
X-234699Y-6932674D01*
X-234699Y-6932674D02*
X-234699Y-6980293D01*
X-234699Y-6980293D02*
X-244223Y-7018388D01*
X-244223Y-7018388D02*
X-253747Y-7037436D01*
X-253747Y-7037436D02*
X-263271Y-7046960D01*
X-263271Y-7046960D02*
X-282318Y-7056484D01*
X-282318Y-7056484D02*
X-301366Y-7056484D01*
X-301366Y-7056484D02*
X-320414Y-7046960D01*
X-320414Y-7046960D02*
X-329937Y-7037436D01*
X-329937Y-7037436D02*
X-339461Y-7018388D01*
X-339461Y-7018388D02*
X-348985Y-6980293D01*
X-348985Y-6980293D02*
X-348985Y-6932674D01*
X-348985Y-6932674D02*
X-339461Y-6894579D01*
X-339461Y-6894579D02*
X-329937Y-6875531D01*
X-329937Y-6875531D02*
X-320414Y-6866008D01*
X-320414Y-6866008D02*
X-301366Y-6856484D01*
X-148985Y-7037436D02*
X-139461Y-7046960D01*
X-139461Y-7046960D02*
X-148985Y-7056484D01*
X-148985Y-7056484D02*
X-158509Y-7046960D01*
X-158509Y-7046960D02*
X-148985Y-7037436D01*
X-148985Y-7037436D02*
X-148985Y-7056484D01*
X-15652Y-6856484D02*
X3396Y-6856484D01*
X3396Y-6856484D02*
X22444Y-6866008D01*
X22444Y-6866008D02*
X31967Y-6875531D01*
X31967Y-6875531D02*
X41491Y-6894579D01*
X41491Y-6894579D02*
X51015Y-6932674D01*
X51015Y-6932674D02*
X51015Y-6980293D01*
X51015Y-6980293D02*
X41491Y-7018388D01*
X41491Y-7018388D02*
X31967Y-7037436D01*
X31967Y-7037436D02*
X22444Y-7046960D01*
X22444Y-7046960D02*
X3396Y-7056484D01*
X3396Y-7056484D02*
X-15652Y-7056484D01*
X-15652Y-7056484D02*
X-34699Y-7046960D01*
X-34699Y-7046960D02*
X-44223Y-7037436D01*
X-44223Y-7037436D02*
X-53747Y-7018388D01*
X-53747Y-7018388D02*
X-63271Y-6980293D01*
X-63271Y-6980293D02*
X-63271Y-6932674D01*
X-63271Y-6932674D02*
X-53747Y-6894579D01*
X-53747Y-6894579D02*
X-44223Y-6875531D01*
X-44223Y-6875531D02*
X-34699Y-6866008D01*
X-34699Y-6866008D02*
X-15652Y-6856484D01*
X117682Y-6856484D02*
X241491Y-6856484D01*
X241491Y-6856484D02*
X174825Y-6932674D01*
X174825Y-6932674D02*
X203396Y-6932674D01*
X203396Y-6932674D02*
X222444Y-6942198D01*
X222444Y-6942198D02*
X231967Y-6951722D01*
X231967Y-6951722D02*
X241491Y-6970769D01*
X241491Y-6970769D02*
X241491Y-7018388D01*
X241491Y-7018388D02*
X231967Y-7037436D01*
X231967Y-7037436D02*
X222444Y-7046960D01*
X222444Y-7046960D02*
X203396Y-7056484D01*
X203396Y-7056484D02*
X146253Y-7056484D01*
X146253Y-7056484D02*
X127206Y-7046960D01*
X127206Y-7046960D02*
X117682Y-7037436D01*
X336729Y-7056484D02*
X374825Y-7056484D01*
X374825Y-7056484D02*
X393872Y-7046960D01*
X393872Y-7046960D02*
X403396Y-7037436D01*
X403396Y-7037436D02*
X422444Y-7008865D01*
X422444Y-7008865D02*
X431967Y-6970769D01*
X431967Y-6970769D02*
X431967Y-6894579D01*
X431967Y-6894579D02*
X422444Y-6875531D01*
X422444Y-6875531D02*
X412920Y-6866008D01*
X412920Y-6866008D02*
X393872Y-6856484D01*
X393872Y-6856484D02*
X355777Y-6856484D01*
X355777Y-6856484D02*
X336729Y-6866008D01*
X336729Y-6866008D02*
X327206Y-6875531D01*
X327206Y-6875531D02*
X317682Y-6894579D01*
X317682Y-6894579D02*
X317682Y-6942198D01*
X317682Y-6942198D02*
X327206Y-6961246D01*
X327206Y-6961246D02*
X336729Y-6970769D01*
X336729Y-6970769D02*
X355777Y-6980293D01*
X355777Y-6980293D02*
X393872Y-6980293D01*
X393872Y-6980293D02*
X412920Y-6970769D01*
X412920Y-6970769D02*
X422444Y-6961246D01*
X422444Y-6961246D02*
X431967Y-6942198D01*
X603396Y-6923150D02*
X603396Y-7056484D01*
X555777Y-6846960D02*
X508158Y-6989817D01*
X508158Y-6989817D02*
X631968Y-6989817D01*
X698634Y-6856484D02*
X698634Y-6894579D01*
X774825Y-6856484D02*
X774825Y-6894579D01*
X1070063Y-7132674D02*
X1060539Y-7123150D01*
X1060539Y-7123150D02*
X1041491Y-7094579D01*
X1041491Y-7094579D02*
X1031968Y-7075531D01*
X1031968Y-7075531D02*
X1022444Y-7046960D01*
X1022444Y-7046960D02*
X1012920Y-6999341D01*
X1012920Y-6999341D02*
X1012920Y-6961246D01*
X1012920Y-6961246D02*
X1022444Y-6913627D01*
X1022444Y-6913627D02*
X1031968Y-6885055D01*
X1031968Y-6885055D02*
X1041491Y-6866008D01*
X1041491Y-6866008D02*
X1060539Y-6837436D01*
X1060539Y-6837436D02*
X1070063Y-6827912D01*
X1251015Y-7056484D02*
X1136730Y-7056484D01*
X1193872Y-7056484D02*
X1193872Y-6856484D01*
X1193872Y-6856484D02*
X1174825Y-6885055D01*
X1174825Y-6885055D02*
X1155777Y-6904103D01*
X1155777Y-6904103D02*
X1136730Y-6913627D01*
X1327206Y-6875531D02*
X1336730Y-6866008D01*
X1336730Y-6866008D02*
X1355777Y-6856484D01*
X1355777Y-6856484D02*
X1403396Y-6856484D01*
X1403396Y-6856484D02*
X1422444Y-6866008D01*
X1422444Y-6866008D02*
X1431968Y-6875531D01*
X1431968Y-6875531D02*
X1441491Y-6894579D01*
X1441491Y-6894579D02*
X1441491Y-6913627D01*
X1441491Y-6913627D02*
X1431968Y-6942198D01*
X1431968Y-6942198D02*
X1317682Y-7056484D01*
X1317682Y-7056484D02*
X1441491Y-7056484D01*
X1679587Y-7056484D02*
X1679587Y-6856484D01*
X1765301Y-7056484D02*
X1765301Y-6951722D01*
X1765301Y-6951722D02*
X1755777Y-6932674D01*
X1755777Y-6932674D02*
X1736730Y-6923150D01*
X1736730Y-6923150D02*
X1708158Y-6923150D01*
X1708158Y-6923150D02*
X1689110Y-6932674D01*
X1689110Y-6932674D02*
X1679587Y-6942198D01*
X1889110Y-7056484D02*
X1870063Y-7046960D01*
X1870063Y-7046960D02*
X1860539Y-7037436D01*
X1860539Y-7037436D02*
X1851015Y-7018388D01*
X1851015Y-7018388D02*
X1851015Y-6961246D01*
X1851015Y-6961246D02*
X1860539Y-6942198D01*
X1860539Y-6942198D02*
X1870063Y-6932674D01*
X1870063Y-6932674D02*
X1889110Y-6923150D01*
X1889110Y-6923150D02*
X1917682Y-6923150D01*
X1917682Y-6923150D02*
X1936730Y-6932674D01*
X1936730Y-6932674D02*
X1946253Y-6942198D01*
X1946253Y-6942198D02*
X1955777Y-6961246D01*
X1955777Y-6961246D02*
X1955777Y-7018388D01*
X1955777Y-7018388D02*
X1946253Y-7037436D01*
X1946253Y-7037436D02*
X1936730Y-7046960D01*
X1936730Y-7046960D02*
X1917682Y-7056484D01*
X1917682Y-7056484D02*
X1889110Y-7056484D01*
X2070063Y-7056484D02*
X2051015Y-7046960D01*
X2051015Y-7046960D02*
X2041491Y-7027912D01*
X2041491Y-7027912D02*
X2041491Y-6856484D01*
X2222444Y-7046960D02*
X2203396Y-7056484D01*
X2203396Y-7056484D02*
X2165301Y-7056484D01*
X2165301Y-7056484D02*
X2146253Y-7046960D01*
X2146253Y-7046960D02*
X2136730Y-7027912D01*
X2136730Y-7027912D02*
X2136730Y-6951722D01*
X2136730Y-6951722D02*
X2146253Y-6932674D01*
X2146253Y-6932674D02*
X2165301Y-6923150D01*
X2165301Y-6923150D02*
X2203396Y-6923150D01*
X2203396Y-6923150D02*
X2222444Y-6932674D01*
X2222444Y-6932674D02*
X2231968Y-6951722D01*
X2231968Y-6951722D02*
X2231968Y-6970769D01*
X2231968Y-6970769D02*
X2136730Y-6989817D01*
X2308158Y-7046960D02*
X2327206Y-7056484D01*
X2327206Y-7056484D02*
X2365301Y-7056484D01*
X2365301Y-7056484D02*
X2384349Y-7046960D01*
X2384349Y-7046960D02*
X2393873Y-7027912D01*
X2393873Y-7027912D02*
X2393873Y-7018388D01*
X2393873Y-7018388D02*
X2384349Y-6999341D01*
X2384349Y-6999341D02*
X2365301Y-6989817D01*
X2365301Y-6989817D02*
X2336730Y-6989817D01*
X2336730Y-6989817D02*
X2317682Y-6980293D01*
X2317682Y-6980293D02*
X2308158Y-6961246D01*
X2308158Y-6961246D02*
X2308158Y-6951722D01*
X2308158Y-6951722D02*
X2317682Y-6932674D01*
X2317682Y-6932674D02*
X2336730Y-6923150D01*
X2336730Y-6923150D02*
X2365301Y-6923150D01*
X2365301Y-6923150D02*
X2384349Y-6932674D01*
X2460539Y-7132674D02*
X2470063Y-7123150D01*
X2470063Y-7123150D02*
X2489111Y-7094579D01*
X2489111Y-7094579D02*
X2498634Y-7075531D01*
X2498634Y-7075531D02*
X2508158Y-7046960D01*
X2508158Y-7046960D02*
X2517682Y-6999341D01*
X2517682Y-6999341D02*
X2517682Y-6961246D01*
X2517682Y-6961246D02*
X2508158Y-6913627D01*
X2508158Y-6913627D02*
X2498634Y-6885055D01*
X2498634Y-6885055D02*
X2489111Y-6866008D01*
X2489111Y-6866008D02*
X2470063Y-6837436D01*
X2470063Y-6837436D02*
X2460539Y-6827912D01*
M02*
