M48
; DRILL file {KiCad 9.0.4} date 2025-09-21T11:05:40+0200
; FORMAT={-:-/ absolute / metric / decimal}
; #@! TF.CreationDate,2025-09-21T11:05:40+02:00
; #@! TF.GenerationSoftware,Kicad,Pcbnew,9.0.4
; #@! TF.FileFunction,Plated,1,2,PTH
FMAT,2
METRIC
; #@! TA.AperFunction,Plated,PTH,ViaDrill
T1C0.300
; #@! TA.AperFunction,Plated,PTH,ComponentDrill
T2C0.300
; #@! TA.AperFunction,Plated,PTH,ComponentDrill
T3C0.600
; #@! TA.AperFunction,Plated,PTH,ComponentDrill
T4C0.800
; #@! TA.AperFunction,Plated,PTH,ComponentDrill
T5C0.900
; #@! TA.AperFunction,Plated,PTH,ComponentDrill
T6C1.000
%
G90
G05
T1
X-24.0Y49.0
X-24.0Y47.0
X-24.0Y45.0
X-24.0Y43.0
X-24.0Y41.0
X-24.0Y39.0
X-24.0Y37.0
X-24.0Y23.0
X-24.0Y21.0
X-24.0Y19.0
X-24.0Y17.0
X-24.0Y15.0
X-24.0Y13.0
X-24.0Y11.0
X-24.0Y9.0
X-24.0Y-1.0
X-24.0Y-3.0
X-24.0Y-7.0
X-24.0Y-14.5
X-24.0Y-21.0
X-24.0Y-23.0
X-24.0Y-25.0
X-24.0Y-33.0
X-24.0Y-35.0
X-24.0Y-37.0
X-24.0Y-39.0
X-24.0Y-41.0
X-24.0Y-43.0
X-24.0Y-45.0
X-24.0Y-47.0
X-24.0Y-49.0
X-23.2Y36.2
X-22.0Y49.0
X-22.0Y25.0
X-22.0Y-14.6
X-22.0Y-49.0
X-21.8Y35.0
X-21.8Y-7.0
X-21.6Y10.0
X-21.6Y6.0
X-21.2Y-3.8
X-21.0Y31.5
X-21.0Y30.0
X-21.0Y28.5
X-21.0Y-30.0
X-21.0Y-33.0
X-20.75Y14.25
X-20.6Y-0.6
X-20.5Y-42.5
X-20.4Y32.2
X-20.0Y49.0
X-20.0Y27.6
X-20.0Y-49.0
X-19.8Y-27.8
X-19.75Y42.75
X-19.75Y-24.25
X-19.6Y4.6
X-19.6Y0.8
X-19.5Y-35.5
X-19.2Y32.2
X-19.15Y-12.25
X-19.0Y30.5
X-19.0Y29.0
X-19.0Y21.2
X-19.0Y19.2
X-19.0Y-2.2
X-19.0Y-14.2
X-18.6Y-36.2
X-18.4Y-23.1
X-18.25Y43.25
X-18.25Y-10.5
X-18.25Y-11.5
X-18.2Y-0.6
X-18.0Y49.0
X-18.0Y46.0
X-18.0Y-49.0
X-17.8Y-32.8
X-17.6Y-30.8
X-17.5Y40.0
X-17.5Y-17.0
X-17.5Y-20.0
X-17.5Y-45.5
X-17.2Y21.2
X-17.2Y7.0
X-17.2Y4.6
X-16.6Y17.6
X-16.2Y12.6
X-16.2Y-34.6
X-16.138Y35.062
X-16.0Y49.0
X-16.0Y-39.0
X-16.0Y-49.0
X-15.6Y-7.3
X-15.6Y-14.2
X-15.498Y32.965
X-15.4Y12.6
X-15.25Y-6.5
X-15.0Y-17.0
X-15.0Y-20.0
X-14.6Y40.8
X-14.6Y36.8
X-14.6Y-23.1
X-14.5Y-5.75
X-14.4Y-28.6
X-14.327Y0.287
X-14.0Y49.0
X-14.0Y46.0
X-14.0Y43.0
X-14.0Y-49.0
X-13.711Y6.6
X-13.6Y-14.2
X-13.5Y-42.0
X-13.4Y5.85
X-13.0Y4.0
X-12.6Y38.75
X-12.6Y36.8
X-12.25Y-34.25
X-12.0Y49.0
X-12.0Y48.0
X-12.0Y-49.0
X-11.5Y-16.0
X-11.5Y-20.0
X-11.4Y-10.5
X-11.25Y29.0
X-11.0Y34.0
X-11.0Y25.5
X-10.8Y32.0
X-10.6Y22.4
X-10.6Y18.2
X-10.6Y14.0
X-10.6Y11.6
X-10.5Y-7.4
X-10.0Y38.0
X-10.0Y-49.0
X-9.8Y-10.5
X-9.75Y41.25
X-9.4Y-23.1
X-9.2Y21.95
X-9.0Y48.0
X-9.0Y-3.6
X-9.0Y-7.4
X-8.9Y45.0
X-8.8Y31.4
X-8.8Y25.4
X-8.8Y-28.4
X-8.8Y-30.8
X-8.8Y-31.8
X-8.6Y18.2
X-8.6Y4.8
X-8.5Y8.0
X-8.5Y-40.0
X-8.5Y-45.5
X-8.438Y3.912
X-8.4Y41.2
X-8.4Y6.1
X-8.1Y-26.2
X-8.0Y49.0
X-8.0Y-49.0
X-7.6Y-12.2
X-7.6Y-16.0
X-7.6Y-18.0
X-7.6Y-20.6
X-7.2Y-22.6
X-7.0Y41.25
X-7.0Y39.0
X-6.8Y4.6
X-6.8Y-43.2
X-6.8Y-47.4
X-6.75Y37.75
X-6.75Y13.5
X-6.75Y12.5
X-6.5Y-13.25
X-6.5Y-14.0
X-6.5Y-14.75
X-6.4Y-7.4
X-6.25Y-11.75
X-6.2Y0.4
X-6.2Y-2.2
X-6.15Y20.0
X-6.0Y49.0
X-6.0Y38.6
X-6.0Y-10.6
X-6.0Y-49.0
X-5.8Y14.6
X-5.8Y-16.0
X-5.8Y-18.0
X-5.75Y-13.25
X-5.75Y-14.0
X-5.75Y-14.75
X-5.6Y24.8
X-5.6Y22.6
X-5.5Y-26.25
X-5.2Y-37.2
X-5.0Y33.0
X-5.0Y8.5
X-5.0Y6.0
X-5.0Y4.0
X-5.0Y-21.0
X-4.8Y-30.8
X-4.8Y-41.2
X-4.75Y16.25
X-4.4Y22.6
X-4.0Y16.25
X-4.0Y1.0
X-4.0Y-0.6
X-4.0Y-28.2
X-4.0Y-49.0
X-3.9Y9.6
X-3.8Y41.2
X-3.8Y-21.8
X-3.8Y-41.2
X-3.75Y-40.25
X-3.5Y44.9
X-3.4Y37.0
X-3.25Y16.25
X-3.2Y-4.8
X-2.8Y-13.0
X-2.8Y-32.6
X-2.8Y-47.4
X-2.75Y-14.0
X-2.75Y-21.75
X-2.5Y37.5
X-2.5Y11.475
X-2.5Y10.725
X-2.4Y26.8
X-2.4Y-37.2
X-2.133Y2.995
X-2.0Y47.0
X-2.0Y42.8
X-2.0Y33.0
X-2.0Y30.0
X-2.0Y18.5
X-2.0Y17.75
X-2.0Y-25.0
X-2.0Y-49.0
X-1.75Y10.75
X-1.6Y-27.8
X-1.25Y37.5
X-1.25Y-41.0
X-1.2Y-12.4
X-1.2Y-15.4
X-1.2Y-30.8
X-1.0Y18.5
X-1.0Y17.75
X-1.0Y-43.75
X-0.5Y1.5
X0.0Y37.5
X0.0Y-29.6
X0.0Y-47.5
X0.0Y-49.0
X0.2Y21.4
X0.2Y18.3
X0.25Y41.2
X0.25Y-43.75
X0.4Y11.6
X0.6Y-19.6
X0.8Y37.0
X0.85Y-4.0
X1.0Y30.0
X1.0Y-25.0
X1.0Y-35.8
X1.0Y-40.4
X1.2Y11.6
X1.2Y-0.8
X1.25Y-2.25
X1.4Y8.6
X1.4Y-12.4
X1.46Y-15.707
X1.5Y45.75
X1.5Y0.1
X2.0Y49.0
X2.0Y7.25
X2.0Y-49.0
X2.2Y42.8
X2.4Y-11.0
X2.4Y-35.8
X2.4Y-37.2
X2.4Y-38.6
X2.488Y4.25
X2.5Y2.5
X2.6Y16.0
X2.75Y8.0
X2.8Y18.3
X2.8Y-18.0
X2.8Y-47.4
X3.0Y5.0
X3.0Y-0.8
X3.0Y-32.0
X3.2Y-13.2
X3.2Y-14.8
X3.75Y4.5
X3.8Y27.2
X3.8Y-0.4
X3.8Y-41.2
X4.0Y49.0
X4.0Y-49.0
X4.2Y22.8
X4.4Y-20.2
X4.4Y-25.0
X4.5Y16.0
X4.5Y12.0
X4.6Y7.9
X4.75Y31.5
X4.75Y4.1
X4.8Y-41.2
X5.0Y46.0
X5.0Y43.0
X5.0Y27.2
X5.0Y-37.2
X5.2Y22.8
X5.2Y18.3
X5.2Y-11.0
X5.4Y32.2
X5.5Y10.75
X5.75Y2.5
X5.8Y-15.8
X5.8Y-18.0
X6.0Y49.0
X6.0Y7.8
X6.0Y6.9
X6.0Y-21.8
X6.0Y-23.6
X6.0Y-49.0
X6.25Y16.0
X6.268Y5.639
X6.4Y-12.4
X6.4Y-27.4
X6.4Y-32.4
X6.8Y-43.2
X6.8Y-47.4
X6.9Y6.3
X7.2Y21.8
X7.2Y11.9
X7.25Y13.25
X7.75Y3.5
X8.0Y4.9
X8.0Y-39.0
X8.0Y-49.0
X8.25Y16.0
X8.5Y-18.0
X8.7Y26.5
X8.8Y-22.0
X9.1Y11.9
X9.4Y49.2
X9.4Y47.2
X9.4Y45.2
X9.4Y43.2
X9.4Y41.2
X9.4Y-25.8
X9.4Y-33.4
X9.5Y27.25
X9.5Y10.25
X9.6Y39.8
X9.6Y39.0
X9.6Y38.2
X9.75Y0.75
X9.8Y-3.8
X9.8Y-13.4
X10.0Y37.4
X10.0Y32.0
X10.0Y16.0
X10.0Y-7.6
X10.0Y-49.0
X10.4Y10.1
X10.5Y11.0
X10.576Y2.576
X10.6Y27.0
X10.8Y36.8
X10.8Y-2.8
X10.8Y-20.2
X10.8Y-24.0
X11.2Y0.2
X11.2Y-5.8
X11.2Y-27.4
X11.2Y-35.2
X11.4Y-32.6
X11.4Y-36.8
X11.4Y-39.0
X11.75Y16.0
X11.75Y-14.5
X11.8Y-13.4
X12.0Y36.8
X12.0Y27.0
X12.0Y-49.0
X12.25Y0.75
X12.4Y-4.8
X12.8Y-27.4
X12.8Y-32.6
X13.2Y36.8
X13.2Y27.0
X13.2Y-24.0
X13.4Y-2.2
X13.4Y-9.0
X13.4Y-12.0
X13.5Y5.5
X13.8Y-43.2
X14.0Y37.4
X14.0Y32.0
X14.0Y-21.2
X14.0Y-49.0
X14.4Y39.8
X14.4Y39.0
X14.4Y38.2
X14.5Y23.25
X14.5Y22.0
X14.5Y20.75
X14.6Y49.2
X14.6Y47.2
X14.6Y45.2
X14.6Y43.2
X14.6Y41.2
X14.6Y-16.6
X14.6Y-25.8
X14.747Y19.937
X14.8Y25.4
X14.8Y24.4
X15.0Y1.75
X15.0Y0.2
X15.2Y-2.2
X15.4Y-12.0
X15.8Y-43.2
X15.8Y-46.0
X16.0Y6.5
X16.0Y-39.0
X16.0Y-49.0
X16.2Y-7.8
X16.25Y-10.75
X16.25Y-30.625
X16.25Y-31.905
X16.4Y-5.6
X16.5Y9.0
X16.5Y-4.25
X16.6Y18.4
X16.6Y-29.0
X17.2Y-32.8
X17.4Y23.0
X17.4Y-35.6
X17.5Y-36.75
X18.0Y-7.8
X18.0Y-40.0
X18.0Y-41.8
X18.0Y-49.0
X18.087Y24.75
X18.2Y4.0
X18.5Y-44.0
X19.0Y49.0
X19.0Y44.0
X19.006Y-10.122
X19.2Y21.2
X19.2Y-24.8
X19.2Y-26.0
X19.25Y-13.0
X19.5Y-16.0
X20.0Y24.8
X20.0Y6.5
X20.0Y-41.8
X20.0Y-49.0
X20.5Y19.0
X20.6Y-24.8
X20.6Y-26.0
X20.75Y12.25
X20.8Y13.4
X20.8Y-13.0
X21.6Y23.0
X21.8Y-40.0
X21.8Y-41.8
X22.0Y49.0
X22.0Y-49.0
X22.395Y-30.107
X23.0Y-7.75
X23.0Y-9.0
X23.0Y-11.5
X24.0Y49.0
X24.0Y47.0
X24.0Y45.0
X24.0Y43.0
X24.0Y41.0
X24.0Y39.0
X24.0Y37.0
X24.0Y35.0
X24.0Y33.0
X24.0Y31.0
X24.0Y29.0
X24.0Y27.0
X24.0Y25.0
X24.0Y23.0
X24.0Y21.0
X24.0Y19.0
X24.0Y17.0
X24.0Y15.0
X24.0Y13.0
X24.0Y11.0
X24.0Y9.0
X24.0Y7.0
X24.0Y3.0
X24.0Y-3.0
X24.0Y-6.0
X24.0Y-9.0
X24.0Y-13.0
X24.0Y-15.0
X24.0Y-17.0
X24.0Y-19.0
X24.0Y-21.0
X24.0Y-23.0
X24.0Y-25.0
X24.0Y-27.0
X24.0Y-29.0
X24.0Y-31.0
X24.0Y-33.0
X24.0Y-35.0
X24.0Y-37.0
X24.0Y-39.0
X24.0Y-41.0
X24.0Y-43.0
X24.0Y-45.0
X24.0Y-47.0
X24.0Y-49.0
T2
X-13.0Y-25.0
X-13.0Y-27.0
X-12.0Y-26.0
X-11.0Y-25.0
X-11.0Y-27.0
T4
X20.0Y-38.0
X20.0Y-40.0
T5
X-11.43Y-9.0
X-8.89Y-9.0
X-6.35Y-9.0
X-3.81Y-9.0
X-1.27Y-9.0
X1.27Y-9.0
X3.81Y-9.0
X6.35Y-9.0
X8.89Y-9.0
X11.43Y-9.0
X17.73Y41.0
X17.73Y35.0
X17.73Y29.0
X20.27Y41.0
X20.27Y35.0
X20.27Y29.0
T6
X-23.0Y7.54
X-23.0Y5.0
X-23.0Y2.46
X-23.0Y-5.65
X-23.0Y-8.19
X-23.0Y-10.73
X-23.0Y-13.27
X-23.0Y-15.81
X-23.0Y-18.35
X-23.0Y-26.46
X-23.0Y-29.0
X-23.0Y-31.54
T3
X-4.32Y-43.745G85X-4.32Y-42.645
G05
X-4.32Y-47.775G85X-4.32Y-46.975
G05
X4.32Y-43.745G85X4.32Y-42.645
G05
X4.32Y-47.775G85X4.32Y-46.975
G05
T4
X-12.0Y-40.1G85X-12.0Y-37.9
G05
X-12.0Y-46.1G85X-12.0Y-43.9
G05
M30
