%TF.GenerationSoftware,KiCad,Pcbnew,9.0.4*%
%TF.CreationDate,2026-01-17T12:19:53+01:00*%
%TF.ProjectId,Spoke,53706f6b-652e-46b6-9963-61645f706362,2.1*%
%TF.SameCoordinates,PX5f5e100PY5f5e100*%
%TF.FileFunction,Paste,Bot*%
%TF.FilePolarity,Positive*%
%FSLAX46Y46*%
G04 Gerber Fmt 4.6, Leading zero omitted, Abs format (unit mm)*
G04 Created by KiCad (PCBNEW 9.0.4) date 2026-01-17 12:19:53*
%MOMM*%
%LPD*%
G01*
G04 APERTURE LIST*
G04 Aperture macros list*
%AMRoundRect*
0 Rectangle with rounded corners*
0 $1 Rounding radius*
0 $2 $3 $4 $5 $6 $7 $8 $9 X,Y pos of 4 corners*
0 Add a 4 corners polygon primitive as box body*
4,1,4,$2,$3,$4,$5,$6,$7,$8,$9,$2,$3,0*
0 Add four circle primitives for the rounded corners*
1,1,$1+$1,$2,$3*
1,1,$1+$1,$4,$5*
1,1,$1+$1,$6,$7*
1,1,$1+$1,$8,$9*
0 Add four rect primitives between the rounded corners*
20,1,$1+$1,$2,$3,$4,$5,0*
20,1,$1+$1,$4,$5,$6,$7,0*
20,1,$1+$1,$6,$7,$8,$9,0*
20,1,$1+$1,$8,$9,$2,$3,0*%
G04 Aperture macros list end*
%ADD10R,1.400000X1.000000*%
%ADD11RoundRect,0.237500X0.300000X0.237500X-0.300000X0.237500X-0.300000X-0.237500X0.300000X-0.237500X0*%
%ADD12RoundRect,0.237500X-0.237500X0.300000X-0.237500X-0.300000X0.237500X-0.300000X0.237500X0.300000X0*%
%ADD13RoundRect,0.237500X0.250000X0.237500X-0.250000X0.237500X-0.250000X-0.237500X0.250000X-0.237500X0*%
%ADD14RoundRect,0.237500X0.237500X-0.250000X0.237500X0.250000X-0.237500X0.250000X-0.237500X-0.250000X0*%
%ADD15C,2.000000*%
%ADD16RoundRect,0.250000X-0.337500X-0.475000X0.337500X-0.475000X0.337500X0.475000X-0.337500X0.475000X0*%
%ADD17RoundRect,0.237500X-0.250000X-0.237500X0.250000X-0.237500X0.250000X0.237500X-0.250000X0.237500X0*%
%ADD18R,1.000000X1.400000*%
%ADD19RoundRect,0.250000X0.650000X-0.412500X0.650000X0.412500X-0.650000X0.412500X-0.650000X-0.412500X0*%
%ADD20RoundRect,0.237500X0.237500X-0.300000X0.237500X0.300000X-0.237500X0.300000X-0.237500X-0.300000X0*%
%ADD21RoundRect,0.237500X-0.237500X0.250000X-0.237500X-0.250000X0.237500X-0.250000X0.237500X0.250000X0*%
%ADD22R,0.900000X2.000000*%
%ADD23RoundRect,0.237500X-0.300000X-0.237500X0.300000X-0.237500X0.300000X0.237500X-0.300000X0.237500X0*%
%ADD24RoundRect,0.175000X0.175000X0.325000X-0.175000X0.325000X-0.175000X-0.325000X0.175000X-0.325000X0*%
%ADD25RoundRect,0.150000X0.200000X0.150000X-0.200000X0.150000X-0.200000X-0.150000X0.200000X-0.150000X0*%
%ADD26O,2.400000X4.000000*%
%ADD27RoundRect,0.250000X-0.412500X-0.650000X0.412500X-0.650000X0.412500X0.650000X-0.412500X0.650000X0*%
%ADD28R,1.800000X1.700000*%
%ADD29RoundRect,0.150000X0.150000X-0.325000X0.150000X0.325000X-0.150000X0.325000X-0.150000X-0.325000X0*%
%ADD30RoundRect,0.150000X0.325000X-0.150000X0.325000X0.150000X-0.325000X0.150000X-0.325000X-0.150000X0*%
%ADD31R,1.550000X1.300000*%
%ADD32R,2.200000X0.600000*%
%ADD33R,1.400000X1.200000*%
%ADD34RoundRect,0.250000X-0.475000X0.337500X-0.475000X-0.337500X0.475000X-0.337500X0.475000X0.337500X0*%
%ADD35RoundRect,0.250000X0.412500X0.650000X-0.412500X0.650000X-0.412500X-0.650000X0.412500X-0.650000X0*%
%ADD36R,0.300000X1.200000*%
%ADD37R,1.200000X0.300000*%
%ADD38R,1.400000X5.080000*%
%ADD39R,1.200000X5.080000*%
%ADD40R,1.700000X1.800000*%
%ADD41RoundRect,0.250000X0.415000X-0.415000X0.415000X0.415000X-0.415000X0.415000X-0.415000X-0.415000X0*%
%ADD42RoundRect,0.062500X0.062500X-0.387500X0.062500X0.387500X-0.062500X0.387500X-0.062500X-0.387500X0*%
%ADD43RoundRect,0.062500X0.387500X-0.062500X0.387500X0.062500X-0.387500X0.062500X-0.387500X-0.062500X0*%
%ADD44O,4.000000X2.400000*%
%ADD45RoundRect,0.250000X0.337500X0.475000X-0.337500X0.475000X-0.337500X-0.475000X0.337500X-0.475000X0*%
%ADD46RoundRect,0.126000X0.294000X0.354000X-0.294000X0.354000X-0.294000X-0.354000X0.294000X-0.354000X0*%
%ADD47RoundRect,0.126000X-0.354000X0.294000X-0.354000X-0.294000X0.354000X-0.294000X0.354000X0.294000X0*%
%ADD48RoundRect,0.100000X0.100000X-0.637500X0.100000X0.637500X-0.100000X0.637500X-0.100000X-0.637500X0*%
%ADD49RoundRect,0.150000X0.150000X0.425000X-0.150000X0.425000X-0.150000X-0.425000X0.150000X-0.425000X0*%
%ADD50RoundRect,0.075000X0.075000X0.500000X-0.075000X0.500000X-0.075000X-0.500000X0.075000X-0.500000X0*%
%ADD51RoundRect,0.180000X0.820000X0.720000X-0.820000X0.720000X-0.820000X-0.720000X0.820000X-0.720000X0*%
%ADD52RoundRect,0.200000X0.800000X0.850000X-0.800000X0.850000X-0.800000X-0.850000X0.800000X-0.850000X0*%
%ADD53R,1.100000X0.600000*%
%ADD54RoundRect,0.285000X0.665000X1.715000X-0.665000X1.715000X-0.665000X-1.715000X0.665000X-1.715000X0*%
G04 APERTURE END LIST*
D10*
%TO.C,Q3*%
X17900000Y-15200000D03*
X17900000Y-13300000D03*
X20100000Y-14250000D03*
%TD*%
D11*
%TO.C,C21*%
X-20137500Y36250000D03*
X-21862500Y36250000D03*
%TD*%
D12*
%TO.C,C15*%
X-1500000Y14862500D03*
X-1500000Y13137500D03*
%TD*%
D13*
%TO.C,R24*%
X-12087500Y24000000D03*
X-13912500Y24000000D03*
%TD*%
D11*
%TO.C,C6*%
X-10387500Y-30750000D03*
X-12112500Y-30750000D03*
%TD*%
D14*
%TO.C,R22*%
X6000000Y-3912500D03*
X6000000Y-2087500D03*
%TD*%
D12*
%TO.C,C11*%
X-9500000Y7862500D03*
X-9500000Y6137500D03*
%TD*%
D14*
%TO.C,R13*%
X-9500000Y2087500D03*
X-9500000Y3912500D03*
%TD*%
D15*
%TO.C,TP15*%
X-7000000Y43000000D03*
%TD*%
%TO.C,TP4*%
X-9500000Y24000000D03*
%TD*%
D16*
%TO.C,C2*%
X-16287500Y-32750000D03*
X-14212500Y-32750000D03*
%TD*%
D13*
%TO.C,R35*%
X-15087500Y10500000D03*
X-16912500Y10500000D03*
%TD*%
D17*
%TO.C,R11*%
X-7324500Y-24984000D03*
X-5499500Y-24984000D03*
%TD*%
D18*
%TO.C,Q4*%
X19950000Y-2600000D03*
X18050000Y-2600000D03*
X19000000Y-400000D03*
%TD*%
D19*
%TO.C,C34*%
X250000Y42687500D03*
X250000Y45812500D03*
%TD*%
D11*
%TO.C,C27*%
X-1137500Y22500000D03*
X-2862500Y22500000D03*
%TD*%
D20*
%TO.C,C4*%
X13500000Y-15112500D03*
X13500000Y-13387500D03*
%TD*%
D21*
%TO.C,R4*%
X6500000Y-29087500D03*
X6500000Y-30912500D03*
%TD*%
D15*
%TO.C,TP1*%
X-6500000Y-32750000D03*
%TD*%
D14*
%TO.C,R33*%
X11750000Y13087500D03*
X11750000Y14912500D03*
%TD*%
D15*
%TO.C,TP10*%
X-21000000Y41500000D03*
%TD*%
D22*
%TO.C,A2*%
X13250000Y25000000D03*
X11980000Y25000000D03*
X10710000Y25000000D03*
X5140000Y25000000D03*
X3870000Y25000000D03*
X2600000Y25000000D03*
X1330000Y25000000D03*
X60000Y25000000D03*
X-1210000Y25000000D03*
X-2480000Y25000000D03*
X-3750000Y25000000D03*
X-3750000Y39000000D03*
X-2480000Y39000000D03*
X-1210000Y39000000D03*
X60000Y39000000D03*
X1330000Y39000000D03*
X2600000Y39000000D03*
X3870000Y39000000D03*
X5140000Y39000000D03*
X10710000Y39000000D03*
X11980000Y39000000D03*
X13250000Y39000000D03*
%TD*%
D15*
%TO.C,TP6*%
X-9500000Y33000000D03*
%TD*%
D13*
%TO.C,R28*%
X-12087500Y28000000D03*
X-13912500Y28000000D03*
%TD*%
D23*
%TO.C,C23*%
X-17862500Y36250000D03*
X-16137500Y36250000D03*
%TD*%
D14*
%TO.C,R3*%
X3750000Y-38912500D03*
X3750000Y-37087500D03*
%TD*%
D24*
%TO.C,U1*%
X1000000Y-37250000D03*
D25*
X1000000Y-38950000D03*
X-1000000Y-38950000D03*
X-1000000Y-37050000D03*
%TD*%
D26*
%TO.C,J5*%
X10250000Y-46000000D03*
%TD*%
D15*
%TO.C,TP17*%
X-9750000Y43000000D03*
%TD*%
D20*
%TO.C,C19*%
X4500000Y13137500D03*
X4500000Y14862500D03*
%TD*%
D27*
%TO.C,C5*%
X13187500Y-25750000D03*
X16312500Y-25750000D03*
%TD*%
D28*
%TO.C,C14*%
X-4000000Y11475000D03*
X-4000000Y14525000D03*
%TD*%
D17*
%TO.C,R18*%
X-12912500Y10500000D03*
X-11087500Y10500000D03*
%TD*%
D29*
%TO.C,U7*%
X-4000000Y46000000D03*
X-4800000Y46000000D03*
X-5600000Y46000000D03*
X-6400000Y46000000D03*
X-7200000Y46000000D03*
X-8000000Y46000000D03*
D30*
X-8000000Y47000000D03*
D29*
X-8000000Y48000000D03*
X-7200000Y48000000D03*
X-6400000Y48000000D03*
X-5600000Y48000000D03*
X-4800000Y48000000D03*
X-4000000Y48000000D03*
D30*
X-4000000Y47000000D03*
%TD*%
D14*
%TO.C,R1*%
X-3750000Y-38912500D03*
X-3750000Y-37087500D03*
%TD*%
D15*
%TO.C,TP8*%
X-21000000Y23000000D03*
%TD*%
D18*
%TO.C,Q1*%
X15300000Y-21150000D03*
X17200000Y-21150000D03*
X16250000Y-23350000D03*
%TD*%
%TO.C,Q5*%
X-21950000Y-38300000D03*
X-20050000Y-38300000D03*
X-21000000Y-40500000D03*
%TD*%
D31*
%TO.C,SW5*%
X8020000Y-41250000D03*
X15980000Y-41250000D03*
X8020000Y-36750000D03*
X15980000Y-36750000D03*
%TD*%
D32*
%TO.C,U2*%
X9400000Y-31905000D03*
X9400000Y-30635000D03*
X9400000Y-29365000D03*
X9400000Y-28095000D03*
X14600000Y-28095000D03*
X14600000Y-29365000D03*
X14600000Y-30635000D03*
X14600000Y-31905000D03*
%TD*%
D12*
%TO.C,C35*%
X-2000000Y45862500D03*
X-2000000Y44137500D03*
%TD*%
D13*
%TO.C,R40*%
X-2087500Y4000000D03*
X-3912500Y4000000D03*
%TD*%
D12*
%TO.C,C10*%
X-20250000Y-9137500D03*
X-20250000Y-10862500D03*
%TD*%
D13*
%TO.C,R16*%
X4412500Y-21750000D03*
X2587500Y-21750000D03*
%TD*%
D17*
%TO.C,R36*%
X-12912500Y-500000D03*
X-11087500Y-500000D03*
%TD*%
%TO.C,R12*%
X-7324500Y-27524000D03*
X-5499500Y-27524000D03*
%TD*%
D26*
%TO.C,J6*%
X13750000Y-46000000D03*
%TD*%
D11*
%TO.C,C20*%
X-2137500Y8500000D03*
X-3862500Y8500000D03*
%TD*%
D27*
%TO.C,C8*%
X1437500Y-14000000D03*
X4562500Y-14000000D03*
%TD*%
D13*
%TO.C,R8*%
X-16587500Y-24250000D03*
X-18412500Y-24250000D03*
%TD*%
D10*
%TO.C,Q2*%
X17850000Y-17250000D03*
X17850000Y-19150000D03*
X15650000Y-18200000D03*
%TD*%
D14*
%TO.C,R7*%
X20250000Y-19112500D03*
X20250000Y-17287500D03*
%TD*%
D33*
%TO.C,X1*%
X400000Y14850000D03*
X2600000Y14850000D03*
X2600000Y13150000D03*
X400000Y13150000D03*
%TD*%
D15*
%TO.C,TP14*%
X7250000Y20000000D03*
%TD*%
%TO.C,TP13*%
X-4250000Y43000000D03*
%TD*%
%TO.C,TP9*%
X-9500000Y36000000D03*
%TD*%
D34*
%TO.C,C32*%
X-10250000Y48037500D03*
X-10250000Y45962500D03*
%TD*%
D13*
%TO.C,R17*%
X19912500Y-4750000D03*
X18087500Y-4750000D03*
%TD*%
D23*
%TO.C,C9*%
X2637500Y-23500000D03*
X4362500Y-23500000D03*
%TD*%
D20*
%TO.C,C16*%
X6250000Y13137500D03*
X6250000Y14862500D03*
%TD*%
D35*
%TO.C,C1*%
X10812500Y-25750000D03*
X7687500Y-25750000D03*
%TD*%
D36*
%TO.C,U6*%
X2250000Y9250000D03*
X2750000Y9250000D03*
X3250000Y9250000D03*
X3750000Y9250000D03*
X4250000Y9250000D03*
X4750000Y9250000D03*
X5250000Y9250000D03*
X5750000Y9250000D03*
X6250000Y9250000D03*
X6750000Y9250000D03*
X7250000Y9250000D03*
X7750000Y9250000D03*
D37*
X9250000Y7750000D03*
X9250000Y7250000D03*
X9250000Y6750000D03*
X9250000Y6250000D03*
X9250000Y5750000D03*
X9250000Y5250000D03*
X9250000Y4750000D03*
X9250000Y4250000D03*
X9250000Y3750000D03*
X9250000Y3250000D03*
X9250000Y2750000D03*
X9250000Y2250000D03*
D36*
X7750000Y750000D03*
X7250000Y750000D03*
X6750000Y750000D03*
X6250000Y750000D03*
X5750000Y750000D03*
X5250000Y750000D03*
X4750000Y750000D03*
X4250000Y750000D03*
X3750000Y750000D03*
X3250000Y750000D03*
X2750000Y750000D03*
X2250000Y750000D03*
D37*
X750000Y2250000D03*
X750000Y2750000D03*
X750000Y3250000D03*
X750000Y3750000D03*
X750000Y4250000D03*
X750000Y4750000D03*
X750000Y5250000D03*
X750000Y5750000D03*
X750000Y6250000D03*
X750000Y6750000D03*
X750000Y7250000D03*
X750000Y7750000D03*
%TD*%
D15*
%TO.C,TP12*%
X-18000000Y23000000D03*
%TD*%
%TO.C,TP3*%
X-19500000Y2500000D03*
%TD*%
D21*
%TO.C,R14*%
X-18500000Y7912500D03*
X-18500000Y6087500D03*
%TD*%
D15*
%TO.C,TP7*%
X-9500000Y30000000D03*
%TD*%
D38*
%TO.C,J12*%
X12000000Y47000000D03*
X7750000Y47000000D03*
D39*
X9380000Y47000000D03*
X14620000Y47000000D03*
D38*
X16250000Y47000000D03*
%TD*%
D40*
%TO.C,C26*%
X-1475000Y20000000D03*
X-4525000Y20000000D03*
%TD*%
D17*
%TO.C,R32*%
X-21912500Y38250000D03*
X-20087500Y38250000D03*
%TD*%
D14*
%TO.C,R15*%
X-20250000Y-7162500D03*
X-20250000Y-5337500D03*
%TD*%
D13*
%TO.C,R21*%
X13912500Y4250000D03*
X12087500Y4250000D03*
%TD*%
%TO.C,R6*%
X-16587500Y-26000000D03*
X-18412500Y-26000000D03*
%TD*%
D23*
%TO.C,C36*%
X-1862500Y48000000D03*
X-137500Y48000000D03*
%TD*%
D11*
%TO.C,C12*%
X612500Y-23500000D03*
X-1112500Y-23500000D03*
%TD*%
D35*
%TO.C,C13*%
X-1187500Y-14000000D03*
X-4312500Y-14000000D03*
%TD*%
D15*
%TO.C,TP5*%
X-9500000Y27000000D03*
%TD*%
D17*
%TO.C,R30*%
X-13912500Y32000000D03*
X-12087500Y32000000D03*
%TD*%
D15*
%TO.C,TP18*%
X1750000Y20000000D03*
%TD*%
D21*
%TO.C,R23*%
X4000000Y-2087500D03*
X4000000Y-3912500D03*
%TD*%
D41*
%TO.C,U3*%
X-12810000Y-26810000D03*
X-11190000Y-26810000D03*
X-12810000Y-25190000D03*
X-11190000Y-25190000D03*
D42*
X-10500000Y-28400000D03*
X-11000000Y-28400000D03*
X-11500000Y-28400000D03*
X-12000000Y-28400000D03*
X-12500000Y-28400000D03*
X-13000000Y-28400000D03*
X-13500000Y-28400000D03*
D43*
X-14400000Y-27500000D03*
X-14400000Y-27000000D03*
X-14400000Y-26500000D03*
X-14400000Y-26000000D03*
X-14400000Y-25500000D03*
X-14400000Y-25000000D03*
X-14400000Y-24500000D03*
D42*
X-13500000Y-23600000D03*
X-13000000Y-23600000D03*
X-12500000Y-23600000D03*
X-12000000Y-23600000D03*
X-11500000Y-23600000D03*
X-11000000Y-23600000D03*
X-10500000Y-23600000D03*
D43*
X-9600000Y-24500000D03*
X-9600000Y-25000000D03*
X-9600000Y-25500000D03*
X-9600000Y-26000000D03*
X-9600000Y-26500000D03*
X-9600000Y-27000000D03*
X-9600000Y-27500000D03*
%TD*%
D44*
%TO.C,J2*%
X21000000Y-31750000D03*
%TD*%
D15*
%TO.C,TP11*%
X-18250000Y41500000D03*
%TD*%
D12*
%TO.C,C18*%
X2250000Y-2137500D03*
X2250000Y-3862500D03*
%TD*%
D13*
%TO.C,R25*%
X-20087500Y-36000000D03*
X-21912500Y-36000000D03*
%TD*%
D40*
%TO.C,C25*%
X-17525000Y38750000D03*
X-14475000Y38750000D03*
%TD*%
D15*
%TO.C,TP16*%
X4500000Y20000000D03*
%TD*%
D17*
%TO.C,R20*%
X-1162500Y-21750000D03*
X662500Y-21750000D03*
%TD*%
D14*
%TO.C,R2*%
X20250000Y-23162500D03*
X20250000Y-21337500D03*
%TD*%
D21*
%TO.C,R9*%
X15500000Y-13337500D03*
X15500000Y-15162500D03*
%TD*%
D23*
%TO.C,C3*%
X-16112500Y-30750000D03*
X-14387500Y-30750000D03*
%TD*%
D45*
%TO.C,C7*%
X-10212500Y-32750000D03*
X-12287500Y-32750000D03*
%TD*%
D17*
%TO.C,R5*%
X-18412500Y-27750000D03*
X-16587500Y-27750000D03*
%TD*%
D13*
%TO.C,R19*%
X-15087500Y-500000D03*
X-16912500Y-500000D03*
%TD*%
D44*
%TO.C,J3*%
X21000000Y-28250000D03*
%TD*%
D46*
%TO.C,A1*%
X-21100000Y33700000D03*
X-20000000Y33700000D03*
X-18900000Y33700000D03*
X-17800000Y33700000D03*
X-16700000Y33700000D03*
D47*
X-16300000Y32200000D03*
X-16300000Y31100000D03*
X-16300000Y30000000D03*
X-16300000Y28900000D03*
X-16300000Y27800000D03*
D46*
X-16700000Y26300000D03*
X-17800000Y26300000D03*
X-18900000Y26300000D03*
X-20000000Y26300000D03*
X-21100000Y26300000D03*
%TD*%
D18*
%TO.C,D1*%
X19950000Y-11100000D03*
X18050000Y-11100000D03*
X19000000Y-8900000D03*
%TD*%
D20*
%TO.C,C22*%
X8250000Y13137500D03*
X8250000Y14862500D03*
%TD*%
D48*
%TO.C,U5*%
X-11725000Y2137500D03*
X-12375000Y2137500D03*
X-13025000Y2137500D03*
X-13675000Y2137500D03*
X-14325000Y2137500D03*
X-14975000Y2137500D03*
X-15625000Y2137500D03*
X-16275000Y2137500D03*
X-16275000Y7862500D03*
X-15625000Y7862500D03*
X-14975000Y7862500D03*
X-14325000Y7862500D03*
X-13675000Y7862500D03*
X-13025000Y7862500D03*
X-12375000Y7862500D03*
X-11725000Y7862500D03*
%TD*%
D49*
%TO.C,J4*%
X3200000Y-42620000D03*
X2400000Y-42620000D03*
D50*
X1250000Y-42620000D03*
X250000Y-42620000D03*
X-250000Y-42620000D03*
X-1250000Y-42620000D03*
D49*
X-2400000Y-42620000D03*
X-3200000Y-42620000D03*
D50*
X-1750000Y-42620000D03*
X-750000Y-42620000D03*
X750000Y-42620000D03*
X1750000Y-42620000D03*
D51*
X4820000Y-47375000D03*
D52*
X4820000Y-43195000D03*
D51*
X-4820000Y-47375000D03*
D52*
X-4820000Y-43195000D03*
%TD*%
D15*
%TO.C,TP2*%
X-19500000Y10500000D03*
%TD*%
D21*
%TO.C,R34*%
X10000000Y14912500D03*
X10000000Y13087500D03*
%TD*%
D13*
%TO.C,R41*%
X-2087500Y6000000D03*
X-3912500Y6000000D03*
%TD*%
D53*
%TO.C,U4*%
X4300000Y-17050000D03*
X4300000Y-18000000D03*
X4300000Y-18950000D03*
X1700000Y-18950000D03*
X1700000Y-17050000D03*
%TD*%
D54*
%TO.C,L1*%
X-1200000Y-18000000D03*
X-4300000Y-18000000D03*
%TD*%
D23*
%TO.C,C17*%
X12137500Y1750000D03*
X13862500Y1750000D03*
%TD*%
D13*
%TO.C,R31*%
X-12087500Y30000000D03*
X-13912500Y30000000D03*
%TD*%
M02*
