%TF.GenerationSoftware,KiCad,Pcbnew,9.0.4*%
%TF.CreationDate,2025-09-21T11:05:40+02:00*%
%TF.ProjectId,Spoke,53706f6b-652e-46b6-9963-61645f706362,2.0*%
%TF.SameCoordinates,PX5f5e100PY5f5e100*%
%TF.FileFunction,Drillmap*%
%TF.FilePolarity,Positive*%
%FSLAX45Y45*%
G04 Gerber Fmt 4.5, Leading zero omitted, Abs format (unit mm)*
G04 Created by KiCad (PCBNEW 9.0.4) date 2025-09-21 11:05:40*
%MOMM*%
%LPD*%
G01*
G04 APERTURE LIST*
%ADD10C,0.100000*%
%ADD11C,0.200000*%
%ADD12C,0.320000*%
G04 APERTURE END LIST*
D10*
X-2500000Y5000000D02*
X2500000Y5000000D01*
X2500000Y-5000000D01*
X-2500000Y-5000000D01*
X-2500000Y5000000D01*
D11*
D10*
X-321500Y-4337000D02*
X-256500Y-4402000D01*
X-256500Y-4337000D02*
X-321500Y-4402000D01*
X256500Y-4337000D02*
X321500Y-4402000D01*
X321500Y-4337000D02*
X256500Y-4402000D01*
D12*
X-1990000Y4650000D02*
G75*
G02*
X-2310000Y4650000I-160000J0D01*
G01*
X-2310000Y4650000D02*
G75*
G02*
X-1990000Y4650000I160000J0D01*
G01*
X-1990000Y-4650000D02*
G75*
G02*
X-2310000Y-4650000I-160000J0D01*
G01*
X-2310000Y-4650000D02*
G75*
G02*
X-1990000Y-4650000I160000J0D01*
G01*
X2310000Y4650000D02*
G75*
G02*
X1990000Y4650000I-160000J0D01*
G01*
X1990000Y4650000D02*
G75*
G02*
X2310000Y4650000I160000J0D01*
G01*
X2310000Y-4650000D02*
G75*
G02*
X1990000Y-4650000I-160000J0D01*
G01*
X1990000Y-4650000D02*
G75*
G02*
X2310000Y-4650000I160000J0D01*
G01*
D11*
X-2244223Y-5316484D02*
X-2244223Y-5116484D01*
X-2244223Y-5116484D02*
X-2196604Y-5116484D01*
X-2196604Y-5116484D02*
X-2168033Y-5126008D01*
X-2168033Y-5126008D02*
X-2148985Y-5145055D01*
X-2148985Y-5145055D02*
X-2139461Y-5164103D01*
X-2139461Y-5164103D02*
X-2129938Y-5202198D01*
X-2129938Y-5202198D02*
X-2129938Y-5230770D01*
X-2129938Y-5230770D02*
X-2139461Y-5268865D01*
X-2139461Y-5268865D02*
X-2148985Y-5287912D01*
X-2148985Y-5287912D02*
X-2168033Y-5306960D01*
X-2168033Y-5306960D02*
X-2196604Y-5316484D01*
X-2196604Y-5316484D02*
X-2244223Y-5316484D01*
X-2044223Y-5316484D02*
X-2044223Y-5183150D01*
X-2044223Y-5221246D02*
X-2034699Y-5202198D01*
X-2034699Y-5202198D02*
X-2025176Y-5192674D01*
X-2025176Y-5192674D02*
X-2006128Y-5183150D01*
X-2006128Y-5183150D02*
X-1987080Y-5183150D01*
X-1920414Y-5316484D02*
X-1920414Y-5183150D01*
X-1920414Y-5116484D02*
X-1929937Y-5126008D01*
X-1929937Y-5126008D02*
X-1920414Y-5135531D01*
X-1920414Y-5135531D02*
X-1910890Y-5126008D01*
X-1910890Y-5126008D02*
X-1920414Y-5116484D01*
X-1920414Y-5116484D02*
X-1920414Y-5135531D01*
X-1796604Y-5316484D02*
X-1815652Y-5306960D01*
X-1815652Y-5306960D02*
X-1825176Y-5287912D01*
X-1825176Y-5287912D02*
X-1825176Y-5116484D01*
X-1691842Y-5316484D02*
X-1710890Y-5306960D01*
X-1710890Y-5306960D02*
X-1720414Y-5287912D01*
X-1720414Y-5287912D02*
X-1720414Y-5116484D01*
X-1463271Y-5316484D02*
X-1463271Y-5116484D01*
X-1463271Y-5116484D02*
X-1396604Y-5259341D01*
X-1396604Y-5259341D02*
X-1329938Y-5116484D01*
X-1329938Y-5116484D02*
X-1329938Y-5316484D01*
X-1148985Y-5316484D02*
X-1148985Y-5211722D01*
X-1148985Y-5211722D02*
X-1158509Y-5192674D01*
X-1158509Y-5192674D02*
X-1177557Y-5183150D01*
X-1177557Y-5183150D02*
X-1215652Y-5183150D01*
X-1215652Y-5183150D02*
X-1234699Y-5192674D01*
X-1148985Y-5306960D02*
X-1168033Y-5316484D01*
X-1168033Y-5316484D02*
X-1215652Y-5316484D01*
X-1215652Y-5316484D02*
X-1234699Y-5306960D01*
X-1234699Y-5306960D02*
X-1244223Y-5287912D01*
X-1244223Y-5287912D02*
X-1244223Y-5268865D01*
X-1244223Y-5268865D02*
X-1234699Y-5249817D01*
X-1234699Y-5249817D02*
X-1215652Y-5240293D01*
X-1215652Y-5240293D02*
X-1168033Y-5240293D01*
X-1168033Y-5240293D02*
X-1148985Y-5230770D01*
X-1053747Y-5183150D02*
X-1053747Y-5383150D01*
X-1053747Y-5192674D02*
X-1034699Y-5183150D01*
X-1034699Y-5183150D02*
X-996604Y-5183150D01*
X-996604Y-5183150D02*
X-977556Y-5192674D01*
X-977556Y-5192674D02*
X-968033Y-5202198D01*
X-968033Y-5202198D02*
X-958509Y-5221246D01*
X-958509Y-5221246D02*
X-958509Y-5278389D01*
X-958509Y-5278389D02*
X-968033Y-5297436D01*
X-968033Y-5297436D02*
X-977556Y-5306960D01*
X-977556Y-5306960D02*
X-996604Y-5316484D01*
X-996604Y-5316484D02*
X-1034699Y-5316484D01*
X-1034699Y-5316484D02*
X-1053747Y-5306960D01*
X-872795Y-5297436D02*
X-863271Y-5306960D01*
X-863271Y-5306960D02*
X-872795Y-5316484D01*
X-872795Y-5316484D02*
X-882318Y-5306960D01*
X-882318Y-5306960D02*
X-872795Y-5297436D01*
X-872795Y-5297436D02*
X-872795Y-5316484D01*
X-872795Y-5192674D02*
X-863271Y-5202198D01*
X-863271Y-5202198D02*
X-872795Y-5211722D01*
X-872795Y-5211722D02*
X-882318Y-5202198D01*
X-882318Y-5202198D02*
X-872795Y-5192674D01*
X-872795Y-5192674D02*
X-872795Y-5211722D01*
D10*
X-2570000Y-5612500D02*
X-2505000Y-5677500D01*
X-2505000Y-5612500D02*
X-2570000Y-5677500D01*
D11*
X-2206128Y-5536484D02*
X-2187080Y-5536484D01*
X-2187080Y-5536484D02*
X-2168033Y-5546008D01*
X-2168033Y-5546008D02*
X-2158509Y-5555531D01*
X-2158509Y-5555531D02*
X-2148985Y-5574579D01*
X-2148985Y-5574579D02*
X-2139461Y-5612674D01*
X-2139461Y-5612674D02*
X-2139461Y-5660293D01*
X-2139461Y-5660293D02*
X-2148985Y-5698388D01*
X-2148985Y-5698388D02*
X-2158509Y-5717436D01*
X-2158509Y-5717436D02*
X-2168033Y-5726960D01*
X-2168033Y-5726960D02*
X-2187080Y-5736484D01*
X-2187080Y-5736484D02*
X-2206128Y-5736484D01*
X-2206128Y-5736484D02*
X-2225176Y-5726960D01*
X-2225176Y-5726960D02*
X-2234699Y-5717436D01*
X-2234699Y-5717436D02*
X-2244223Y-5698388D01*
X-2244223Y-5698388D02*
X-2253747Y-5660293D01*
X-2253747Y-5660293D02*
X-2253747Y-5612674D01*
X-2253747Y-5612674D02*
X-2244223Y-5574579D01*
X-2244223Y-5574579D02*
X-2234699Y-5555531D01*
X-2234699Y-5555531D02*
X-2225176Y-5546008D01*
X-2225176Y-5546008D02*
X-2206128Y-5536484D01*
X-2053747Y-5717436D02*
X-2044223Y-5726960D01*
X-2044223Y-5726960D02*
X-2053747Y-5736484D01*
X-2053747Y-5736484D02*
X-2063271Y-5726960D01*
X-2063271Y-5726960D02*
X-2053747Y-5717436D01*
X-2053747Y-5717436D02*
X-2053747Y-5736484D01*
X-1872795Y-5536484D02*
X-1910890Y-5536484D01*
X-1910890Y-5536484D02*
X-1929937Y-5546008D01*
X-1929937Y-5546008D02*
X-1939461Y-5555531D01*
X-1939461Y-5555531D02*
X-1958509Y-5584103D01*
X-1958509Y-5584103D02*
X-1968033Y-5622198D01*
X-1968033Y-5622198D02*
X-1968033Y-5698388D01*
X-1968033Y-5698388D02*
X-1958509Y-5717436D01*
X-1958509Y-5717436D02*
X-1948985Y-5726960D01*
X-1948985Y-5726960D02*
X-1929937Y-5736484D01*
X-1929937Y-5736484D02*
X-1891842Y-5736484D01*
X-1891842Y-5736484D02*
X-1872795Y-5726960D01*
X-1872795Y-5726960D02*
X-1863271Y-5717436D01*
X-1863271Y-5717436D02*
X-1853747Y-5698388D01*
X-1853747Y-5698388D02*
X-1853747Y-5650769D01*
X-1853747Y-5650769D02*
X-1863271Y-5631722D01*
X-1863271Y-5631722D02*
X-1872795Y-5622198D01*
X-1872795Y-5622198D02*
X-1891842Y-5612674D01*
X-1891842Y-5612674D02*
X-1929937Y-5612674D01*
X-1929937Y-5612674D02*
X-1948985Y-5622198D01*
X-1948985Y-5622198D02*
X-1958509Y-5631722D01*
X-1958509Y-5631722D02*
X-1968033Y-5650769D01*
X-1672795Y-5536484D02*
X-1768033Y-5536484D01*
X-1768033Y-5536484D02*
X-1777556Y-5631722D01*
X-1777556Y-5631722D02*
X-1768033Y-5622198D01*
X-1768033Y-5622198D02*
X-1748985Y-5612674D01*
X-1748985Y-5612674D02*
X-1701366Y-5612674D01*
X-1701366Y-5612674D02*
X-1682318Y-5622198D01*
X-1682318Y-5622198D02*
X-1672795Y-5631722D01*
X-1672795Y-5631722D02*
X-1663271Y-5650769D01*
X-1663271Y-5650769D02*
X-1663271Y-5698388D01*
X-1663271Y-5698388D02*
X-1672795Y-5717436D01*
X-1672795Y-5717436D02*
X-1682318Y-5726960D01*
X-1682318Y-5726960D02*
X-1701366Y-5736484D01*
X-1701366Y-5736484D02*
X-1748985Y-5736484D01*
X-1748985Y-5736484D02*
X-1768033Y-5726960D01*
X-1768033Y-5726960D02*
X-1777556Y-5717436D01*
X-1539461Y-5536484D02*
X-1520414Y-5536484D01*
X-1520414Y-5536484D02*
X-1501366Y-5546008D01*
X-1501366Y-5546008D02*
X-1491842Y-5555531D01*
X-1491842Y-5555531D02*
X-1482318Y-5574579D01*
X-1482318Y-5574579D02*
X-1472795Y-5612674D01*
X-1472795Y-5612674D02*
X-1472795Y-5660293D01*
X-1472795Y-5660293D02*
X-1482318Y-5698388D01*
X-1482318Y-5698388D02*
X-1491842Y-5717436D01*
X-1491842Y-5717436D02*
X-1501366Y-5726960D01*
X-1501366Y-5726960D02*
X-1520414Y-5736484D01*
X-1520414Y-5736484D02*
X-1539461Y-5736484D01*
X-1539461Y-5736484D02*
X-1558509Y-5726960D01*
X-1558509Y-5726960D02*
X-1568033Y-5717436D01*
X-1568033Y-5717436D02*
X-1577556Y-5698388D01*
X-1577556Y-5698388D02*
X-1587080Y-5660293D01*
X-1587080Y-5660293D02*
X-1587080Y-5612674D01*
X-1587080Y-5612674D02*
X-1577556Y-5574579D01*
X-1577556Y-5574579D02*
X-1568033Y-5555531D01*
X-1568033Y-5555531D02*
X-1558509Y-5546008D01*
X-1558509Y-5546008D02*
X-1539461Y-5536484D01*
X-1387080Y-5736484D02*
X-1387080Y-5603150D01*
X-1387080Y-5622198D02*
X-1377557Y-5612674D01*
X-1377557Y-5612674D02*
X-1358509Y-5603150D01*
X-1358509Y-5603150D02*
X-1329937Y-5603150D01*
X-1329937Y-5603150D02*
X-1310890Y-5612674D01*
X-1310890Y-5612674D02*
X-1301366Y-5631722D01*
X-1301366Y-5631722D02*
X-1301366Y-5736484D01*
X-1301366Y-5631722D02*
X-1291842Y-5612674D01*
X-1291842Y-5612674D02*
X-1272795Y-5603150D01*
X-1272795Y-5603150D02*
X-1244223Y-5603150D01*
X-1244223Y-5603150D02*
X-1225176Y-5612674D01*
X-1225176Y-5612674D02*
X-1215652Y-5631722D01*
X-1215652Y-5631722D02*
X-1215652Y-5736484D01*
X-1120414Y-5736484D02*
X-1120414Y-5603150D01*
X-1120414Y-5622198D02*
X-1110890Y-5612674D01*
X-1110890Y-5612674D02*
X-1091842Y-5603150D01*
X-1091842Y-5603150D02*
X-1063271Y-5603150D01*
X-1063271Y-5603150D02*
X-1044223Y-5612674D01*
X-1044223Y-5612674D02*
X-1034699Y-5631722D01*
X-1034699Y-5631722D02*
X-1034699Y-5736484D01*
X-1034699Y-5631722D02*
X-1025175Y-5612674D01*
X-1025175Y-5612674D02*
X-1006128Y-5603150D01*
X-1006128Y-5603150D02*
X-977556Y-5603150D01*
X-977556Y-5603150D02*
X-958509Y-5612674D01*
X-958509Y-5612674D02*
X-948985Y-5631722D01*
X-948985Y-5631722D02*
X-948985Y-5736484D01*
X-558509Y-5526960D02*
X-729937Y-5784103D01*
X-301366Y-5536484D02*
X-282318Y-5536484D01*
X-282318Y-5536484D02*
X-263271Y-5546008D01*
X-263271Y-5546008D02*
X-253747Y-5555531D01*
X-253747Y-5555531D02*
X-244223Y-5574579D01*
X-244223Y-5574579D02*
X-234699Y-5612674D01*
X-234699Y-5612674D02*
X-234699Y-5660293D01*
X-234699Y-5660293D02*
X-244223Y-5698388D01*
X-244223Y-5698388D02*
X-253747Y-5717436D01*
X-253747Y-5717436D02*
X-263271Y-5726960D01*
X-263271Y-5726960D02*
X-282318Y-5736484D01*
X-282318Y-5736484D02*
X-301366Y-5736484D01*
X-301366Y-5736484D02*
X-320414Y-5726960D01*
X-320414Y-5726960D02*
X-329937Y-5717436D01*
X-329937Y-5717436D02*
X-339461Y-5698388D01*
X-339461Y-5698388D02*
X-348985Y-5660293D01*
X-348985Y-5660293D02*
X-348985Y-5612674D01*
X-348985Y-5612674D02*
X-339461Y-5574579D01*
X-339461Y-5574579D02*
X-329937Y-5555531D01*
X-329937Y-5555531D02*
X-320414Y-5546008D01*
X-320414Y-5546008D02*
X-301366Y-5536484D01*
X-148985Y-5717436D02*
X-139461Y-5726960D01*
X-139461Y-5726960D02*
X-148985Y-5736484D01*
X-148985Y-5736484D02*
X-158509Y-5726960D01*
X-158509Y-5726960D02*
X-148985Y-5717436D01*
X-148985Y-5717436D02*
X-148985Y-5736484D01*
X-15652Y-5536484D02*
X3396Y-5536484D01*
X3396Y-5536484D02*
X22444Y-5546008D01*
X22444Y-5546008D02*
X31967Y-5555531D01*
X31967Y-5555531D02*
X41491Y-5574579D01*
X41491Y-5574579D02*
X51015Y-5612674D01*
X51015Y-5612674D02*
X51015Y-5660293D01*
X51015Y-5660293D02*
X41491Y-5698388D01*
X41491Y-5698388D02*
X31967Y-5717436D01*
X31967Y-5717436D02*
X22444Y-5726960D01*
X22444Y-5726960D02*
X3396Y-5736484D01*
X3396Y-5736484D02*
X-15652Y-5736484D01*
X-15652Y-5736484D02*
X-34699Y-5726960D01*
X-34699Y-5726960D02*
X-44223Y-5717436D01*
X-44223Y-5717436D02*
X-53747Y-5698388D01*
X-53747Y-5698388D02*
X-63271Y-5660293D01*
X-63271Y-5660293D02*
X-63271Y-5612674D01*
X-63271Y-5612674D02*
X-53747Y-5574579D01*
X-53747Y-5574579D02*
X-44223Y-5555531D01*
X-44223Y-5555531D02*
X-34699Y-5546008D01*
X-34699Y-5546008D02*
X-15652Y-5536484D01*
X127206Y-5555531D02*
X136729Y-5546008D01*
X136729Y-5546008D02*
X155777Y-5536484D01*
X155777Y-5536484D02*
X203396Y-5536484D01*
X203396Y-5536484D02*
X222444Y-5546008D01*
X222444Y-5546008D02*
X231967Y-5555531D01*
X231967Y-5555531D02*
X241491Y-5574579D01*
X241491Y-5574579D02*
X241491Y-5593627D01*
X241491Y-5593627D02*
X231967Y-5622198D01*
X231967Y-5622198D02*
X117682Y-5736484D01*
X117682Y-5736484D02*
X241491Y-5736484D01*
X422444Y-5536484D02*
X327206Y-5536484D01*
X327206Y-5536484D02*
X317682Y-5631722D01*
X317682Y-5631722D02*
X327206Y-5622198D01*
X327206Y-5622198D02*
X346253Y-5612674D01*
X346253Y-5612674D02*
X393872Y-5612674D01*
X393872Y-5612674D02*
X412920Y-5622198D01*
X412920Y-5622198D02*
X422444Y-5631722D01*
X422444Y-5631722D02*
X431967Y-5650769D01*
X431967Y-5650769D02*
X431967Y-5698388D01*
X431967Y-5698388D02*
X422444Y-5717436D01*
X422444Y-5717436D02*
X412920Y-5726960D01*
X412920Y-5726960D02*
X393872Y-5736484D01*
X393872Y-5736484D02*
X346253Y-5736484D01*
X346253Y-5736484D02*
X327206Y-5726960D01*
X327206Y-5726960D02*
X317682Y-5717436D01*
X603396Y-5536484D02*
X565301Y-5536484D01*
X565301Y-5536484D02*
X546253Y-5546008D01*
X546253Y-5546008D02*
X536729Y-5555531D01*
X536729Y-5555531D02*
X517682Y-5584103D01*
X517682Y-5584103D02*
X508158Y-5622198D01*
X508158Y-5622198D02*
X508158Y-5698388D01*
X508158Y-5698388D02*
X517682Y-5717436D01*
X517682Y-5717436D02*
X527206Y-5726960D01*
X527206Y-5726960D02*
X546253Y-5736484D01*
X546253Y-5736484D02*
X584349Y-5736484D01*
X584349Y-5736484D02*
X603396Y-5726960D01*
X603396Y-5726960D02*
X612920Y-5717436D01*
X612920Y-5717436D02*
X622444Y-5698388D01*
X622444Y-5698388D02*
X622444Y-5650769D01*
X622444Y-5650769D02*
X612920Y-5631722D01*
X612920Y-5631722D02*
X603396Y-5622198D01*
X603396Y-5622198D02*
X584349Y-5612674D01*
X584349Y-5612674D02*
X546253Y-5612674D01*
X546253Y-5612674D02*
X527206Y-5622198D01*
X527206Y-5622198D02*
X517682Y-5631722D01*
X517682Y-5631722D02*
X508158Y-5650769D01*
X698634Y-5536484D02*
X698634Y-5574579D01*
X774825Y-5536484D02*
X774825Y-5574579D01*
X1070063Y-5812674D02*
X1060539Y-5803150D01*
X1060539Y-5803150D02*
X1041491Y-5774579D01*
X1041491Y-5774579D02*
X1031968Y-5755531D01*
X1031968Y-5755531D02*
X1022444Y-5726960D01*
X1022444Y-5726960D02*
X1012920Y-5679341D01*
X1012920Y-5679341D02*
X1012920Y-5641246D01*
X1012920Y-5641246D02*
X1022444Y-5593627D01*
X1022444Y-5593627D02*
X1031968Y-5565055D01*
X1031968Y-5565055D02*
X1041491Y-5546008D01*
X1041491Y-5546008D02*
X1060539Y-5517436D01*
X1060539Y-5517436D02*
X1070063Y-5507912D01*
X1136730Y-5555531D02*
X1146253Y-5546008D01*
X1146253Y-5546008D02*
X1165301Y-5536484D01*
X1165301Y-5536484D02*
X1212920Y-5536484D01*
X1212920Y-5536484D02*
X1231968Y-5546008D01*
X1231968Y-5546008D02*
X1241491Y-5555531D01*
X1241491Y-5555531D02*
X1251015Y-5574579D01*
X1251015Y-5574579D02*
X1251015Y-5593627D01*
X1251015Y-5593627D02*
X1241491Y-5622198D01*
X1241491Y-5622198D02*
X1127206Y-5736484D01*
X1127206Y-5736484D02*
X1251015Y-5736484D01*
X1489110Y-5736484D02*
X1489110Y-5536484D01*
X1574825Y-5736484D02*
X1574825Y-5631722D01*
X1574825Y-5631722D02*
X1565301Y-5612674D01*
X1565301Y-5612674D02*
X1546253Y-5603150D01*
X1546253Y-5603150D02*
X1517682Y-5603150D01*
X1517682Y-5603150D02*
X1498634Y-5612674D01*
X1498634Y-5612674D02*
X1489110Y-5622198D01*
X1698634Y-5736484D02*
X1679587Y-5726960D01*
X1679587Y-5726960D02*
X1670063Y-5717436D01*
X1670063Y-5717436D02*
X1660539Y-5698388D01*
X1660539Y-5698388D02*
X1660539Y-5641246D01*
X1660539Y-5641246D02*
X1670063Y-5622198D01*
X1670063Y-5622198D02*
X1679587Y-5612674D01*
X1679587Y-5612674D02*
X1698634Y-5603150D01*
X1698634Y-5603150D02*
X1727206Y-5603150D01*
X1727206Y-5603150D02*
X1746253Y-5612674D01*
X1746253Y-5612674D02*
X1755777Y-5622198D01*
X1755777Y-5622198D02*
X1765301Y-5641246D01*
X1765301Y-5641246D02*
X1765301Y-5698388D01*
X1765301Y-5698388D02*
X1755777Y-5717436D01*
X1755777Y-5717436D02*
X1746253Y-5726960D01*
X1746253Y-5726960D02*
X1727206Y-5736484D01*
X1727206Y-5736484D02*
X1698634Y-5736484D01*
X1879587Y-5736484D02*
X1860539Y-5726960D01*
X1860539Y-5726960D02*
X1851015Y-5707912D01*
X1851015Y-5707912D02*
X1851015Y-5536484D01*
X2031968Y-5726960D02*
X2012920Y-5736484D01*
X2012920Y-5736484D02*
X1974825Y-5736484D01*
X1974825Y-5736484D02*
X1955777Y-5726960D01*
X1955777Y-5726960D02*
X1946253Y-5707912D01*
X1946253Y-5707912D02*
X1946253Y-5631722D01*
X1946253Y-5631722D02*
X1955777Y-5612674D01*
X1955777Y-5612674D02*
X1974825Y-5603150D01*
X1974825Y-5603150D02*
X2012920Y-5603150D01*
X2012920Y-5603150D02*
X2031968Y-5612674D01*
X2031968Y-5612674D02*
X2041491Y-5631722D01*
X2041491Y-5631722D02*
X2041491Y-5650769D01*
X2041491Y-5650769D02*
X1946253Y-5669817D01*
X2117682Y-5726960D02*
X2136730Y-5736484D01*
X2136730Y-5736484D02*
X2174825Y-5736484D01*
X2174825Y-5736484D02*
X2193873Y-5726960D01*
X2193873Y-5726960D02*
X2203396Y-5707912D01*
X2203396Y-5707912D02*
X2203396Y-5698388D01*
X2203396Y-5698388D02*
X2193873Y-5679341D01*
X2193873Y-5679341D02*
X2174825Y-5669817D01*
X2174825Y-5669817D02*
X2146253Y-5669817D01*
X2146253Y-5669817D02*
X2127206Y-5660293D01*
X2127206Y-5660293D02*
X2117682Y-5641246D01*
X2117682Y-5641246D02*
X2117682Y-5631722D01*
X2117682Y-5631722D02*
X2127206Y-5612674D01*
X2127206Y-5612674D02*
X2146253Y-5603150D01*
X2146253Y-5603150D02*
X2174825Y-5603150D01*
X2174825Y-5603150D02*
X2193873Y-5612674D01*
X2270063Y-5812674D02*
X2279587Y-5803150D01*
X2279587Y-5803150D02*
X2298634Y-5774579D01*
X2298634Y-5774579D02*
X2308158Y-5755531D01*
X2308158Y-5755531D02*
X2317682Y-5726960D01*
X2317682Y-5726960D02*
X2327206Y-5679341D01*
X2327206Y-5679341D02*
X2327206Y-5641246D01*
X2327206Y-5641246D02*
X2317682Y-5593627D01*
X2317682Y-5593627D02*
X2308158Y-5565055D01*
X2308158Y-5565055D02*
X2298634Y-5546008D01*
X2298634Y-5546008D02*
X2279587Y-5517436D01*
X2279587Y-5517436D02*
X2270063Y-5507912D01*
X2631968Y-5812674D02*
X2622444Y-5803150D01*
X2622444Y-5803150D02*
X2603396Y-5774579D01*
X2603396Y-5774579D02*
X2593873Y-5755531D01*
X2593873Y-5755531D02*
X2584349Y-5726960D01*
X2584349Y-5726960D02*
X2574825Y-5679341D01*
X2574825Y-5679341D02*
X2574825Y-5641246D01*
X2574825Y-5641246D02*
X2584349Y-5593627D01*
X2584349Y-5593627D02*
X2593873Y-5565055D01*
X2593873Y-5565055D02*
X2603396Y-5546008D01*
X2603396Y-5546008D02*
X2622444Y-5517436D01*
X2622444Y-5517436D02*
X2631968Y-5507912D01*
X2708158Y-5603150D02*
X2708158Y-5736484D01*
X2708158Y-5622198D02*
X2717682Y-5612674D01*
X2717682Y-5612674D02*
X2736730Y-5603150D01*
X2736730Y-5603150D02*
X2765301Y-5603150D01*
X2765301Y-5603150D02*
X2784349Y-5612674D01*
X2784349Y-5612674D02*
X2793873Y-5631722D01*
X2793873Y-5631722D02*
X2793873Y-5736484D01*
X2917682Y-5736484D02*
X2898634Y-5726960D01*
X2898634Y-5726960D02*
X2889111Y-5717436D01*
X2889111Y-5717436D02*
X2879587Y-5698388D01*
X2879587Y-5698388D02*
X2879587Y-5641246D01*
X2879587Y-5641246D02*
X2889111Y-5622198D01*
X2889111Y-5622198D02*
X2898634Y-5612674D01*
X2898634Y-5612674D02*
X2917682Y-5603150D01*
X2917682Y-5603150D02*
X2946253Y-5603150D01*
X2946253Y-5603150D02*
X2965301Y-5612674D01*
X2965301Y-5612674D02*
X2974825Y-5622198D01*
X2974825Y-5622198D02*
X2984349Y-5641246D01*
X2984349Y-5641246D02*
X2984349Y-5698388D01*
X2984349Y-5698388D02*
X2974825Y-5717436D01*
X2974825Y-5717436D02*
X2965301Y-5726960D01*
X2965301Y-5726960D02*
X2946253Y-5736484D01*
X2946253Y-5736484D02*
X2917682Y-5736484D01*
X3041492Y-5603150D02*
X3117682Y-5603150D01*
X3070063Y-5536484D02*
X3070063Y-5707912D01*
X3070063Y-5707912D02*
X3079587Y-5726960D01*
X3079587Y-5726960D02*
X3098634Y-5736484D01*
X3098634Y-5736484D02*
X3117682Y-5736484D01*
X3336730Y-5603150D02*
X3336730Y-5803150D01*
X3336730Y-5612674D02*
X3355777Y-5603150D01*
X3355777Y-5603150D02*
X3393873Y-5603150D01*
X3393873Y-5603150D02*
X3412920Y-5612674D01*
X3412920Y-5612674D02*
X3422444Y-5622198D01*
X3422444Y-5622198D02*
X3431968Y-5641246D01*
X3431968Y-5641246D02*
X3431968Y-5698388D01*
X3431968Y-5698388D02*
X3422444Y-5717436D01*
X3422444Y-5717436D02*
X3412920Y-5726960D01*
X3412920Y-5726960D02*
X3393873Y-5736484D01*
X3393873Y-5736484D02*
X3355777Y-5736484D01*
X3355777Y-5736484D02*
X3336730Y-5726960D01*
X3546253Y-5736484D02*
X3527206Y-5726960D01*
X3527206Y-5726960D02*
X3517682Y-5707912D01*
X3517682Y-5707912D02*
X3517682Y-5536484D01*
X3708158Y-5736484D02*
X3708158Y-5631722D01*
X3708158Y-5631722D02*
X3698634Y-5612674D01*
X3698634Y-5612674D02*
X3679587Y-5603150D01*
X3679587Y-5603150D02*
X3641492Y-5603150D01*
X3641492Y-5603150D02*
X3622444Y-5612674D01*
X3708158Y-5726960D02*
X3689111Y-5736484D01*
X3689111Y-5736484D02*
X3641492Y-5736484D01*
X3641492Y-5736484D02*
X3622444Y-5726960D01*
X3622444Y-5726960D02*
X3612920Y-5707912D01*
X3612920Y-5707912D02*
X3612920Y-5688865D01*
X3612920Y-5688865D02*
X3622444Y-5669817D01*
X3622444Y-5669817D02*
X3641492Y-5660293D01*
X3641492Y-5660293D02*
X3689111Y-5660293D01*
X3689111Y-5660293D02*
X3708158Y-5650769D01*
X3774825Y-5603150D02*
X3851015Y-5603150D01*
X3803396Y-5536484D02*
X3803396Y-5707912D01*
X3803396Y-5707912D02*
X3812920Y-5726960D01*
X3812920Y-5726960D02*
X3831968Y-5736484D01*
X3831968Y-5736484D02*
X3851015Y-5736484D01*
X3993873Y-5726960D02*
X3974825Y-5736484D01*
X3974825Y-5736484D02*
X3936730Y-5736484D01*
X3936730Y-5736484D02*
X3917682Y-5726960D01*
X3917682Y-5726960D02*
X3908158Y-5707912D01*
X3908158Y-5707912D02*
X3908158Y-5631722D01*
X3908158Y-5631722D02*
X3917682Y-5612674D01*
X3917682Y-5612674D02*
X3936730Y-5603150D01*
X3936730Y-5603150D02*
X3974825Y-5603150D01*
X3974825Y-5603150D02*
X3993873Y-5612674D01*
X3993873Y-5612674D02*
X4003396Y-5631722D01*
X4003396Y-5631722D02*
X4003396Y-5650769D01*
X4003396Y-5650769D02*
X3908158Y-5669817D01*
X4174825Y-5736484D02*
X4174825Y-5536484D01*
X4174825Y-5726960D02*
X4155777Y-5736484D01*
X4155777Y-5736484D02*
X4117682Y-5736484D01*
X4117682Y-5736484D02*
X4098634Y-5726960D01*
X4098634Y-5726960D02*
X4089111Y-5717436D01*
X4089111Y-5717436D02*
X4079587Y-5698388D01*
X4079587Y-5698388D02*
X4079587Y-5641246D01*
X4079587Y-5641246D02*
X4089111Y-5622198D01*
X4089111Y-5622198D02*
X4098634Y-5612674D01*
X4098634Y-5612674D02*
X4117682Y-5603150D01*
X4117682Y-5603150D02*
X4155777Y-5603150D01*
X4155777Y-5603150D02*
X4174825Y-5612674D01*
X4251016Y-5812674D02*
X4260539Y-5803150D01*
X4260539Y-5803150D02*
X4279587Y-5774579D01*
X4279587Y-5774579D02*
X4289111Y-5755531D01*
X4289111Y-5755531D02*
X4298635Y-5726960D01*
X4298635Y-5726960D02*
X4308158Y-5679341D01*
X4308158Y-5679341D02*
X4308158Y-5641246D01*
X4308158Y-5641246D02*
X4298635Y-5593627D01*
X4298635Y-5593627D02*
X4289111Y-5565055D01*
X4289111Y-5565055D02*
X4279587Y-5546008D01*
X4279587Y-5546008D02*
X4260539Y-5517436D01*
X4260539Y-5517436D02*
X4251016Y-5507912D01*
X-2505000Y-5909000D02*
G75*
G02*
X-2705000Y-5909000I-100000J0D01*
G01*
X-2705000Y-5909000D02*
G75*
G02*
X-2505000Y-5909000I100000J0D01*
G01*
X-2263271Y-5800484D02*
X-2139461Y-5800484D01*
X-2139461Y-5800484D02*
X-2206128Y-5876674D01*
X-2206128Y-5876674D02*
X-2177557Y-5876674D01*
X-2177557Y-5876674D02*
X-2158509Y-5886198D01*
X-2158509Y-5886198D02*
X-2148985Y-5895722D01*
X-2148985Y-5895722D02*
X-2139461Y-5914769D01*
X-2139461Y-5914769D02*
X-2139461Y-5962388D01*
X-2139461Y-5962388D02*
X-2148985Y-5981436D01*
X-2148985Y-5981436D02*
X-2158509Y-5990960D01*
X-2158509Y-5990960D02*
X-2177557Y-6000484D01*
X-2177557Y-6000484D02*
X-2234699Y-6000484D01*
X-2234699Y-6000484D02*
X-2253747Y-5990960D01*
X-2253747Y-5990960D02*
X-2263271Y-5981436D01*
X-2053747Y-5981436D02*
X-2044223Y-5990960D01*
X-2044223Y-5990960D02*
X-2053747Y-6000484D01*
X-2053747Y-6000484D02*
X-2063271Y-5990960D01*
X-2063271Y-5990960D02*
X-2053747Y-5981436D01*
X-2053747Y-5981436D02*
X-2053747Y-6000484D01*
X-1968033Y-5819531D02*
X-1958509Y-5810008D01*
X-1958509Y-5810008D02*
X-1939461Y-5800484D01*
X-1939461Y-5800484D02*
X-1891842Y-5800484D01*
X-1891842Y-5800484D02*
X-1872795Y-5810008D01*
X-1872795Y-5810008D02*
X-1863271Y-5819531D01*
X-1863271Y-5819531D02*
X-1853747Y-5838579D01*
X-1853747Y-5838579D02*
X-1853747Y-5857627D01*
X-1853747Y-5857627D02*
X-1863271Y-5886198D01*
X-1863271Y-5886198D02*
X-1977556Y-6000484D01*
X-1977556Y-6000484D02*
X-1853747Y-6000484D01*
X-1729937Y-5800484D02*
X-1710890Y-5800484D01*
X-1710890Y-5800484D02*
X-1691842Y-5810008D01*
X-1691842Y-5810008D02*
X-1682318Y-5819531D01*
X-1682318Y-5819531D02*
X-1672795Y-5838579D01*
X-1672795Y-5838579D02*
X-1663271Y-5876674D01*
X-1663271Y-5876674D02*
X-1663271Y-5924293D01*
X-1663271Y-5924293D02*
X-1672795Y-5962388D01*
X-1672795Y-5962388D02*
X-1682318Y-5981436D01*
X-1682318Y-5981436D02*
X-1691842Y-5990960D01*
X-1691842Y-5990960D02*
X-1710890Y-6000484D01*
X-1710890Y-6000484D02*
X-1729937Y-6000484D01*
X-1729937Y-6000484D02*
X-1748985Y-5990960D01*
X-1748985Y-5990960D02*
X-1758509Y-5981436D01*
X-1758509Y-5981436D02*
X-1768033Y-5962388D01*
X-1768033Y-5962388D02*
X-1777556Y-5924293D01*
X-1777556Y-5924293D02*
X-1777556Y-5876674D01*
X-1777556Y-5876674D02*
X-1768033Y-5838579D01*
X-1768033Y-5838579D02*
X-1758509Y-5819531D01*
X-1758509Y-5819531D02*
X-1748985Y-5810008D01*
X-1748985Y-5810008D02*
X-1729937Y-5800484D01*
X-1539461Y-5800484D02*
X-1520414Y-5800484D01*
X-1520414Y-5800484D02*
X-1501366Y-5810008D01*
X-1501366Y-5810008D02*
X-1491842Y-5819531D01*
X-1491842Y-5819531D02*
X-1482318Y-5838579D01*
X-1482318Y-5838579D02*
X-1472795Y-5876674D01*
X-1472795Y-5876674D02*
X-1472795Y-5924293D01*
X-1472795Y-5924293D02*
X-1482318Y-5962388D01*
X-1482318Y-5962388D02*
X-1491842Y-5981436D01*
X-1491842Y-5981436D02*
X-1501366Y-5990960D01*
X-1501366Y-5990960D02*
X-1520414Y-6000484D01*
X-1520414Y-6000484D02*
X-1539461Y-6000484D01*
X-1539461Y-6000484D02*
X-1558509Y-5990960D01*
X-1558509Y-5990960D02*
X-1568033Y-5981436D01*
X-1568033Y-5981436D02*
X-1577556Y-5962388D01*
X-1577556Y-5962388D02*
X-1587080Y-5924293D01*
X-1587080Y-5924293D02*
X-1587080Y-5876674D01*
X-1587080Y-5876674D02*
X-1577556Y-5838579D01*
X-1577556Y-5838579D02*
X-1568033Y-5819531D01*
X-1568033Y-5819531D02*
X-1558509Y-5810008D01*
X-1558509Y-5810008D02*
X-1539461Y-5800484D01*
X-1387080Y-6000484D02*
X-1387080Y-5867150D01*
X-1387080Y-5886198D02*
X-1377557Y-5876674D01*
X-1377557Y-5876674D02*
X-1358509Y-5867150D01*
X-1358509Y-5867150D02*
X-1329937Y-5867150D01*
X-1329937Y-5867150D02*
X-1310890Y-5876674D01*
X-1310890Y-5876674D02*
X-1301366Y-5895722D01*
X-1301366Y-5895722D02*
X-1301366Y-6000484D01*
X-1301366Y-5895722D02*
X-1291842Y-5876674D01*
X-1291842Y-5876674D02*
X-1272795Y-5867150D01*
X-1272795Y-5867150D02*
X-1244223Y-5867150D01*
X-1244223Y-5867150D02*
X-1225176Y-5876674D01*
X-1225176Y-5876674D02*
X-1215652Y-5895722D01*
X-1215652Y-5895722D02*
X-1215652Y-6000484D01*
X-1120414Y-6000484D02*
X-1120414Y-5867150D01*
X-1120414Y-5886198D02*
X-1110890Y-5876674D01*
X-1110890Y-5876674D02*
X-1091842Y-5867150D01*
X-1091842Y-5867150D02*
X-1063271Y-5867150D01*
X-1063271Y-5867150D02*
X-1044223Y-5876674D01*
X-1044223Y-5876674D02*
X-1034699Y-5895722D01*
X-1034699Y-5895722D02*
X-1034699Y-6000484D01*
X-1034699Y-5895722D02*
X-1025175Y-5876674D01*
X-1025175Y-5876674D02*
X-1006128Y-5867150D01*
X-1006128Y-5867150D02*
X-977556Y-5867150D01*
X-977556Y-5867150D02*
X-958509Y-5876674D01*
X-958509Y-5876674D02*
X-948985Y-5895722D01*
X-948985Y-5895722D02*
X-948985Y-6000484D01*
X-558509Y-5790960D02*
X-729937Y-6048103D01*
X-301366Y-5800484D02*
X-282318Y-5800484D01*
X-282318Y-5800484D02*
X-263271Y-5810008D01*
X-263271Y-5810008D02*
X-253747Y-5819531D01*
X-253747Y-5819531D02*
X-244223Y-5838579D01*
X-244223Y-5838579D02*
X-234699Y-5876674D01*
X-234699Y-5876674D02*
X-234699Y-5924293D01*
X-234699Y-5924293D02*
X-244223Y-5962388D01*
X-244223Y-5962388D02*
X-253747Y-5981436D01*
X-253747Y-5981436D02*
X-263271Y-5990960D01*
X-263271Y-5990960D02*
X-282318Y-6000484D01*
X-282318Y-6000484D02*
X-301366Y-6000484D01*
X-301366Y-6000484D02*
X-320414Y-5990960D01*
X-320414Y-5990960D02*
X-329937Y-5981436D01*
X-329937Y-5981436D02*
X-339461Y-5962388D01*
X-339461Y-5962388D02*
X-348985Y-5924293D01*
X-348985Y-5924293D02*
X-348985Y-5876674D01*
X-348985Y-5876674D02*
X-339461Y-5838579D01*
X-339461Y-5838579D02*
X-329937Y-5819531D01*
X-329937Y-5819531D02*
X-320414Y-5810008D01*
X-320414Y-5810008D02*
X-301366Y-5800484D01*
X-148985Y-5981436D02*
X-139461Y-5990960D01*
X-139461Y-5990960D02*
X-148985Y-6000484D01*
X-148985Y-6000484D02*
X-158509Y-5990960D01*
X-158509Y-5990960D02*
X-148985Y-5981436D01*
X-148985Y-5981436D02*
X-148985Y-6000484D01*
X51015Y-6000484D02*
X-63271Y-6000484D01*
X-6128Y-6000484D02*
X-6128Y-5800484D01*
X-6128Y-5800484D02*
X-25175Y-5829055D01*
X-25175Y-5829055D02*
X-44223Y-5848103D01*
X-44223Y-5848103D02*
X-63271Y-5857627D01*
X127206Y-5819531D02*
X136729Y-5810008D01*
X136729Y-5810008D02*
X155777Y-5800484D01*
X155777Y-5800484D02*
X203396Y-5800484D01*
X203396Y-5800484D02*
X222444Y-5810008D01*
X222444Y-5810008D02*
X231967Y-5819531D01*
X231967Y-5819531D02*
X241491Y-5838579D01*
X241491Y-5838579D02*
X241491Y-5857627D01*
X241491Y-5857627D02*
X231967Y-5886198D01*
X231967Y-5886198D02*
X117682Y-6000484D01*
X117682Y-6000484D02*
X241491Y-6000484D01*
X412920Y-5800484D02*
X374825Y-5800484D01*
X374825Y-5800484D02*
X355777Y-5810008D01*
X355777Y-5810008D02*
X346253Y-5819531D01*
X346253Y-5819531D02*
X327206Y-5848103D01*
X327206Y-5848103D02*
X317682Y-5886198D01*
X317682Y-5886198D02*
X317682Y-5962388D01*
X317682Y-5962388D02*
X327206Y-5981436D01*
X327206Y-5981436D02*
X336729Y-5990960D01*
X336729Y-5990960D02*
X355777Y-6000484D01*
X355777Y-6000484D02*
X393872Y-6000484D01*
X393872Y-6000484D02*
X412920Y-5990960D01*
X412920Y-5990960D02*
X422444Y-5981436D01*
X422444Y-5981436D02*
X431967Y-5962388D01*
X431967Y-5962388D02*
X431967Y-5914769D01*
X431967Y-5914769D02*
X422444Y-5895722D01*
X422444Y-5895722D02*
X412920Y-5886198D01*
X412920Y-5886198D02*
X393872Y-5876674D01*
X393872Y-5876674D02*
X355777Y-5876674D01*
X355777Y-5876674D02*
X336729Y-5886198D01*
X336729Y-5886198D02*
X327206Y-5895722D01*
X327206Y-5895722D02*
X317682Y-5914769D01*
X555777Y-5800484D02*
X574825Y-5800484D01*
X574825Y-5800484D02*
X593872Y-5810008D01*
X593872Y-5810008D02*
X603396Y-5819531D01*
X603396Y-5819531D02*
X612920Y-5838579D01*
X612920Y-5838579D02*
X622444Y-5876674D01*
X622444Y-5876674D02*
X622444Y-5924293D01*
X622444Y-5924293D02*
X612920Y-5962388D01*
X612920Y-5962388D02*
X603396Y-5981436D01*
X603396Y-5981436D02*
X593872Y-5990960D01*
X593872Y-5990960D02*
X574825Y-6000484D01*
X574825Y-6000484D02*
X555777Y-6000484D01*
X555777Y-6000484D02*
X536729Y-5990960D01*
X536729Y-5990960D02*
X527206Y-5981436D01*
X527206Y-5981436D02*
X517682Y-5962388D01*
X517682Y-5962388D02*
X508158Y-5924293D01*
X508158Y-5924293D02*
X508158Y-5876674D01*
X508158Y-5876674D02*
X517682Y-5838579D01*
X517682Y-5838579D02*
X527206Y-5819531D01*
X527206Y-5819531D02*
X536729Y-5810008D01*
X536729Y-5810008D02*
X555777Y-5800484D01*
X698634Y-5800484D02*
X698634Y-5838579D01*
X774825Y-5800484D02*
X774825Y-5838579D01*
X1070063Y-6076674D02*
X1060539Y-6067150D01*
X1060539Y-6067150D02*
X1041491Y-6038579D01*
X1041491Y-6038579D02*
X1031968Y-6019531D01*
X1031968Y-6019531D02*
X1022444Y-5990960D01*
X1022444Y-5990960D02*
X1012920Y-5943341D01*
X1012920Y-5943341D02*
X1012920Y-5905246D01*
X1012920Y-5905246D02*
X1022444Y-5857627D01*
X1022444Y-5857627D02*
X1031968Y-5829055D01*
X1031968Y-5829055D02*
X1041491Y-5810008D01*
X1041491Y-5810008D02*
X1060539Y-5781436D01*
X1060539Y-5781436D02*
X1070063Y-5771912D01*
X1231968Y-5867150D02*
X1231968Y-6000484D01*
X1184349Y-5790960D02*
X1136730Y-5933817D01*
X1136730Y-5933817D02*
X1260539Y-5933817D01*
X1489110Y-6000484D02*
X1489110Y-5800484D01*
X1574825Y-6000484D02*
X1574825Y-5895722D01*
X1574825Y-5895722D02*
X1565301Y-5876674D01*
X1565301Y-5876674D02*
X1546253Y-5867150D01*
X1546253Y-5867150D02*
X1517682Y-5867150D01*
X1517682Y-5867150D02*
X1498634Y-5876674D01*
X1498634Y-5876674D02*
X1489110Y-5886198D01*
X1698634Y-6000484D02*
X1679587Y-5990960D01*
X1679587Y-5990960D02*
X1670063Y-5981436D01*
X1670063Y-5981436D02*
X1660539Y-5962388D01*
X1660539Y-5962388D02*
X1660539Y-5905246D01*
X1660539Y-5905246D02*
X1670063Y-5886198D01*
X1670063Y-5886198D02*
X1679587Y-5876674D01*
X1679587Y-5876674D02*
X1698634Y-5867150D01*
X1698634Y-5867150D02*
X1727206Y-5867150D01*
X1727206Y-5867150D02*
X1746253Y-5876674D01*
X1746253Y-5876674D02*
X1755777Y-5886198D01*
X1755777Y-5886198D02*
X1765301Y-5905246D01*
X1765301Y-5905246D02*
X1765301Y-5962388D01*
X1765301Y-5962388D02*
X1755777Y-5981436D01*
X1755777Y-5981436D02*
X1746253Y-5990960D01*
X1746253Y-5990960D02*
X1727206Y-6000484D01*
X1727206Y-6000484D02*
X1698634Y-6000484D01*
X1879587Y-6000484D02*
X1860539Y-5990960D01*
X1860539Y-5990960D02*
X1851015Y-5971912D01*
X1851015Y-5971912D02*
X1851015Y-5800484D01*
X2031968Y-5990960D02*
X2012920Y-6000484D01*
X2012920Y-6000484D02*
X1974825Y-6000484D01*
X1974825Y-6000484D02*
X1955777Y-5990960D01*
X1955777Y-5990960D02*
X1946253Y-5971912D01*
X1946253Y-5971912D02*
X1946253Y-5895722D01*
X1946253Y-5895722D02*
X1955777Y-5876674D01*
X1955777Y-5876674D02*
X1974825Y-5867150D01*
X1974825Y-5867150D02*
X2012920Y-5867150D01*
X2012920Y-5867150D02*
X2031968Y-5876674D01*
X2031968Y-5876674D02*
X2041491Y-5895722D01*
X2041491Y-5895722D02*
X2041491Y-5914769D01*
X2041491Y-5914769D02*
X1946253Y-5933817D01*
X2117682Y-5990960D02*
X2136730Y-6000484D01*
X2136730Y-6000484D02*
X2174825Y-6000484D01*
X2174825Y-6000484D02*
X2193873Y-5990960D01*
X2193873Y-5990960D02*
X2203396Y-5971912D01*
X2203396Y-5971912D02*
X2203396Y-5962388D01*
X2203396Y-5962388D02*
X2193873Y-5943341D01*
X2193873Y-5943341D02*
X2174825Y-5933817D01*
X2174825Y-5933817D02*
X2146253Y-5933817D01*
X2146253Y-5933817D02*
X2127206Y-5924293D01*
X2127206Y-5924293D02*
X2117682Y-5905246D01*
X2117682Y-5905246D02*
X2117682Y-5895722D01*
X2117682Y-5895722D02*
X2127206Y-5876674D01*
X2127206Y-5876674D02*
X2146253Y-5867150D01*
X2146253Y-5867150D02*
X2174825Y-5867150D01*
X2174825Y-5867150D02*
X2193873Y-5876674D01*
X2270063Y-6076674D02*
X2279587Y-6067150D01*
X2279587Y-6067150D02*
X2298634Y-6038579D01*
X2298634Y-6038579D02*
X2308158Y-6019531D01*
X2308158Y-6019531D02*
X2317682Y-5990960D01*
X2317682Y-5990960D02*
X2327206Y-5943341D01*
X2327206Y-5943341D02*
X2327206Y-5905246D01*
X2327206Y-5905246D02*
X2317682Y-5857627D01*
X2317682Y-5857627D02*
X2308158Y-5829055D01*
X2308158Y-5829055D02*
X2298634Y-5810008D01*
X2298634Y-5810008D02*
X2279587Y-5781436D01*
X2279587Y-5781436D02*
X2270063Y-5771912D01*
X2631968Y-6076674D02*
X2622444Y-6067150D01*
X2622444Y-6067150D02*
X2603396Y-6038579D01*
X2603396Y-6038579D02*
X2593873Y-6019531D01*
X2593873Y-6019531D02*
X2584349Y-5990960D01*
X2584349Y-5990960D02*
X2574825Y-5943341D01*
X2574825Y-5943341D02*
X2574825Y-5905246D01*
X2574825Y-5905246D02*
X2584349Y-5857627D01*
X2584349Y-5857627D02*
X2593873Y-5829055D01*
X2593873Y-5829055D02*
X2603396Y-5810008D01*
X2603396Y-5810008D02*
X2622444Y-5781436D01*
X2622444Y-5781436D02*
X2631968Y-5771912D01*
X2708158Y-5867150D02*
X2708158Y-6000484D01*
X2708158Y-5886198D02*
X2717682Y-5876674D01*
X2717682Y-5876674D02*
X2736730Y-5867150D01*
X2736730Y-5867150D02*
X2765301Y-5867150D01*
X2765301Y-5867150D02*
X2784349Y-5876674D01*
X2784349Y-5876674D02*
X2793873Y-5895722D01*
X2793873Y-5895722D02*
X2793873Y-6000484D01*
X2917682Y-6000484D02*
X2898634Y-5990960D01*
X2898634Y-5990960D02*
X2889111Y-5981436D01*
X2889111Y-5981436D02*
X2879587Y-5962388D01*
X2879587Y-5962388D02*
X2879587Y-5905246D01*
X2879587Y-5905246D02*
X2889111Y-5886198D01*
X2889111Y-5886198D02*
X2898634Y-5876674D01*
X2898634Y-5876674D02*
X2917682Y-5867150D01*
X2917682Y-5867150D02*
X2946253Y-5867150D01*
X2946253Y-5867150D02*
X2965301Y-5876674D01*
X2965301Y-5876674D02*
X2974825Y-5886198D01*
X2974825Y-5886198D02*
X2984349Y-5905246D01*
X2984349Y-5905246D02*
X2984349Y-5962388D01*
X2984349Y-5962388D02*
X2974825Y-5981436D01*
X2974825Y-5981436D02*
X2965301Y-5990960D01*
X2965301Y-5990960D02*
X2946253Y-6000484D01*
X2946253Y-6000484D02*
X2917682Y-6000484D01*
X3041492Y-5867150D02*
X3117682Y-5867150D01*
X3070063Y-5800484D02*
X3070063Y-5971912D01*
X3070063Y-5971912D02*
X3079587Y-5990960D01*
X3079587Y-5990960D02*
X3098634Y-6000484D01*
X3098634Y-6000484D02*
X3117682Y-6000484D01*
X3336730Y-5867150D02*
X3336730Y-6067150D01*
X3336730Y-5876674D02*
X3355777Y-5867150D01*
X3355777Y-5867150D02*
X3393873Y-5867150D01*
X3393873Y-5867150D02*
X3412920Y-5876674D01*
X3412920Y-5876674D02*
X3422444Y-5886198D01*
X3422444Y-5886198D02*
X3431968Y-5905246D01*
X3431968Y-5905246D02*
X3431968Y-5962388D01*
X3431968Y-5962388D02*
X3422444Y-5981436D01*
X3422444Y-5981436D02*
X3412920Y-5990960D01*
X3412920Y-5990960D02*
X3393873Y-6000484D01*
X3393873Y-6000484D02*
X3355777Y-6000484D01*
X3355777Y-6000484D02*
X3336730Y-5990960D01*
X3546253Y-6000484D02*
X3527206Y-5990960D01*
X3527206Y-5990960D02*
X3517682Y-5971912D01*
X3517682Y-5971912D02*
X3517682Y-5800484D01*
X3708158Y-6000484D02*
X3708158Y-5895722D01*
X3708158Y-5895722D02*
X3698634Y-5876674D01*
X3698634Y-5876674D02*
X3679587Y-5867150D01*
X3679587Y-5867150D02*
X3641492Y-5867150D01*
X3641492Y-5867150D02*
X3622444Y-5876674D01*
X3708158Y-5990960D02*
X3689111Y-6000484D01*
X3689111Y-6000484D02*
X3641492Y-6000484D01*
X3641492Y-6000484D02*
X3622444Y-5990960D01*
X3622444Y-5990960D02*
X3612920Y-5971912D01*
X3612920Y-5971912D02*
X3612920Y-5952865D01*
X3612920Y-5952865D02*
X3622444Y-5933817D01*
X3622444Y-5933817D02*
X3641492Y-5924293D01*
X3641492Y-5924293D02*
X3689111Y-5924293D01*
X3689111Y-5924293D02*
X3708158Y-5914769D01*
X3774825Y-5867150D02*
X3851015Y-5867150D01*
X3803396Y-5800484D02*
X3803396Y-5971912D01*
X3803396Y-5971912D02*
X3812920Y-5990960D01*
X3812920Y-5990960D02*
X3831968Y-6000484D01*
X3831968Y-6000484D02*
X3851015Y-6000484D01*
X3993873Y-5990960D02*
X3974825Y-6000484D01*
X3974825Y-6000484D02*
X3936730Y-6000484D01*
X3936730Y-6000484D02*
X3917682Y-5990960D01*
X3917682Y-5990960D02*
X3908158Y-5971912D01*
X3908158Y-5971912D02*
X3908158Y-5895722D01*
X3908158Y-5895722D02*
X3917682Y-5876674D01*
X3917682Y-5876674D02*
X3936730Y-5867150D01*
X3936730Y-5867150D02*
X3974825Y-5867150D01*
X3974825Y-5867150D02*
X3993873Y-5876674D01*
X3993873Y-5876674D02*
X4003396Y-5895722D01*
X4003396Y-5895722D02*
X4003396Y-5914769D01*
X4003396Y-5914769D02*
X3908158Y-5933817D01*
X4174825Y-6000484D02*
X4174825Y-5800484D01*
X4174825Y-5990960D02*
X4155777Y-6000484D01*
X4155777Y-6000484D02*
X4117682Y-6000484D01*
X4117682Y-6000484D02*
X4098634Y-5990960D01*
X4098634Y-5990960D02*
X4089111Y-5981436D01*
X4089111Y-5981436D02*
X4079587Y-5962388D01*
X4079587Y-5962388D02*
X4079587Y-5905246D01*
X4079587Y-5905246D02*
X4089111Y-5886198D01*
X4089111Y-5886198D02*
X4098634Y-5876674D01*
X4098634Y-5876674D02*
X4117682Y-5867150D01*
X4117682Y-5867150D02*
X4155777Y-5867150D01*
X4155777Y-5867150D02*
X4174825Y-5876674D01*
X4251016Y-6076674D02*
X4260539Y-6067150D01*
X4260539Y-6067150D02*
X4279587Y-6038579D01*
X4279587Y-6038579D02*
X4289111Y-6019531D01*
X4289111Y-6019531D02*
X4298635Y-5990960D01*
X4298635Y-5990960D02*
X4308158Y-5943341D01*
X4308158Y-5943341D02*
X4308158Y-5905246D01*
X4308158Y-5905246D02*
X4298635Y-5857627D01*
X4298635Y-5857627D02*
X4289111Y-5829055D01*
X4289111Y-5829055D02*
X4279587Y-5810008D01*
X4279587Y-5810008D02*
X4260539Y-5781436D01*
X4260539Y-5781436D02*
X4251016Y-5771912D01*
M02*
