%TF.GenerationSoftware,KiCad,Pcbnew,9.0.4*%
%TF.CreationDate,2025-09-21T10:52:26+02:00*%
%TF.ProjectId,Spoke,53706f6b-652e-46b6-9963-61645f706362,2.0*%
%TF.SameCoordinates,PX5f5e100PY5f5e100*%
%TF.FileFunction,Soldermask,Top*%
%TF.FilePolarity,Negative*%
%FSLAX46Y46*%
G04 Gerber Fmt 4.6, Leading zero omitted, Abs format (unit mm)*
G04 Created by KiCad (PCBNEW 9.0.4) date 2025-09-21 10:52:26*
%MOMM*%
%LPD*%
G01*
G04 APERTURE LIST*
G04 APERTURE END LIST*
G36*
X-3916575Y-46453594D02*
G01*
X-3845851Y-46500851D01*
X-3798594Y-46571575D01*
X-3782000Y-46655000D01*
X-3782000Y-48095000D01*
X-3798594Y-48178425D01*
X-3845851Y-48249149D01*
X-3916575Y-48296406D01*
X-4000000Y-48313000D01*
X-5640000Y-48313000D01*
X-5723425Y-48296406D01*
X-5794149Y-48249149D01*
X-5841406Y-48178425D01*
X-5858000Y-48095000D01*
X-5858000Y-46655000D01*
X-5841406Y-46571575D01*
X-5794149Y-46500851D01*
X-5723425Y-46453594D01*
X-5640000Y-46437000D01*
X-4000000Y-46437000D01*
X-3916575Y-46453594D01*
G37*
G36*
X5723425Y-46453594D02*
G01*
X5794149Y-46500851D01*
X5841406Y-46571575D01*
X5858000Y-46655000D01*
X5858000Y-48095000D01*
X5841406Y-48178425D01*
X5794149Y-48249149D01*
X5723425Y-48296406D01*
X5640000Y-48313000D01*
X4000000Y-48313000D01*
X3916575Y-48296406D01*
X3845851Y-48249149D01*
X3798594Y-48178425D01*
X3782000Y-48095000D01*
X3782000Y-46655000D01*
X3798594Y-46571575D01*
X3845851Y-46500851D01*
X3916575Y-46453594D01*
X4000000Y-46437000D01*
X5640000Y-46437000D01*
X5723425Y-46453594D01*
G37*
G36*
X-21381975Y-44867049D02*
G01*
X-21371484Y-44867049D01*
X-21319824Y-44875231D01*
X-21180464Y-44893578D01*
X-21146460Y-44902689D01*
X-21117616Y-44907258D01*
X-21062143Y-44925282D01*
X-20973520Y-44949029D01*
X-20916978Y-44972449D01*
X-20873165Y-44986685D01*
X-20832123Y-45007597D01*
X-20775574Y-45031020D01*
X-20696108Y-45076900D01*
X-20644147Y-45103375D01*
X-20620526Y-45120537D01*
X-20590038Y-45138139D01*
X-20478513Y-45223715D01*
X-20436204Y-45254455D01*
X-20428788Y-45261871D01*
X-20420067Y-45268563D01*
X-20268564Y-45420066D01*
X-20261873Y-45428786D01*
X-20254455Y-45436204D01*
X-20223712Y-45478518D01*
X-20138140Y-45590037D01*
X-20120540Y-45620522D01*
X-20103375Y-45644147D01*
X-20076897Y-45696113D01*
X-20031021Y-45775573D01*
X-20007601Y-45832116D01*
X-19986685Y-45873165D01*
X-19972448Y-45916983D01*
X-19949030Y-45973519D01*
X-19925287Y-46062129D01*
X-19907258Y-46117616D01*
X-19902689Y-46146465D01*
X-19893579Y-46180463D01*
X-19875233Y-46319815D01*
X-19867049Y-46371484D01*
X-19867049Y-46381974D01*
X-19865614Y-46392874D01*
X-19865614Y-46607125D01*
X-19867049Y-46618024D01*
X-19867049Y-46628516D01*
X-19875234Y-46680188D01*
X-19893579Y-46819536D01*
X-19902689Y-46853531D01*
X-19907258Y-46882384D01*
X-19925289Y-46937875D01*
X-19949030Y-47026480D01*
X-19972446Y-47083011D01*
X-19986685Y-47126835D01*
X-20007603Y-47167887D01*
X-20031021Y-47224426D01*
X-20076893Y-47303878D01*
X-20103375Y-47355853D01*
X-20120542Y-47379481D01*
X-20138140Y-47409962D01*
X-20223699Y-47521462D01*
X-20254455Y-47563796D01*
X-20261876Y-47571216D01*
X-20268564Y-47579933D01*
X-20420067Y-47731436D01*
X-20428784Y-47738124D01*
X-20436204Y-47745545D01*
X-20478538Y-47776301D01*
X-20590038Y-47861860D01*
X-20620519Y-47879458D01*
X-20644147Y-47896625D01*
X-20696122Y-47923107D01*
X-20775574Y-47968979D01*
X-20832113Y-47992397D01*
X-20873165Y-48013315D01*
X-20916989Y-48027554D01*
X-20973520Y-48050970D01*
X-21062125Y-48074711D01*
X-21117616Y-48092742D01*
X-21146469Y-48097311D01*
X-21180464Y-48106421D01*
X-21319812Y-48124766D01*
X-21371484Y-48132951D01*
X-21381975Y-48132951D01*
X-21392875Y-48134386D01*
X-21607125Y-48134386D01*
X-21618025Y-48132951D01*
X-21628516Y-48132951D01*
X-21680188Y-48124767D01*
X-21819537Y-48106421D01*
X-21853535Y-48097311D01*
X-21882384Y-48092742D01*
X-21937871Y-48074713D01*
X-22026481Y-48050970D01*
X-22083017Y-48027552D01*
X-22126835Y-48013315D01*
X-22167884Y-47992399D01*
X-22224427Y-47968979D01*
X-22303887Y-47923103D01*
X-22355853Y-47896625D01*
X-22379478Y-47879460D01*
X-22409963Y-47861860D01*
X-22521482Y-47776288D01*
X-22563796Y-47745545D01*
X-22571214Y-47738127D01*
X-22579934Y-47731436D01*
X-22731437Y-47579933D01*
X-22738129Y-47571212D01*
X-22745545Y-47563796D01*
X-22776285Y-47521487D01*
X-22861861Y-47409962D01*
X-22879463Y-47379474D01*
X-22896625Y-47355853D01*
X-22923100Y-47303892D01*
X-22968980Y-47224426D01*
X-22992403Y-47167877D01*
X-23013315Y-47126835D01*
X-23027551Y-47083022D01*
X-23050971Y-47026480D01*
X-23074718Y-46937857D01*
X-23092742Y-46882384D01*
X-23097311Y-46853540D01*
X-23106422Y-46819536D01*
X-23124769Y-46680176D01*
X-23132951Y-46628516D01*
X-23132951Y-46618025D01*
X-23134386Y-46607125D01*
X-23134386Y-46392874D01*
X-23132951Y-46381973D01*
X-23132951Y-46371484D01*
X-23124770Y-46319828D01*
X-23106422Y-46180463D01*
X-23097310Y-46146456D01*
X-23092742Y-46117616D01*
X-23074720Y-46062147D01*
X-23050971Y-45973519D01*
X-23027549Y-45916972D01*
X-23013315Y-45873165D01*
X-22992406Y-45832126D01*
X-22968980Y-45775573D01*
X-22923096Y-45696098D01*
X-22896625Y-45644147D01*
X-22879466Y-45620529D01*
X-22861861Y-45590037D01*
X-22776271Y-45478493D01*
X-22745545Y-45436204D01*
X-22738132Y-45428790D01*
X-22731437Y-45420066D01*
X-22579934Y-45268563D01*
X-22571210Y-45261868D01*
X-22563796Y-45254455D01*
X-22521507Y-45223729D01*
X-22409963Y-45138139D01*
X-22379471Y-45120534D01*
X-22355853Y-45103375D01*
X-22303902Y-45076904D01*
X-22224427Y-45031020D01*
X-22167874Y-45007594D01*
X-22126835Y-44986685D01*
X-22083028Y-44972451D01*
X-22026481Y-44949029D01*
X-21937853Y-44925280D01*
X-21882384Y-44907258D01*
X-21853544Y-44902690D01*
X-21819537Y-44893578D01*
X-21680175Y-44875230D01*
X-21628516Y-44867049D01*
X-21618025Y-44867049D01*
X-21607125Y-44865614D01*
X-21392875Y-44865614D01*
X-21381975Y-44867049D01*
G37*
G36*
X21618025Y-44867049D02*
G01*
X21628516Y-44867049D01*
X21680176Y-44875231D01*
X21819536Y-44893578D01*
X21853540Y-44902689D01*
X21882384Y-44907258D01*
X21937857Y-44925282D01*
X22026480Y-44949029D01*
X22083022Y-44972449D01*
X22126835Y-44986685D01*
X22167877Y-45007597D01*
X22224426Y-45031020D01*
X22303892Y-45076900D01*
X22355853Y-45103375D01*
X22379474Y-45120537D01*
X22409962Y-45138139D01*
X22521487Y-45223715D01*
X22563796Y-45254455D01*
X22571212Y-45261871D01*
X22579933Y-45268563D01*
X22731436Y-45420066D01*
X22738127Y-45428786D01*
X22745545Y-45436204D01*
X22776288Y-45478518D01*
X22861860Y-45590037D01*
X22879460Y-45620522D01*
X22896625Y-45644147D01*
X22923103Y-45696113D01*
X22968979Y-45775573D01*
X22992399Y-45832116D01*
X23013315Y-45873165D01*
X23027552Y-45916983D01*
X23050970Y-45973519D01*
X23074713Y-46062129D01*
X23092742Y-46117616D01*
X23097311Y-46146465D01*
X23106421Y-46180463D01*
X23124767Y-46319815D01*
X23132951Y-46371484D01*
X23132951Y-46381974D01*
X23134386Y-46392874D01*
X23134386Y-46607125D01*
X23132951Y-46618024D01*
X23132951Y-46628516D01*
X23124766Y-46680188D01*
X23106421Y-46819536D01*
X23097311Y-46853531D01*
X23092742Y-46882384D01*
X23074711Y-46937875D01*
X23050970Y-47026480D01*
X23027554Y-47083011D01*
X23013315Y-47126835D01*
X22992397Y-47167887D01*
X22968979Y-47224426D01*
X22923107Y-47303878D01*
X22896625Y-47355853D01*
X22879458Y-47379481D01*
X22861860Y-47409962D01*
X22776301Y-47521462D01*
X22745545Y-47563796D01*
X22738124Y-47571216D01*
X22731436Y-47579933D01*
X22579933Y-47731436D01*
X22571216Y-47738124D01*
X22563796Y-47745545D01*
X22521462Y-47776301D01*
X22409962Y-47861860D01*
X22379481Y-47879458D01*
X22355853Y-47896625D01*
X22303878Y-47923107D01*
X22224426Y-47968979D01*
X22167887Y-47992397D01*
X22126835Y-48013315D01*
X22083011Y-48027554D01*
X22026480Y-48050970D01*
X21937875Y-48074711D01*
X21882384Y-48092742D01*
X21853531Y-48097311D01*
X21819536Y-48106421D01*
X21680188Y-48124766D01*
X21628516Y-48132951D01*
X21618025Y-48132951D01*
X21607125Y-48134386D01*
X21392875Y-48134386D01*
X21381975Y-48132951D01*
X21371484Y-48132951D01*
X21319812Y-48124767D01*
X21180463Y-48106421D01*
X21146465Y-48097311D01*
X21117616Y-48092742D01*
X21062129Y-48074713D01*
X20973519Y-48050970D01*
X20916983Y-48027552D01*
X20873165Y-48013315D01*
X20832116Y-47992399D01*
X20775573Y-47968979D01*
X20696113Y-47923103D01*
X20644147Y-47896625D01*
X20620522Y-47879460D01*
X20590037Y-47861860D01*
X20478518Y-47776288D01*
X20436204Y-47745545D01*
X20428786Y-47738127D01*
X20420066Y-47731436D01*
X20268563Y-47579933D01*
X20261871Y-47571212D01*
X20254455Y-47563796D01*
X20223715Y-47521487D01*
X20138139Y-47409962D01*
X20120537Y-47379474D01*
X20103375Y-47355853D01*
X20076900Y-47303892D01*
X20031020Y-47224426D01*
X20007597Y-47167877D01*
X19986685Y-47126835D01*
X19972449Y-47083022D01*
X19949029Y-47026480D01*
X19925282Y-46937857D01*
X19907258Y-46882384D01*
X19902689Y-46853540D01*
X19893578Y-46819536D01*
X19875231Y-46680176D01*
X19867049Y-46628516D01*
X19867049Y-46618025D01*
X19865614Y-46607125D01*
X19865614Y-46392874D01*
X19867049Y-46381973D01*
X19867049Y-46371484D01*
X19875230Y-46319828D01*
X19893578Y-46180463D01*
X19902690Y-46146456D01*
X19907258Y-46117616D01*
X19925280Y-46062147D01*
X19949029Y-45973519D01*
X19972451Y-45916972D01*
X19986685Y-45873165D01*
X20007594Y-45832126D01*
X20031020Y-45775573D01*
X20076904Y-45696098D01*
X20103375Y-45644147D01*
X20120534Y-45620529D01*
X20138139Y-45590037D01*
X20223729Y-45478493D01*
X20254455Y-45436204D01*
X20261868Y-45428790D01*
X20268563Y-45420066D01*
X20420066Y-45268563D01*
X20428790Y-45261868D01*
X20436204Y-45254455D01*
X20478493Y-45223729D01*
X20590037Y-45138139D01*
X20620529Y-45120534D01*
X20644147Y-45103375D01*
X20696098Y-45076904D01*
X20775573Y-45031020D01*
X20832126Y-45007594D01*
X20873165Y-44986685D01*
X20916972Y-44972451D01*
X20973519Y-44949029D01*
X21062147Y-44925280D01*
X21117616Y-44907258D01*
X21146456Y-44902690D01*
X21180463Y-44893578D01*
X21319825Y-44875230D01*
X21371484Y-44867049D01*
X21381975Y-44867049D01*
X21392875Y-44865614D01*
X21607125Y-44865614D01*
X21618025Y-44867049D01*
G37*
G36*
X-11727713Y-43002390D02*
G01*
X-11557830Y-43072758D01*
X-11404939Y-43174916D01*
X-11274916Y-43304939D01*
X-11172758Y-43457830D01*
X-11102390Y-43627713D01*
X-11066517Y-43808060D01*
X-11062000Y-43900000D01*
X-11062000Y-46100000D01*
X-11066517Y-46191940D01*
X-11102390Y-46372287D01*
X-11172758Y-46542170D01*
X-11274916Y-46695061D01*
X-11404939Y-46825084D01*
X-11557830Y-46927242D01*
X-11727713Y-46997610D01*
X-11908060Y-47033483D01*
X-12091940Y-47033483D01*
X-12272287Y-46997610D01*
X-12442170Y-46927242D01*
X-12595061Y-46825084D01*
X-12725084Y-46695061D01*
X-12827242Y-46542170D01*
X-12897610Y-46372287D01*
X-12933483Y-46191940D01*
X-12938000Y-46100000D01*
X-12938000Y-43900000D01*
X-12933483Y-43808060D01*
X-12897610Y-43627713D01*
X-12827242Y-43457830D01*
X-12725084Y-43304939D01*
X-12595061Y-43174916D01*
X-12442170Y-43072758D01*
X-12272287Y-43002390D01*
X-12091940Y-42966517D01*
X-11908060Y-42966517D01*
X-11727713Y-43002390D01*
G37*
G36*
X-4015953Y-42107805D02*
G01*
X-3967339Y-42113445D01*
X-3950729Y-42120779D01*
X-3928921Y-42125117D01*
X-3905575Y-42140716D01*
X-3885988Y-42149365D01*
X-3872610Y-42162743D01*
X-3851709Y-42176709D01*
X-3837744Y-42197609D01*
X-3824366Y-42210987D01*
X-3815719Y-42230572D01*
X-3800117Y-42253921D01*
X-3795779Y-42275731D01*
X-3788446Y-42292338D01*
X-3782808Y-42340942D01*
X-3782000Y-42345000D01*
X-3782000Y-44045000D01*
X-3782808Y-44049059D01*
X-3788446Y-44097661D01*
X-3795779Y-44114266D01*
X-3800117Y-44136079D01*
X-3815720Y-44159429D01*
X-3824366Y-44179012D01*
X-3837742Y-44192387D01*
X-3851709Y-44213291D01*
X-3872613Y-44227258D01*
X-3885988Y-44240634D01*
X-3905571Y-44249280D01*
X-3928921Y-44264883D01*
X-3950734Y-44269221D01*
X-3967339Y-44276554D01*
X-4015941Y-44282192D01*
X-4020000Y-44283000D01*
X-5620000Y-44283000D01*
X-5624058Y-44282192D01*
X-5672662Y-44276554D01*
X-5689269Y-44269221D01*
X-5711079Y-44264883D01*
X-5734428Y-44249281D01*
X-5754013Y-44240634D01*
X-5767391Y-44227256D01*
X-5788291Y-44213291D01*
X-5802257Y-44192390D01*
X-5815635Y-44179012D01*
X-5824284Y-44159425D01*
X-5839883Y-44136079D01*
X-5844221Y-44114271D01*
X-5851555Y-44097661D01*
X-5857195Y-44049047D01*
X-5858000Y-44045000D01*
X-5858000Y-42345000D01*
X-5857196Y-42340954D01*
X-5851555Y-42292338D01*
X-5844221Y-42275727D01*
X-5839883Y-42253921D01*
X-5824285Y-42230576D01*
X-5815635Y-42210987D01*
X-5802255Y-42197606D01*
X-5788291Y-42176709D01*
X-5767394Y-42162745D01*
X-5754013Y-42149365D01*
X-5734424Y-42140715D01*
X-5711079Y-42125117D01*
X-5689273Y-42120779D01*
X-5672662Y-42113445D01*
X-5624046Y-42107804D01*
X-5620000Y-42107000D01*
X-4020000Y-42107000D01*
X-4015953Y-42107805D01*
G37*
G36*
X5624047Y-42107805D02*
G01*
X5672661Y-42113445D01*
X5689271Y-42120779D01*
X5711079Y-42125117D01*
X5734425Y-42140716D01*
X5754012Y-42149365D01*
X5767390Y-42162743D01*
X5788291Y-42176709D01*
X5802256Y-42197609D01*
X5815634Y-42210987D01*
X5824281Y-42230572D01*
X5839883Y-42253921D01*
X5844221Y-42275731D01*
X5851554Y-42292338D01*
X5857192Y-42340942D01*
X5858000Y-42345000D01*
X5858000Y-44045000D01*
X5857192Y-44049059D01*
X5851554Y-44097661D01*
X5844221Y-44114266D01*
X5839883Y-44136079D01*
X5824280Y-44159429D01*
X5815634Y-44179012D01*
X5802258Y-44192387D01*
X5788291Y-44213291D01*
X5767387Y-44227258D01*
X5754012Y-44240634D01*
X5734429Y-44249280D01*
X5711079Y-44264883D01*
X5689266Y-44269221D01*
X5672661Y-44276554D01*
X5624059Y-44282192D01*
X5620000Y-44283000D01*
X4020000Y-44283000D01*
X4015942Y-44282192D01*
X3967338Y-44276554D01*
X3950731Y-44269221D01*
X3928921Y-44264883D01*
X3905572Y-44249281D01*
X3885987Y-44240634D01*
X3872609Y-44227256D01*
X3851709Y-44213291D01*
X3837743Y-44192390D01*
X3824365Y-44179012D01*
X3815716Y-44159425D01*
X3800117Y-44136079D01*
X3795779Y-44114271D01*
X3788445Y-44097661D01*
X3782805Y-44049047D01*
X3782000Y-44045000D01*
X3782000Y-42345000D01*
X3782804Y-42340954D01*
X3788445Y-42292338D01*
X3795779Y-42275727D01*
X3800117Y-42253921D01*
X3815715Y-42230576D01*
X3824365Y-42210987D01*
X3837745Y-42197606D01*
X3851709Y-42176709D01*
X3872606Y-42162745D01*
X3885987Y-42149365D01*
X3905576Y-42140715D01*
X3928921Y-42125117D01*
X3950727Y-42120779D01*
X3967338Y-42113445D01*
X4015954Y-42107804D01*
X4020000Y-42107000D01*
X5620000Y-42107000D01*
X5624047Y-42107805D01*
G37*
G36*
X-2751086Y-43359632D02*
G01*
X-2669020Y-43407013D01*
X-2602013Y-43474020D01*
X-2554632Y-43556086D01*
X-2530106Y-43647619D01*
X-2530106Y-43742381D01*
X-2554632Y-43833914D01*
X-2602013Y-43915980D01*
X-2669020Y-43982987D01*
X-2751086Y-44030368D01*
X-2842619Y-44054894D01*
X-2937381Y-44054894D01*
X-3028914Y-44030368D01*
X-3110980Y-43982987D01*
X-3177987Y-43915980D01*
X-3225368Y-43833914D01*
X-3249894Y-43742381D01*
X-3249894Y-43647619D01*
X-3225368Y-43556086D01*
X-3177987Y-43474020D01*
X-3110980Y-43407013D01*
X-3028914Y-43359632D01*
X-2937381Y-43335106D01*
X-2842619Y-43335106D01*
X-2751086Y-43359632D01*
G37*
G36*
X3028914Y-43359632D02*
G01*
X3110980Y-43407013D01*
X3177987Y-43474020D01*
X3225368Y-43556086D01*
X3249894Y-43647619D01*
X3249894Y-43742381D01*
X3225368Y-43833914D01*
X3177987Y-43915980D01*
X3110980Y-43982987D01*
X3028914Y-44030368D01*
X2937381Y-44054894D01*
X2842619Y-44054894D01*
X2751086Y-44030368D01*
X2669020Y-43982987D01*
X2602013Y-43915980D01*
X2554632Y-43833914D01*
X2530106Y-43742381D01*
X2530106Y-43647619D01*
X2554632Y-43556086D01*
X2602013Y-43474020D01*
X2669020Y-43407013D01*
X2751086Y-43359632D01*
X2842619Y-43335106D01*
X2937381Y-43335106D01*
X3028914Y-43359632D01*
G37*
G36*
X-11727713Y-37002390D02*
G01*
X-11557830Y-37072758D01*
X-11404939Y-37174916D01*
X-11274916Y-37304939D01*
X-11172758Y-37457830D01*
X-11102390Y-37627713D01*
X-11066517Y-37808060D01*
X-11062000Y-37900000D01*
X-11062000Y-40100000D01*
X-11066517Y-40191940D01*
X-11102390Y-40372287D01*
X-11172758Y-40542170D01*
X-11274916Y-40695061D01*
X-11404939Y-40825084D01*
X-11557830Y-40927242D01*
X-11727713Y-40997610D01*
X-11908060Y-41033483D01*
X-12091940Y-41033483D01*
X-12272287Y-40997610D01*
X-12442170Y-40927242D01*
X-12595061Y-40825084D01*
X-12725084Y-40695061D01*
X-12827242Y-40542170D01*
X-12897610Y-40372287D01*
X-12933483Y-40191940D01*
X-12938000Y-40100000D01*
X-12938000Y-37900000D01*
X-12933483Y-37808060D01*
X-12897610Y-37627713D01*
X-12827242Y-37457830D01*
X-12725084Y-37304939D01*
X-12595061Y-37174916D01*
X-12442170Y-37072758D01*
X-12272287Y-37002390D01*
X-12091940Y-36966517D01*
X-11908060Y-36966517D01*
X-11727713Y-37002390D01*
G37*
G36*
X20257773Y-39150237D02*
G01*
X20418600Y-39216854D01*
X20563341Y-39313567D01*
X20686433Y-39436659D01*
X20783146Y-39581400D01*
X20849763Y-39742227D01*
X20883724Y-39912961D01*
X20883724Y-40087039D01*
X20849763Y-40257773D01*
X20783146Y-40418600D01*
X20686433Y-40563341D01*
X20563341Y-40686433D01*
X20418600Y-40783146D01*
X20257773Y-40849763D01*
X20087039Y-40883724D01*
X19912961Y-40883724D01*
X19742227Y-40849763D01*
X19581400Y-40783146D01*
X19436659Y-40686433D01*
X19313567Y-40563341D01*
X19216854Y-40418600D01*
X19150237Y-40257773D01*
X19116276Y-40087039D01*
X19116276Y-39912961D01*
X19150237Y-39742227D01*
X19216854Y-39581400D01*
X19313567Y-39436659D01*
X19436659Y-39313567D01*
X19581400Y-39216854D01*
X19742227Y-39150237D01*
X19912961Y-39116276D01*
X20087039Y-39116276D01*
X20257773Y-39150237D01*
G37*
G36*
X20511077Y-37120072D02*
G01*
X20517143Y-37122194D01*
X20522457Y-37122766D01*
X20578302Y-37143595D01*
X20641345Y-37165655D01*
X20645328Y-37168594D01*
X20646648Y-37169087D01*
X20692317Y-37203274D01*
X20752390Y-37247610D01*
X20796742Y-37307706D01*
X20830912Y-37353351D01*
X20831403Y-37354670D01*
X20834345Y-37358655D01*
X20856414Y-37421725D01*
X20877233Y-37477542D01*
X20877803Y-37482852D01*
X20879928Y-37488923D01*
X20888000Y-37575000D01*
X20888000Y-38425000D01*
X20879928Y-38511077D01*
X20877803Y-38517147D01*
X20877233Y-38522457D01*
X20856419Y-38578258D01*
X20834345Y-38641345D01*
X20831403Y-38645330D01*
X20830912Y-38646648D01*
X20796795Y-38692222D01*
X20752390Y-38752390D01*
X20692222Y-38796795D01*
X20646648Y-38830912D01*
X20645330Y-38831403D01*
X20641345Y-38834345D01*
X20578258Y-38856419D01*
X20522457Y-38877233D01*
X20517147Y-38877803D01*
X20511077Y-38879928D01*
X20425000Y-38888000D01*
X19575000Y-38888000D01*
X19488923Y-38879928D01*
X19482852Y-38877803D01*
X19477542Y-38877233D01*
X19421725Y-38856414D01*
X19358655Y-38834345D01*
X19354670Y-38831403D01*
X19353351Y-38830912D01*
X19307706Y-38796742D01*
X19247610Y-38752390D01*
X19203274Y-38692317D01*
X19169087Y-38646648D01*
X19168594Y-38645328D01*
X19165655Y-38641345D01*
X19143595Y-38578302D01*
X19122766Y-38522457D01*
X19122194Y-38517143D01*
X19120072Y-38511077D01*
X19112000Y-38425000D01*
X19112000Y-37575000D01*
X19120072Y-37488923D01*
X19122194Y-37482856D01*
X19122766Y-37477542D01*
X19143600Y-37421681D01*
X19165655Y-37358655D01*
X19168593Y-37354672D01*
X19169087Y-37353351D01*
X19203326Y-37307611D01*
X19247610Y-37247610D01*
X19307611Y-37203326D01*
X19353351Y-37169087D01*
X19354672Y-37168593D01*
X19358655Y-37165655D01*
X19421681Y-37143600D01*
X19477542Y-37122766D01*
X19482856Y-37122194D01*
X19488923Y-37120072D01*
X19575000Y-37112000D01*
X20425000Y-37112000D01*
X20511077Y-37120072D01*
G37*
G36*
X-22727713Y-30642390D02*
G01*
X-22557830Y-30712758D01*
X-22404939Y-30814916D01*
X-22274916Y-30944939D01*
X-22172758Y-31097830D01*
X-22102390Y-31267713D01*
X-22066517Y-31448060D01*
X-22066517Y-31631940D01*
X-22102390Y-31812287D01*
X-22172758Y-31982170D01*
X-22274916Y-32135061D01*
X-22404939Y-32265084D01*
X-22557830Y-32367242D01*
X-22727713Y-32437610D01*
X-22908060Y-32473483D01*
X-23091940Y-32473483D01*
X-23272287Y-32437610D01*
X-23442170Y-32367242D01*
X-23595061Y-32265084D01*
X-23725084Y-32135061D01*
X-23827242Y-31982170D01*
X-23897610Y-31812287D01*
X-23933483Y-31631940D01*
X-23933483Y-31448060D01*
X-23897610Y-31267713D01*
X-23827242Y-31097830D01*
X-23725084Y-30944939D01*
X-23595061Y-30814916D01*
X-23442170Y-30712758D01*
X-23272287Y-30642390D01*
X-23091940Y-30606517D01*
X-22908060Y-30606517D01*
X-22727713Y-30642390D01*
G37*
G36*
X-22727713Y-28102390D02*
G01*
X-22557830Y-28172758D01*
X-22404939Y-28274916D01*
X-22274916Y-28404939D01*
X-22172758Y-28557830D01*
X-22102390Y-28727713D01*
X-22066517Y-28908060D01*
X-22066517Y-29091940D01*
X-22102390Y-29272287D01*
X-22172758Y-29442170D01*
X-22274916Y-29595061D01*
X-22404939Y-29725084D01*
X-22557830Y-29827242D01*
X-22727713Y-29897610D01*
X-22908060Y-29933483D01*
X-23091940Y-29933483D01*
X-23272287Y-29897610D01*
X-23442170Y-29827242D01*
X-23595061Y-29725084D01*
X-23725084Y-29595061D01*
X-23827242Y-29442170D01*
X-23897610Y-29272287D01*
X-23933483Y-29091940D01*
X-23933483Y-28908060D01*
X-23897610Y-28727713D01*
X-23827242Y-28557830D01*
X-23725084Y-28404939D01*
X-23595061Y-28274916D01*
X-23442170Y-28172758D01*
X-23272287Y-28102390D01*
X-23091940Y-28066517D01*
X-22908060Y-28066517D01*
X-22727713Y-28102390D01*
G37*
G36*
X-22446268Y-25533152D02*
G01*
X-22439689Y-25535605D01*
X-22434975Y-25536172D01*
X-22379185Y-25558173D01*
X-22316126Y-25581693D01*
X-22312323Y-25584540D01*
X-22311058Y-25585039D01*
X-22265019Y-25619951D01*
X-22204932Y-25664932D01*
X-22159933Y-25725043D01*
X-22125040Y-25771057D01*
X-22124542Y-25772320D01*
X-22121693Y-25776126D01*
X-22098159Y-25839223D01*
X-22076173Y-25894975D01*
X-22075608Y-25899684D01*
X-22073152Y-25906268D01*
X-22062000Y-26010000D01*
X-22062000Y-26910000D01*
X-22073152Y-27013732D01*
X-22075608Y-27020315D01*
X-22076173Y-27025025D01*
X-22098156Y-27080768D01*
X-22121693Y-27143874D01*
X-22124543Y-27147680D01*
X-22125040Y-27148942D01*
X-22159875Y-27194878D01*
X-22204932Y-27255068D01*
X-22265122Y-27300125D01*
X-22311058Y-27334960D01*
X-22312320Y-27335457D01*
X-22316126Y-27338307D01*
X-22379242Y-27361848D01*
X-22434976Y-27383827D01*
X-22439685Y-27384392D01*
X-22446268Y-27386848D01*
X-22550000Y-27398000D01*
X-23450000Y-27398000D01*
X-23553732Y-27386848D01*
X-23560315Y-27384392D01*
X-23565026Y-27383827D01*
X-23620788Y-27361837D01*
X-23683874Y-27338307D01*
X-23687680Y-27335458D01*
X-23688943Y-27334960D01*
X-23734957Y-27300067D01*
X-23795068Y-27255068D01*
X-23840049Y-27194981D01*
X-23874961Y-27148942D01*
X-23875460Y-27147677D01*
X-23878307Y-27143874D01*
X-23901831Y-27080805D01*
X-23923828Y-27025024D01*
X-23924394Y-27020311D01*
X-23926848Y-27013732D01*
X-23938000Y-26910000D01*
X-23938000Y-26010000D01*
X-23926848Y-25906268D01*
X-23924395Y-25899689D01*
X-23923828Y-25894974D01*
X-23901820Y-25839166D01*
X-23878307Y-25776126D01*
X-23875461Y-25772323D01*
X-23874961Y-25771057D01*
X-23839991Y-25724940D01*
X-23795068Y-25664932D01*
X-23735060Y-25620009D01*
X-23688943Y-25585039D01*
X-23687677Y-25584539D01*
X-23683874Y-25581693D01*
X-23620824Y-25558176D01*
X-23565025Y-25536172D01*
X-23560312Y-25535605D01*
X-23553732Y-25533152D01*
X-23450000Y-25522000D01*
X-22550000Y-25522000D01*
X-22446268Y-25533152D01*
G37*
G36*
X-22727713Y-17452390D02*
G01*
X-22557830Y-17522758D01*
X-22404939Y-17624916D01*
X-22274916Y-17754939D01*
X-22172758Y-17907830D01*
X-22102390Y-18077713D01*
X-22066517Y-18258060D01*
X-22066517Y-18441940D01*
X-22102390Y-18622287D01*
X-22172758Y-18792170D01*
X-22274916Y-18945061D01*
X-22404939Y-19075084D01*
X-22557830Y-19177242D01*
X-22727713Y-19247610D01*
X-22908060Y-19283483D01*
X-23091940Y-19283483D01*
X-23272287Y-19247610D01*
X-23442170Y-19177242D01*
X-23595061Y-19075084D01*
X-23725084Y-18945061D01*
X-23827242Y-18792170D01*
X-23897610Y-18622287D01*
X-23933483Y-18441940D01*
X-23933483Y-18258060D01*
X-23897610Y-18077713D01*
X-23827242Y-17907830D01*
X-23725084Y-17754939D01*
X-23595061Y-17624916D01*
X-23442170Y-17522758D01*
X-23272287Y-17452390D01*
X-23091940Y-17416517D01*
X-22908060Y-17416517D01*
X-22727713Y-17452390D01*
G37*
G36*
X-22727713Y-14912390D02*
G01*
X-22557830Y-14982758D01*
X-22404939Y-15084916D01*
X-22274916Y-15214939D01*
X-22172758Y-15367830D01*
X-22102390Y-15537713D01*
X-22066517Y-15718060D01*
X-22066517Y-15901940D01*
X-22102390Y-16082287D01*
X-22172758Y-16252170D01*
X-22274916Y-16405061D01*
X-22404939Y-16535084D01*
X-22557830Y-16637242D01*
X-22727713Y-16707610D01*
X-22908060Y-16743483D01*
X-23091940Y-16743483D01*
X-23272287Y-16707610D01*
X-23442170Y-16637242D01*
X-23595061Y-16535084D01*
X-23725084Y-16405061D01*
X-23827242Y-16252170D01*
X-23897610Y-16082287D01*
X-23933483Y-15901940D01*
X-23933483Y-15718060D01*
X-23897610Y-15537713D01*
X-23827242Y-15367830D01*
X-23725084Y-15214939D01*
X-23595061Y-15084916D01*
X-23442170Y-14982758D01*
X-23272287Y-14912390D01*
X-23091940Y-14876517D01*
X-22908060Y-14876517D01*
X-22727713Y-14912390D01*
G37*
G36*
X-22727713Y-12372390D02*
G01*
X-22557830Y-12442758D01*
X-22404939Y-12544916D01*
X-22274916Y-12674939D01*
X-22172758Y-12827830D01*
X-22102390Y-12997713D01*
X-22066517Y-13178060D01*
X-22066517Y-13361940D01*
X-22102390Y-13542287D01*
X-22172758Y-13712170D01*
X-22274916Y-13865061D01*
X-22404939Y-13995084D01*
X-22557830Y-14097242D01*
X-22727713Y-14167610D01*
X-22908060Y-14203483D01*
X-23091940Y-14203483D01*
X-23272287Y-14167610D01*
X-23442170Y-14097242D01*
X-23595061Y-13995084D01*
X-23725084Y-13865061D01*
X-23827242Y-13712170D01*
X-23897610Y-13542287D01*
X-23933483Y-13361940D01*
X-23933483Y-13178060D01*
X-23897610Y-12997713D01*
X-23827242Y-12827830D01*
X-23725084Y-12674939D01*
X-23595061Y-12544916D01*
X-23442170Y-12442758D01*
X-23272287Y-12372390D01*
X-23091940Y-12336517D01*
X-22908060Y-12336517D01*
X-22727713Y-12372390D01*
G37*
G36*
X-10306091Y-10988274D02*
G01*
X-10242410Y-10996658D01*
X-10226391Y-11004128D01*
X-10207071Y-11007971D01*
X-10181481Y-11025069D01*
X-10154925Y-11037453D01*
X-10138770Y-11053608D01*
X-10117692Y-11067692D01*
X-10103609Y-11088769D01*
X-10087454Y-11104924D01*
X-10075072Y-11131478D01*
X-10057971Y-11157071D01*
X-10054128Y-11176392D01*
X-10046659Y-11192409D01*
X-10038278Y-11256077D01*
X-10037000Y-11262500D01*
X-10037000Y-11737500D01*
X-10038278Y-11743924D01*
X-10046659Y-11807590D01*
X-10054128Y-11823606D01*
X-10057971Y-11842929D01*
X-10075074Y-11868524D01*
X-10087454Y-11895075D01*
X-10103607Y-11911227D01*
X-10117692Y-11932308D01*
X-10138773Y-11946393D01*
X-10154925Y-11962546D01*
X-10181476Y-11974926D01*
X-10207071Y-11992029D01*
X-10226394Y-11995872D01*
X-10242410Y-12003341D01*
X-10306076Y-12011722D01*
X-10312500Y-12013000D01*
X-10912500Y-12013000D01*
X-10918923Y-12011722D01*
X-10982591Y-12003341D01*
X-10998608Y-11995872D01*
X-11017929Y-11992029D01*
X-11043522Y-11974928D01*
X-11070076Y-11962546D01*
X-11086231Y-11946391D01*
X-11107308Y-11932308D01*
X-11121392Y-11911230D01*
X-11137547Y-11895075D01*
X-11149931Y-11868519D01*
X-11167029Y-11842929D01*
X-11170872Y-11823609D01*
X-11178342Y-11807590D01*
X-11186726Y-11743909D01*
X-11188000Y-11737500D01*
X-11188000Y-11262500D01*
X-11186726Y-11256092D01*
X-11178342Y-11192409D01*
X-11170872Y-11176388D01*
X-11167029Y-11157071D01*
X-11149932Y-11131483D01*
X-11137547Y-11104924D01*
X-11121390Y-11088766D01*
X-11107308Y-11067692D01*
X-11086234Y-11053610D01*
X-11070076Y-11037453D01*
X-11043517Y-11025068D01*
X-11017929Y-11007971D01*
X-10998612Y-11004128D01*
X-10982591Y-10996658D01*
X-10918908Y-10988274D01*
X-10912500Y-10987000D01*
X-10312500Y-10987000D01*
X-10306091Y-10988274D01*
G37*
G36*
X-8581091Y-10988274D02*
G01*
X-8517410Y-10996658D01*
X-8501391Y-11004128D01*
X-8482071Y-11007971D01*
X-8456481Y-11025069D01*
X-8429925Y-11037453D01*
X-8413770Y-11053608D01*
X-8392692Y-11067692D01*
X-8378609Y-11088769D01*
X-8362454Y-11104924D01*
X-8350072Y-11131478D01*
X-8332971Y-11157071D01*
X-8329128Y-11176392D01*
X-8321659Y-11192409D01*
X-8313278Y-11256077D01*
X-8312000Y-11262500D01*
X-8312000Y-11737500D01*
X-8313278Y-11743924D01*
X-8321659Y-11807590D01*
X-8329128Y-11823606D01*
X-8332971Y-11842929D01*
X-8350074Y-11868524D01*
X-8362454Y-11895075D01*
X-8378607Y-11911227D01*
X-8392692Y-11932308D01*
X-8413773Y-11946393D01*
X-8429925Y-11962546D01*
X-8456476Y-11974926D01*
X-8482071Y-11992029D01*
X-8501394Y-11995872D01*
X-8517410Y-12003341D01*
X-8581076Y-12011722D01*
X-8587500Y-12013000D01*
X-9187500Y-12013000D01*
X-9193923Y-12011722D01*
X-9257591Y-12003341D01*
X-9273608Y-11995872D01*
X-9292929Y-11992029D01*
X-9318522Y-11974928D01*
X-9345076Y-11962546D01*
X-9361231Y-11946391D01*
X-9382308Y-11932308D01*
X-9396392Y-11911230D01*
X-9412547Y-11895075D01*
X-9424931Y-11868519D01*
X-9442029Y-11842929D01*
X-9445872Y-11823609D01*
X-9453342Y-11807590D01*
X-9461726Y-11743909D01*
X-9463000Y-11737500D01*
X-9463000Y-11262500D01*
X-9461726Y-11256092D01*
X-9453342Y-11192409D01*
X-9445872Y-11176388D01*
X-9442029Y-11157071D01*
X-9424932Y-11131483D01*
X-9412547Y-11104924D01*
X-9396390Y-11088766D01*
X-9382308Y-11067692D01*
X-9361234Y-11053610D01*
X-9345076Y-11037453D01*
X-9318517Y-11025068D01*
X-9292929Y-11007971D01*
X-9273612Y-11004128D01*
X-9257591Y-10996658D01*
X-9193908Y-10988274D01*
X-9187500Y-10987000D01*
X-8587500Y-10987000D01*
X-8581091Y-10988274D01*
G37*
G36*
X-22727713Y-9832390D02*
G01*
X-22557830Y-9902758D01*
X-22404939Y-10004916D01*
X-22274916Y-10134939D01*
X-22172758Y-10287830D01*
X-22102390Y-10457713D01*
X-22066517Y-10638060D01*
X-22066517Y-10821940D01*
X-22102390Y-11002287D01*
X-22172758Y-11172170D01*
X-22274916Y-11325061D01*
X-22404939Y-11455084D01*
X-22557830Y-11557242D01*
X-22727713Y-11627610D01*
X-22908060Y-11663483D01*
X-23091940Y-11663483D01*
X-23272287Y-11627610D01*
X-23442170Y-11557242D01*
X-23595061Y-11455084D01*
X-23725084Y-11325061D01*
X-23827242Y-11172170D01*
X-23897610Y-11002287D01*
X-23933483Y-10821940D01*
X-23933483Y-10638060D01*
X-23897610Y-10457713D01*
X-23827242Y-10287830D01*
X-23725084Y-10134939D01*
X-23595061Y-10004916D01*
X-23442170Y-9902758D01*
X-23272287Y-9832390D01*
X-23091940Y-9796517D01*
X-22908060Y-9796517D01*
X-22727713Y-9832390D01*
G37*
G36*
X-10948571Y-8169636D02*
G01*
X-10942772Y-8171665D01*
X-10937854Y-8172194D01*
X-10886211Y-8191456D01*
X-10825336Y-8212757D01*
X-10821488Y-8215597D01*
X-10820336Y-8216027D01*
X-10780514Y-8245837D01*
X-10720287Y-8290287D01*
X-10675820Y-8350537D01*
X-10646028Y-8390335D01*
X-10645599Y-8391485D01*
X-10642757Y-8395336D01*
X-10621439Y-8456262D01*
X-10602196Y-8507853D01*
X-10601669Y-8512763D01*
X-10599636Y-8518571D01*
X-10592000Y-8600000D01*
X-10592000Y-9400000D01*
X-10599636Y-9481429D01*
X-10601667Y-9487232D01*
X-10602195Y-9492146D01*
X-10621442Y-9543745D01*
X-10642757Y-9604664D01*
X-10645600Y-9608515D01*
X-10646028Y-9609664D01*
X-10675768Y-9649391D01*
X-10720287Y-9709713D01*
X-10780609Y-9754232D01*
X-10820336Y-9783972D01*
X-10821485Y-9784400D01*
X-10825336Y-9787243D01*
X-10886279Y-9808567D01*
X-10937854Y-9827804D01*
X-10942764Y-9828331D01*
X-10948571Y-9830364D01*
X-11030000Y-9838000D01*
X-11830000Y-9838000D01*
X-11911429Y-9830364D01*
X-11917233Y-9828333D01*
X-11922147Y-9827805D01*
X-11973762Y-9808553D01*
X-12034664Y-9787243D01*
X-12038515Y-9784401D01*
X-12039665Y-9783972D01*
X-12079463Y-9754180D01*
X-12139713Y-9709713D01*
X-12184163Y-9649486D01*
X-12213973Y-9609664D01*
X-12214403Y-9608512D01*
X-12217243Y-9604664D01*
X-12238553Y-9543764D01*
X-12257805Y-9492146D01*
X-12258334Y-9487232D01*
X-12260364Y-9481429D01*
X-12268000Y-9400000D01*
X-12268000Y-8600000D01*
X-12260364Y-8518571D01*
X-12258335Y-8512771D01*
X-12257806Y-8507853D01*
X-12238539Y-8456194D01*
X-12217243Y-8395336D01*
X-12214404Y-8391488D01*
X-12213973Y-8390335D01*
X-12184111Y-8350443D01*
X-12139713Y-8290287D01*
X-12079557Y-8245889D01*
X-12039665Y-8216027D01*
X-12038512Y-8215596D01*
X-12034664Y-8212757D01*
X-11973781Y-8191453D01*
X-11922147Y-8172195D01*
X-11917233Y-8171666D01*
X-11911429Y-8169636D01*
X-11830000Y-8162000D01*
X-11030000Y-8162000D01*
X-10948571Y-8169636D01*
G37*
G36*
X-8646741Y-8198084D02*
G01*
X-8494970Y-8260950D01*
X-8358378Y-8352217D01*
X-8242217Y-8468378D01*
X-8150950Y-8604970D01*
X-8088084Y-8756741D01*
X-8056035Y-8917862D01*
X-8056035Y-9082138D01*
X-8088084Y-9243259D01*
X-8150950Y-9395030D01*
X-8242217Y-9531622D01*
X-8358378Y-9647783D01*
X-8494970Y-9739050D01*
X-8646741Y-9801916D01*
X-8807862Y-9833965D01*
X-8972138Y-9833965D01*
X-9133259Y-9801916D01*
X-9285030Y-9739050D01*
X-9421622Y-9647783D01*
X-9537783Y-9531622D01*
X-9629050Y-9395030D01*
X-9691916Y-9243259D01*
X-9723965Y-9082138D01*
X-9723965Y-8917862D01*
X-9691916Y-8756741D01*
X-9629050Y-8604970D01*
X-9537783Y-8468378D01*
X-9421622Y-8352217D01*
X-9285030Y-8260950D01*
X-9133259Y-8198084D01*
X-8972138Y-8166035D01*
X-8807862Y-8166035D01*
X-8646741Y-8198084D01*
G37*
G36*
X-6106741Y-8198084D02*
G01*
X-5954970Y-8260950D01*
X-5818378Y-8352217D01*
X-5702217Y-8468378D01*
X-5610950Y-8604970D01*
X-5548084Y-8756741D01*
X-5516035Y-8917862D01*
X-5516035Y-9082138D01*
X-5548084Y-9243259D01*
X-5610950Y-9395030D01*
X-5702217Y-9531622D01*
X-5818378Y-9647783D01*
X-5954970Y-9739050D01*
X-6106741Y-9801916D01*
X-6267862Y-9833965D01*
X-6432138Y-9833965D01*
X-6593259Y-9801916D01*
X-6745030Y-9739050D01*
X-6881622Y-9647783D01*
X-6997783Y-9531622D01*
X-7089050Y-9395030D01*
X-7151916Y-9243259D01*
X-7183965Y-9082138D01*
X-7183965Y-8917862D01*
X-7151916Y-8756741D01*
X-7089050Y-8604970D01*
X-6997783Y-8468378D01*
X-6881622Y-8352217D01*
X-6745030Y-8260950D01*
X-6593259Y-8198084D01*
X-6432138Y-8166035D01*
X-6267862Y-8166035D01*
X-6106741Y-8198084D01*
G37*
G36*
X-3566741Y-8198084D02*
G01*
X-3414970Y-8260950D01*
X-3278378Y-8352217D01*
X-3162217Y-8468378D01*
X-3070950Y-8604970D01*
X-3008084Y-8756741D01*
X-2976035Y-8917862D01*
X-2976035Y-9082138D01*
X-3008084Y-9243259D01*
X-3070950Y-9395030D01*
X-3162217Y-9531622D01*
X-3278378Y-9647783D01*
X-3414970Y-9739050D01*
X-3566741Y-9801916D01*
X-3727862Y-9833965D01*
X-3892138Y-9833965D01*
X-4053259Y-9801916D01*
X-4205030Y-9739050D01*
X-4341622Y-9647783D01*
X-4457783Y-9531622D01*
X-4549050Y-9395030D01*
X-4611916Y-9243259D01*
X-4643965Y-9082138D01*
X-4643965Y-8917862D01*
X-4611916Y-8756741D01*
X-4549050Y-8604970D01*
X-4457783Y-8468378D01*
X-4341622Y-8352217D01*
X-4205030Y-8260950D01*
X-4053259Y-8198084D01*
X-3892138Y-8166035D01*
X-3727862Y-8166035D01*
X-3566741Y-8198084D01*
G37*
G36*
X-1026741Y-8198084D02*
G01*
X-874970Y-8260950D01*
X-738378Y-8352217D01*
X-622217Y-8468378D01*
X-530950Y-8604970D01*
X-468084Y-8756741D01*
X-436035Y-8917862D01*
X-436035Y-9082138D01*
X-468084Y-9243259D01*
X-530950Y-9395030D01*
X-622217Y-9531622D01*
X-738378Y-9647783D01*
X-874970Y-9739050D01*
X-1026741Y-9801916D01*
X-1187862Y-9833965D01*
X-1352138Y-9833965D01*
X-1513259Y-9801916D01*
X-1665030Y-9739050D01*
X-1801622Y-9647783D01*
X-1917783Y-9531622D01*
X-2009050Y-9395030D01*
X-2071916Y-9243259D01*
X-2103965Y-9082138D01*
X-2103965Y-8917862D01*
X-2071916Y-8756741D01*
X-2009050Y-8604970D01*
X-1917783Y-8468378D01*
X-1801622Y-8352217D01*
X-1665030Y-8260950D01*
X-1513259Y-8198084D01*
X-1352138Y-8166035D01*
X-1187862Y-8166035D01*
X-1026741Y-8198084D01*
G37*
G36*
X1513259Y-8198084D02*
G01*
X1665030Y-8260950D01*
X1801622Y-8352217D01*
X1917783Y-8468378D01*
X2009050Y-8604970D01*
X2071916Y-8756741D01*
X2103965Y-8917862D01*
X2103965Y-9082138D01*
X2071916Y-9243259D01*
X2009050Y-9395030D01*
X1917783Y-9531622D01*
X1801622Y-9647783D01*
X1665030Y-9739050D01*
X1513259Y-9801916D01*
X1352138Y-9833965D01*
X1187862Y-9833965D01*
X1026741Y-9801916D01*
X874970Y-9739050D01*
X738378Y-9647783D01*
X622217Y-9531622D01*
X530950Y-9395030D01*
X468084Y-9243259D01*
X436035Y-9082138D01*
X436035Y-8917862D01*
X468084Y-8756741D01*
X530950Y-8604970D01*
X622217Y-8468378D01*
X738378Y-8352217D01*
X874970Y-8260950D01*
X1026741Y-8198084D01*
X1187862Y-8166035D01*
X1352138Y-8166035D01*
X1513259Y-8198084D01*
G37*
G36*
X4053259Y-8198084D02*
G01*
X4205030Y-8260950D01*
X4341622Y-8352217D01*
X4457783Y-8468378D01*
X4549050Y-8604970D01*
X4611916Y-8756741D01*
X4643965Y-8917862D01*
X4643965Y-9082138D01*
X4611916Y-9243259D01*
X4549050Y-9395030D01*
X4457783Y-9531622D01*
X4341622Y-9647783D01*
X4205030Y-9739050D01*
X4053259Y-9801916D01*
X3892138Y-9833965D01*
X3727862Y-9833965D01*
X3566741Y-9801916D01*
X3414970Y-9739050D01*
X3278378Y-9647783D01*
X3162217Y-9531622D01*
X3070950Y-9395030D01*
X3008084Y-9243259D01*
X2976035Y-9082138D01*
X2976035Y-8917862D01*
X3008084Y-8756741D01*
X3070950Y-8604970D01*
X3162217Y-8468378D01*
X3278378Y-8352217D01*
X3414970Y-8260950D01*
X3566741Y-8198084D01*
X3727862Y-8166035D01*
X3892138Y-8166035D01*
X4053259Y-8198084D01*
G37*
G36*
X6593259Y-8198084D02*
G01*
X6745030Y-8260950D01*
X6881622Y-8352217D01*
X6997783Y-8468378D01*
X7089050Y-8604970D01*
X7151916Y-8756741D01*
X7183965Y-8917862D01*
X7183965Y-9082138D01*
X7151916Y-9243259D01*
X7089050Y-9395030D01*
X6997783Y-9531622D01*
X6881622Y-9647783D01*
X6745030Y-9739050D01*
X6593259Y-9801916D01*
X6432138Y-9833965D01*
X6267862Y-9833965D01*
X6106741Y-9801916D01*
X5954970Y-9739050D01*
X5818378Y-9647783D01*
X5702217Y-9531622D01*
X5610950Y-9395030D01*
X5548084Y-9243259D01*
X5516035Y-9082138D01*
X5516035Y-8917862D01*
X5548084Y-8756741D01*
X5610950Y-8604970D01*
X5702217Y-8468378D01*
X5818378Y-8352217D01*
X5954970Y-8260950D01*
X6106741Y-8198084D01*
X6267862Y-8166035D01*
X6432138Y-8166035D01*
X6593259Y-8198084D01*
G37*
G36*
X9133259Y-8198084D02*
G01*
X9285030Y-8260950D01*
X9421622Y-8352217D01*
X9537783Y-8468378D01*
X9629050Y-8604970D01*
X9691916Y-8756741D01*
X9723965Y-8917862D01*
X9723965Y-9082138D01*
X9691916Y-9243259D01*
X9629050Y-9395030D01*
X9537783Y-9531622D01*
X9421622Y-9647783D01*
X9285030Y-9739050D01*
X9133259Y-9801916D01*
X8972138Y-9833965D01*
X8807862Y-9833965D01*
X8646741Y-9801916D01*
X8494970Y-9739050D01*
X8358378Y-9647783D01*
X8242217Y-9531622D01*
X8150950Y-9395030D01*
X8088084Y-9243259D01*
X8056035Y-9082138D01*
X8056035Y-8917862D01*
X8088084Y-8756741D01*
X8150950Y-8604970D01*
X8242217Y-8468378D01*
X8358378Y-8352217D01*
X8494970Y-8260950D01*
X8646741Y-8198084D01*
X8807862Y-8166035D01*
X8972138Y-8166035D01*
X9133259Y-8198084D01*
G37*
G36*
X11673259Y-8198084D02*
G01*
X11825030Y-8260950D01*
X11961622Y-8352217D01*
X12077783Y-8468378D01*
X12169050Y-8604970D01*
X12231916Y-8756741D01*
X12263965Y-8917862D01*
X12263965Y-9082138D01*
X12231916Y-9243259D01*
X12169050Y-9395030D01*
X12077783Y-9531622D01*
X11961622Y-9647783D01*
X11825030Y-9739050D01*
X11673259Y-9801916D01*
X11512138Y-9833965D01*
X11347862Y-9833965D01*
X11186741Y-9801916D01*
X11034970Y-9739050D01*
X10898378Y-9647783D01*
X10782217Y-9531622D01*
X10690950Y-9395030D01*
X10628084Y-9243259D01*
X10596035Y-9082138D01*
X10596035Y-8917862D01*
X10628084Y-8756741D01*
X10690950Y-8604970D01*
X10782217Y-8468378D01*
X10898378Y-8352217D01*
X11034970Y-8260950D01*
X11186741Y-8198084D01*
X11347862Y-8166035D01*
X11512138Y-8166035D01*
X11673259Y-8198084D01*
G37*
G36*
X-22727713Y-7292390D02*
G01*
X-22557830Y-7362758D01*
X-22404939Y-7464916D01*
X-22274916Y-7594939D01*
X-22172758Y-7747830D01*
X-22102390Y-7917713D01*
X-22066517Y-8098060D01*
X-22066517Y-8281940D01*
X-22102390Y-8462287D01*
X-22172758Y-8632170D01*
X-22274916Y-8785061D01*
X-22404939Y-8915084D01*
X-22557830Y-9017242D01*
X-22727713Y-9087610D01*
X-22908060Y-9123483D01*
X-23091940Y-9123483D01*
X-23272287Y-9087610D01*
X-23442170Y-9017242D01*
X-23595061Y-8915084D01*
X-23725084Y-8785061D01*
X-23827242Y-8632170D01*
X-23897610Y-8462287D01*
X-23933483Y-8281940D01*
X-23933483Y-8098060D01*
X-23897610Y-7917713D01*
X-23827242Y-7747830D01*
X-23725084Y-7594939D01*
X-23595061Y-7464916D01*
X-23442170Y-7362758D01*
X-23272287Y-7292390D01*
X-23091940Y-7256517D01*
X-22908060Y-7256517D01*
X-22727713Y-7292390D01*
G37*
G36*
X21114542Y-5664893D02*
G01*
X21126870Y-5673130D01*
X21135107Y-5685458D01*
X21138000Y-5700000D01*
X21138000Y-6700000D01*
X21135107Y-6714542D01*
X21126870Y-6726870D01*
X21114542Y-6735107D01*
X21100000Y-6738000D01*
X19700000Y-6738000D01*
X19685458Y-6735107D01*
X19673130Y-6726870D01*
X19664893Y-6714542D01*
X19662000Y-6700000D01*
X19662000Y-5700000D01*
X19664893Y-5685458D01*
X19673130Y-5673130D01*
X19685458Y-5664893D01*
X19700000Y-5662000D01*
X21100000Y-5662000D01*
X21114542Y-5664893D01*
G37*
G36*
X18243909Y-5588274D02*
G01*
X18307590Y-5596658D01*
X18323609Y-5604128D01*
X18342929Y-5607971D01*
X18368519Y-5625069D01*
X18395075Y-5637453D01*
X18411230Y-5653608D01*
X18432308Y-5667692D01*
X18446391Y-5688769D01*
X18462546Y-5704924D01*
X18474928Y-5731478D01*
X18492029Y-5757071D01*
X18495872Y-5776392D01*
X18503341Y-5792409D01*
X18511722Y-5856077D01*
X18513000Y-5862500D01*
X18513000Y-6362500D01*
X18511722Y-6368924D01*
X18503341Y-6432590D01*
X18495872Y-6448606D01*
X18492029Y-6467929D01*
X18474926Y-6493524D01*
X18462546Y-6520075D01*
X18446393Y-6536227D01*
X18432308Y-6557308D01*
X18411227Y-6571393D01*
X18395075Y-6587546D01*
X18368524Y-6599926D01*
X18342929Y-6617029D01*
X18323606Y-6620872D01*
X18307590Y-6628341D01*
X18243924Y-6636722D01*
X18237500Y-6638000D01*
X17762500Y-6638000D01*
X17756077Y-6636722D01*
X17692409Y-6628341D01*
X17676392Y-6620872D01*
X17657071Y-6617029D01*
X17631478Y-6599928D01*
X17604924Y-6587546D01*
X17588769Y-6571391D01*
X17567692Y-6557308D01*
X17553608Y-6536230D01*
X17537453Y-6520075D01*
X17525069Y-6493519D01*
X17507971Y-6467929D01*
X17504128Y-6448609D01*
X17496658Y-6432590D01*
X17488274Y-6368909D01*
X17487000Y-6362500D01*
X17487000Y-5862500D01*
X17488274Y-5856092D01*
X17496658Y-5792409D01*
X17504128Y-5776388D01*
X17507971Y-5757071D01*
X17525068Y-5731483D01*
X17537453Y-5704924D01*
X17553610Y-5688766D01*
X17567692Y-5667692D01*
X17588766Y-5653610D01*
X17604924Y-5637453D01*
X17631483Y-5625068D01*
X17657071Y-5607971D01*
X17676388Y-5604128D01*
X17692409Y-5596658D01*
X17756092Y-5588274D01*
X17762500Y-5587000D01*
X18237500Y-5587000D01*
X18243909Y-5588274D01*
G37*
G36*
X-22446268Y-4723152D02*
G01*
X-22439689Y-4725605D01*
X-22434975Y-4726172D01*
X-22379185Y-4748173D01*
X-22316126Y-4771693D01*
X-22312323Y-4774540D01*
X-22311058Y-4775039D01*
X-22265019Y-4809951D01*
X-22204932Y-4854932D01*
X-22159933Y-4915043D01*
X-22125040Y-4961057D01*
X-22124542Y-4962320D01*
X-22121693Y-4966126D01*
X-22098159Y-5029223D01*
X-22076173Y-5084975D01*
X-22075608Y-5089684D01*
X-22073152Y-5096268D01*
X-22062000Y-5200000D01*
X-22062000Y-6100000D01*
X-22073152Y-6203732D01*
X-22075608Y-6210315D01*
X-22076173Y-6215025D01*
X-22098156Y-6270768D01*
X-22121693Y-6333874D01*
X-22124543Y-6337680D01*
X-22125040Y-6338942D01*
X-22159875Y-6384878D01*
X-22204932Y-6445068D01*
X-22265122Y-6490125D01*
X-22311058Y-6524960D01*
X-22312320Y-6525457D01*
X-22316126Y-6528307D01*
X-22379242Y-6551848D01*
X-22434976Y-6573827D01*
X-22439685Y-6574392D01*
X-22446268Y-6576848D01*
X-22550000Y-6588000D01*
X-23450000Y-6588000D01*
X-23553732Y-6576848D01*
X-23560315Y-6574392D01*
X-23565026Y-6573827D01*
X-23620788Y-6551837D01*
X-23683874Y-6528307D01*
X-23687680Y-6525458D01*
X-23688943Y-6524960D01*
X-23734957Y-6490067D01*
X-23795068Y-6445068D01*
X-23840049Y-6384981D01*
X-23874961Y-6338942D01*
X-23875460Y-6337677D01*
X-23878307Y-6333874D01*
X-23901831Y-6270805D01*
X-23923828Y-6215024D01*
X-23924394Y-6210311D01*
X-23926848Y-6203732D01*
X-23938000Y-6100000D01*
X-23938000Y-5200000D01*
X-23926848Y-5096268D01*
X-23924395Y-5089689D01*
X-23923828Y-5084974D01*
X-23901820Y-5029166D01*
X-23878307Y-4966126D01*
X-23875461Y-4962323D01*
X-23874961Y-4961057D01*
X-23839991Y-4914940D01*
X-23795068Y-4854932D01*
X-23735060Y-4810009D01*
X-23688943Y-4775039D01*
X-23687677Y-4774539D01*
X-23683874Y-4771693D01*
X-23620824Y-4748176D01*
X-23565025Y-4726172D01*
X-23560312Y-4725605D01*
X-23553732Y-4723152D01*
X-23450000Y-4712000D01*
X-22550000Y-4712000D01*
X-22446268Y-4723152D01*
G37*
G36*
X23314542Y-4714893D02*
G01*
X23326870Y-4723130D01*
X23335107Y-4735458D01*
X23338000Y-4750000D01*
X23338000Y-5750000D01*
X23335107Y-5764542D01*
X23326870Y-5776870D01*
X23314542Y-5785107D01*
X23300000Y-5788000D01*
X21900000Y-5788000D01*
X21885458Y-5785107D01*
X21873130Y-5776870D01*
X21864893Y-5764542D01*
X21862000Y-5750000D01*
X21862000Y-4750000D01*
X21864893Y-4735458D01*
X21873130Y-4723130D01*
X21885458Y-4714893D01*
X21900000Y-4712000D01*
X23300000Y-4712000D01*
X23314542Y-4714893D01*
G37*
G36*
X21114542Y-3764893D02*
G01*
X21126870Y-3773130D01*
X21135107Y-3785458D01*
X21138000Y-3800000D01*
X21138000Y-4800000D01*
X21135107Y-4814542D01*
X21126870Y-4826870D01*
X21114542Y-4835107D01*
X21100000Y-4838000D01*
X19700000Y-4838000D01*
X19685458Y-4835107D01*
X19673130Y-4826870D01*
X19664893Y-4814542D01*
X19662000Y-4800000D01*
X19662000Y-3800000D01*
X19664893Y-3785458D01*
X19673130Y-3773130D01*
X19685458Y-3764893D01*
X19700000Y-3762000D01*
X21100000Y-3762000D01*
X21114542Y-3764893D01*
G37*
G36*
X18243909Y-3763274D02*
G01*
X18307590Y-3771658D01*
X18323609Y-3779128D01*
X18342929Y-3782971D01*
X18368519Y-3800069D01*
X18395075Y-3812453D01*
X18411230Y-3828608D01*
X18432308Y-3842692D01*
X18446391Y-3863769D01*
X18462546Y-3879924D01*
X18474928Y-3906478D01*
X18492029Y-3932071D01*
X18495872Y-3951392D01*
X18503341Y-3967409D01*
X18511722Y-4031077D01*
X18513000Y-4037500D01*
X18513000Y-4537500D01*
X18511722Y-4543924D01*
X18503341Y-4607590D01*
X18495872Y-4623606D01*
X18492029Y-4642929D01*
X18474926Y-4668524D01*
X18462546Y-4695075D01*
X18446393Y-4711227D01*
X18432308Y-4732308D01*
X18411227Y-4746393D01*
X18395075Y-4762546D01*
X18368524Y-4774926D01*
X18342929Y-4792029D01*
X18323606Y-4795872D01*
X18307590Y-4803341D01*
X18243924Y-4811722D01*
X18237500Y-4813000D01*
X17762500Y-4813000D01*
X17756077Y-4811722D01*
X17692409Y-4803341D01*
X17676392Y-4795872D01*
X17657071Y-4792029D01*
X17631478Y-4774928D01*
X17604924Y-4762546D01*
X17588769Y-4746391D01*
X17567692Y-4732308D01*
X17553608Y-4711230D01*
X17537453Y-4695075D01*
X17525069Y-4668519D01*
X17507971Y-4642929D01*
X17504128Y-4623609D01*
X17496658Y-4607590D01*
X17488274Y-4543909D01*
X17487000Y-4537500D01*
X17487000Y-4037500D01*
X17488274Y-4031092D01*
X17496658Y-3967409D01*
X17504128Y-3951388D01*
X17507971Y-3932071D01*
X17525068Y-3906483D01*
X17537453Y-3879924D01*
X17553610Y-3863766D01*
X17567692Y-3842692D01*
X17588766Y-3828610D01*
X17604924Y-3812453D01*
X17631483Y-3800068D01*
X17657071Y-3782971D01*
X17676388Y-3779128D01*
X17692409Y-3771658D01*
X17756092Y-3763274D01*
X17762500Y-3762000D01*
X18237500Y-3762000D01*
X18243909Y-3763274D01*
G37*
G36*
X-16190458Y-1564893D02*
G01*
X-16178130Y-1573130D01*
X-16169893Y-1585458D01*
X-16167000Y-1600000D01*
X-16167000Y-2900000D01*
X-16169893Y-2914542D01*
X-16178130Y-2926870D01*
X-16190458Y-2935107D01*
X-16205000Y-2938000D01*
X-17755000Y-2938000D01*
X-17769542Y-2935107D01*
X-17781870Y-2926870D01*
X-17790107Y-2914542D01*
X-17793000Y-2900000D01*
X-17793000Y-1600000D01*
X-17790107Y-1585458D01*
X-17781870Y-1573130D01*
X-17769542Y-1564893D01*
X-17755000Y-1562000D01*
X-16205000Y-1562000D01*
X-16190458Y-1564893D01*
G37*
G36*
X-8230458Y-1564893D02*
G01*
X-8218130Y-1573130D01*
X-8209893Y-1585458D01*
X-8207000Y-1600000D01*
X-8207000Y-2900000D01*
X-8209893Y-2914542D01*
X-8218130Y-2926870D01*
X-8230458Y-2935107D01*
X-8245000Y-2938000D01*
X-9795000Y-2938000D01*
X-9809542Y-2935107D01*
X-9821870Y-2926870D01*
X-9830107Y-2914542D01*
X-9833000Y-2900000D01*
X-9833000Y-1600000D01*
X-9830107Y-1585458D01*
X-9821870Y-1573130D01*
X-9809542Y-1564893D01*
X-9795000Y-1562000D01*
X-8245000Y-1562000D01*
X-8230458Y-1564893D01*
G37*
G36*
X-3190458Y-1564893D02*
G01*
X-3178130Y-1573130D01*
X-3169893Y-1585458D01*
X-3167000Y-1600000D01*
X-3167000Y-2900000D01*
X-3169893Y-2914542D01*
X-3178130Y-2926870D01*
X-3190458Y-2935107D01*
X-3205000Y-2938000D01*
X-4755000Y-2938000D01*
X-4769542Y-2935107D01*
X-4781870Y-2926870D01*
X-4790107Y-2914542D01*
X-4793000Y-2900000D01*
X-4793000Y-1600000D01*
X-4790107Y-1585458D01*
X-4781870Y-1573130D01*
X-4769542Y-1564893D01*
X-4755000Y-1562000D01*
X-3205000Y-1562000D01*
X-3190458Y-1564893D01*
G37*
G36*
X4769542Y-1564893D02*
G01*
X4781870Y-1573130D01*
X4790107Y-1585458D01*
X4793000Y-1600000D01*
X4793000Y-2900000D01*
X4790107Y-2914542D01*
X4781870Y-2926870D01*
X4769542Y-2935107D01*
X4755000Y-2938000D01*
X3205000Y-2938000D01*
X3190458Y-2935107D01*
X3178130Y-2926870D01*
X3169893Y-2914542D01*
X3167000Y-2900000D01*
X3167000Y-1600000D01*
X3169893Y-1585458D01*
X3178130Y-1573130D01*
X3190458Y-1564893D01*
X3205000Y-1562000D01*
X4755000Y-1562000D01*
X4769542Y-1564893D01*
G37*
G36*
X9809542Y-1564893D02*
G01*
X9821870Y-1573130D01*
X9830107Y-1585458D01*
X9833000Y-1600000D01*
X9833000Y-2900000D01*
X9830107Y-2914542D01*
X9821870Y-2926870D01*
X9809542Y-2935107D01*
X9795000Y-2938000D01*
X8245000Y-2938000D01*
X8230458Y-2935107D01*
X8218130Y-2926870D01*
X8209893Y-2914542D01*
X8207000Y-2900000D01*
X8207000Y-1600000D01*
X8209893Y-1585458D01*
X8218130Y-1573130D01*
X8230458Y-1564893D01*
X8245000Y-1562000D01*
X9795000Y-1562000D01*
X9809542Y-1564893D01*
G37*
G36*
X17769542Y-1564893D02*
G01*
X17781870Y-1573130D01*
X17790107Y-1585458D01*
X17793000Y-1600000D01*
X17793000Y-2900000D01*
X17790107Y-2914542D01*
X17781870Y-2926870D01*
X17769542Y-2935107D01*
X17755000Y-2938000D01*
X16205000Y-2938000D01*
X16190458Y-2935107D01*
X16178130Y-2926870D01*
X16169893Y-2914542D01*
X16167000Y-2900000D01*
X16167000Y-1600000D01*
X16169893Y-1585458D01*
X16178130Y-1573130D01*
X16190458Y-1564893D01*
X16205000Y-1562000D01*
X17755000Y-1562000D01*
X17769542Y-1564893D01*
G37*
G36*
X20289005Y2003794D02*
G01*
X20473762Y1943763D01*
X20646853Y1855569D01*
X20804017Y1741383D01*
X20941383Y1604017D01*
X21055569Y1446853D01*
X21143763Y1273762D01*
X21203794Y1089005D01*
X21234184Y897132D01*
X21238000Y800000D01*
X21238000Y-800000D01*
X21234184Y-897132D01*
X21203794Y-1089005D01*
X21143763Y-1273762D01*
X21055569Y-1446853D01*
X20941383Y-1604017D01*
X20804017Y-1741383D01*
X20646853Y-1855569D01*
X20473762Y-1943763D01*
X20289005Y-2003794D01*
X20097132Y-2034184D01*
X19902868Y-2034184D01*
X19710995Y-2003794D01*
X19526238Y-1943763D01*
X19353147Y-1855569D01*
X19195983Y-1741383D01*
X19058617Y-1604017D01*
X18944431Y-1446853D01*
X18856237Y-1273762D01*
X18796206Y-1089005D01*
X18765816Y-897132D01*
X18762000Y-800000D01*
X18762000Y800000D01*
X18765816Y897132D01*
X18796206Y1089005D01*
X18856237Y1273762D01*
X18944431Y1446853D01*
X19058617Y1604017D01*
X19195983Y1741383D01*
X19353147Y1855569D01*
X19526238Y1943763D01*
X19710995Y2003794D01*
X19902868Y2034184D01*
X20097132Y2034184D01*
X20289005Y2003794D01*
G37*
G36*
X23289005Y2003794D02*
G01*
X23473762Y1943763D01*
X23646853Y1855569D01*
X23804017Y1741383D01*
X23941383Y1604017D01*
X24055569Y1446853D01*
X24143763Y1273762D01*
X24203794Y1089005D01*
X24234184Y897132D01*
X24238000Y800000D01*
X24238000Y-800000D01*
X24234184Y-897132D01*
X24203794Y-1089005D01*
X24143763Y-1273762D01*
X24055569Y-1446853D01*
X23941383Y-1604017D01*
X23804017Y-1741383D01*
X23646853Y-1855569D01*
X23473762Y-1943763D01*
X23289005Y-2003794D01*
X23097132Y-2034184D01*
X22902868Y-2034184D01*
X22710995Y-2003794D01*
X22526238Y-1943763D01*
X22353147Y-1855569D01*
X22195983Y-1741383D01*
X22058617Y-1604017D01*
X21944431Y-1446853D01*
X21856237Y-1273762D01*
X21796206Y-1089005D01*
X21765816Y-897132D01*
X21762000Y-800000D01*
X21762000Y800000D01*
X21765816Y897132D01*
X21796206Y1089005D01*
X21856237Y1273762D01*
X21944431Y1446853D01*
X22058617Y1604017D01*
X22195983Y1741383D01*
X22353147Y1855569D01*
X22526238Y1943763D01*
X22710995Y2003794D01*
X22902868Y2034184D01*
X23097132Y2034184D01*
X23289005Y2003794D01*
G37*
G36*
X-22727713Y3357610D02*
G01*
X-22557830Y3287242D01*
X-22404939Y3185084D01*
X-22274916Y3055061D01*
X-22172758Y2902170D01*
X-22102390Y2732287D01*
X-22066517Y2551940D01*
X-22066517Y2368060D01*
X-22102390Y2187713D01*
X-22172758Y2017830D01*
X-22274916Y1864939D01*
X-22404939Y1734916D01*
X-22557830Y1632758D01*
X-22727713Y1562390D01*
X-22908060Y1526517D01*
X-23091940Y1526517D01*
X-23272287Y1562390D01*
X-23442170Y1632758D01*
X-23595061Y1734916D01*
X-23725084Y1864939D01*
X-23827242Y2017830D01*
X-23897610Y2187713D01*
X-23933483Y2368060D01*
X-23933483Y2551940D01*
X-23897610Y2732287D01*
X-23827242Y2902170D01*
X-23725084Y3055061D01*
X-23595061Y3185084D01*
X-23442170Y3287242D01*
X-23272287Y3357610D01*
X-23091940Y3393483D01*
X-22908060Y3393483D01*
X-22727713Y3357610D01*
G37*
G36*
X-16190458Y2935107D02*
G01*
X-16178130Y2926870D01*
X-16169893Y2914542D01*
X-16167000Y2900000D01*
X-16167000Y1600000D01*
X-16169893Y1585458D01*
X-16178130Y1573130D01*
X-16190458Y1564893D01*
X-16205000Y1562000D01*
X-17755000Y1562000D01*
X-17769542Y1564893D01*
X-17781870Y1573130D01*
X-17790107Y1585458D01*
X-17793000Y1600000D01*
X-17793000Y2900000D01*
X-17790107Y2914542D01*
X-17781870Y2926870D01*
X-17769542Y2935107D01*
X-17755000Y2938000D01*
X-16205000Y2938000D01*
X-16190458Y2935107D01*
G37*
G36*
X-8230458Y2935107D02*
G01*
X-8218130Y2926870D01*
X-8209893Y2914542D01*
X-8207000Y2900000D01*
X-8207000Y1600000D01*
X-8209893Y1585458D01*
X-8218130Y1573130D01*
X-8230458Y1564893D01*
X-8245000Y1562000D01*
X-9795000Y1562000D01*
X-9809542Y1564893D01*
X-9821870Y1573130D01*
X-9830107Y1585458D01*
X-9833000Y1600000D01*
X-9833000Y2900000D01*
X-9830107Y2914542D01*
X-9821870Y2926870D01*
X-9809542Y2935107D01*
X-9795000Y2938000D01*
X-8245000Y2938000D01*
X-8230458Y2935107D01*
G37*
G36*
X-3190458Y2935107D02*
G01*
X-3178130Y2926870D01*
X-3169893Y2914542D01*
X-3167000Y2900000D01*
X-3167000Y1600000D01*
X-3169893Y1585458D01*
X-3178130Y1573130D01*
X-3190458Y1564893D01*
X-3205000Y1562000D01*
X-4755000Y1562000D01*
X-4769542Y1564893D01*
X-4781870Y1573130D01*
X-4790107Y1585458D01*
X-4793000Y1600000D01*
X-4793000Y2900000D01*
X-4790107Y2914542D01*
X-4781870Y2926870D01*
X-4769542Y2935107D01*
X-4755000Y2938000D01*
X-3205000Y2938000D01*
X-3190458Y2935107D01*
G37*
G36*
X4769542Y2935107D02*
G01*
X4781870Y2926870D01*
X4790107Y2914542D01*
X4793000Y2900000D01*
X4793000Y1600000D01*
X4790107Y1585458D01*
X4781870Y1573130D01*
X4769542Y1564893D01*
X4755000Y1562000D01*
X3205000Y1562000D01*
X3190458Y1564893D01*
X3178130Y1573130D01*
X3169893Y1585458D01*
X3167000Y1600000D01*
X3167000Y2900000D01*
X3169893Y2914542D01*
X3178130Y2926870D01*
X3190458Y2935107D01*
X3205000Y2938000D01*
X4755000Y2938000D01*
X4769542Y2935107D01*
G37*
G36*
X9809542Y2935107D02*
G01*
X9821870Y2926870D01*
X9830107Y2914542D01*
X9833000Y2900000D01*
X9833000Y1600000D01*
X9830107Y1585458D01*
X9821870Y1573130D01*
X9809542Y1564893D01*
X9795000Y1562000D01*
X8245000Y1562000D01*
X8230458Y1564893D01*
X8218130Y1573130D01*
X8209893Y1585458D01*
X8207000Y1600000D01*
X8207000Y2900000D01*
X8209893Y2914542D01*
X8218130Y2926870D01*
X8230458Y2935107D01*
X8245000Y2938000D01*
X9795000Y2938000D01*
X9809542Y2935107D01*
G37*
G36*
X17769542Y2935107D02*
G01*
X17781870Y2926870D01*
X17790107Y2914542D01*
X17793000Y2900000D01*
X17793000Y1600000D01*
X17790107Y1585458D01*
X17781870Y1573130D01*
X17769542Y1564893D01*
X17755000Y1562000D01*
X16205000Y1562000D01*
X16190458Y1564893D01*
X16178130Y1573130D01*
X16169893Y1585458D01*
X16167000Y1600000D01*
X16167000Y2900000D01*
X16169893Y2914542D01*
X16178130Y2926870D01*
X16190458Y2935107D01*
X16205000Y2938000D01*
X17755000Y2938000D01*
X17769542Y2935107D01*
G37*
G36*
X20415938Y5405350D02*
G01*
X20420653Y5403268D01*
X20423326Y5402916D01*
X20456770Y5387321D01*
X20512759Y5362599D01*
X20587599Y5287759D01*
X20612330Y5231749D01*
X20627915Y5198327D01*
X20628266Y5195657D01*
X20630350Y5190938D01*
X20638000Y5125000D01*
X20638000Y3875000D01*
X20630350Y3809062D01*
X20628266Y3804344D01*
X20627915Y3801674D01*
X20612338Y3768270D01*
X20587599Y3712241D01*
X20512759Y3637401D01*
X20456730Y3612662D01*
X20423326Y3597085D01*
X20420656Y3596734D01*
X20415938Y3594650D01*
X20350000Y3587000D01*
X19550000Y3587000D01*
X19484062Y3594650D01*
X19479343Y3596734D01*
X19476673Y3597085D01*
X19443251Y3612670D01*
X19387241Y3637401D01*
X19312401Y3712241D01*
X19287679Y3768230D01*
X19272084Y3801674D01*
X19271732Y3804347D01*
X19269650Y3809062D01*
X19262000Y3875000D01*
X19262000Y5125000D01*
X19269650Y5190938D01*
X19271732Y5195654D01*
X19272084Y5198327D01*
X19287687Y5231790D01*
X19312401Y5287759D01*
X19387241Y5362599D01*
X19443210Y5387313D01*
X19476673Y5402916D01*
X19479346Y5403268D01*
X19484062Y5405350D01*
X19550000Y5413000D01*
X20350000Y5413000D01*
X20415938Y5405350D01*
G37*
G36*
X23515938Y5405350D02*
G01*
X23520653Y5403268D01*
X23523326Y5402916D01*
X23556770Y5387321D01*
X23612759Y5362599D01*
X23687599Y5287759D01*
X23712330Y5231749D01*
X23727915Y5198327D01*
X23728266Y5195657D01*
X23730350Y5190938D01*
X23738000Y5125000D01*
X23738000Y3875000D01*
X23730350Y3809062D01*
X23728266Y3804344D01*
X23727915Y3801674D01*
X23712338Y3768270D01*
X23687599Y3712241D01*
X23612759Y3637401D01*
X23556730Y3612662D01*
X23523326Y3597085D01*
X23520656Y3596734D01*
X23515938Y3594650D01*
X23450000Y3587000D01*
X22650000Y3587000D01*
X22584062Y3594650D01*
X22579343Y3596734D01*
X22576673Y3597085D01*
X22543251Y3612670D01*
X22487241Y3637401D01*
X22412401Y3712241D01*
X22387679Y3768230D01*
X22372084Y3801674D01*
X22371732Y3804347D01*
X22369650Y3809062D01*
X22362000Y3875000D01*
X22362000Y5125000D01*
X22369650Y5190938D01*
X22371732Y5195654D01*
X22372084Y5198327D01*
X22387687Y5231790D01*
X22412401Y5287759D01*
X22487241Y5362599D01*
X22543210Y5387313D01*
X22576673Y5402916D01*
X22579346Y5403268D01*
X22584062Y5405350D01*
X22650000Y5413000D01*
X23450000Y5413000D01*
X23515938Y5405350D01*
G37*
G36*
X-22727713Y5897610D02*
G01*
X-22557830Y5827242D01*
X-22404939Y5725084D01*
X-22274916Y5595061D01*
X-22172758Y5442170D01*
X-22102390Y5272287D01*
X-22066517Y5091940D01*
X-22066517Y4908060D01*
X-22102390Y4727713D01*
X-22172758Y4557830D01*
X-22274916Y4404939D01*
X-22404939Y4274916D01*
X-22557830Y4172758D01*
X-22727713Y4102390D01*
X-22908060Y4066517D01*
X-23091940Y4066517D01*
X-23272287Y4102390D01*
X-23442170Y4172758D01*
X-23595061Y4274916D01*
X-23725084Y4404939D01*
X-23827242Y4557830D01*
X-23897610Y4727713D01*
X-23933483Y4908060D01*
X-23933483Y5091940D01*
X-23897610Y5272287D01*
X-23827242Y5442170D01*
X-23725084Y5595061D01*
X-23595061Y5725084D01*
X-23442170Y5827242D01*
X-23272287Y5897610D01*
X-23091940Y5933483D01*
X-22908060Y5933483D01*
X-22727713Y5897610D01*
G37*
G36*
X-22446268Y8466848D02*
G01*
X-22439689Y8464395D01*
X-22434975Y8463828D01*
X-22379185Y8441827D01*
X-22316126Y8418307D01*
X-22312323Y8415460D01*
X-22311058Y8414961D01*
X-22265019Y8380049D01*
X-22204932Y8335068D01*
X-22159933Y8274957D01*
X-22125040Y8228943D01*
X-22124542Y8227680D01*
X-22121693Y8223874D01*
X-22098159Y8160777D01*
X-22076173Y8105025D01*
X-22075608Y8100316D01*
X-22073152Y8093732D01*
X-22062000Y7990000D01*
X-22062000Y7090000D01*
X-22073152Y6986268D01*
X-22075608Y6979685D01*
X-22076173Y6974975D01*
X-22098156Y6919232D01*
X-22121693Y6856126D01*
X-22124543Y6852320D01*
X-22125040Y6851058D01*
X-22159875Y6805122D01*
X-22204932Y6744932D01*
X-22265122Y6699875D01*
X-22311058Y6665040D01*
X-22312320Y6664543D01*
X-22316126Y6661693D01*
X-22379242Y6638152D01*
X-22434976Y6616173D01*
X-22439685Y6615608D01*
X-22446268Y6613152D01*
X-22550000Y6602000D01*
X-23450000Y6602000D01*
X-23553732Y6613152D01*
X-23560315Y6615608D01*
X-23565026Y6616173D01*
X-23620788Y6638163D01*
X-23683874Y6661693D01*
X-23687680Y6664542D01*
X-23688943Y6665040D01*
X-23734957Y6699933D01*
X-23795068Y6744932D01*
X-23840049Y6805019D01*
X-23874961Y6851058D01*
X-23875460Y6852323D01*
X-23878307Y6856126D01*
X-23901831Y6919195D01*
X-23923828Y6974976D01*
X-23924394Y6979689D01*
X-23926848Y6986268D01*
X-23938000Y7090000D01*
X-23938000Y7990000D01*
X-23926848Y8093732D01*
X-23924395Y8100311D01*
X-23923828Y8105026D01*
X-23901820Y8160834D01*
X-23878307Y8223874D01*
X-23875461Y8227677D01*
X-23874961Y8228943D01*
X-23839991Y8275060D01*
X-23795068Y8335068D01*
X-23735060Y8379991D01*
X-23688943Y8414961D01*
X-23687677Y8415461D01*
X-23683874Y8418307D01*
X-23620824Y8441824D01*
X-23565025Y8463828D01*
X-23560312Y8464395D01*
X-23553732Y8466848D01*
X-23450000Y8478000D01*
X-22550000Y8478000D01*
X-22446268Y8466848D01*
G37*
G36*
X-11485458Y12535107D02*
G01*
X-11473130Y12526870D01*
X-11464893Y12514542D01*
X-11462000Y12500000D01*
X-11462000Y10500000D01*
X-11464893Y10485458D01*
X-11473130Y10473130D01*
X-11485458Y10464893D01*
X-11500000Y10462000D01*
X-14500000Y10462000D01*
X-14514542Y10464893D01*
X-14526870Y10473130D01*
X-14535107Y10485458D01*
X-14538000Y10500000D01*
X-14538000Y12500000D01*
X-14535107Y12514542D01*
X-14526870Y12526870D01*
X-14514542Y12535107D01*
X-14500000Y12538000D01*
X-11500000Y12538000D01*
X-11485458Y12535107D01*
G37*
G36*
X-12496126Y15037810D02*
G01*
X-12419546Y15034801D01*
X-12412652Y15033710D01*
X-12398258Y15033002D01*
X-12359464Y15025286D01*
X-12257725Y15009172D01*
X-12224997Y14998538D01*
X-12198685Y14993304D01*
X-12161554Y14977924D01*
X-12102830Y14958843D01*
X-12047815Y14930812D01*
X-12010690Y14915434D01*
X-11988389Y14900533D01*
X-11957731Y14884912D01*
X-11874397Y14824366D01*
X-11841500Y14802385D01*
X-11834479Y14795364D01*
X-11825976Y14789186D01*
X-11710815Y14674025D01*
X-11704638Y14665523D01*
X-11697615Y14658500D01*
X-11675631Y14625599D01*
X-11615089Y14542270D01*
X-11599470Y14511615D01*
X-11584566Y14489310D01*
X-11569187Y14452181D01*
X-11541158Y14397171D01*
X-11522080Y14338455D01*
X-11506696Y14301315D01*
X-11501462Y14274999D01*
X-11490829Y14242276D01*
X-11474717Y14140546D01*
X-11466998Y14101742D01*
X-11466998Y14091812D01*
X-11465354Y14081432D01*
X-11465354Y13918569D01*
X-11466998Y13908190D01*
X-11466998Y13898258D01*
X-11474718Y13859451D01*
X-11490829Y13757725D01*
X-11501461Y13725005D01*
X-11506696Y13698685D01*
X-11522082Y13661543D01*
X-11541158Y13602830D01*
X-11569185Y13547826D01*
X-11584566Y13510690D01*
X-11599472Y13488383D01*
X-11615089Y13457731D01*
X-11675623Y13374414D01*
X-11697615Y13341500D01*
X-11704641Y13334475D01*
X-11710815Y13325976D01*
X-11825976Y13210815D01*
X-11834475Y13204641D01*
X-11841500Y13197615D01*
X-11874414Y13175623D01*
X-11957731Y13115089D01*
X-11988383Y13099472D01*
X-12010690Y13084566D01*
X-12047826Y13069185D01*
X-12102830Y13041158D01*
X-12161543Y13022082D01*
X-12198685Y13006696D01*
X-12225005Y13001461D01*
X-12257725Y12990829D01*
X-12359440Y12974720D01*
X-12398258Y12966998D01*
X-12412661Y12966291D01*
X-12419546Y12965200D01*
X-12496120Y12962191D01*
X-12500000Y12962000D01*
X-12500970Y12962000D01*
X-13499030Y12962000D01*
X-13500000Y12962000D01*
X-13503881Y12962191D01*
X-13580455Y12965200D01*
X-13587341Y12966291D01*
X-13601742Y12966998D01*
X-13640558Y12974719D01*
X-13742276Y12990829D01*
X-13774999Y13001462D01*
X-13801315Y13006696D01*
X-13838455Y13022080D01*
X-13897171Y13041158D01*
X-13952181Y13069187D01*
X-13989310Y13084566D01*
X-14011615Y13099470D01*
X-14042270Y13115089D01*
X-14125599Y13175631D01*
X-14158500Y13197615D01*
X-14165523Y13204638D01*
X-14174025Y13210815D01*
X-14289186Y13325976D01*
X-14295364Y13334479D01*
X-14302385Y13341500D01*
X-14324366Y13374397D01*
X-14384912Y13457731D01*
X-14400533Y13488389D01*
X-14415434Y13510690D01*
X-14430812Y13547815D01*
X-14458843Y13602830D01*
X-14477924Y13661554D01*
X-14493304Y13698685D01*
X-14498538Y13724997D01*
X-14509172Y13757725D01*
X-14525285Y13859460D01*
X-14533002Y13898258D01*
X-14533002Y13908189D01*
X-14534646Y13918569D01*
X-14534646Y14081432D01*
X-14533002Y14091813D01*
X-14533002Y14101742D01*
X-14525286Y14140537D01*
X-14509172Y14242276D01*
X-14498538Y14275007D01*
X-14493304Y14301315D01*
X-14477926Y14338443D01*
X-14458843Y14397171D01*
X-14430810Y14452191D01*
X-14415434Y14489310D01*
X-14400535Y14511609D01*
X-14384912Y14542270D01*
X-14324358Y14625616D01*
X-14302385Y14658500D01*
X-14295366Y14665520D01*
X-14289186Y14674025D01*
X-14174025Y14789186D01*
X-14165520Y14795366D01*
X-14158500Y14802385D01*
X-14125616Y14824358D01*
X-14042270Y14884912D01*
X-14011609Y14900535D01*
X-13989310Y14915434D01*
X-13952191Y14930810D01*
X-13897171Y14958843D01*
X-13838443Y14977926D01*
X-13801315Y14993304D01*
X-13775007Y14998538D01*
X-13742276Y15009172D01*
X-13640533Y15025287D01*
X-13601742Y15033002D01*
X-13587350Y15033710D01*
X-13580455Y15034801D01*
X-13503875Y15037810D01*
X-13500000Y15038000D01*
X-12500000Y15038000D01*
X-12496126Y15037810D01*
G37*
G36*
X-18085458Y15110107D02*
G01*
X-18073130Y15101870D01*
X-18064893Y15089542D01*
X-18062000Y15075000D01*
X-18062000Y13375000D01*
X-18064893Y13360458D01*
X-18073130Y13348130D01*
X-18085458Y13339893D01*
X-18100000Y13337000D01*
X-19900000Y13337000D01*
X-19914542Y13339893D01*
X-19926870Y13348130D01*
X-19935107Y13360458D01*
X-19938000Y13375000D01*
X-19938000Y15075000D01*
X-19935107Y15089542D01*
X-19926870Y15101870D01*
X-19914542Y15110107D01*
X-19900000Y15113000D01*
X-18100000Y15113000D01*
X-18085458Y15110107D01*
G37*
G36*
X-16256091Y14711726D02*
G01*
X-16192410Y14703342D01*
X-16176391Y14695872D01*
X-16157071Y14692029D01*
X-16131481Y14674931D01*
X-16104925Y14662547D01*
X-16088770Y14646392D01*
X-16067692Y14632308D01*
X-16053609Y14611231D01*
X-16037454Y14595076D01*
X-16025072Y14568522D01*
X-16007971Y14542929D01*
X-16004128Y14523608D01*
X-15996659Y14507591D01*
X-15988278Y14443923D01*
X-15987000Y14437500D01*
X-15987000Y13837500D01*
X-15988278Y13831076D01*
X-15996659Y13767410D01*
X-16004128Y13751394D01*
X-16007971Y13732071D01*
X-16025074Y13706476D01*
X-16037454Y13679925D01*
X-16053607Y13663773D01*
X-16067692Y13642692D01*
X-16088773Y13628607D01*
X-16104925Y13612454D01*
X-16131476Y13600074D01*
X-16157071Y13582971D01*
X-16176394Y13579128D01*
X-16192410Y13571659D01*
X-16256076Y13563278D01*
X-16262500Y13562000D01*
X-16737500Y13562000D01*
X-16743923Y13563278D01*
X-16807591Y13571659D01*
X-16823608Y13579128D01*
X-16842929Y13582971D01*
X-16868522Y13600072D01*
X-16895076Y13612454D01*
X-16911231Y13628609D01*
X-16932308Y13642692D01*
X-16946392Y13663770D01*
X-16962547Y13679925D01*
X-16974931Y13706481D01*
X-16992029Y13732071D01*
X-16995872Y13751391D01*
X-17003342Y13767410D01*
X-17011726Y13831091D01*
X-17013000Y13837500D01*
X-17013000Y14437500D01*
X-17011726Y14443908D01*
X-17003342Y14507591D01*
X-16995872Y14523612D01*
X-16992029Y14542929D01*
X-16974932Y14568517D01*
X-16962547Y14595076D01*
X-16946390Y14611234D01*
X-16932308Y14632308D01*
X-16911234Y14646390D01*
X-16895076Y14662547D01*
X-16868517Y14674932D01*
X-16842929Y14692029D01*
X-16823612Y14695872D01*
X-16807591Y14703342D01*
X-16743908Y14711726D01*
X-16737500Y14713000D01*
X-16262500Y14713000D01*
X-16256091Y14711726D01*
G37*
G36*
X-16256091Y16436726D02*
G01*
X-16192410Y16428342D01*
X-16176391Y16420872D01*
X-16157071Y16417029D01*
X-16131481Y16399931D01*
X-16104925Y16387547D01*
X-16088770Y16371392D01*
X-16067692Y16357308D01*
X-16053609Y16336231D01*
X-16037454Y16320076D01*
X-16025072Y16293522D01*
X-16007971Y16267929D01*
X-16004128Y16248608D01*
X-15996659Y16232591D01*
X-15988278Y16168923D01*
X-15987000Y16162500D01*
X-15987000Y15562500D01*
X-15988278Y15556076D01*
X-15996659Y15492410D01*
X-16004128Y15476394D01*
X-16007971Y15457071D01*
X-16025074Y15431476D01*
X-16037454Y15404925D01*
X-16053607Y15388773D01*
X-16067692Y15367692D01*
X-16088773Y15353607D01*
X-16104925Y15337454D01*
X-16131476Y15325074D01*
X-16157071Y15307971D01*
X-16176394Y15304128D01*
X-16192410Y15296659D01*
X-16256076Y15288278D01*
X-16262500Y15287000D01*
X-16737500Y15287000D01*
X-16743923Y15288278D01*
X-16807591Y15296659D01*
X-16823608Y15304128D01*
X-16842929Y15307971D01*
X-16868522Y15325072D01*
X-16895076Y15337454D01*
X-16911231Y15353609D01*
X-16932308Y15367692D01*
X-16946392Y15388770D01*
X-16962547Y15404925D01*
X-16974931Y15431481D01*
X-16992029Y15457071D01*
X-16995872Y15476391D01*
X-17003342Y15492410D01*
X-17011726Y15556091D01*
X-17013000Y15562500D01*
X-17013000Y16162500D01*
X-17011726Y16168908D01*
X-17003342Y16232591D01*
X-16995872Y16248612D01*
X-16992029Y16267929D01*
X-16974932Y16293517D01*
X-16962547Y16320076D01*
X-16946390Y16336234D01*
X-16932308Y16357308D01*
X-16911234Y16371390D01*
X-16895076Y16387547D01*
X-16868517Y16399932D01*
X-16842929Y16417029D01*
X-16823612Y16420872D01*
X-16807591Y16428342D01*
X-16743908Y16436726D01*
X-16737500Y16438000D01*
X-16262500Y16438000D01*
X-16256091Y16436726D01*
G37*
G36*
X-12496126Y17537810D02*
G01*
X-12419546Y17534801D01*
X-12412652Y17533710D01*
X-12398258Y17533002D01*
X-12359464Y17525286D01*
X-12257725Y17509172D01*
X-12224997Y17498538D01*
X-12198685Y17493304D01*
X-12161554Y17477924D01*
X-12102830Y17458843D01*
X-12047815Y17430812D01*
X-12010690Y17415434D01*
X-11988389Y17400533D01*
X-11957731Y17384912D01*
X-11874397Y17324366D01*
X-11841500Y17302385D01*
X-11834479Y17295364D01*
X-11825976Y17289186D01*
X-11710815Y17174025D01*
X-11704638Y17165523D01*
X-11697615Y17158500D01*
X-11675631Y17125599D01*
X-11615089Y17042270D01*
X-11599470Y17011615D01*
X-11584566Y16989310D01*
X-11569187Y16952181D01*
X-11541158Y16897171D01*
X-11522080Y16838455D01*
X-11506696Y16801315D01*
X-11501462Y16774999D01*
X-11490829Y16742276D01*
X-11474717Y16640546D01*
X-11466998Y16601742D01*
X-11466998Y16591812D01*
X-11465354Y16581432D01*
X-11465354Y16418569D01*
X-11466998Y16408190D01*
X-11466998Y16398258D01*
X-11474718Y16359451D01*
X-11490829Y16257725D01*
X-11501461Y16225005D01*
X-11506696Y16198685D01*
X-11522082Y16161543D01*
X-11541158Y16102830D01*
X-11569185Y16047826D01*
X-11584566Y16010690D01*
X-11599472Y15988383D01*
X-11615089Y15957731D01*
X-11675623Y15874414D01*
X-11697615Y15841500D01*
X-11704641Y15834475D01*
X-11710815Y15825976D01*
X-11825976Y15710815D01*
X-11834475Y15704641D01*
X-11841500Y15697615D01*
X-11874414Y15675623D01*
X-11957731Y15615089D01*
X-11988383Y15599472D01*
X-12010690Y15584566D01*
X-12047826Y15569185D01*
X-12102830Y15541158D01*
X-12161543Y15522082D01*
X-12198685Y15506696D01*
X-12225005Y15501461D01*
X-12257725Y15490829D01*
X-12359440Y15474720D01*
X-12398258Y15466998D01*
X-12412661Y15466291D01*
X-12419546Y15465200D01*
X-12496120Y15462191D01*
X-12500000Y15462000D01*
X-12500970Y15462000D01*
X-13499030Y15462000D01*
X-13500000Y15462000D01*
X-13503881Y15462191D01*
X-13580455Y15465200D01*
X-13587341Y15466291D01*
X-13601742Y15466998D01*
X-13640558Y15474719D01*
X-13742276Y15490829D01*
X-13774999Y15501462D01*
X-13801315Y15506696D01*
X-13838455Y15522080D01*
X-13897171Y15541158D01*
X-13952181Y15569187D01*
X-13989310Y15584566D01*
X-14011615Y15599470D01*
X-14042270Y15615089D01*
X-14125599Y15675631D01*
X-14158500Y15697615D01*
X-14165523Y15704638D01*
X-14174025Y15710815D01*
X-14289186Y15825976D01*
X-14295364Y15834479D01*
X-14302385Y15841500D01*
X-14324366Y15874397D01*
X-14384912Y15957731D01*
X-14400533Y15988389D01*
X-14415434Y16010690D01*
X-14430812Y16047815D01*
X-14458843Y16102830D01*
X-14477924Y16161554D01*
X-14493304Y16198685D01*
X-14498538Y16224997D01*
X-14509172Y16257725D01*
X-14525285Y16359460D01*
X-14533002Y16398258D01*
X-14533002Y16408189D01*
X-14534646Y16418569D01*
X-14534646Y16581432D01*
X-14533002Y16591813D01*
X-14533002Y16601742D01*
X-14525286Y16640537D01*
X-14509172Y16742276D01*
X-14498538Y16775007D01*
X-14493304Y16801315D01*
X-14477926Y16838443D01*
X-14458843Y16897171D01*
X-14430810Y16952191D01*
X-14415434Y16989310D01*
X-14400535Y17011609D01*
X-14384912Y17042270D01*
X-14324358Y17125616D01*
X-14302385Y17158500D01*
X-14295366Y17165520D01*
X-14289186Y17174025D01*
X-14174025Y17289186D01*
X-14165520Y17295366D01*
X-14158500Y17302385D01*
X-14125616Y17324358D01*
X-14042270Y17384912D01*
X-14011609Y17400535D01*
X-13989310Y17415434D01*
X-13952191Y17430810D01*
X-13897171Y17458843D01*
X-13838443Y17477926D01*
X-13801315Y17493304D01*
X-13775007Y17498538D01*
X-13742276Y17509172D01*
X-13640533Y17525287D01*
X-13601742Y17533002D01*
X-13587350Y17533710D01*
X-13580455Y17534801D01*
X-13503875Y17537810D01*
X-13500000Y17538000D01*
X-12500000Y17538000D01*
X-12496126Y17537810D01*
G37*
G36*
X-18085458Y18160107D02*
G01*
X-18073130Y18151870D01*
X-18064893Y18139542D01*
X-18062000Y18125000D01*
X-18062000Y16425000D01*
X-18064893Y16410458D01*
X-18073130Y16398130D01*
X-18085458Y16389893D01*
X-18100000Y16387000D01*
X-19900000Y16387000D01*
X-19914542Y16389893D01*
X-19926870Y16398130D01*
X-19935107Y16410458D01*
X-19938000Y16425000D01*
X-19938000Y18125000D01*
X-19935107Y18139542D01*
X-19926870Y18151870D01*
X-19914542Y18160107D01*
X-19900000Y18163000D01*
X-18100000Y18163000D01*
X-18085458Y18160107D01*
G37*
G36*
X-12496126Y20037810D02*
G01*
X-12419546Y20034801D01*
X-12412652Y20033710D01*
X-12398258Y20033002D01*
X-12359464Y20025286D01*
X-12257725Y20009172D01*
X-12224997Y19998538D01*
X-12198685Y19993304D01*
X-12161554Y19977924D01*
X-12102830Y19958843D01*
X-12047815Y19930812D01*
X-12010690Y19915434D01*
X-11988389Y19900533D01*
X-11957731Y19884912D01*
X-11874397Y19824366D01*
X-11841500Y19802385D01*
X-11834479Y19795364D01*
X-11825976Y19789186D01*
X-11710815Y19674025D01*
X-11704638Y19665523D01*
X-11697615Y19658500D01*
X-11675631Y19625599D01*
X-11615089Y19542270D01*
X-11599470Y19511615D01*
X-11584566Y19489310D01*
X-11569187Y19452181D01*
X-11541158Y19397171D01*
X-11522080Y19338455D01*
X-11506696Y19301315D01*
X-11501462Y19274999D01*
X-11490829Y19242276D01*
X-11474717Y19140546D01*
X-11466998Y19101742D01*
X-11466998Y19091812D01*
X-11465354Y19081432D01*
X-11465354Y18918569D01*
X-11466998Y18908190D01*
X-11466998Y18898258D01*
X-11474718Y18859451D01*
X-11490829Y18757725D01*
X-11501461Y18725005D01*
X-11506696Y18698685D01*
X-11522082Y18661543D01*
X-11541158Y18602830D01*
X-11569185Y18547826D01*
X-11584566Y18510690D01*
X-11599472Y18488383D01*
X-11615089Y18457731D01*
X-11675623Y18374414D01*
X-11697615Y18341500D01*
X-11704641Y18334475D01*
X-11710815Y18325976D01*
X-11825976Y18210815D01*
X-11834475Y18204641D01*
X-11841500Y18197615D01*
X-11874414Y18175623D01*
X-11957731Y18115089D01*
X-11988383Y18099472D01*
X-12010690Y18084566D01*
X-12047826Y18069185D01*
X-12102830Y18041158D01*
X-12161543Y18022082D01*
X-12198685Y18006696D01*
X-12225005Y18001461D01*
X-12257725Y17990829D01*
X-12359440Y17974720D01*
X-12398258Y17966998D01*
X-12412661Y17966291D01*
X-12419546Y17965200D01*
X-12496120Y17962191D01*
X-12500000Y17962000D01*
X-12500970Y17962000D01*
X-13499030Y17962000D01*
X-13500000Y17962000D01*
X-13503881Y17962191D01*
X-13580455Y17965200D01*
X-13587341Y17966291D01*
X-13601742Y17966998D01*
X-13640558Y17974719D01*
X-13742276Y17990829D01*
X-13774999Y18001462D01*
X-13801315Y18006696D01*
X-13838455Y18022080D01*
X-13897171Y18041158D01*
X-13952181Y18069187D01*
X-13989310Y18084566D01*
X-14011615Y18099470D01*
X-14042270Y18115089D01*
X-14125599Y18175631D01*
X-14158500Y18197615D01*
X-14165523Y18204638D01*
X-14174025Y18210815D01*
X-14289186Y18325976D01*
X-14295364Y18334479D01*
X-14302385Y18341500D01*
X-14324366Y18374397D01*
X-14384912Y18457731D01*
X-14400533Y18488389D01*
X-14415434Y18510690D01*
X-14430812Y18547815D01*
X-14458843Y18602830D01*
X-14477924Y18661554D01*
X-14493304Y18698685D01*
X-14498538Y18724997D01*
X-14509172Y18757725D01*
X-14525285Y18859460D01*
X-14533002Y18898258D01*
X-14533002Y18908189D01*
X-14534646Y18918569D01*
X-14534646Y19081432D01*
X-14533002Y19091813D01*
X-14533002Y19101742D01*
X-14525286Y19140537D01*
X-14509172Y19242276D01*
X-14498538Y19275007D01*
X-14493304Y19301315D01*
X-14477926Y19338443D01*
X-14458843Y19397171D01*
X-14430810Y19452191D01*
X-14415434Y19489310D01*
X-14400535Y19511609D01*
X-14384912Y19542270D01*
X-14324358Y19625616D01*
X-14302385Y19658500D01*
X-14295366Y19665520D01*
X-14289186Y19674025D01*
X-14174025Y19789186D01*
X-14165520Y19795366D01*
X-14158500Y19802385D01*
X-14125616Y19824358D01*
X-14042270Y19884912D01*
X-14011609Y19900535D01*
X-13989310Y19915434D01*
X-13952191Y19930810D01*
X-13897171Y19958843D01*
X-13838443Y19977926D01*
X-13801315Y19993304D01*
X-13775007Y19998538D01*
X-13742276Y20009172D01*
X-13640533Y20025287D01*
X-13601742Y20033002D01*
X-13587350Y20033710D01*
X-13580455Y20034801D01*
X-13503875Y20037810D01*
X-13500000Y20038000D01*
X-12500000Y20038000D01*
X-12496126Y20037810D01*
G37*
G36*
X-12496126Y22537810D02*
G01*
X-12419546Y22534801D01*
X-12412652Y22533710D01*
X-12398258Y22533002D01*
X-12359464Y22525286D01*
X-12257725Y22509172D01*
X-12224997Y22498538D01*
X-12198685Y22493304D01*
X-12161554Y22477924D01*
X-12102830Y22458843D01*
X-12047815Y22430812D01*
X-12010690Y22415434D01*
X-11988389Y22400533D01*
X-11957731Y22384912D01*
X-11874397Y22324366D01*
X-11841500Y22302385D01*
X-11834479Y22295364D01*
X-11825976Y22289186D01*
X-11710815Y22174025D01*
X-11704638Y22165523D01*
X-11697615Y22158500D01*
X-11675631Y22125599D01*
X-11615089Y22042270D01*
X-11599470Y22011615D01*
X-11584566Y21989310D01*
X-11569187Y21952181D01*
X-11541158Y21897171D01*
X-11522080Y21838455D01*
X-11506696Y21801315D01*
X-11501462Y21774999D01*
X-11490829Y21742276D01*
X-11474717Y21640546D01*
X-11466998Y21601742D01*
X-11466998Y21591812D01*
X-11465354Y21581432D01*
X-11465354Y21418569D01*
X-11466998Y21408190D01*
X-11466998Y21398258D01*
X-11474718Y21359451D01*
X-11490829Y21257725D01*
X-11501461Y21225005D01*
X-11506696Y21198685D01*
X-11522082Y21161543D01*
X-11541158Y21102830D01*
X-11569185Y21047826D01*
X-11584566Y21010690D01*
X-11599472Y20988383D01*
X-11615089Y20957731D01*
X-11675623Y20874414D01*
X-11697615Y20841500D01*
X-11704641Y20834475D01*
X-11710815Y20825976D01*
X-11825976Y20710815D01*
X-11834475Y20704641D01*
X-11841500Y20697615D01*
X-11874414Y20675623D01*
X-11957731Y20615089D01*
X-11988383Y20599472D01*
X-12010690Y20584566D01*
X-12047826Y20569185D01*
X-12102830Y20541158D01*
X-12161543Y20522082D01*
X-12198685Y20506696D01*
X-12225005Y20501461D01*
X-12257725Y20490829D01*
X-12359440Y20474720D01*
X-12398258Y20466998D01*
X-12412661Y20466291D01*
X-12419546Y20465200D01*
X-12496120Y20462191D01*
X-12500000Y20462000D01*
X-12500970Y20462000D01*
X-13499030Y20462000D01*
X-13500000Y20462000D01*
X-13503881Y20462191D01*
X-13580455Y20465200D01*
X-13587341Y20466291D01*
X-13601742Y20466998D01*
X-13640558Y20474719D01*
X-13742276Y20490829D01*
X-13774999Y20501462D01*
X-13801315Y20506696D01*
X-13838455Y20522080D01*
X-13897171Y20541158D01*
X-13952181Y20569187D01*
X-13989310Y20584566D01*
X-14011615Y20599470D01*
X-14042270Y20615089D01*
X-14125599Y20675631D01*
X-14158500Y20697615D01*
X-14165523Y20704638D01*
X-14174025Y20710815D01*
X-14289186Y20825976D01*
X-14295364Y20834479D01*
X-14302385Y20841500D01*
X-14324366Y20874397D01*
X-14384912Y20957731D01*
X-14400533Y20988389D01*
X-14415434Y21010690D01*
X-14430812Y21047815D01*
X-14458843Y21102830D01*
X-14477924Y21161554D01*
X-14493304Y21198685D01*
X-14498538Y21224997D01*
X-14509172Y21257725D01*
X-14525285Y21359460D01*
X-14533002Y21398258D01*
X-14533002Y21408189D01*
X-14534646Y21418569D01*
X-14534646Y21581432D01*
X-14533002Y21591813D01*
X-14533002Y21601742D01*
X-14525286Y21640537D01*
X-14509172Y21742276D01*
X-14498538Y21775007D01*
X-14493304Y21801315D01*
X-14477926Y21838443D01*
X-14458843Y21897171D01*
X-14430810Y21952191D01*
X-14415434Y21989310D01*
X-14400535Y22011609D01*
X-14384912Y22042270D01*
X-14324358Y22125616D01*
X-14302385Y22158500D01*
X-14295366Y22165520D01*
X-14289186Y22174025D01*
X-14174025Y22289186D01*
X-14165520Y22295366D01*
X-14158500Y22302385D01*
X-14125616Y22324358D01*
X-14042270Y22384912D01*
X-14011609Y22400535D01*
X-13989310Y22415434D01*
X-13952191Y22430810D01*
X-13897171Y22458843D01*
X-13838443Y22477926D01*
X-13801315Y22493304D01*
X-13775007Y22498538D01*
X-13742276Y22509172D01*
X-13640533Y22525287D01*
X-13601742Y22533002D01*
X-13587350Y22533710D01*
X-13580455Y22534801D01*
X-13503875Y22537810D01*
X-13500000Y22538000D01*
X-12500000Y22538000D01*
X-12496126Y22537810D01*
G37*
G36*
X-12496126Y25037810D02*
G01*
X-12419546Y25034801D01*
X-12412652Y25033710D01*
X-12398258Y25033002D01*
X-12359464Y25025286D01*
X-12257725Y25009172D01*
X-12224997Y24998538D01*
X-12198685Y24993304D01*
X-12161554Y24977924D01*
X-12102830Y24958843D01*
X-12047815Y24930812D01*
X-12010690Y24915434D01*
X-11988389Y24900533D01*
X-11957731Y24884912D01*
X-11874397Y24824366D01*
X-11841500Y24802385D01*
X-11834479Y24795364D01*
X-11825976Y24789186D01*
X-11710815Y24674025D01*
X-11704638Y24665523D01*
X-11697615Y24658500D01*
X-11675631Y24625599D01*
X-11615089Y24542270D01*
X-11599470Y24511615D01*
X-11584566Y24489310D01*
X-11569187Y24452181D01*
X-11541158Y24397171D01*
X-11522080Y24338455D01*
X-11506696Y24301315D01*
X-11501462Y24274999D01*
X-11490829Y24242276D01*
X-11474717Y24140546D01*
X-11466998Y24101742D01*
X-11466998Y24091812D01*
X-11465354Y24081432D01*
X-11465354Y23918569D01*
X-11466998Y23908190D01*
X-11466998Y23898258D01*
X-11474718Y23859451D01*
X-11490829Y23757725D01*
X-11501461Y23725005D01*
X-11506696Y23698685D01*
X-11522082Y23661543D01*
X-11541158Y23602830D01*
X-11569185Y23547826D01*
X-11584566Y23510690D01*
X-11599472Y23488383D01*
X-11615089Y23457731D01*
X-11675623Y23374414D01*
X-11697615Y23341500D01*
X-11704641Y23334475D01*
X-11710815Y23325976D01*
X-11825976Y23210815D01*
X-11834475Y23204641D01*
X-11841500Y23197615D01*
X-11874414Y23175623D01*
X-11957731Y23115089D01*
X-11988383Y23099472D01*
X-12010690Y23084566D01*
X-12047826Y23069185D01*
X-12102830Y23041158D01*
X-12161543Y23022082D01*
X-12198685Y23006696D01*
X-12225005Y23001461D01*
X-12257725Y22990829D01*
X-12359440Y22974720D01*
X-12398258Y22966998D01*
X-12412661Y22966291D01*
X-12419546Y22965200D01*
X-12496120Y22962191D01*
X-12500000Y22962000D01*
X-12500970Y22962000D01*
X-13499030Y22962000D01*
X-13500000Y22962000D01*
X-13503881Y22962191D01*
X-13580455Y22965200D01*
X-13587341Y22966291D01*
X-13601742Y22966998D01*
X-13640558Y22974719D01*
X-13742276Y22990829D01*
X-13774999Y23001462D01*
X-13801315Y23006696D01*
X-13838455Y23022080D01*
X-13897171Y23041158D01*
X-13952181Y23069187D01*
X-13989310Y23084566D01*
X-14011615Y23099470D01*
X-14042270Y23115089D01*
X-14125599Y23175631D01*
X-14158500Y23197615D01*
X-14165523Y23204638D01*
X-14174025Y23210815D01*
X-14289186Y23325976D01*
X-14295364Y23334479D01*
X-14302385Y23341500D01*
X-14324366Y23374397D01*
X-14384912Y23457731D01*
X-14400533Y23488389D01*
X-14415434Y23510690D01*
X-14430812Y23547815D01*
X-14458843Y23602830D01*
X-14477924Y23661554D01*
X-14493304Y23698685D01*
X-14498538Y23724997D01*
X-14509172Y23757725D01*
X-14525285Y23859460D01*
X-14533002Y23898258D01*
X-14533002Y23908189D01*
X-14534646Y23918569D01*
X-14534646Y24081432D01*
X-14533002Y24091813D01*
X-14533002Y24101742D01*
X-14525286Y24140537D01*
X-14509172Y24242276D01*
X-14498538Y24275007D01*
X-14493304Y24301315D01*
X-14477926Y24338443D01*
X-14458843Y24397171D01*
X-14430810Y24452191D01*
X-14415434Y24489310D01*
X-14400535Y24511609D01*
X-14384912Y24542270D01*
X-14324358Y24625616D01*
X-14302385Y24658500D01*
X-14295366Y24665520D01*
X-14289186Y24674025D01*
X-14174025Y24789186D01*
X-14165520Y24795366D01*
X-14158500Y24802385D01*
X-14125616Y24824358D01*
X-14042270Y24884912D01*
X-14011609Y24900535D01*
X-13989310Y24915434D01*
X-13952191Y24930810D01*
X-13897171Y24958843D01*
X-13838443Y24977926D01*
X-13801315Y24993304D01*
X-13775007Y24998538D01*
X-13742276Y25009172D01*
X-13640533Y25025287D01*
X-13601742Y25033002D01*
X-13587350Y25033710D01*
X-13580455Y25034801D01*
X-13503875Y25037810D01*
X-13500000Y25038000D01*
X-12500000Y25038000D01*
X-12496126Y25037810D01*
G37*
G36*
X18343909Y26511726D02*
G01*
X18407590Y26503342D01*
X18423609Y26495872D01*
X18442929Y26492029D01*
X18468519Y26474931D01*
X18495075Y26462547D01*
X18511230Y26446392D01*
X18532308Y26432308D01*
X18546391Y26411231D01*
X18562546Y26395076D01*
X18574928Y26368522D01*
X18592029Y26342929D01*
X18595872Y26323608D01*
X18603341Y26307591D01*
X18611722Y26243923D01*
X18613000Y26237500D01*
X18613000Y25762500D01*
X18611722Y25756076D01*
X18603341Y25692410D01*
X18595872Y25676394D01*
X18592029Y25657071D01*
X18574926Y25631476D01*
X18562546Y25604925D01*
X18546393Y25588773D01*
X18532308Y25567692D01*
X18511227Y25553607D01*
X18495075Y25537454D01*
X18468524Y25525074D01*
X18442929Y25507971D01*
X18423606Y25504128D01*
X18407590Y25496659D01*
X18343924Y25488278D01*
X18337500Y25487000D01*
X17837500Y25487000D01*
X17831077Y25488278D01*
X17767409Y25496659D01*
X17751392Y25504128D01*
X17732071Y25507971D01*
X17706478Y25525072D01*
X17679924Y25537454D01*
X17663769Y25553609D01*
X17642692Y25567692D01*
X17628608Y25588770D01*
X17612453Y25604925D01*
X17600069Y25631481D01*
X17582971Y25657071D01*
X17579128Y25676391D01*
X17571658Y25692410D01*
X17563274Y25756091D01*
X17562000Y25762500D01*
X17562000Y26237500D01*
X17563274Y26243908D01*
X17571658Y26307591D01*
X17579128Y26323612D01*
X17582971Y26342929D01*
X17600068Y26368517D01*
X17612453Y26395076D01*
X17628610Y26411234D01*
X17642692Y26432308D01*
X17663766Y26446390D01*
X17679924Y26462547D01*
X17706483Y26474932D01*
X17732071Y26492029D01*
X17751388Y26495872D01*
X17767409Y26503342D01*
X17831092Y26511726D01*
X17837500Y26513000D01*
X18337500Y26513000D01*
X18343909Y26511726D01*
G37*
G36*
X20168909Y26511726D02*
G01*
X20232590Y26503342D01*
X20248609Y26495872D01*
X20267929Y26492029D01*
X20293519Y26474931D01*
X20320075Y26462547D01*
X20336230Y26446392D01*
X20357308Y26432308D01*
X20371391Y26411231D01*
X20387546Y26395076D01*
X20399928Y26368522D01*
X20417029Y26342929D01*
X20420872Y26323608D01*
X20428341Y26307591D01*
X20436722Y26243923D01*
X20438000Y26237500D01*
X20438000Y25762500D01*
X20436722Y25756076D01*
X20428341Y25692410D01*
X20420872Y25676394D01*
X20417029Y25657071D01*
X20399926Y25631476D01*
X20387546Y25604925D01*
X20371393Y25588773D01*
X20357308Y25567692D01*
X20336227Y25553607D01*
X20320075Y25537454D01*
X20293524Y25525074D01*
X20267929Y25507971D01*
X20248606Y25504128D01*
X20232590Y25496659D01*
X20168924Y25488278D01*
X20162500Y25487000D01*
X19662500Y25487000D01*
X19656077Y25488278D01*
X19592409Y25496659D01*
X19576392Y25504128D01*
X19557071Y25507971D01*
X19531478Y25525072D01*
X19504924Y25537454D01*
X19488769Y25553609D01*
X19467692Y25567692D01*
X19453608Y25588770D01*
X19437453Y25604925D01*
X19425069Y25631481D01*
X19407971Y25657071D01*
X19404128Y25676391D01*
X19396658Y25692410D01*
X19388274Y25756091D01*
X19387000Y25762500D01*
X19387000Y26237500D01*
X19388274Y26243908D01*
X19396658Y26307591D01*
X19404128Y26323612D01*
X19407971Y26342929D01*
X19425068Y26368517D01*
X19437453Y26395076D01*
X19453610Y26411234D01*
X19467692Y26432308D01*
X19488766Y26446390D01*
X19504924Y26462547D01*
X19531483Y26474932D01*
X19557071Y26492029D01*
X19576388Y26495872D01*
X19592409Y26503342D01*
X19656092Y26511726D01*
X19662500Y26513000D01*
X20162500Y26513000D01*
X20168909Y26511726D01*
G37*
G36*
X18644542Y29935107D02*
G01*
X18656870Y29926870D01*
X18665107Y29914542D01*
X18668000Y29900000D01*
X18668000Y28100000D01*
X18665107Y28085458D01*
X18656870Y28073130D01*
X18644542Y28064893D01*
X18630000Y28062000D01*
X16830000Y28062000D01*
X16815458Y28064893D01*
X16803130Y28073130D01*
X16794893Y28085458D01*
X16792000Y28100000D01*
X16792000Y29900000D01*
X16794893Y29914542D01*
X16803130Y29926870D01*
X16815458Y29935107D01*
X16830000Y29938000D01*
X18630000Y29938000D01*
X18644542Y29935107D01*
G37*
G36*
X20542287Y29897610D02*
G01*
X20712170Y29827242D01*
X20865061Y29725084D01*
X20995084Y29595061D01*
X21097242Y29442170D01*
X21167610Y29272287D01*
X21203483Y29091940D01*
X21203483Y28908060D01*
X21167610Y28727713D01*
X21097242Y28557830D01*
X20995084Y28404939D01*
X20865061Y28274916D01*
X20712170Y28172758D01*
X20542287Y28102390D01*
X20361940Y28066517D01*
X20178060Y28066517D01*
X19997713Y28102390D01*
X19827830Y28172758D01*
X19674939Y28274916D01*
X19544916Y28404939D01*
X19442758Y28557830D01*
X19372390Y28727713D01*
X19336517Y28908060D01*
X19336517Y29091940D01*
X19372390Y29272287D01*
X19442758Y29442170D01*
X19544916Y29595061D01*
X19674939Y29725084D01*
X19827830Y29827242D01*
X19997713Y29897610D01*
X20178060Y29933483D01*
X20361940Y29933483D01*
X20542287Y29897610D01*
G37*
G36*
X18343909Y32511726D02*
G01*
X18407590Y32503342D01*
X18423609Y32495872D01*
X18442929Y32492029D01*
X18468519Y32474931D01*
X18495075Y32462547D01*
X18511230Y32446392D01*
X18532308Y32432308D01*
X18546391Y32411231D01*
X18562546Y32395076D01*
X18574928Y32368522D01*
X18592029Y32342929D01*
X18595872Y32323608D01*
X18603341Y32307591D01*
X18611722Y32243923D01*
X18613000Y32237500D01*
X18613000Y31762500D01*
X18611722Y31756076D01*
X18603341Y31692410D01*
X18595872Y31676394D01*
X18592029Y31657071D01*
X18574926Y31631476D01*
X18562546Y31604925D01*
X18546393Y31588773D01*
X18532308Y31567692D01*
X18511227Y31553607D01*
X18495075Y31537454D01*
X18468524Y31525074D01*
X18442929Y31507971D01*
X18423606Y31504128D01*
X18407590Y31496659D01*
X18343924Y31488278D01*
X18337500Y31487000D01*
X17837500Y31487000D01*
X17831077Y31488278D01*
X17767409Y31496659D01*
X17751392Y31504128D01*
X17732071Y31507971D01*
X17706478Y31525072D01*
X17679924Y31537454D01*
X17663769Y31553609D01*
X17642692Y31567692D01*
X17628608Y31588770D01*
X17612453Y31604925D01*
X17600069Y31631481D01*
X17582971Y31657071D01*
X17579128Y31676391D01*
X17571658Y31692410D01*
X17563274Y31756091D01*
X17562000Y31762500D01*
X17562000Y32237500D01*
X17563274Y32243908D01*
X17571658Y32307591D01*
X17579128Y32323612D01*
X17582971Y32342929D01*
X17600068Y32368517D01*
X17612453Y32395076D01*
X17628610Y32411234D01*
X17642692Y32432308D01*
X17663766Y32446390D01*
X17679924Y32462547D01*
X17706483Y32474932D01*
X17732071Y32492029D01*
X17751388Y32495872D01*
X17767409Y32503342D01*
X17831092Y32511726D01*
X17837500Y32513000D01*
X18337500Y32513000D01*
X18343909Y32511726D01*
G37*
G36*
X20168909Y32511726D02*
G01*
X20232590Y32503342D01*
X20248609Y32495872D01*
X20267929Y32492029D01*
X20293519Y32474931D01*
X20320075Y32462547D01*
X20336230Y32446392D01*
X20357308Y32432308D01*
X20371391Y32411231D01*
X20387546Y32395076D01*
X20399928Y32368522D01*
X20417029Y32342929D01*
X20420872Y32323608D01*
X20428341Y32307591D01*
X20436722Y32243923D01*
X20438000Y32237500D01*
X20438000Y31762500D01*
X20436722Y31756076D01*
X20428341Y31692410D01*
X20420872Y31676394D01*
X20417029Y31657071D01*
X20399926Y31631476D01*
X20387546Y31604925D01*
X20371393Y31588773D01*
X20357308Y31567692D01*
X20336227Y31553607D01*
X20320075Y31537454D01*
X20293524Y31525074D01*
X20267929Y31507971D01*
X20248606Y31504128D01*
X20232590Y31496659D01*
X20168924Y31488278D01*
X20162500Y31487000D01*
X19662500Y31487000D01*
X19656077Y31488278D01*
X19592409Y31496659D01*
X19576392Y31504128D01*
X19557071Y31507971D01*
X19531478Y31525072D01*
X19504924Y31537454D01*
X19488769Y31553609D01*
X19467692Y31567692D01*
X19453608Y31588770D01*
X19437453Y31604925D01*
X19425069Y31631481D01*
X19407971Y31657071D01*
X19404128Y31676391D01*
X19396658Y31692410D01*
X19388274Y31756091D01*
X19387000Y31762500D01*
X19387000Y32237500D01*
X19388274Y32243908D01*
X19396658Y32307591D01*
X19404128Y32323612D01*
X19407971Y32342929D01*
X19425068Y32368517D01*
X19437453Y32395076D01*
X19453610Y32411234D01*
X19467692Y32432308D01*
X19488766Y32446390D01*
X19504924Y32462547D01*
X19531483Y32474932D01*
X19557071Y32492029D01*
X19576388Y32495872D01*
X19592409Y32503342D01*
X19656092Y32511726D01*
X19662500Y32513000D01*
X20162500Y32513000D01*
X20168909Y32511726D01*
G37*
G36*
X18644542Y35935107D02*
G01*
X18656870Y35926870D01*
X18665107Y35914542D01*
X18668000Y35900000D01*
X18668000Y34100000D01*
X18665107Y34085458D01*
X18656870Y34073130D01*
X18644542Y34064893D01*
X18630000Y34062000D01*
X16830000Y34062000D01*
X16815458Y34064893D01*
X16803130Y34073130D01*
X16794893Y34085458D01*
X16792000Y34100000D01*
X16792000Y35900000D01*
X16794893Y35914542D01*
X16803130Y35926870D01*
X16815458Y35935107D01*
X16830000Y35938000D01*
X18630000Y35938000D01*
X18644542Y35935107D01*
G37*
G36*
X20542287Y35897610D02*
G01*
X20712170Y35827242D01*
X20865061Y35725084D01*
X20995084Y35595061D01*
X21097242Y35442170D01*
X21167610Y35272287D01*
X21203483Y35091940D01*
X21203483Y34908060D01*
X21167610Y34727713D01*
X21097242Y34557830D01*
X20995084Y34404939D01*
X20865061Y34274916D01*
X20712170Y34172758D01*
X20542287Y34102390D01*
X20361940Y34066517D01*
X20178060Y34066517D01*
X19997713Y34102390D01*
X19827830Y34172758D01*
X19674939Y34274916D01*
X19544916Y34404939D01*
X19442758Y34557830D01*
X19372390Y34727713D01*
X19336517Y34908060D01*
X19336517Y35091940D01*
X19372390Y35272287D01*
X19442758Y35442170D01*
X19544916Y35595061D01*
X19674939Y35725084D01*
X19827830Y35827242D01*
X19997713Y35897610D01*
X20178060Y35933483D01*
X20361940Y35933483D01*
X20542287Y35897610D01*
G37*
G36*
X18343909Y38511726D02*
G01*
X18407590Y38503342D01*
X18423609Y38495872D01*
X18442929Y38492029D01*
X18468519Y38474931D01*
X18495075Y38462547D01*
X18511230Y38446392D01*
X18532308Y38432308D01*
X18546391Y38411231D01*
X18562546Y38395076D01*
X18574928Y38368522D01*
X18592029Y38342929D01*
X18595872Y38323608D01*
X18603341Y38307591D01*
X18611722Y38243923D01*
X18613000Y38237500D01*
X18613000Y37762500D01*
X18611722Y37756076D01*
X18603341Y37692410D01*
X18595872Y37676394D01*
X18592029Y37657071D01*
X18574926Y37631476D01*
X18562546Y37604925D01*
X18546393Y37588773D01*
X18532308Y37567692D01*
X18511227Y37553607D01*
X18495075Y37537454D01*
X18468524Y37525074D01*
X18442929Y37507971D01*
X18423606Y37504128D01*
X18407590Y37496659D01*
X18343924Y37488278D01*
X18337500Y37487000D01*
X17837500Y37487000D01*
X17831077Y37488278D01*
X17767409Y37496659D01*
X17751392Y37504128D01*
X17732071Y37507971D01*
X17706478Y37525072D01*
X17679924Y37537454D01*
X17663769Y37553609D01*
X17642692Y37567692D01*
X17628608Y37588770D01*
X17612453Y37604925D01*
X17600069Y37631481D01*
X17582971Y37657071D01*
X17579128Y37676391D01*
X17571658Y37692410D01*
X17563274Y37756091D01*
X17562000Y37762500D01*
X17562000Y38237500D01*
X17563274Y38243908D01*
X17571658Y38307591D01*
X17579128Y38323612D01*
X17582971Y38342929D01*
X17600068Y38368517D01*
X17612453Y38395076D01*
X17628610Y38411234D01*
X17642692Y38432308D01*
X17663766Y38446390D01*
X17679924Y38462547D01*
X17706483Y38474932D01*
X17732071Y38492029D01*
X17751388Y38495872D01*
X17767409Y38503342D01*
X17831092Y38511726D01*
X17837500Y38513000D01*
X18337500Y38513000D01*
X18343909Y38511726D01*
G37*
G36*
X20168909Y38511726D02*
G01*
X20232590Y38503342D01*
X20248609Y38495872D01*
X20267929Y38492029D01*
X20293519Y38474931D01*
X20320075Y38462547D01*
X20336230Y38446392D01*
X20357308Y38432308D01*
X20371391Y38411231D01*
X20387546Y38395076D01*
X20399928Y38368522D01*
X20417029Y38342929D01*
X20420872Y38323608D01*
X20428341Y38307591D01*
X20436722Y38243923D01*
X20438000Y38237500D01*
X20438000Y37762500D01*
X20436722Y37756076D01*
X20428341Y37692410D01*
X20420872Y37676394D01*
X20417029Y37657071D01*
X20399926Y37631476D01*
X20387546Y37604925D01*
X20371393Y37588773D01*
X20357308Y37567692D01*
X20336227Y37553607D01*
X20320075Y37537454D01*
X20293524Y37525074D01*
X20267929Y37507971D01*
X20248606Y37504128D01*
X20232590Y37496659D01*
X20168924Y37488278D01*
X20162500Y37487000D01*
X19662500Y37487000D01*
X19656077Y37488278D01*
X19592409Y37496659D01*
X19576392Y37504128D01*
X19557071Y37507971D01*
X19531478Y37525072D01*
X19504924Y37537454D01*
X19488769Y37553609D01*
X19467692Y37567692D01*
X19453608Y37588770D01*
X19437453Y37604925D01*
X19425069Y37631481D01*
X19407971Y37657071D01*
X19404128Y37676391D01*
X19396658Y37692410D01*
X19388274Y37756091D01*
X19387000Y37762500D01*
X19387000Y38237500D01*
X19388274Y38243908D01*
X19396658Y38307591D01*
X19404128Y38323612D01*
X19407971Y38342929D01*
X19425068Y38368517D01*
X19437453Y38395076D01*
X19453610Y38411234D01*
X19467692Y38432308D01*
X19488766Y38446390D01*
X19504924Y38462547D01*
X19531483Y38474932D01*
X19557071Y38492029D01*
X19576388Y38495872D01*
X19592409Y38503342D01*
X19656092Y38511726D01*
X19662500Y38513000D01*
X20162500Y38513000D01*
X20168909Y38511726D01*
G37*
G36*
X18644542Y41935107D02*
G01*
X18656870Y41926870D01*
X18665107Y41914542D01*
X18668000Y41900000D01*
X18668000Y40100000D01*
X18665107Y40085458D01*
X18656870Y40073130D01*
X18644542Y40064893D01*
X18630000Y40062000D01*
X16830000Y40062000D01*
X16815458Y40064893D01*
X16803130Y40073130D01*
X16794893Y40085458D01*
X16792000Y40100000D01*
X16792000Y41900000D01*
X16794893Y41914542D01*
X16803130Y41926870D01*
X16815458Y41935107D01*
X16830000Y41938000D01*
X18630000Y41938000D01*
X18644542Y41935107D01*
G37*
G36*
X20542287Y41897610D02*
G01*
X20712170Y41827242D01*
X20865061Y41725084D01*
X20995084Y41595061D01*
X21097242Y41442170D01*
X21167610Y41272287D01*
X21203483Y41091940D01*
X21203483Y40908060D01*
X21167610Y40727713D01*
X21097242Y40557830D01*
X20995084Y40404939D01*
X20865061Y40274916D01*
X20712170Y40172758D01*
X20542287Y40102390D01*
X20361940Y40066517D01*
X20178060Y40066517D01*
X19997713Y40102390D01*
X19827830Y40172758D01*
X19674939Y40274916D01*
X19544916Y40404939D01*
X19442758Y40557830D01*
X19372390Y40727713D01*
X19336517Y40908060D01*
X19336517Y41091940D01*
X19372390Y41272287D01*
X19442758Y41442170D01*
X19544916Y41595061D01*
X19674939Y41725084D01*
X19827830Y41827242D01*
X19997713Y41897610D01*
X20178060Y41933483D01*
X20361940Y41933483D01*
X20542287Y41897610D01*
G37*
G36*
X8514542Y49575107D02*
G01*
X8526870Y49566870D01*
X8535107Y49554542D01*
X8538000Y49540000D01*
X8538000Y44460000D01*
X8535107Y44445458D01*
X8526870Y44433130D01*
X8514542Y44424893D01*
X8500000Y44422000D01*
X7000000Y44422000D01*
X6985458Y44424893D01*
X6973130Y44433130D01*
X6964893Y44445458D01*
X6962000Y44460000D01*
X6962000Y49540000D01*
X6964893Y49554542D01*
X6973130Y49566870D01*
X6985458Y49575107D01*
X7000000Y49578000D01*
X8500000Y49578000D01*
X8514542Y49575107D01*
G37*
G36*
X17014542Y49575107D02*
G01*
X17026870Y49566870D01*
X17035107Y49554542D01*
X17038000Y49540000D01*
X17038000Y44460000D01*
X17035107Y44445458D01*
X17026870Y44433130D01*
X17014542Y44424893D01*
X17000000Y44422000D01*
X15500000Y44422000D01*
X15485458Y44424893D01*
X15473130Y44433130D01*
X15464893Y44445458D01*
X15462000Y44460000D01*
X15462000Y49540000D01*
X15464893Y49554542D01*
X15473130Y49566870D01*
X15485458Y49575107D01*
X15500000Y49578000D01*
X17000000Y49578000D01*
X17014542Y49575107D01*
G37*
G36*
X-21381975Y48132951D02*
G01*
X-21371484Y48132951D01*
X-21319824Y48124769D01*
X-21180464Y48106422D01*
X-21146460Y48097311D01*
X-21117616Y48092742D01*
X-21062143Y48074718D01*
X-20973520Y48050971D01*
X-20916978Y48027551D01*
X-20873165Y48013315D01*
X-20832123Y47992403D01*
X-20775574Y47968980D01*
X-20696108Y47923100D01*
X-20644147Y47896625D01*
X-20620526Y47879463D01*
X-20590038Y47861861D01*
X-20478513Y47776285D01*
X-20436204Y47745545D01*
X-20428788Y47738129D01*
X-20420067Y47731437D01*
X-20268564Y47579934D01*
X-20261873Y47571214D01*
X-20254455Y47563796D01*
X-20223712Y47521482D01*
X-20138140Y47409963D01*
X-20120540Y47379478D01*
X-20103375Y47355853D01*
X-20076897Y47303887D01*
X-20031021Y47224427D01*
X-20007601Y47167884D01*
X-19986685Y47126835D01*
X-19972448Y47083017D01*
X-19949030Y47026481D01*
X-19925287Y46937871D01*
X-19907258Y46882384D01*
X-19902689Y46853535D01*
X-19893579Y46819537D01*
X-19875233Y46680185D01*
X-19867049Y46628516D01*
X-19867049Y46618026D01*
X-19865614Y46607126D01*
X-19865614Y46392875D01*
X-19867049Y46381976D01*
X-19867049Y46371484D01*
X-19875234Y46319812D01*
X-19893579Y46180464D01*
X-19902689Y46146469D01*
X-19907258Y46117616D01*
X-19925289Y46062125D01*
X-19949030Y45973520D01*
X-19972446Y45916989D01*
X-19986685Y45873165D01*
X-20007603Y45832113D01*
X-20031021Y45775574D01*
X-20076893Y45696122D01*
X-20103375Y45644147D01*
X-20120542Y45620519D01*
X-20138140Y45590038D01*
X-20223699Y45478538D01*
X-20254455Y45436204D01*
X-20261876Y45428784D01*
X-20268564Y45420067D01*
X-20420067Y45268564D01*
X-20428784Y45261876D01*
X-20436204Y45254455D01*
X-20478538Y45223699D01*
X-20590038Y45138140D01*
X-20620519Y45120542D01*
X-20644147Y45103375D01*
X-20696122Y45076893D01*
X-20775574Y45031021D01*
X-20832113Y45007603D01*
X-20873165Y44986685D01*
X-20916989Y44972446D01*
X-20973520Y44949030D01*
X-21062125Y44925289D01*
X-21117616Y44907258D01*
X-21146469Y44902689D01*
X-21180464Y44893579D01*
X-21319812Y44875234D01*
X-21371484Y44867049D01*
X-21381975Y44867049D01*
X-21392875Y44865614D01*
X-21607125Y44865614D01*
X-21618025Y44867049D01*
X-21628516Y44867049D01*
X-21680188Y44875233D01*
X-21819537Y44893579D01*
X-21853535Y44902689D01*
X-21882384Y44907258D01*
X-21937871Y44925287D01*
X-22026481Y44949030D01*
X-22083017Y44972448D01*
X-22126835Y44986685D01*
X-22167884Y45007601D01*
X-22224427Y45031021D01*
X-22303887Y45076897D01*
X-22355853Y45103375D01*
X-22379478Y45120540D01*
X-22409963Y45138140D01*
X-22521482Y45223712D01*
X-22563796Y45254455D01*
X-22571214Y45261873D01*
X-22579934Y45268564D01*
X-22731437Y45420067D01*
X-22738129Y45428788D01*
X-22745545Y45436204D01*
X-22776285Y45478513D01*
X-22861861Y45590038D01*
X-22879463Y45620526D01*
X-22896625Y45644147D01*
X-22923100Y45696108D01*
X-22968980Y45775574D01*
X-22992403Y45832123D01*
X-23013315Y45873165D01*
X-23027551Y45916978D01*
X-23050971Y45973520D01*
X-23074718Y46062143D01*
X-23092742Y46117616D01*
X-23097311Y46146460D01*
X-23106422Y46180464D01*
X-23124769Y46319824D01*
X-23132951Y46371484D01*
X-23132951Y46381975D01*
X-23134386Y46392875D01*
X-23134386Y46607126D01*
X-23132951Y46618027D01*
X-23132951Y46628516D01*
X-23124770Y46680172D01*
X-23106422Y46819537D01*
X-23097310Y46853544D01*
X-23092742Y46882384D01*
X-23074720Y46937853D01*
X-23050971Y47026481D01*
X-23027549Y47083028D01*
X-23013315Y47126835D01*
X-22992406Y47167874D01*
X-22968980Y47224427D01*
X-22923096Y47303902D01*
X-22896625Y47355853D01*
X-22879466Y47379471D01*
X-22861861Y47409963D01*
X-22776271Y47521507D01*
X-22745545Y47563796D01*
X-22738132Y47571210D01*
X-22731437Y47579934D01*
X-22579934Y47731437D01*
X-22571210Y47738132D01*
X-22563796Y47745545D01*
X-22521507Y47776271D01*
X-22409963Y47861861D01*
X-22379471Y47879466D01*
X-22355853Y47896625D01*
X-22303902Y47923096D01*
X-22224427Y47968980D01*
X-22167874Y47992406D01*
X-22126835Y48013315D01*
X-22083028Y48027549D01*
X-22026481Y48050971D01*
X-21937853Y48074720D01*
X-21882384Y48092742D01*
X-21853544Y48097310D01*
X-21819537Y48106422D01*
X-21680175Y48124770D01*
X-21628516Y48132951D01*
X-21618025Y48132951D01*
X-21607125Y48134386D01*
X-21392875Y48134386D01*
X-21381975Y48132951D01*
G37*
G36*
X21618025Y48132951D02*
G01*
X21628516Y48132951D01*
X21680176Y48124769D01*
X21819536Y48106422D01*
X21853540Y48097311D01*
X21882384Y48092742D01*
X21937857Y48074718D01*
X22026480Y48050971D01*
X22083022Y48027551D01*
X22126835Y48013315D01*
X22167877Y47992403D01*
X22224426Y47968980D01*
X22303892Y47923100D01*
X22355853Y47896625D01*
X22379474Y47879463D01*
X22409962Y47861861D01*
X22521487Y47776285D01*
X22563796Y47745545D01*
X22571212Y47738129D01*
X22579933Y47731437D01*
X22731436Y47579934D01*
X22738127Y47571214D01*
X22745545Y47563796D01*
X22776288Y47521482D01*
X22861860Y47409963D01*
X22879460Y47379478D01*
X22896625Y47355853D01*
X22923103Y47303887D01*
X22968979Y47224427D01*
X22992399Y47167884D01*
X23013315Y47126835D01*
X23027552Y47083017D01*
X23050970Y47026481D01*
X23074713Y46937871D01*
X23092742Y46882384D01*
X23097311Y46853535D01*
X23106421Y46819537D01*
X23124767Y46680185D01*
X23132951Y46628516D01*
X23132951Y46618026D01*
X23134386Y46607126D01*
X23134386Y46392875D01*
X23132951Y46381976D01*
X23132951Y46371484D01*
X23124766Y46319812D01*
X23106421Y46180464D01*
X23097311Y46146469D01*
X23092742Y46117616D01*
X23074711Y46062125D01*
X23050970Y45973520D01*
X23027554Y45916989D01*
X23013315Y45873165D01*
X22992397Y45832113D01*
X22968979Y45775574D01*
X22923107Y45696122D01*
X22896625Y45644147D01*
X22879458Y45620519D01*
X22861860Y45590038D01*
X22776301Y45478538D01*
X22745545Y45436204D01*
X22738124Y45428784D01*
X22731436Y45420067D01*
X22579933Y45268564D01*
X22571216Y45261876D01*
X22563796Y45254455D01*
X22521462Y45223699D01*
X22409962Y45138140D01*
X22379481Y45120542D01*
X22355853Y45103375D01*
X22303878Y45076893D01*
X22224426Y45031021D01*
X22167887Y45007603D01*
X22126835Y44986685D01*
X22083011Y44972446D01*
X22026480Y44949030D01*
X21937875Y44925289D01*
X21882384Y44907258D01*
X21853531Y44902689D01*
X21819536Y44893579D01*
X21680188Y44875234D01*
X21628516Y44867049D01*
X21618025Y44867049D01*
X21607125Y44865614D01*
X21392875Y44865614D01*
X21381975Y44867049D01*
X21371484Y44867049D01*
X21319812Y44875233D01*
X21180463Y44893579D01*
X21146465Y44902689D01*
X21117616Y44907258D01*
X21062129Y44925287D01*
X20973519Y44949030D01*
X20916983Y44972448D01*
X20873165Y44986685D01*
X20832116Y45007601D01*
X20775573Y45031021D01*
X20696113Y45076897D01*
X20644147Y45103375D01*
X20620522Y45120540D01*
X20590037Y45138140D01*
X20478518Y45223712D01*
X20436204Y45254455D01*
X20428786Y45261873D01*
X20420066Y45268564D01*
X20268563Y45420067D01*
X20261871Y45428788D01*
X20254455Y45436204D01*
X20223715Y45478513D01*
X20138139Y45590038D01*
X20120537Y45620526D01*
X20103375Y45644147D01*
X20076900Y45696108D01*
X20031020Y45775574D01*
X20007597Y45832123D01*
X19986685Y45873165D01*
X19972449Y45916978D01*
X19949029Y45973520D01*
X19925282Y46062143D01*
X19907258Y46117616D01*
X19902689Y46146460D01*
X19893578Y46180464D01*
X19875231Y46319824D01*
X19867049Y46371484D01*
X19867049Y46381975D01*
X19865614Y46392875D01*
X19865614Y46607126D01*
X19867049Y46618027D01*
X19867049Y46628516D01*
X19875230Y46680172D01*
X19893578Y46819537D01*
X19902690Y46853544D01*
X19907258Y46882384D01*
X19925280Y46937853D01*
X19949029Y47026481D01*
X19972451Y47083028D01*
X19986685Y47126835D01*
X20007594Y47167874D01*
X20031020Y47224427D01*
X20076904Y47303902D01*
X20103375Y47355853D01*
X20120534Y47379471D01*
X20138139Y47409963D01*
X20223729Y47521507D01*
X20254455Y47563796D01*
X20261868Y47571210D01*
X20268563Y47579934D01*
X20420066Y47731437D01*
X20428790Y47738132D01*
X20436204Y47745545D01*
X20478493Y47776271D01*
X20590037Y47861861D01*
X20620529Y47879466D01*
X20644147Y47896625D01*
X20696098Y47923096D01*
X20775573Y47968980D01*
X20832126Y47992406D01*
X20873165Y48013315D01*
X20916972Y48027549D01*
X20973519Y48050971D01*
X21062147Y48074720D01*
X21117616Y48092742D01*
X21146456Y48097310D01*
X21180463Y48106422D01*
X21319825Y48124770D01*
X21371484Y48132951D01*
X21381975Y48132951D01*
X21392875Y48134386D01*
X21607125Y48134386D01*
X21618025Y48132951D01*
G37*
M02*
