G04 #@! TF.GenerationSoftware,KiCad,Pcbnew,(6.0.9)*
G04 #@! TF.CreationDate,2023-03-26T12:40:35+02:00*
G04 #@! TF.ProjectId,Spoke,53706f6b-652e-46b6-9963-61645f706362,1*
G04 #@! TF.SameCoordinates,PX5f5e100PY5f5e100*
G04 #@! TF.FileFunction,Legend,Bot*
G04 #@! TF.FilePolarity,Positive*
%FSLAX46Y46*%
G04 Gerber Fmt 4.6, Leading zero omitted, Abs format (unit mm)*
G04 Created by KiCad (PCBNEW (6.0.9)) date 2023-03-26 12:40:35*
%MOMM*%
%LPD*%
G01*
G04 APERTURE LIST*
G04 Aperture macros list*
%AMRoundRect*
0 Rectangle with rounded corners*
0 $1 Rounding radius*
0 $2 $3 $4 $5 $6 $7 $8 $9 X,Y pos of 4 corners*
0 Add a 4 corners polygon primitive as box body*
4,1,4,$2,$3,$4,$5,$6,$7,$8,$9,$2,$3,0*
0 Add four circle primitives for the rounded corners*
1,1,$1+$1,$2,$3*
1,1,$1+$1,$4,$5*
1,1,$1+$1,$6,$7*
1,1,$1+$1,$8,$9*
0 Add four rect primitives between the rounded corners*
20,1,$1+$1,$2,$3,$4,$5,0*
20,1,$1+$1,$4,$5,$6,$7,0*
20,1,$1+$1,$6,$7,$8,$9,0*
20,1,$1+$1,$8,$9,$2,$3,0*%
G04 Aperture macros list end*
%ADD10C,0.400000*%
%ADD11C,0.150000*%
%ADD12C,0.600000*%
%ADD13C,0.180000*%
%ADD14C,0.200000*%
%ADD15C,0.120000*%
%ADD16RoundRect,0.375000X-0.375000X-0.375000X0.375000X-0.375000X0.375000X0.375000X-0.375000X0.375000X0*%
%ADD17C,1.500000*%
%ADD18R,1.500000X1.300000*%
%ADD19R,0.900000X2.000000*%
%ADD20C,2.000000*%
%ADD21R,1.300000X1.500000*%
%ADD22R,0.600000X1.100000*%
%ADD23R,2.200000X0.600000*%
%ADD24R,2.290000X3.000000*%
%ADD25R,0.450000X1.380000*%
%ADD26R,1.425000X1.550000*%
%ADD27R,2.200000X1.800000*%
%ADD28R,1.000000X1.400000*%
%ADD29C,1.750000*%
%ADD30C,2.500000*%
%ADD31C,1.800000*%
%ADD32RoundRect,0.150000X0.150000X-0.325000X0.150000X0.325000X-0.150000X0.325000X-0.150000X-0.325000X0*%
%ADD33RoundRect,0.150000X0.325000X-0.150000X0.325000X0.150000X-0.325000X0.150000X-0.325000X-0.150000X0*%
%ADD34RoundRect,0.450000X0.450000X-0.450000X0.450000X0.450000X-0.450000X0.450000X-0.450000X-0.450000X0*%
%ADD35O,2.400000X4.000000*%
%ADD36RoundRect,0.450000X-0.450000X0.450000X-0.450000X-0.450000X0.450000X-0.450000X0.450000X0.450000X0*%
%ADD37O,2.600000X4.000000*%
%ADD38R,2.000000X6.000000*%
%ADD39R,1.200000X0.300000*%
%ADD40R,0.300000X1.200000*%
%ADD41R,1.700000X1.800000*%
G04 APERTURE END LIST*
D10*
X-13000000Y-42750000D02*
X-14500000Y-42750000D01*
X-10500000Y-42750000D02*
X-12000000Y-42750000D01*
D11*
X11750000Y12500000D02*
X13250000Y12500000D01*
X13250000Y12500000D02*
X13250000Y17500000D01*
X13250000Y17500000D02*
X11750000Y17500000D01*
X11750000Y17500000D02*
X11750000Y12500000D01*
X12500000Y-14500000D02*
X15000000Y-14500000D01*
X15000000Y-14500000D02*
X15000000Y-4500000D01*
X15000000Y-4500000D02*
X12500000Y-4500000D01*
X12500000Y-4500000D02*
X12500000Y-14500000D01*
D10*
X-13750000Y-42000000D02*
X-13750000Y-43500000D01*
D12*
X-6162411Y40285715D02*
X-6573125Y40142858D01*
X-7287411Y40142858D01*
X-7590983Y40285715D01*
X-7751697Y40428572D01*
X-7930268Y40714286D01*
X-7965983Y41000000D01*
X-7858840Y41285715D01*
X-7733840Y41428572D01*
X-7465983Y41571429D01*
X-6912411Y41714286D01*
X-6644554Y41857143D01*
X-6519554Y42000000D01*
X-6412411Y42285715D01*
X-6448125Y42571429D01*
X-6626697Y42857143D01*
X-6787411Y43000000D01*
X-7090983Y43142858D01*
X-7805268Y43142858D01*
X-8215983Y43000000D01*
X-9394554Y42142858D02*
X-9019554Y39142858D01*
X-9376697Y42000000D02*
X-9680268Y42142858D01*
X-10251697Y42142858D01*
X-10519554Y42000000D01*
X-10644554Y41857143D01*
X-10751697Y41571429D01*
X-10644554Y40714286D01*
X-10465983Y40428572D01*
X-10305268Y40285715D01*
X-10001697Y40142858D01*
X-9430268Y40142858D01*
X-9162411Y40285715D01*
X-12287411Y40142858D02*
X-12019554Y40285715D01*
X-11894554Y40428572D01*
X-11787411Y40714286D01*
X-11894554Y41571429D01*
X-12073125Y41857143D01*
X-12233840Y42000000D01*
X-12537411Y42142858D01*
X-12965983Y42142858D01*
X-13233840Y42000000D01*
X-13358840Y41857143D01*
X-13465983Y41571429D01*
X-13358840Y40714286D01*
X-13180268Y40428572D01*
X-13019554Y40285715D01*
X-12715983Y40142858D01*
X-12287411Y40142858D01*
X-14573125Y40142858D02*
X-14948125Y43142858D01*
X-15001697Y41285715D02*
X-15715983Y40142858D01*
X-15965983Y42142858D02*
X-14680268Y41000000D01*
X-18162411Y40285715D02*
X-17858840Y40142858D01*
X-17287411Y40142858D01*
X-17019554Y40285715D01*
X-16912411Y40571429D01*
X-17055268Y41714286D01*
X-17233840Y42000000D01*
X-17537411Y42142858D01*
X-18108840Y42142858D01*
X-18376697Y42000000D01*
X-18483840Y41714286D01*
X-18448125Y41428572D01*
X-16983840Y41142858D01*
D13*
X-13228572Y35424500D02*
X-13142858Y35467358D01*
X-13014286Y35467358D01*
X-12885715Y35424500D01*
X-12800000Y35338786D01*
X-12757143Y35253072D01*
X-12714286Y35081643D01*
X-12714286Y34953072D01*
X-12757143Y34781643D01*
X-12800000Y34695929D01*
X-12885715Y34610215D01*
X-13014286Y34567358D01*
X-13100000Y34567358D01*
X-13228572Y34610215D01*
X-13271429Y34653072D01*
X-13271429Y34953072D01*
X-13100000Y34953072D01*
X-13657143Y34567358D02*
X-13657143Y35167358D01*
X-13657143Y35467358D02*
X-13614286Y35424500D01*
X-13657143Y35381643D01*
X-13700000Y35424500D01*
X-13657143Y35467358D01*
X-13657143Y35381643D01*
X-13957143Y35167358D02*
X-14300000Y35167358D01*
X-14085715Y35467358D02*
X-14085715Y34695929D01*
X-14128572Y34610215D01*
X-14214286Y34567358D01*
X-14300000Y34567358D01*
X-14600000Y34567358D02*
X-14600000Y35467358D01*
X-14600000Y35038786D02*
X-15114286Y35038786D01*
X-15114286Y34567358D02*
X-15114286Y35467358D01*
X-15928572Y35167358D02*
X-15928572Y34567358D01*
X-15542858Y35167358D02*
X-15542858Y34695929D01*
X-15585715Y34610215D01*
X-15671429Y34567358D01*
X-15800000Y34567358D01*
X-15885715Y34610215D01*
X-15928572Y34653072D01*
X-16357143Y34567358D02*
X-16357143Y35467358D01*
X-16357143Y35124500D02*
X-16442858Y35167358D01*
X-16614286Y35167358D01*
X-16700000Y35124500D01*
X-16742858Y35081643D01*
X-16785715Y34995929D01*
X-16785715Y34738786D01*
X-16742858Y34653072D01*
X-16700000Y34610215D01*
X-16614286Y34567358D01*
X-16442858Y34567358D01*
X-16357143Y34610215D01*
X-10892858Y33589786D02*
X-10592858Y33589786D01*
X-10592858Y33118358D02*
X-10592858Y34018358D01*
X-11021429Y34018358D01*
X-11707143Y33161215D02*
X-11621429Y33118358D01*
X-11450000Y33118358D01*
X-11364286Y33161215D01*
X-11321429Y33246929D01*
X-11321429Y33589786D01*
X-11364286Y33675500D01*
X-11450000Y33718358D01*
X-11621429Y33718358D01*
X-11707143Y33675500D01*
X-11750000Y33589786D01*
X-11750000Y33504072D01*
X-11321429Y33418358D01*
X-12135715Y33118358D02*
X-12135715Y33718358D01*
X-12135715Y33546929D02*
X-12178572Y33632643D01*
X-12221429Y33675500D01*
X-12307143Y33718358D01*
X-12392858Y33718358D01*
X-13078572Y33718358D02*
X-13078572Y33118358D01*
X-12692858Y33718358D02*
X-12692858Y33246929D01*
X-12735715Y33161215D01*
X-12821429Y33118358D01*
X-12950000Y33118358D01*
X-13035715Y33161215D01*
X-13078572Y33204072D01*
X-13421429Y33718358D02*
X-13892858Y33718358D01*
X-13421429Y33118358D01*
X-13892858Y33118358D01*
X-14107143Y34018358D02*
X-14621429Y34018358D01*
X-14364286Y33118358D02*
X-14364286Y34018358D01*
X-15050000Y33118358D02*
X-14964286Y33161215D01*
X-14921429Y33204072D01*
X-14878572Y33289786D01*
X-14878572Y33546929D01*
X-14921429Y33632643D01*
X-14964286Y33675500D01*
X-15050000Y33718358D01*
X-15178572Y33718358D01*
X-15264286Y33675500D01*
X-15307143Y33632643D01*
X-15350000Y33546929D01*
X-15350000Y33289786D01*
X-15307143Y33204072D01*
X-15264286Y33161215D01*
X-15178572Y33118358D01*
X-15050000Y33118358D01*
X-15735715Y33718358D02*
X-15735715Y32818358D01*
X-15735715Y33675500D02*
X-15821429Y33718358D01*
X-15992858Y33718358D01*
X-16078572Y33675500D01*
X-16121429Y33632643D01*
X-16164286Y33546929D01*
X-16164286Y33289786D01*
X-16121429Y33204072D01*
X-16078572Y33161215D01*
X-15992858Y33118358D01*
X-15821429Y33118358D01*
X-15735715Y33161215D01*
X-16935715Y33118358D02*
X-16935715Y33589786D01*
X-16892858Y33675500D01*
X-16807143Y33718358D01*
X-16635715Y33718358D01*
X-16550000Y33675500D01*
X-16935715Y33161215D02*
X-16850000Y33118358D01*
X-16635715Y33118358D01*
X-16550000Y33161215D01*
X-16507143Y33246929D01*
X-16507143Y33332643D01*
X-16550000Y33418358D01*
X-16635715Y33461215D01*
X-16850000Y33461215D01*
X-16935715Y33504072D01*
X-17492858Y33118358D02*
X-17407143Y33161215D01*
X-17364286Y33246929D01*
X-17364286Y34018358D01*
X-17964286Y33118358D02*
X-17878572Y33161215D01*
X-17835715Y33204072D01*
X-17792858Y33289786D01*
X-17792858Y33546929D01*
X-17835715Y33632643D01*
X-17878572Y33675500D01*
X-17964286Y33718358D01*
X-18092858Y33718358D01*
X-18178572Y33675500D01*
X-18221429Y33632643D01*
X-18264286Y33546929D01*
X-18264286Y33289786D01*
X-18221429Y33204072D01*
X-18178572Y33161215D01*
X-18092858Y33118358D01*
X-17964286Y33118358D01*
X-18564286Y33718358D02*
X-18778572Y33118358D01*
X-18992858Y33718358D01*
D11*
X13488095Y-4975000D02*
X13583333Y-4927380D01*
X13726190Y-4927380D01*
X13869047Y-4975000D01*
X13964285Y-5070238D01*
X14011904Y-5165476D01*
X14059523Y-5355952D01*
X14059523Y-5498809D01*
X14011904Y-5689285D01*
X13964285Y-5784523D01*
X13869047Y-5879761D01*
X13726190Y-5927380D01*
X13630952Y-5927380D01*
X13488095Y-5879761D01*
X13440476Y-5832142D01*
X13440476Y-5498809D01*
X13630952Y-5498809D01*
X13916666Y-7537380D02*
X14250000Y-7061190D01*
X14488095Y-7537380D02*
X14488095Y-6537380D01*
X14107142Y-6537380D01*
X14011904Y-6585000D01*
X13964285Y-6632619D01*
X13916666Y-6727857D01*
X13916666Y-6870714D01*
X13964285Y-6965952D01*
X14011904Y-7013571D01*
X14107142Y-7061190D01*
X14488095Y-7061190D01*
X13535714Y-7489761D02*
X13392857Y-7537380D01*
X13154761Y-7537380D01*
X13059523Y-7489761D01*
X13011904Y-7442142D01*
X12964285Y-7346904D01*
X12964285Y-7251666D01*
X13011904Y-7156428D01*
X13059523Y-7108809D01*
X13154761Y-7061190D01*
X13345238Y-7013571D01*
X13440476Y-6965952D01*
X13488095Y-6918333D01*
X13535714Y-6823095D01*
X13535714Y-6727857D01*
X13488095Y-6632619D01*
X13440476Y-6585000D01*
X13345238Y-6537380D01*
X13107142Y-6537380D01*
X12964285Y-6585000D01*
X14273809Y-9147380D02*
X14273809Y-8147380D01*
X13607142Y-8147380D02*
X13416666Y-8147380D01*
X13321428Y-8195000D01*
X13226190Y-8290238D01*
X13178571Y-8480714D01*
X13178571Y-8814047D01*
X13226190Y-9004523D01*
X13321428Y-9099761D01*
X13416666Y-9147380D01*
X13607142Y-9147380D01*
X13702380Y-9099761D01*
X13797619Y-9004523D01*
X13845238Y-8814047D01*
X13845238Y-8480714D01*
X13797619Y-8290238D01*
X13702380Y-8195000D01*
X13607142Y-8147380D01*
X13488095Y-9805000D02*
X13583333Y-9757380D01*
X13726190Y-9757380D01*
X13869047Y-9805000D01*
X13964285Y-9900238D01*
X14011904Y-9995476D01*
X14059523Y-10185952D01*
X14059523Y-10328809D01*
X14011904Y-10519285D01*
X13964285Y-10614523D01*
X13869047Y-10709761D01*
X13726190Y-10757380D01*
X13630952Y-10757380D01*
X13488095Y-10709761D01*
X13440476Y-10662142D01*
X13440476Y-10328809D01*
X13630952Y-10328809D01*
X13940476Y-12272142D02*
X13988095Y-12319761D01*
X14130952Y-12367380D01*
X14226190Y-12367380D01*
X14369047Y-12319761D01*
X14464285Y-12224523D01*
X14511904Y-12129285D01*
X14559523Y-11938809D01*
X14559523Y-11795952D01*
X14511904Y-11605476D01*
X14464285Y-11510238D01*
X14369047Y-11415000D01*
X14226190Y-11367380D01*
X14130952Y-11367380D01*
X13988095Y-11415000D01*
X13940476Y-11462619D01*
X13511904Y-12367380D02*
X13511904Y-11367380D01*
X12940476Y-12367380D02*
X13369047Y-11795952D01*
X12940476Y-11367380D02*
X13511904Y-11938809D01*
X14083333Y-12977380D02*
X13750000Y-13977380D01*
X13416666Y-12977380D01*
X12785714Y17157620D02*
X12214285Y17157620D01*
X12500000Y16157620D02*
X12500000Y17157620D01*
X12190476Y14547620D02*
X12523809Y15023810D01*
X12761904Y14547620D02*
X12761904Y15547620D01*
X12380952Y15547620D01*
X12285714Y15500000D01*
X12238095Y15452381D01*
X12190476Y15357143D01*
X12190476Y15214286D01*
X12238095Y15119048D01*
X12285714Y15071429D01*
X12380952Y15023810D01*
X12761904Y15023810D01*
X12238095Y13890000D02*
X12333333Y13937620D01*
X12476190Y13937620D01*
X12619047Y13890000D01*
X12714285Y13794762D01*
X12761904Y13699524D01*
X12809523Y13509048D01*
X12809523Y13366191D01*
X12761904Y13175715D01*
X12714285Y13080477D01*
X12619047Y12985239D01*
X12476190Y12937620D01*
X12380952Y12937620D01*
X12238095Y12985239D01*
X12190476Y13032858D01*
X12190476Y13366191D01*
X12380952Y13366191D01*
D14*
X-15785715Y37707143D02*
X-15452381Y38278572D01*
X-15214286Y37707143D02*
X-15214286Y38907143D01*
X-15595239Y38907143D01*
X-15690477Y38850000D01*
X-15738096Y38792858D01*
X-15785715Y38678572D01*
X-15785715Y38507143D01*
X-15738096Y38392858D01*
X-15690477Y38335715D01*
X-15595239Y38278572D01*
X-15214286Y38278572D01*
X-16595239Y37764286D02*
X-16500000Y37707143D01*
X-16309524Y37707143D01*
X-16214286Y37764286D01*
X-16166667Y37878572D01*
X-16166667Y38335715D01*
X-16214286Y38450000D01*
X-16309524Y38507143D01*
X-16500000Y38507143D01*
X-16595239Y38450000D01*
X-16642858Y38335715D01*
X-16642858Y38221429D01*
X-16166667Y38107143D01*
X-16976191Y38507143D02*
X-17214286Y37707143D01*
X-17452381Y38507143D01*
X-17833334Y37821429D02*
X-17880953Y37764286D01*
X-17833334Y37707143D01*
X-17785715Y37764286D01*
X-17833334Y37821429D01*
X-17833334Y37707143D01*
X-18833334Y37707143D02*
X-18261905Y37707143D01*
X-18547620Y37707143D02*
X-18547620Y38907143D01*
X-18452381Y38735715D01*
X-18357143Y38621429D01*
X-18261905Y38564286D01*
G04 #@! TO.C,R14*
X-4957143Y-22107142D02*
X-5528572Y-21773809D01*
X-4957143Y-21535714D02*
X-6157143Y-21535714D01*
X-6157143Y-21916666D01*
X-6100000Y-22011904D01*
X-6042858Y-22059523D01*
X-5928572Y-22107142D01*
X-5757143Y-22107142D01*
X-5642858Y-22059523D01*
X-5585715Y-22011904D01*
X-5528572Y-21916666D01*
X-5528572Y-21535714D01*
X-4957143Y-23059523D02*
X-4957143Y-22488095D01*
X-4957143Y-22773809D02*
X-6157143Y-22773809D01*
X-5985715Y-22678571D01*
X-5871429Y-22583333D01*
X-5814286Y-22488095D01*
X-5757143Y-23916666D02*
X-4957143Y-23916666D01*
X-6214286Y-23678571D02*
X-5357143Y-23440476D01*
X-5357143Y-24059523D01*
G04 #@! TO.C,U6*
X-10738096Y24407143D02*
X-10738096Y23435715D01*
X-10785715Y23321429D01*
X-10833334Y23264286D01*
X-10928572Y23207143D01*
X-11119048Y23207143D01*
X-11214286Y23264286D01*
X-11261905Y23321429D01*
X-11309524Y23435715D01*
X-11309524Y24407143D01*
X-12214286Y24407143D02*
X-12023810Y24407143D01*
X-11928572Y24350000D01*
X-11880953Y24292858D01*
X-11785715Y24121429D01*
X-11738096Y23892858D01*
X-11738096Y23435715D01*
X-11785715Y23321429D01*
X-11833334Y23264286D01*
X-11928572Y23207143D01*
X-12119048Y23207143D01*
X-12214286Y23264286D01*
X-12261905Y23321429D01*
X-12309524Y23435715D01*
X-12309524Y23721429D01*
X-12261905Y23835715D01*
X-12214286Y23892858D01*
X-12119048Y23950000D01*
X-11928572Y23950000D01*
X-11833334Y23892858D01*
X-11785715Y23835715D01*
X-11738096Y23721429D01*
G04 #@! TO.C,X11*
X5035714Y-28092857D02*
X4369047Y-29292857D01*
X4369047Y-28092857D02*
X5035714Y-29292857D01*
X3464285Y-29292857D02*
X4035714Y-29292857D01*
X3750000Y-29292857D02*
X3750000Y-28092857D01*
X3845238Y-28264285D01*
X3940476Y-28378571D01*
X4035714Y-28435714D01*
X2511904Y-29292857D02*
X3083333Y-29292857D01*
X2797619Y-29292857D02*
X2797619Y-28092857D01*
X2892857Y-28264285D01*
X2988095Y-28378571D01*
X3083333Y-28435714D01*
G04 #@! TO.C,C17*
X-2107143Y19571429D02*
X-2059524Y19514286D01*
X-1916667Y19457143D01*
X-1821429Y19457143D01*
X-1678572Y19514286D01*
X-1583334Y19628572D01*
X-1535715Y19742858D01*
X-1488096Y19971429D01*
X-1488096Y20142858D01*
X-1535715Y20371429D01*
X-1583334Y20485715D01*
X-1678572Y20600000D01*
X-1821429Y20657143D01*
X-1916667Y20657143D01*
X-2059524Y20600000D01*
X-2107143Y20542858D01*
X-3059524Y19457143D02*
X-2488096Y19457143D01*
X-2773810Y19457143D02*
X-2773810Y20657143D01*
X-2678572Y20485715D01*
X-2583334Y20371429D01*
X-2488096Y20314286D01*
X-3392858Y20657143D02*
X-4059524Y20657143D01*
X-3630953Y19457143D01*
G04 #@! TO.C,U1*
X-11157143Y-18238095D02*
X-10185715Y-18238095D01*
X-10071429Y-18285714D01*
X-10014286Y-18333333D01*
X-9957143Y-18428571D01*
X-9957143Y-18619047D01*
X-10014286Y-18714285D01*
X-10071429Y-18761904D01*
X-10185715Y-18809523D01*
X-11157143Y-18809523D01*
X-9957143Y-19809523D02*
X-9957143Y-19238095D01*
X-9957143Y-19523809D02*
X-11157143Y-19523809D01*
X-10985715Y-19428571D01*
X-10871429Y-19333333D01*
X-10814286Y-19238095D01*
G04 #@! TO.C,R7*
X2292857Y-833333D02*
X1721428Y-500000D01*
X2292857Y-261904D02*
X1092857Y-261904D01*
X1092857Y-642857D01*
X1150000Y-738095D01*
X1207142Y-785714D01*
X1321428Y-833333D01*
X1492857Y-833333D01*
X1607142Y-785714D01*
X1664285Y-738095D01*
X1721428Y-642857D01*
X1721428Y-261904D01*
X1092857Y-1166666D02*
X1092857Y-1833333D01*
X2292857Y-1404761D01*
G04 #@! TO.C,U5*
X-8238096Y-29842857D02*
X-8238096Y-30814285D01*
X-8285715Y-30928571D01*
X-8333334Y-30985714D01*
X-8428572Y-31042857D01*
X-8619048Y-31042857D01*
X-8714286Y-30985714D01*
X-8761905Y-30928571D01*
X-8809524Y-30814285D01*
X-8809524Y-29842857D01*
X-9761905Y-29842857D02*
X-9285715Y-29842857D01*
X-9238096Y-30414285D01*
X-9285715Y-30357142D01*
X-9380953Y-30300000D01*
X-9619048Y-30300000D01*
X-9714286Y-30357142D01*
X-9761905Y-30414285D01*
X-9809524Y-30528571D01*
X-9809524Y-30814285D01*
X-9761905Y-30928571D01*
X-9714286Y-30985714D01*
X-9619048Y-31042857D01*
X-9380953Y-31042857D01*
X-9285715Y-30985714D01*
X-9238096Y-30928571D01*
G04 #@! TO.C,C9*
X-17571429Y17666667D02*
X-17514286Y17714286D01*
X-17457143Y17857143D01*
X-17457143Y17952381D01*
X-17514286Y18095239D01*
X-17628572Y18190477D01*
X-17742858Y18238096D01*
X-17971429Y18285715D01*
X-18142858Y18285715D01*
X-18371429Y18238096D01*
X-18485715Y18190477D01*
X-18600000Y18095239D01*
X-18657143Y17952381D01*
X-18657143Y17857143D01*
X-18600000Y17714286D01*
X-18542858Y17666667D01*
X-17457143Y17190477D02*
X-17457143Y17000000D01*
X-17514286Y16904762D01*
X-17571429Y16857143D01*
X-17742858Y16761905D01*
X-17971429Y16714286D01*
X-18428572Y16714286D01*
X-18542858Y16761905D01*
X-18600000Y16809524D01*
X-18657143Y16904762D01*
X-18657143Y17095239D01*
X-18600000Y17190477D01*
X-18542858Y17238096D01*
X-18428572Y17285715D01*
X-18142858Y17285715D01*
X-18028572Y17238096D01*
X-17971429Y17190477D01*
X-17914286Y17095239D01*
X-17914286Y16904762D01*
X-17971429Y16809524D01*
X-18028572Y16761905D01*
X-18142858Y16714286D01*
G04 #@! TO.C,X7*
X4309523Y-38342857D02*
X3642857Y-39542857D01*
X3642857Y-38342857D02*
X4309523Y-39542857D01*
X3357142Y-38342857D02*
X2690476Y-38342857D01*
X3119047Y-39542857D01*
G04 #@! TO.C,R8*
X-833334Y-30542857D02*
X-500000Y-29971428D01*
X-261905Y-30542857D02*
X-261905Y-29342857D01*
X-642858Y-29342857D01*
X-738096Y-29400000D01*
X-785715Y-29457142D01*
X-833334Y-29571428D01*
X-833334Y-29742857D01*
X-785715Y-29857142D01*
X-738096Y-29914285D01*
X-642858Y-29971428D01*
X-261905Y-29971428D01*
X-1404762Y-29857142D02*
X-1309524Y-29800000D01*
X-1261905Y-29742857D01*
X-1214286Y-29628571D01*
X-1214286Y-29571428D01*
X-1261905Y-29457142D01*
X-1309524Y-29400000D01*
X-1404762Y-29342857D01*
X-1595239Y-29342857D01*
X-1690477Y-29400000D01*
X-1738096Y-29457142D01*
X-1785715Y-29571428D01*
X-1785715Y-29628571D01*
X-1738096Y-29742857D01*
X-1690477Y-29800000D01*
X-1595239Y-29857142D01*
X-1404762Y-29857142D01*
X-1309524Y-29914285D01*
X-1261905Y-29971428D01*
X-1214286Y-30085714D01*
X-1214286Y-30314285D01*
X-1261905Y-30428571D01*
X-1309524Y-30485714D01*
X-1404762Y-30542857D01*
X-1595239Y-30542857D01*
X-1690477Y-30485714D01*
X-1738096Y-30428571D01*
X-1785715Y-30314285D01*
X-1785715Y-30085714D01*
X-1738096Y-29971428D01*
X-1690477Y-29914285D01*
X-1595239Y-29857142D01*
G04 #@! TO.C,C12*
X-357143Y-38678571D02*
X-309524Y-38735714D01*
X-166667Y-38792857D01*
X-71429Y-38792857D01*
X71428Y-38735714D01*
X166666Y-38621428D01*
X214285Y-38507142D01*
X261904Y-38278571D01*
X261904Y-38107142D01*
X214285Y-37878571D01*
X166666Y-37764285D01*
X71428Y-37650000D01*
X-71429Y-37592857D01*
X-166667Y-37592857D01*
X-309524Y-37650000D01*
X-357143Y-37707142D01*
X-1309524Y-38792857D02*
X-738096Y-38792857D01*
X-1023810Y-38792857D02*
X-1023810Y-37592857D01*
X-928572Y-37764285D01*
X-833334Y-37878571D01*
X-738096Y-37935714D01*
X-1690477Y-37707142D02*
X-1738096Y-37650000D01*
X-1833334Y-37592857D01*
X-2071429Y-37592857D01*
X-2166667Y-37650000D01*
X-2214286Y-37707142D01*
X-2261905Y-37821428D01*
X-2261905Y-37935714D01*
X-2214286Y-38107142D01*
X-1642858Y-38792857D01*
X-2261905Y-38792857D01*
G04 #@! TO.C,X10*
X9285714Y-31342857D02*
X8619047Y-32542857D01*
X8619047Y-31342857D02*
X9285714Y-32542857D01*
X7714285Y-32542857D02*
X8285714Y-32542857D01*
X8000000Y-32542857D02*
X8000000Y-31342857D01*
X8095238Y-31514285D01*
X8190476Y-31628571D01*
X8285714Y-31685714D01*
X7095238Y-31342857D02*
X7000000Y-31342857D01*
X6904761Y-31400000D01*
X6857142Y-31457142D01*
X6809523Y-31571428D01*
X6761904Y-31800000D01*
X6761904Y-32085714D01*
X6809523Y-32314285D01*
X6857142Y-32428571D01*
X6904761Y-32485714D01*
X7000000Y-32542857D01*
X7095238Y-32542857D01*
X7190476Y-32485714D01*
X7238095Y-32428571D01*
X7285714Y-32314285D01*
X7333333Y-32085714D01*
X7333333Y-31800000D01*
X7285714Y-31571428D01*
X7238095Y-31457142D01*
X7190476Y-31400000D01*
X7095238Y-31342857D01*
G04 #@! TO.C,C6*
X-9583334Y-13004771D02*
X-9535715Y-13061914D01*
X-9392858Y-13119057D01*
X-9297620Y-13119057D01*
X-9154762Y-13061914D01*
X-9059524Y-12947628D01*
X-9011905Y-12833342D01*
X-8964286Y-12604771D01*
X-8964286Y-12433342D01*
X-9011905Y-12204771D01*
X-9059524Y-12090485D01*
X-9154762Y-11976200D01*
X-9297620Y-11919057D01*
X-9392858Y-11919057D01*
X-9535715Y-11976200D01*
X-9583334Y-12033342D01*
X-10440477Y-11919057D02*
X-10250000Y-11919057D01*
X-10154762Y-11976200D01*
X-10107143Y-12033342D01*
X-10011905Y-12204771D01*
X-9964286Y-12433342D01*
X-9964286Y-12890485D01*
X-10011905Y-13004771D01*
X-10059524Y-13061914D01*
X-10154762Y-13119057D01*
X-10345239Y-13119057D01*
X-10440477Y-13061914D01*
X-10488096Y-13004771D01*
X-10535715Y-12890485D01*
X-10535715Y-12604771D01*
X-10488096Y-12490485D01*
X-10440477Y-12433342D01*
X-10345239Y-12376200D01*
X-10154762Y-12376200D01*
X-10059524Y-12433342D01*
X-10011905Y-12490485D01*
X-9964286Y-12604771D01*
G04 #@! TO.C,R1*
X-16083334Y-28542857D02*
X-15750000Y-27971428D01*
X-15511905Y-28542857D02*
X-15511905Y-27342857D01*
X-15892858Y-27342857D01*
X-15988096Y-27400000D01*
X-16035715Y-27457142D01*
X-16083334Y-27571428D01*
X-16083334Y-27742857D01*
X-16035715Y-27857142D01*
X-15988096Y-27914285D01*
X-15892858Y-27971428D01*
X-15511905Y-27971428D01*
X-17035715Y-28542857D02*
X-16464286Y-28542857D01*
X-16750000Y-28542857D02*
X-16750000Y-27342857D01*
X-16654762Y-27514285D01*
X-16559524Y-27628571D01*
X-16464286Y-27685714D01*
G04 #@! TO.C,R5*
X-833334Y-13542857D02*
X-500000Y-12971428D01*
X-261905Y-13542857D02*
X-261905Y-12342857D01*
X-642858Y-12342857D01*
X-738096Y-12400000D01*
X-785715Y-12457142D01*
X-833334Y-12571428D01*
X-833334Y-12742857D01*
X-785715Y-12857142D01*
X-738096Y-12914285D01*
X-642858Y-12971428D01*
X-261905Y-12971428D01*
X-1738096Y-12342857D02*
X-1261905Y-12342857D01*
X-1214286Y-12914285D01*
X-1261905Y-12857142D01*
X-1357143Y-12800000D01*
X-1595239Y-12800000D01*
X-1690477Y-12857142D01*
X-1738096Y-12914285D01*
X-1785715Y-13028571D01*
X-1785715Y-13314285D01*
X-1738096Y-13428571D01*
X-1690477Y-13485714D01*
X-1595239Y-13542857D01*
X-1357143Y-13542857D01*
X-1261905Y-13485714D01*
X-1214286Y-13428571D01*
G04 #@! TO.C,Q1*
X-16154762Y-24657142D02*
X-16059524Y-24600000D01*
X-15964286Y-24485714D01*
X-15821429Y-24314285D01*
X-15726191Y-24257142D01*
X-15630953Y-24257142D01*
X-15678572Y-24542857D02*
X-15583334Y-24485714D01*
X-15488096Y-24371428D01*
X-15440477Y-24142857D01*
X-15440477Y-23742857D01*
X-15488096Y-23514285D01*
X-15583334Y-23400000D01*
X-15678572Y-23342857D01*
X-15869048Y-23342857D01*
X-15964286Y-23400000D01*
X-16059524Y-23514285D01*
X-16107143Y-23742857D01*
X-16107143Y-24142857D01*
X-16059524Y-24371428D01*
X-15964286Y-24485714D01*
X-15869048Y-24542857D01*
X-15678572Y-24542857D01*
X-17059524Y-24542857D02*
X-16488096Y-24542857D01*
X-16773810Y-24542857D02*
X-16773810Y-23342857D01*
X-16678572Y-23514285D01*
X-16583334Y-23628571D01*
X-16488096Y-23685714D01*
G04 #@! TO.C,SW3*
X18333333Y12514286D02*
X18190476Y12457143D01*
X17952380Y12457143D01*
X17857142Y12514286D01*
X17809523Y12571429D01*
X17761904Y12685715D01*
X17761904Y12800000D01*
X17809523Y12914286D01*
X17857142Y12971429D01*
X17952380Y13028572D01*
X18142857Y13085715D01*
X18238095Y13142858D01*
X18285714Y13200000D01*
X18333333Y13314286D01*
X18333333Y13428572D01*
X18285714Y13542858D01*
X18238095Y13600000D01*
X18142857Y13657143D01*
X17904761Y13657143D01*
X17761904Y13600000D01*
X17428571Y13657143D02*
X17190476Y12457143D01*
X17000000Y13314286D01*
X16809523Y12457143D01*
X16571428Y13657143D01*
X16285714Y13657143D02*
X15666666Y13657143D01*
X16000000Y13200000D01*
X15857142Y13200000D01*
X15761904Y13142858D01*
X15714285Y13085715D01*
X15666666Y12971429D01*
X15666666Y12685715D01*
X15714285Y12571429D01*
X15761904Y12514286D01*
X15857142Y12457143D01*
X16142857Y12457143D01*
X16238095Y12514286D01*
X16285714Y12571429D01*
G04 #@! TO.C,R4*
X7792857Y17166667D02*
X7221428Y17500000D01*
X7792857Y17738096D02*
X6592857Y17738096D01*
X6592857Y17357143D01*
X6650000Y17261905D01*
X6707142Y17214286D01*
X6821428Y17166667D01*
X6992857Y17166667D01*
X7107142Y17214286D01*
X7164285Y17261905D01*
X7221428Y17357143D01*
X7221428Y17738096D01*
X6992857Y16309524D02*
X7792857Y16309524D01*
X6535714Y16547620D02*
X7392857Y16785715D01*
X7392857Y16166667D01*
G04 #@! TO.C,LS1*
X6892857Y-43042857D02*
X7369047Y-43042857D01*
X7369047Y-41842857D01*
X6607142Y-42985714D02*
X6464285Y-43042857D01*
X6226190Y-43042857D01*
X6130952Y-42985714D01*
X6083333Y-42928571D01*
X6035714Y-42814285D01*
X6035714Y-42700000D01*
X6083333Y-42585714D01*
X6130952Y-42528571D01*
X6226190Y-42471428D01*
X6416666Y-42414285D01*
X6511904Y-42357142D01*
X6559523Y-42300000D01*
X6607142Y-42185714D01*
X6607142Y-42071428D01*
X6559523Y-41957142D01*
X6511904Y-41900000D01*
X6416666Y-41842857D01*
X6178571Y-41842857D01*
X6035714Y-41900000D01*
X5083333Y-43042857D02*
X5654761Y-43042857D01*
X5369047Y-43042857D02*
X5369047Y-41842857D01*
X5464285Y-42014285D01*
X5559523Y-42128571D01*
X5654761Y-42185714D01*
G04 #@! TO.C,C14*
X17428571Y-27607142D02*
X17485714Y-27559523D01*
X17542857Y-27416666D01*
X17542857Y-27321428D01*
X17485714Y-27178571D01*
X17371428Y-27083333D01*
X17257142Y-27035714D01*
X17028571Y-26988095D01*
X16857142Y-26988095D01*
X16628571Y-27035714D01*
X16514285Y-27083333D01*
X16400000Y-27178571D01*
X16342857Y-27321428D01*
X16342857Y-27416666D01*
X16400000Y-27559523D01*
X16457142Y-27607142D01*
X17542857Y-28559523D02*
X17542857Y-27988095D01*
X17542857Y-28273809D02*
X16342857Y-28273809D01*
X16514285Y-28178571D01*
X16628571Y-28083333D01*
X16685714Y-27988095D01*
X16742857Y-29416666D02*
X17542857Y-29416666D01*
X16285714Y-29178571D02*
X17142857Y-28940476D01*
X17142857Y-29559523D01*
G04 #@! TO.C,R2*
X-9583334Y-15542857D02*
X-9250000Y-14971428D01*
X-9011905Y-15542857D02*
X-9011905Y-14342857D01*
X-9392858Y-14342857D01*
X-9488096Y-14400000D01*
X-9535715Y-14457142D01*
X-9583334Y-14571428D01*
X-9583334Y-14742857D01*
X-9535715Y-14857142D01*
X-9488096Y-14914285D01*
X-9392858Y-14971428D01*
X-9011905Y-14971428D01*
X-9964286Y-14457142D02*
X-10011905Y-14400000D01*
X-10107143Y-14342857D01*
X-10345239Y-14342857D01*
X-10440477Y-14400000D01*
X-10488096Y-14457142D01*
X-10535715Y-14571428D01*
X-10535715Y-14685714D01*
X-10488096Y-14857142D01*
X-9916667Y-15542857D01*
X-10535715Y-15542857D01*
G04 #@! TO.C,C19*
X3428571Y-21357142D02*
X3485714Y-21309523D01*
X3542857Y-21166666D01*
X3542857Y-21071428D01*
X3485714Y-20928571D01*
X3371428Y-20833333D01*
X3257142Y-20785714D01*
X3028571Y-20738095D01*
X2857142Y-20738095D01*
X2628571Y-20785714D01*
X2514285Y-20833333D01*
X2400000Y-20928571D01*
X2342857Y-21071428D01*
X2342857Y-21166666D01*
X2400000Y-21309523D01*
X2457142Y-21357142D01*
X3542857Y-22309523D02*
X3542857Y-21738095D01*
X3542857Y-22023809D02*
X2342857Y-22023809D01*
X2514285Y-21928571D01*
X2628571Y-21833333D01*
X2685714Y-21738095D01*
X3542857Y-22785714D02*
X3542857Y-22976190D01*
X3485714Y-23071428D01*
X3428571Y-23119047D01*
X3257142Y-23214285D01*
X3028571Y-23261904D01*
X2571428Y-23261904D01*
X2457142Y-23214285D01*
X2400000Y-23166666D01*
X2342857Y-23071428D01*
X2342857Y-22880952D01*
X2400000Y-22785714D01*
X2457142Y-22738095D01*
X2571428Y-22690476D01*
X2857142Y-22690476D01*
X2971428Y-22738095D01*
X3028571Y-22785714D01*
X3085714Y-22880952D01*
X3085714Y-23071428D01*
X3028571Y-23166666D01*
X2971428Y-23214285D01*
X2857142Y-23261904D01*
G04 #@! TO.C,C20*
X-7071429Y-13357142D02*
X-7014286Y-13309523D01*
X-6957143Y-13166666D01*
X-6957143Y-13071428D01*
X-7014286Y-12928571D01*
X-7128572Y-12833333D01*
X-7242858Y-12785714D01*
X-7471429Y-12738095D01*
X-7642858Y-12738095D01*
X-7871429Y-12785714D01*
X-7985715Y-12833333D01*
X-8100000Y-12928571D01*
X-8157143Y-13071428D01*
X-8157143Y-13166666D01*
X-8100000Y-13309523D01*
X-8042858Y-13357142D01*
X-8042858Y-13738095D02*
X-8100000Y-13785714D01*
X-8157143Y-13880952D01*
X-8157143Y-14119047D01*
X-8100000Y-14214285D01*
X-8042858Y-14261904D01*
X-7928572Y-14309523D01*
X-7814286Y-14309523D01*
X-7642858Y-14261904D01*
X-6957143Y-13690476D01*
X-6957143Y-14309523D01*
X-8157143Y-14928571D02*
X-8157143Y-15023809D01*
X-8100000Y-15119047D01*
X-8042858Y-15166666D01*
X-7928572Y-15214285D01*
X-7700000Y-15261904D01*
X-7414286Y-15261904D01*
X-7185715Y-15214285D01*
X-7071429Y-15166666D01*
X-7014286Y-15119047D01*
X-6957143Y-15023809D01*
X-6957143Y-14928571D01*
X-7014286Y-14833333D01*
X-7071429Y-14785714D01*
X-7185715Y-14738095D01*
X-7414286Y-14690476D01*
X-7700000Y-14690476D01*
X-7928572Y-14738095D01*
X-8042858Y-14785714D01*
X-8100000Y-14833333D01*
X-8157143Y-14928571D01*
G04 #@! TO.C,U7*
X9761904Y-18592857D02*
X9761904Y-19564285D01*
X9714285Y-19678571D01*
X9666666Y-19735714D01*
X9571428Y-19792857D01*
X9380952Y-19792857D01*
X9285714Y-19735714D01*
X9238095Y-19678571D01*
X9190476Y-19564285D01*
X9190476Y-18592857D01*
X8809523Y-18592857D02*
X8142857Y-18592857D01*
X8571428Y-19792857D01*
G04 #@! TO.C,R9*
X12666666Y-25542857D02*
X13000000Y-24971428D01*
X13238095Y-25542857D02*
X13238095Y-24342857D01*
X12857142Y-24342857D01*
X12761904Y-24400000D01*
X12714285Y-24457142D01*
X12666666Y-24571428D01*
X12666666Y-24742857D01*
X12714285Y-24857142D01*
X12761904Y-24914285D01*
X12857142Y-24971428D01*
X13238095Y-24971428D01*
X12190476Y-25542857D02*
X12000000Y-25542857D01*
X11904761Y-25485714D01*
X11857142Y-25428571D01*
X11761904Y-25257142D01*
X11714285Y-25028571D01*
X11714285Y-24571428D01*
X11761904Y-24457142D01*
X11809523Y-24400000D01*
X11904761Y-24342857D01*
X12095238Y-24342857D01*
X12190476Y-24400000D01*
X12238095Y-24457142D01*
X12285714Y-24571428D01*
X12285714Y-24857142D01*
X12238095Y-24971428D01*
X12190476Y-25028571D01*
X12095238Y-25085714D01*
X11904761Y-25085714D01*
X11809523Y-25028571D01*
X11761904Y-24971428D01*
X11714285Y-24857142D01*
G04 #@! TO.C,X6*
X15059523Y657143D02*
X14392857Y-542857D01*
X14392857Y657143D02*
X15059523Y-542857D01*
X13583333Y657143D02*
X13773809Y657143D01*
X13869047Y600000D01*
X13916666Y542858D01*
X14011904Y371429D01*
X14059523Y142858D01*
X14059523Y-314285D01*
X14011904Y-428571D01*
X13964285Y-485714D01*
X13869047Y-542857D01*
X13678571Y-542857D01*
X13583333Y-485714D01*
X13535714Y-428571D01*
X13488095Y-314285D01*
X13488095Y-28571D01*
X13535714Y85715D01*
X13583333Y142858D01*
X13678571Y200000D01*
X13869047Y200000D01*
X13964285Y142858D01*
X14011904Y85715D01*
X14059523Y-28571D01*
G04 #@! TO.C,X2*
X-8190477Y-43342857D02*
X-8857143Y-44542857D01*
X-8857143Y-43342857D02*
X-8190477Y-44542857D01*
X-9190477Y-43457142D02*
X-9238096Y-43400000D01*
X-9333334Y-43342857D01*
X-9571429Y-43342857D01*
X-9666667Y-43400000D01*
X-9714286Y-43457142D01*
X-9761905Y-43571428D01*
X-9761905Y-43685714D01*
X-9714286Y-43857142D01*
X-9142858Y-44542857D01*
X-9761905Y-44542857D01*
G04 #@! TO.C,X3*
X10809523Y9407143D02*
X10142857Y8207143D01*
X10142857Y9407143D02*
X10809523Y8207143D01*
X9857142Y9407143D02*
X9238095Y9407143D01*
X9571428Y8950000D01*
X9428571Y8950000D01*
X9333333Y8892858D01*
X9285714Y8835715D01*
X9238095Y8721429D01*
X9238095Y8435715D01*
X9285714Y8321429D01*
X9333333Y8264286D01*
X9428571Y8207143D01*
X9714285Y8207143D01*
X9809523Y8264286D01*
X9857142Y8321429D01*
G04 #@! TO.C,C1*
X-8833334Y13321429D02*
X-8785715Y13264286D01*
X-8642858Y13207143D01*
X-8547620Y13207143D01*
X-8404762Y13264286D01*
X-8309524Y13378572D01*
X-8261905Y13492858D01*
X-8214286Y13721429D01*
X-8214286Y13892858D01*
X-8261905Y14121429D01*
X-8309524Y14235715D01*
X-8404762Y14350000D01*
X-8547620Y14407143D01*
X-8642858Y14407143D01*
X-8785715Y14350000D01*
X-8833334Y14292858D01*
X-9785715Y13207143D02*
X-9214286Y13207143D01*
X-9500000Y13207143D02*
X-9500000Y14407143D01*
X-9404762Y14235715D01*
X-9309524Y14121429D01*
X-9214286Y14064286D01*
G04 #@! TO.C,X1*
X-15190477Y-43342857D02*
X-15857143Y-44542857D01*
X-15857143Y-43342857D02*
X-15190477Y-44542857D01*
X-16761905Y-44542857D02*
X-16190477Y-44542857D01*
X-16476191Y-44542857D02*
X-16476191Y-43342857D01*
X-16380953Y-43514285D01*
X-16285715Y-43628571D01*
X-16190477Y-43685714D01*
G04 #@! TO.C,X8*
X5559523Y42807143D02*
X4892857Y41607143D01*
X4892857Y42807143D02*
X5559523Y41607143D01*
X4369047Y42292858D02*
X4464285Y42350000D01*
X4511904Y42407143D01*
X4559523Y42521429D01*
X4559523Y42578572D01*
X4511904Y42692858D01*
X4464285Y42750000D01*
X4369047Y42807143D01*
X4178571Y42807143D01*
X4083333Y42750000D01*
X4035714Y42692858D01*
X3988095Y42578572D01*
X3988095Y42521429D01*
X4035714Y42407143D01*
X4083333Y42350000D01*
X4178571Y42292858D01*
X4369047Y42292858D01*
X4464285Y42235715D01*
X4511904Y42178572D01*
X4559523Y42064286D01*
X4559523Y41835715D01*
X4511904Y41721429D01*
X4464285Y41664286D01*
X4369047Y41607143D01*
X4178571Y41607143D01*
X4083333Y41664286D01*
X4035714Y41721429D01*
X3988095Y41835715D01*
X3988095Y42064286D01*
X4035714Y42178572D01*
X4083333Y42235715D01*
X4178571Y42292858D01*
G04 #@! TO.C,D1*
X-261905Y-27792857D02*
X-261905Y-26592857D01*
X-500000Y-26592857D01*
X-642858Y-26650000D01*
X-738096Y-26764285D01*
X-785715Y-26878571D01*
X-833334Y-27107142D01*
X-833334Y-27278571D01*
X-785715Y-27507142D01*
X-738096Y-27621428D01*
X-642858Y-27735714D01*
X-500000Y-27792857D01*
X-261905Y-27792857D01*
X-1785715Y-27792857D02*
X-1214286Y-27792857D01*
X-1500000Y-27792857D02*
X-1500000Y-26592857D01*
X-1404762Y-26764285D01*
X-1309524Y-26878571D01*
X-1214286Y-26935714D01*
G04 #@! TO.C,C7*
X-583334Y-9928571D02*
X-535715Y-9985714D01*
X-392858Y-10042857D01*
X-297620Y-10042857D01*
X-154762Y-9985714D01*
X-59524Y-9871428D01*
X-11905Y-9757142D01*
X35714Y-9528571D01*
X35714Y-9357142D01*
X-11905Y-9128571D01*
X-59524Y-9014285D01*
X-154762Y-8900000D01*
X-297620Y-8842857D01*
X-392858Y-8842857D01*
X-535715Y-8900000D01*
X-583334Y-8957142D01*
X-916667Y-8842857D02*
X-1583334Y-8842857D01*
X-1154762Y-10042857D01*
G04 #@! TO.C,C15*
X15428571Y-18857142D02*
X15485714Y-18809523D01*
X15542857Y-18666666D01*
X15542857Y-18571428D01*
X15485714Y-18428571D01*
X15371428Y-18333333D01*
X15257142Y-18285714D01*
X15028571Y-18238095D01*
X14857142Y-18238095D01*
X14628571Y-18285714D01*
X14514285Y-18333333D01*
X14400000Y-18428571D01*
X14342857Y-18571428D01*
X14342857Y-18666666D01*
X14400000Y-18809523D01*
X14457142Y-18857142D01*
X15542857Y-19809523D02*
X15542857Y-19238095D01*
X15542857Y-19523809D02*
X14342857Y-19523809D01*
X14514285Y-19428571D01*
X14628571Y-19333333D01*
X14685714Y-19238095D01*
X14342857Y-20714285D02*
X14342857Y-20238095D01*
X14914285Y-20190476D01*
X14857142Y-20238095D01*
X14800000Y-20333333D01*
X14800000Y-20571428D01*
X14857142Y-20666666D01*
X14914285Y-20714285D01*
X15028571Y-20761904D01*
X15314285Y-20761904D01*
X15428571Y-20714285D01*
X15485714Y-20666666D01*
X15542857Y-20571428D01*
X15542857Y-20333333D01*
X15485714Y-20238095D01*
X15428571Y-20190476D01*
G04 #@! TO.C,X9*
X16559523Y-30092857D02*
X15892857Y-31292857D01*
X15892857Y-30092857D02*
X16559523Y-31292857D01*
X15464285Y-31292857D02*
X15273809Y-31292857D01*
X15178571Y-31235714D01*
X15130952Y-31178571D01*
X15035714Y-31007142D01*
X14988095Y-30778571D01*
X14988095Y-30321428D01*
X15035714Y-30207142D01*
X15083333Y-30150000D01*
X15178571Y-30092857D01*
X15369047Y-30092857D01*
X15464285Y-30150000D01*
X15511904Y-30207142D01*
X15559523Y-30321428D01*
X15559523Y-30607142D01*
X15511904Y-30721428D01*
X15464285Y-30778571D01*
X15369047Y-30835714D01*
X15178571Y-30835714D01*
X15083333Y-30778571D01*
X15035714Y-30721428D01*
X14988095Y-30607142D01*
G04 #@! TO.C,C4*
X-4571429Y-833333D02*
X-4514286Y-785714D01*
X-4457143Y-642857D01*
X-4457143Y-547619D01*
X-4514286Y-404761D01*
X-4628572Y-309523D01*
X-4742858Y-261904D01*
X-4971429Y-214285D01*
X-5142858Y-214285D01*
X-5371429Y-261904D01*
X-5485715Y-309523D01*
X-5600000Y-404761D01*
X-5657143Y-547619D01*
X-5657143Y-642857D01*
X-5600000Y-785714D01*
X-5542858Y-833333D01*
X-5257143Y-1690476D02*
X-4457143Y-1690476D01*
X-5714286Y-1452380D02*
X-4857143Y-1214285D01*
X-4857143Y-1833333D01*
G04 #@! TO.C,Q2*
X2345238Y-19657142D02*
X2440476Y-19600000D01*
X2535714Y-19485714D01*
X2678571Y-19314285D01*
X2773809Y-19257142D01*
X2869047Y-19257142D01*
X2821428Y-19542857D02*
X2916666Y-19485714D01*
X3011904Y-19371428D01*
X3059523Y-19142857D01*
X3059523Y-18742857D01*
X3011904Y-18514285D01*
X2916666Y-18400000D01*
X2821428Y-18342857D01*
X2630952Y-18342857D01*
X2535714Y-18400000D01*
X2440476Y-18514285D01*
X2392857Y-18742857D01*
X2392857Y-19142857D01*
X2440476Y-19371428D01*
X2535714Y-19485714D01*
X2630952Y-19542857D01*
X2821428Y-19542857D01*
X2011904Y-18457142D02*
X1964285Y-18400000D01*
X1869047Y-18342857D01*
X1630952Y-18342857D01*
X1535714Y-18400000D01*
X1488095Y-18457142D01*
X1440476Y-18571428D01*
X1440476Y-18685714D01*
X1488095Y-18857142D01*
X2059523Y-19542857D01*
X1440476Y-19542857D01*
G04 #@! TO.C,SW2*
X18333333Y27514286D02*
X18190476Y27457143D01*
X17952380Y27457143D01*
X17857142Y27514286D01*
X17809523Y27571429D01*
X17761904Y27685715D01*
X17761904Y27800000D01*
X17809523Y27914286D01*
X17857142Y27971429D01*
X17952380Y28028572D01*
X18142857Y28085715D01*
X18238095Y28142858D01*
X18285714Y28200000D01*
X18333333Y28314286D01*
X18333333Y28428572D01*
X18285714Y28542858D01*
X18238095Y28600000D01*
X18142857Y28657143D01*
X17904761Y28657143D01*
X17761904Y28600000D01*
X17428571Y28657143D02*
X17190476Y27457143D01*
X17000000Y28314286D01*
X16809523Y27457143D01*
X16571428Y28657143D01*
X16238095Y28542858D02*
X16190476Y28600000D01*
X16095238Y28657143D01*
X15857142Y28657143D01*
X15761904Y28600000D01*
X15714285Y28542858D01*
X15666666Y28428572D01*
X15666666Y28314286D01*
X15714285Y28142858D01*
X16285714Y27457143D01*
X15666666Y27457143D01*
G04 #@! TO.C,SW1*
X18333333Y42514286D02*
X18190476Y42457143D01*
X17952380Y42457143D01*
X17857142Y42514286D01*
X17809523Y42571429D01*
X17761904Y42685715D01*
X17761904Y42800000D01*
X17809523Y42914286D01*
X17857142Y42971429D01*
X17952380Y43028572D01*
X18142857Y43085715D01*
X18238095Y43142858D01*
X18285714Y43200000D01*
X18333333Y43314286D01*
X18333333Y43428572D01*
X18285714Y43542858D01*
X18238095Y43600000D01*
X18142857Y43657143D01*
X17904761Y43657143D01*
X17761904Y43600000D01*
X17428571Y43657143D02*
X17190476Y42457143D01*
X17000000Y43314286D01*
X16809523Y42457143D01*
X16571428Y43657143D01*
X15666666Y42457143D02*
X16238095Y42457143D01*
X15952380Y42457143D02*
X15952380Y43657143D01*
X16047619Y43485715D01*
X16142857Y43371429D01*
X16238095Y43314286D01*
G04 #@! TO.C,XTAL1*
X-12657143Y9023810D02*
X-11457143Y8357143D01*
X-12657143Y8357143D02*
X-11457143Y9023810D01*
X-12657143Y8119048D02*
X-12657143Y7547620D01*
X-11457143Y7833334D02*
X-12657143Y7833334D01*
X-11800000Y7261905D02*
X-11800000Y6785715D01*
X-11457143Y7357143D02*
X-12657143Y7023810D01*
X-11457143Y6690477D01*
X-11457143Y5880953D02*
X-11457143Y6357143D01*
X-12657143Y6357143D01*
X-11457143Y5023810D02*
X-11457143Y5595239D01*
X-11457143Y5309524D02*
X-12657143Y5309524D01*
X-12485715Y5404762D01*
X-12371429Y5500000D01*
X-12314286Y5595239D01*
G04 #@! TO.C,U3*
X5261904Y12907143D02*
X5261904Y11935715D01*
X5214285Y11821429D01*
X5166666Y11764286D01*
X5071428Y11707143D01*
X4880952Y11707143D01*
X4785714Y11764286D01*
X4738095Y11821429D01*
X4690476Y11935715D01*
X4690476Y12907143D01*
X4309523Y12907143D02*
X3690476Y12907143D01*
X4023809Y12450000D01*
X3880952Y12450000D01*
X3785714Y12392858D01*
X3738095Y12335715D01*
X3690476Y12221429D01*
X3690476Y11935715D01*
X3738095Y11821429D01*
X3785714Y11764286D01*
X3880952Y11707143D01*
X4166666Y11707143D01*
X4261904Y11764286D01*
X4309523Y11821429D01*
G04 #@! TO.C,C3*
X9166666Y2321429D02*
X9214285Y2264286D01*
X9357142Y2207143D01*
X9452380Y2207143D01*
X9595238Y2264286D01*
X9690476Y2378572D01*
X9738095Y2492858D01*
X9785714Y2721429D01*
X9785714Y2892858D01*
X9738095Y3121429D01*
X9690476Y3235715D01*
X9595238Y3350000D01*
X9452380Y3407143D01*
X9357142Y3407143D01*
X9214285Y3350000D01*
X9166666Y3292858D01*
X8833333Y3407143D02*
X8214285Y3407143D01*
X8547619Y2950000D01*
X8404761Y2950000D01*
X8309523Y2892858D01*
X8261904Y2835715D01*
X8214285Y2721429D01*
X8214285Y2435715D01*
X8261904Y2321429D01*
X8309523Y2264286D01*
X8404761Y2207143D01*
X8690476Y2207143D01*
X8785714Y2264286D01*
X8833333Y2321429D01*
G04 #@! TO.C,C11*
X-8357143Y5821429D02*
X-8309524Y5764286D01*
X-8166667Y5707143D01*
X-8071429Y5707143D01*
X-7928572Y5764286D01*
X-7833334Y5878572D01*
X-7785715Y5992858D01*
X-7738096Y6221429D01*
X-7738096Y6392858D01*
X-7785715Y6621429D01*
X-7833334Y6735715D01*
X-7928572Y6850000D01*
X-8071429Y6907143D01*
X-8166667Y6907143D01*
X-8309524Y6850000D01*
X-8357143Y6792858D01*
X-9309524Y5707143D02*
X-8738096Y5707143D01*
X-9023810Y5707143D02*
X-9023810Y6907143D01*
X-8928572Y6735715D01*
X-8833334Y6621429D01*
X-8738096Y6564286D01*
X-10261905Y5707143D02*
X-9690477Y5707143D01*
X-9976191Y5707143D02*
X-9976191Y6907143D01*
X-9880953Y6735715D01*
X-9785715Y6621429D01*
X-9690477Y6564286D01*
G04 #@! TO.C,C13*
X-16357143Y-34178571D02*
X-16309524Y-34235714D01*
X-16166667Y-34292857D01*
X-16071429Y-34292857D01*
X-15928572Y-34235714D01*
X-15833334Y-34121428D01*
X-15785715Y-34007142D01*
X-15738096Y-33778571D01*
X-15738096Y-33607142D01*
X-15785715Y-33378571D01*
X-15833334Y-33264285D01*
X-15928572Y-33150000D01*
X-16071429Y-33092857D01*
X-16166667Y-33092857D01*
X-16309524Y-33150000D01*
X-16357143Y-33207142D01*
X-17309524Y-34292857D02*
X-16738096Y-34292857D01*
X-17023810Y-34292857D02*
X-17023810Y-33092857D01*
X-16928572Y-33264285D01*
X-16833334Y-33378571D01*
X-16738096Y-33435714D01*
X-17642858Y-33092857D02*
X-18261905Y-33092857D01*
X-17928572Y-33550000D01*
X-18071429Y-33550000D01*
X-18166667Y-33607142D01*
X-18214286Y-33664285D01*
X-18261905Y-33778571D01*
X-18261905Y-34064285D01*
X-18214286Y-34178571D01*
X-18166667Y-34235714D01*
X-18071429Y-34292857D01*
X-17785715Y-34292857D01*
X-17690477Y-34235714D01*
X-17642858Y-34178571D01*
G04 #@! TO.C,R3*
X-16457143Y-15583333D02*
X-17028572Y-15250000D01*
X-16457143Y-15011904D02*
X-17657143Y-15011904D01*
X-17657143Y-15392857D01*
X-17600000Y-15488095D01*
X-17542858Y-15535714D01*
X-17428572Y-15583333D01*
X-17257143Y-15583333D01*
X-17142858Y-15535714D01*
X-17085715Y-15488095D01*
X-17028572Y-15392857D01*
X-17028572Y-15011904D01*
X-17657143Y-15916666D02*
X-17657143Y-16535714D01*
X-17200000Y-16202380D01*
X-17200000Y-16345238D01*
X-17142858Y-16440476D01*
X-17085715Y-16488095D01*
X-16971429Y-16535714D01*
X-16685715Y-16535714D01*
X-16571429Y-16488095D01*
X-16514286Y-16440476D01*
X-16457143Y-16345238D01*
X-16457143Y-16059523D01*
X-16514286Y-15964285D01*
X-16571429Y-15916666D01*
G04 #@! TO.C,R12*
X-7957143Y-22107142D02*
X-8528572Y-21773809D01*
X-7957143Y-21535714D02*
X-9157143Y-21535714D01*
X-9157143Y-21916666D01*
X-9100000Y-22011904D01*
X-9042858Y-22059523D01*
X-8928572Y-22107142D01*
X-8757143Y-22107142D01*
X-8642858Y-22059523D01*
X-8585715Y-22011904D01*
X-8528572Y-21916666D01*
X-8528572Y-21535714D01*
X-7957143Y-23059523D02*
X-7957143Y-22488095D01*
X-7957143Y-22773809D02*
X-9157143Y-22773809D01*
X-8985715Y-22678571D01*
X-8871429Y-22583333D01*
X-8814286Y-22488095D01*
X-9042858Y-23440476D02*
X-9100000Y-23488095D01*
X-9157143Y-23583333D01*
X-9157143Y-23821428D01*
X-9100000Y-23916666D01*
X-9042858Y-23964285D01*
X-8928572Y-24011904D01*
X-8814286Y-24011904D01*
X-8642858Y-23964285D01*
X-7957143Y-23392857D01*
X-7957143Y-24011904D01*
G04 #@! TO.C,C2*
X5428571Y17166667D02*
X5485714Y17214286D01*
X5542857Y17357143D01*
X5542857Y17452381D01*
X5485714Y17595239D01*
X5371428Y17690477D01*
X5257142Y17738096D01*
X5028571Y17785715D01*
X4857142Y17785715D01*
X4628571Y17738096D01*
X4514285Y17690477D01*
X4400000Y17595239D01*
X4342857Y17452381D01*
X4342857Y17357143D01*
X4400000Y17214286D01*
X4457142Y17166667D01*
X4457142Y16785715D02*
X4400000Y16738096D01*
X4342857Y16642858D01*
X4342857Y16404762D01*
X4400000Y16309524D01*
X4457142Y16261905D01*
X4571428Y16214286D01*
X4685714Y16214286D01*
X4857142Y16261905D01*
X5542857Y16833334D01*
X5542857Y16214286D01*
G04 #@! TO.C,C16*
X-857143Y16571429D02*
X-809524Y16514286D01*
X-666667Y16457143D01*
X-571429Y16457143D01*
X-428572Y16514286D01*
X-333334Y16628572D01*
X-285715Y16742858D01*
X-238096Y16971429D01*
X-238096Y17142858D01*
X-285715Y17371429D01*
X-333334Y17485715D01*
X-428572Y17600000D01*
X-571429Y17657143D01*
X-666667Y17657143D01*
X-809524Y17600000D01*
X-857143Y17542858D01*
X-1809524Y16457143D02*
X-1238096Y16457143D01*
X-1523810Y16457143D02*
X-1523810Y17657143D01*
X-1428572Y17485715D01*
X-1333334Y17371429D01*
X-1238096Y17314286D01*
X-2666667Y17657143D02*
X-2476191Y17657143D01*
X-2380953Y17600000D01*
X-2333334Y17542858D01*
X-2238096Y17371429D01*
X-2190477Y17142858D01*
X-2190477Y16685715D01*
X-2238096Y16571429D01*
X-2285715Y16514286D01*
X-2380953Y16457143D01*
X-2571429Y16457143D01*
X-2666667Y16514286D01*
X-2714286Y16571429D01*
X-2761905Y16685715D01*
X-2761905Y16971429D01*
X-2714286Y17085715D01*
X-2666667Y17142858D01*
X-2571429Y17200000D01*
X-2380953Y17200000D01*
X-2285715Y17142858D01*
X-2238096Y17085715D01*
X-2190477Y16971429D01*
G04 #@! TO.C,X5*
X-8440477Y3157143D02*
X-9107143Y1957143D01*
X-9107143Y3157143D02*
X-8440477Y1957143D01*
X-9964286Y3157143D02*
X-9488096Y3157143D01*
X-9440477Y2585715D01*
X-9488096Y2642858D01*
X-9583334Y2700000D01*
X-9821429Y2700000D01*
X-9916667Y2642858D01*
X-9964286Y2585715D01*
X-10011905Y2471429D01*
X-10011905Y2185715D01*
X-9964286Y2071429D01*
X-9916667Y2014286D01*
X-9821429Y1957143D01*
X-9583334Y1957143D01*
X-9488096Y2014286D01*
X-9440477Y2071429D01*
G04 #@! TO.C,X4*
X-8440477Y-592857D02*
X-9107143Y-1792857D01*
X-9107143Y-592857D02*
X-8440477Y-1792857D01*
X-9916667Y-992857D02*
X-9916667Y-1792857D01*
X-9678572Y-535714D02*
X-9440477Y-1392857D01*
X-10059524Y-1392857D01*
G04 #@! TO.C,C5*
X-13333334Y-7678571D02*
X-13285715Y-7735714D01*
X-13142858Y-7792857D01*
X-13047620Y-7792857D01*
X-12904762Y-7735714D01*
X-12809524Y-7621428D01*
X-12761905Y-7507142D01*
X-12714286Y-7278571D01*
X-12714286Y-7107142D01*
X-12761905Y-6878571D01*
X-12809524Y-6764285D01*
X-12904762Y-6650000D01*
X-13047620Y-6592857D01*
X-13142858Y-6592857D01*
X-13285715Y-6650000D01*
X-13333334Y-6707142D01*
X-14238096Y-6592857D02*
X-13761905Y-6592857D01*
X-13714286Y-7164285D01*
X-13761905Y-7107142D01*
X-13857143Y-7050000D01*
X-14095239Y-7050000D01*
X-14190477Y-7107142D01*
X-14238096Y-7164285D01*
X-14285715Y-7278571D01*
X-14285715Y-7564285D01*
X-14238096Y-7678571D01*
X-14190477Y-7735714D01*
X-14095239Y-7792857D01*
X-13857143Y-7792857D01*
X-13761905Y-7735714D01*
X-13714286Y-7678571D01*
G04 #@! TO.C,C8*
X-17571429Y-3333333D02*
X-17514286Y-3285714D01*
X-17457143Y-3142857D01*
X-17457143Y-3047619D01*
X-17514286Y-2904761D01*
X-17628572Y-2809523D01*
X-17742858Y-2761904D01*
X-17971429Y-2714285D01*
X-18142858Y-2714285D01*
X-18371429Y-2761904D01*
X-18485715Y-2809523D01*
X-18600000Y-2904761D01*
X-18657143Y-3047619D01*
X-18657143Y-3142857D01*
X-18600000Y-3285714D01*
X-18542858Y-3333333D01*
X-18142858Y-3904761D02*
X-18200000Y-3809523D01*
X-18257143Y-3761904D01*
X-18371429Y-3714285D01*
X-18428572Y-3714285D01*
X-18542858Y-3761904D01*
X-18600000Y-3809523D01*
X-18657143Y-3904761D01*
X-18657143Y-4095238D01*
X-18600000Y-4190476D01*
X-18542858Y-4238095D01*
X-18428572Y-4285714D01*
X-18371429Y-4285714D01*
X-18257143Y-4238095D01*
X-18200000Y-4190476D01*
X-18142858Y-4095238D01*
X-18142858Y-3904761D01*
X-18085715Y-3809523D01*
X-18028572Y-3761904D01*
X-17914286Y-3714285D01*
X-17685715Y-3714285D01*
X-17571429Y-3761904D01*
X-17514286Y-3809523D01*
X-17457143Y-3904761D01*
X-17457143Y-4095238D01*
X-17514286Y-4190476D01*
X-17571429Y-4238095D01*
X-17685715Y-4285714D01*
X-17914286Y-4285714D01*
X-18028572Y-4238095D01*
X-18085715Y-4190476D01*
X-18142858Y-4095238D01*
G04 #@! TO.C,R10*
X8142857Y-25542857D02*
X8476190Y-24971428D01*
X8714285Y-25542857D02*
X8714285Y-24342857D01*
X8333333Y-24342857D01*
X8238095Y-24400000D01*
X8190476Y-24457142D01*
X8142857Y-24571428D01*
X8142857Y-24742857D01*
X8190476Y-24857142D01*
X8238095Y-24914285D01*
X8333333Y-24971428D01*
X8714285Y-24971428D01*
X7190476Y-25542857D02*
X7761904Y-25542857D01*
X7476190Y-25542857D02*
X7476190Y-24342857D01*
X7571428Y-24514285D01*
X7666666Y-24628571D01*
X7761904Y-24685714D01*
X6571428Y-24342857D02*
X6476190Y-24342857D01*
X6380952Y-24400000D01*
X6333333Y-24457142D01*
X6285714Y-24571428D01*
X6238095Y-24800000D01*
X6238095Y-25085714D01*
X6285714Y-25314285D01*
X6333333Y-25428571D01*
X6380952Y-25485714D01*
X6476190Y-25542857D01*
X6571428Y-25542857D01*
X6666666Y-25485714D01*
X6714285Y-25428571D01*
X6761904Y-25314285D01*
X6809523Y-25085714D01*
X6809523Y-24800000D01*
X6761904Y-24571428D01*
X6714285Y-24457142D01*
X6666666Y-24400000D01*
X6571428Y-24342857D01*
G04 #@! TO.C,R15*
X4957142Y-33892857D02*
X5528571Y-34226190D01*
X4957142Y-34464285D02*
X6157142Y-34464285D01*
X6157142Y-34083333D01*
X6100000Y-33988095D01*
X6042857Y-33940476D01*
X5928571Y-33892857D01*
X5757142Y-33892857D01*
X5642857Y-33940476D01*
X5585714Y-33988095D01*
X5528571Y-34083333D01*
X5528571Y-34464285D01*
X4957142Y-32940476D02*
X4957142Y-33511904D01*
X4957142Y-33226190D02*
X6157142Y-33226190D01*
X5985714Y-33321428D01*
X5871428Y-33416666D01*
X5814285Y-33511904D01*
X6157142Y-32035714D02*
X6157142Y-32511904D01*
X5585714Y-32559523D01*
X5642857Y-32511904D01*
X5700000Y-32416666D01*
X5700000Y-32178571D01*
X5642857Y-32083333D01*
X5585714Y-32035714D01*
X5471428Y-31988095D01*
X5185714Y-31988095D01*
X5071428Y-32035714D01*
X5014285Y-32083333D01*
X4957142Y-32178571D01*
X4957142Y-32416666D01*
X5014285Y-32511904D01*
X5071428Y-32559523D01*
G04 #@! TO.C,C18*
X9392857Y-17428571D02*
X9440476Y-17485714D01*
X9583333Y-17542857D01*
X9678571Y-17542857D01*
X9821428Y-17485714D01*
X9916666Y-17371428D01*
X9964285Y-17257142D01*
X10011904Y-17028571D01*
X10011904Y-16857142D01*
X9964285Y-16628571D01*
X9916666Y-16514285D01*
X9821428Y-16400000D01*
X9678571Y-16342857D01*
X9583333Y-16342857D01*
X9440476Y-16400000D01*
X9392857Y-16457142D01*
X8440476Y-17542857D02*
X9011904Y-17542857D01*
X8726190Y-17542857D02*
X8726190Y-16342857D01*
X8821428Y-16514285D01*
X8916666Y-16628571D01*
X9011904Y-16685714D01*
X7869047Y-16857142D02*
X7964285Y-16800000D01*
X8011904Y-16742857D01*
X8059523Y-16628571D01*
X8059523Y-16571428D01*
X8011904Y-16457142D01*
X7964285Y-16400000D01*
X7869047Y-16342857D01*
X7678571Y-16342857D01*
X7583333Y-16400000D01*
X7535714Y-16457142D01*
X7488095Y-16571428D01*
X7488095Y-16628571D01*
X7535714Y-16742857D01*
X7583333Y-16800000D01*
X7678571Y-16857142D01*
X7869047Y-16857142D01*
X7964285Y-16914285D01*
X8011904Y-16971428D01*
X8059523Y-17085714D01*
X8059523Y-17314285D01*
X8011904Y-17428571D01*
X7964285Y-17485714D01*
X7869047Y-17542857D01*
X7678571Y-17542857D01*
X7583333Y-17485714D01*
X7535714Y-17428571D01*
X7488095Y-17314285D01*
X7488095Y-17085714D01*
X7535714Y-16971428D01*
X7583333Y-16914285D01*
X7678571Y-16857142D01*
G04 #@! TO.C,R14*
X-4500000Y-17150000D02*
X-6500000Y-17150000D01*
X-6500000Y-17150000D02*
X-6500000Y-20850000D01*
X-6500000Y-20850000D02*
X-4500000Y-20850000D01*
X-4500000Y-20850000D02*
X-4500000Y-17150000D01*
D15*
G04 #@! TO.C,U6*
X10000000Y37000000D02*
X10000000Y23000000D01*
X2000000Y23000000D02*
X5000000Y23000000D01*
X2000000Y37000000D02*
X5000000Y37000000D01*
X-10000000Y37000000D02*
X-10000000Y23000000D01*
X-9000000Y37000000D02*
X-10000000Y37000000D01*
X-10000000Y23000000D02*
X-9000000Y23000000D01*
D10*
X11200000Y23000000D02*
G75*
G03*
X11200000Y23000000I-200000J0D01*
G01*
D14*
G04 #@! TO.C,C17*
X-4650000Y19000000D02*
X-4650000Y21000000D01*
X-8350000Y21000000D02*
X-8350000Y19000000D01*
X-4650000Y21000000D02*
X-8350000Y21000000D01*
X-8350000Y19000000D02*
X-4650000Y19000000D01*
G04 #@! TO.C,U1*
X-12550000Y-18100000D02*
X-13450000Y-18100000D01*
X-14500000Y-18100000D02*
X-14500000Y-19900000D01*
X-11500000Y-19900000D02*
X-11500000Y-18100000D01*
G04 #@! TO.C,R7*
X500000Y850000D02*
X-1500000Y850000D01*
X-1500000Y-2850000D02*
X500000Y-2850000D01*
X500000Y-2850000D02*
X500000Y850000D01*
X-1500000Y850000D02*
X-1500000Y-2850000D01*
G04 #@! TO.C,U5*
X-7000000Y-31495000D02*
X-8500000Y-31495000D01*
X-7000000Y-36495000D02*
X-11000000Y-36495000D01*
X-9500000Y-31495000D02*
X-11000000Y-31495000D01*
X-9500000Y-31495000D02*
G75*
G03*
X-8500000Y-31495000I500000J0D01*
G01*
D10*
X-6200000Y-30695000D02*
G75*
G03*
X-6200000Y-30695000I-200000J0D01*
G01*
D14*
G04 #@! TO.C,C9*
X-17000000Y19350000D02*
X-17000000Y15650000D01*
X-17000000Y15650000D02*
X-15000000Y15650000D01*
X-15000000Y19350000D02*
X-17000000Y19350000D01*
X-15000000Y15650000D02*
X-15000000Y19350000D01*
D15*
G04 #@! TO.C,X7*
X-3810000Y-44690000D02*
X-3810000Y-44950000D01*
X-3810000Y-40640000D02*
X-3810000Y-42410000D01*
X3810000Y-44950000D02*
X3810000Y-44690000D01*
X3810000Y-42410000D02*
X3810000Y-40640000D01*
X3810000Y-40640000D02*
X3430000Y-40640000D01*
X-3810000Y-40640000D02*
X-3430000Y-40640000D01*
D14*
G04 #@! TO.C,R8*
X-2850000Y-33095000D02*
X850000Y-33095000D01*
X850000Y-33095000D02*
X850000Y-31095000D01*
X850000Y-31095000D02*
X-2850000Y-31095000D01*
X-2850000Y-31095000D02*
X-2850000Y-33095000D01*
G04 #@! TO.C,C12*
X-2850000Y-36905000D02*
X850000Y-36905000D01*
X-2850000Y-34905000D02*
X-2850000Y-36905000D01*
X850000Y-34905000D02*
X-2850000Y-34905000D01*
X850000Y-36905000D02*
X850000Y-34905000D01*
G04 #@! TO.C,C6*
X-11150000Y-13500000D02*
X-11150000Y-11500000D01*
X-14850000Y-11500000D02*
X-14850000Y-13500000D01*
X-11150000Y-11500000D02*
X-14850000Y-11500000D01*
X-14850000Y-13500000D02*
X-11150000Y-13500000D01*
G04 #@! TO.C,R1*
X-14850000Y-27000000D02*
X-14850000Y-29000000D01*
X-11150000Y-27000000D02*
X-14850000Y-27000000D01*
X-11150000Y-29000000D02*
X-11150000Y-27000000D01*
X-14850000Y-29000000D02*
X-11150000Y-29000000D01*
G04 #@! TO.C,R5*
X-2850000Y-14000000D02*
X-2850000Y-16000000D01*
X-2850000Y-16000000D02*
X850000Y-16000000D01*
X850000Y-14000000D02*
X-2850000Y-14000000D01*
X850000Y-16000000D02*
X850000Y-14000000D01*
G04 #@! TO.C,Q1*
X-14550000Y-23300000D02*
X-13850000Y-23300000D01*
X-11450000Y-23300000D02*
X-11450000Y-24100000D01*
X-12150000Y-23300000D02*
X-11450000Y-23300000D01*
X-12850000Y-24700000D02*
X-13150000Y-24700000D01*
X-14550000Y-24100000D02*
X-14550000Y-23300000D01*
D15*
G04 #@! TO.C,SW3*
X13100000Y3660000D02*
X12690000Y3660000D01*
X13100000Y3140000D02*
X12690000Y3140000D01*
X19700000Y3140000D02*
X19700000Y10860000D01*
X16030000Y3660000D02*
X16030000Y10340000D01*
X19700000Y10860000D02*
X16000000Y10860000D01*
X13100000Y10340000D02*
X12690000Y10340000D01*
X12690000Y10340000D02*
X12690000Y10860000D01*
X19700000Y3140000D02*
X16000000Y3140000D01*
X12690000Y3140000D02*
X12690000Y3660000D01*
X13100000Y10860000D02*
X12690000Y10860000D01*
D14*
G04 #@! TO.C,R4*
X8250000Y15600000D02*
X6250000Y15600000D01*
X6250000Y15600000D02*
X6250000Y11900000D01*
X6250000Y11900000D02*
X8250000Y11900000D01*
X8250000Y11900000D02*
X8250000Y15600000D01*
G04 #@! TO.C,LS1*
X19300000Y-38000000D02*
G75*
G03*
X19300000Y-38000000I-6300000J0D01*
G01*
G04 #@! TO.C,C14*
X18000000Y-22650000D02*
X16000000Y-22650000D01*
X16000000Y-22650000D02*
X16000000Y-26350000D01*
X18000000Y-26350000D02*
X18000000Y-22650000D01*
X16000000Y-26350000D02*
X18000000Y-26350000D01*
G04 #@! TO.C,R2*
X-14850000Y-16000000D02*
X-11150000Y-16000000D01*
X-14850000Y-14000000D02*
X-14850000Y-16000000D01*
X-11150000Y-16000000D02*
X-11150000Y-14000000D01*
X-11150000Y-14000000D02*
X-14850000Y-14000000D01*
G04 #@! TO.C,C19*
X6000000Y-20150000D02*
X4000000Y-20150000D01*
X4000000Y-20150000D02*
X4000000Y-23850000D01*
X6000000Y-23850000D02*
X6000000Y-20150000D01*
X4000000Y-23850000D02*
X6000000Y-23850000D01*
G04 #@! TO.C,C20*
X-4500000Y-15850000D02*
X-4500000Y-12150000D01*
X-4500000Y-12150000D02*
X-6500000Y-12150000D01*
X-6500000Y-12150000D02*
X-6500000Y-15850000D01*
X-6500000Y-15850000D02*
X-4500000Y-15850000D01*
D15*
G04 #@! TO.C,U7*
X8390000Y-22560000D02*
X8390000Y-23610000D01*
X8390000Y-21440000D02*
X8390000Y-20390000D01*
X13610000Y-21440000D02*
X13610000Y-20390000D01*
D14*
G04 #@! TO.C,R9*
X14350000Y-26000000D02*
X10650000Y-26000000D01*
X10650000Y-28000000D02*
X14350000Y-28000000D01*
X10650000Y-26000000D02*
X10650000Y-28000000D01*
X14350000Y-28000000D02*
X14350000Y-26000000D01*
G04 #@! TO.C,X6*
X18270000Y620000D02*
X15730000Y620000D01*
X15730000Y620000D02*
X15730000Y-14620000D01*
X15730000Y-14620000D02*
X18270000Y-14620000D01*
X18270000Y-14620000D02*
X18270000Y620000D01*
D10*
X17200000Y-15650000D02*
G75*
G03*
X17200000Y-15650000I-200000J0D01*
G01*
D14*
G04 #@! TO.C,X3*
X8730000Y17560000D02*
X8730000Y9940000D01*
X11270000Y17560000D02*
X8730000Y17560000D01*
X8730000Y9940000D02*
X11270000Y9940000D01*
X11270000Y9940000D02*
X11270000Y17560000D01*
D10*
X10200000Y18830000D02*
G75*
G03*
X10200000Y18830000I-200000J0D01*
G01*
D14*
G04 #@! TO.C,C1*
X-7150000Y10500000D02*
X-7150000Y12500000D01*
X-10850000Y12500000D02*
X-10850000Y10500000D01*
X-7150000Y12500000D02*
X-10850000Y12500000D01*
X-10850000Y10500000D02*
X-7150000Y10500000D01*
G04 #@! TO.C,D1*
X-2550000Y-24700000D02*
X-2550000Y-23900000D01*
X-1150000Y-23300000D02*
X-850000Y-23300000D01*
X550000Y-24700000D02*
X-150000Y-24700000D01*
X550000Y-23900000D02*
X550000Y-24700000D01*
X-1850000Y-24700000D02*
X-2550000Y-24700000D01*
G04 #@! TO.C,C7*
X-5850000Y-10500000D02*
X-2150000Y-10500000D01*
X-2150000Y-8500000D02*
X-5850000Y-8500000D01*
X-5850000Y-8500000D02*
X-5850000Y-10500000D01*
X-2150000Y-10500000D02*
X-2150000Y-8500000D01*
G04 #@! TO.C,C15*
X18000000Y-21350000D02*
X18000000Y-17650000D01*
X16000000Y-17650000D02*
X16000000Y-21350000D01*
X18000000Y-17650000D02*
X16000000Y-17650000D01*
X16000000Y-21350000D02*
X18000000Y-21350000D01*
G04 #@! TO.C,C4*
X-2000000Y850000D02*
X-4000000Y850000D01*
X-4000000Y-2850000D02*
X-2000000Y-2850000D01*
X-2000000Y-2850000D02*
X-2000000Y850000D01*
X-4000000Y850000D02*
X-4000000Y-2850000D01*
G04 #@! TO.C,Q2*
X550000Y-18900000D02*
X550000Y-19700000D01*
X550000Y-19700000D02*
X-150000Y-19700000D01*
X-2550000Y-19700000D02*
X-2550000Y-18900000D01*
X-1850000Y-19700000D02*
X-2550000Y-19700000D01*
X-1150000Y-18300000D02*
X-850000Y-18300000D01*
D15*
G04 #@! TO.C,SW2*
X13100000Y18140000D02*
X12690000Y18140000D01*
X19700000Y18140000D02*
X16000000Y18140000D01*
X13100000Y18660000D02*
X12690000Y18660000D01*
X19700000Y18140000D02*
X19700000Y25860000D01*
X13100000Y25860000D02*
X12690000Y25860000D01*
X12690000Y18140000D02*
X12690000Y18660000D01*
X16030000Y18660000D02*
X16030000Y25340000D01*
X12690000Y25340000D02*
X12690000Y25860000D01*
X19700000Y25860000D02*
X16000000Y25860000D01*
X13100000Y25340000D02*
X12690000Y25340000D01*
G04 #@! TO.C,SW1*
X19700000Y33140000D02*
X16000000Y33140000D01*
X16030000Y33660000D02*
X16030000Y40340000D01*
X13100000Y33140000D02*
X12690000Y33140000D01*
X12690000Y40340000D02*
X12690000Y40860000D01*
X13100000Y40340000D02*
X12690000Y40340000D01*
X13100000Y40860000D02*
X12690000Y40860000D01*
X13100000Y33660000D02*
X12690000Y33660000D01*
X19700000Y33140000D02*
X19700000Y40860000D01*
X19700000Y40860000D02*
X16000000Y40860000D01*
X12690000Y33140000D02*
X12690000Y33660000D01*
D14*
G04 #@! TO.C,XTAL1*
X-18500000Y13000000D02*
X-18500000Y1000000D01*
X-13500000Y1000000D02*
X-13500000Y13000000D01*
X-13500000Y13000000D02*
X-14500000Y13000000D01*
X-18500000Y13000000D02*
X-17500000Y13000000D01*
X-18500000Y1000000D02*
X-17500000Y1000000D01*
X-14500000Y1000000D02*
X-13500000Y1000000D01*
G04 #@! TO.C,U3*
X3250000Y4750000D02*
X3250000Y11250000D01*
X3250000Y11250000D02*
X-3250000Y11250000D01*
X-3250000Y4750000D02*
X3250000Y4750000D01*
X-3250000Y11250000D02*
X-3250000Y4750000D01*
D10*
X-3800000Y4000000D02*
G75*
G03*
X-3800000Y4000000I-200000J0D01*
G01*
D14*
G04 #@! TO.C,C3*
X10850000Y4000000D02*
X10850000Y6000000D01*
X10850000Y6000000D02*
X7150000Y6000000D01*
X7150000Y6000000D02*
X7150000Y4000000D01*
X7150000Y4000000D02*
X10850000Y4000000D01*
G04 #@! TO.C,C11*
X-7150000Y9500000D02*
X-10850000Y9500000D01*
X-10850000Y9500000D02*
X-10850000Y7500000D01*
X-7150000Y7500000D02*
X-7150000Y9500000D01*
X-10850000Y7500000D02*
X-7150000Y7500000D01*
G04 #@! TO.C,C13*
X-15150000Y-34905000D02*
X-18850000Y-34905000D01*
X-18850000Y-34905000D02*
X-18850000Y-36905000D01*
X-18850000Y-36905000D02*
X-15150000Y-36905000D01*
X-15150000Y-36905000D02*
X-15150000Y-34905000D01*
G04 #@! TO.C,R3*
X-18000000Y-20850000D02*
X-16000000Y-20850000D01*
X-16000000Y-17150000D02*
X-18000000Y-17150000D01*
X-16000000Y-20850000D02*
X-16000000Y-17150000D01*
X-18000000Y-17150000D02*
X-18000000Y-20850000D01*
G04 #@! TO.C,R12*
X-7500000Y-20850000D02*
X-7500000Y-17150000D01*
X-9500000Y-20850000D02*
X-7500000Y-20850000D01*
X-7500000Y-17150000D02*
X-9500000Y-17150000D01*
X-9500000Y-17150000D02*
X-9500000Y-20850000D01*
G04 #@! TO.C,C2*
X4000000Y15150000D02*
X4000000Y18850000D01*
X2000000Y18850000D02*
X2000000Y15150000D01*
X2000000Y15150000D02*
X4000000Y15150000D01*
X4000000Y18850000D02*
X2000000Y18850000D01*
G04 #@! TO.C,C16*
X-9675000Y18200000D02*
X-9675000Y15800000D01*
X-4325000Y18200000D02*
X-9675000Y18200000D01*
X-4325000Y15800000D02*
X-4325000Y18200000D01*
X-9675000Y15800000D02*
X-4325000Y15800000D01*
D10*
X-3275000Y17000000D02*
G75*
G03*
X-3275000Y17000000I-200000J0D01*
G01*
D14*
G04 #@! TO.C,C5*
X-10825000Y-10700000D02*
X-10825000Y-8300000D01*
X-16175000Y-10700000D02*
X-10825000Y-10700000D01*
X-16175000Y-8300000D02*
X-16175000Y-10700000D01*
X-10825000Y-8300000D02*
X-16175000Y-8300000D01*
D10*
X-9775000Y-9500000D02*
G75*
G03*
X-9775000Y-9500000I-200000J0D01*
G01*
D14*
G04 #@! TO.C,C8*
X-17000000Y-5350000D02*
X-15000000Y-5350000D01*
X-17000000Y-1650000D02*
X-17000000Y-5350000D01*
X-15000000Y-5350000D02*
X-15000000Y-1650000D01*
X-15000000Y-1650000D02*
X-17000000Y-1650000D01*
G04 #@! TO.C,R10*
X5650000Y-28000000D02*
X9350000Y-28000000D01*
X9350000Y-28000000D02*
X9350000Y-26000000D01*
X5650000Y-26000000D02*
X5650000Y-28000000D01*
X9350000Y-26000000D02*
X5650000Y-26000000D01*
G04 #@! TO.C,R15*
X2500000Y-35100000D02*
X4500000Y-35100000D01*
X4500000Y-35100000D02*
X4500000Y-31400000D01*
X4500000Y-31400000D02*
X2500000Y-31400000D01*
X2500000Y-31400000D02*
X2500000Y-35100000D01*
G04 #@! TO.C,C18*
X14350000Y-16000000D02*
X10650000Y-16000000D01*
X10650000Y-18000000D02*
X14350000Y-18000000D01*
X14350000Y-18000000D02*
X14350000Y-16000000D01*
X10650000Y-16000000D02*
X10650000Y-18000000D01*
G04 #@! TD*
%LPC*%
D16*
G04 #@! TO.C,U2*
X-7620000Y-6650000D03*
D17*
X-5080000Y-6650000D03*
X-2540000Y-6650000D03*
X0Y-6650000D03*
X2540000Y-6650000D03*
X5080000Y-6650000D03*
X7620000Y-6650000D03*
G04 #@! TD*
D18*
G04 #@! TO.C,R14*
X-5500000Y-19950000D03*
X-5500000Y-18050000D03*
G04 #@! TD*
D19*
G04 #@! TO.C,U6*
X9000000Y23000000D03*
X7730000Y23000000D03*
X6460000Y23000000D03*
X890000Y23000000D03*
X-380000Y23000000D03*
X-1650000Y23000000D03*
X-2920000Y23000000D03*
X-4190000Y23000000D03*
X-5460000Y23000000D03*
X-6730000Y23000000D03*
X-8000000Y23000000D03*
X-8000000Y37000000D03*
X-6730000Y37000000D03*
X-5460000Y37000000D03*
X-4190000Y37000000D03*
X-2920000Y37000000D03*
X-1650000Y37000000D03*
X-380000Y37000000D03*
X890000Y37000000D03*
X6460000Y37000000D03*
X7730000Y37000000D03*
X9000000Y37000000D03*
G04 #@! TD*
D20*
G04 #@! TO.C,X11*
X6500000Y-30000000D03*
G04 #@! TD*
D21*
G04 #@! TO.C,C17*
X-5550000Y20000000D03*
X-7450000Y20000000D03*
G04 #@! TD*
D22*
G04 #@! TO.C,U1*
X-12050000Y-20300000D03*
X-13000000Y-20300000D03*
X-13950000Y-20300000D03*
X-13950000Y-17700000D03*
X-12050000Y-17700000D03*
G04 #@! TD*
D18*
G04 #@! TO.C,R7*
X-500000Y-50000D03*
X-500000Y-1950000D03*
G04 #@! TD*
D23*
G04 #@! TO.C,U5*
X-6400000Y-32095000D03*
X-6400000Y-33365000D03*
X-6400000Y-34635000D03*
X-6400000Y-35905000D03*
X-11600000Y-35905000D03*
X-11600000Y-34635000D03*
X-11600000Y-33365000D03*
X-11600000Y-32095000D03*
D24*
X-9000000Y-34000000D03*
G04 #@! TD*
D18*
G04 #@! TO.C,C9*
X-16000000Y16550000D03*
X-16000000Y18450000D03*
G04 #@! TD*
D25*
G04 #@! TO.C,X7*
X1300000Y-40890000D03*
X650000Y-40890000D03*
X0Y-40890000D03*
X-650000Y-40890000D03*
X-1300000Y-40890000D03*
D26*
X-2487500Y-40975000D03*
D27*
X-3375000Y-43550000D03*
X3375000Y-43550000D03*
D26*
X2487500Y-40975000D03*
G04 #@! TD*
D21*
G04 #@! TO.C,R8*
X-50000Y-32095000D03*
X-1950000Y-32095000D03*
G04 #@! TD*
G04 #@! TO.C,C12*
X-50000Y-35905000D03*
X-1950000Y-35905000D03*
G04 #@! TD*
D20*
G04 #@! TO.C,X10*
X10000000Y-30000000D03*
G04 #@! TD*
D21*
G04 #@! TO.C,C6*
X-13950000Y-12500000D03*
X-12050000Y-12500000D03*
G04 #@! TD*
G04 #@! TO.C,R1*
X-13950000Y-28000000D03*
X-12050000Y-28000000D03*
G04 #@! TD*
G04 #@! TO.C,R5*
X-50000Y-15000000D03*
X-1950000Y-15000000D03*
G04 #@! TD*
D28*
G04 #@! TO.C,Q1*
X-12050000Y-25100000D03*
X-13950000Y-25100000D03*
X-13000000Y-22900000D03*
G04 #@! TD*
D29*
G04 #@! TO.C,SW3*
X17000000Y4750000D03*
D30*
X14510000Y10510000D03*
D29*
X17000000Y9250000D03*
D30*
X14510000Y3500000D03*
G04 #@! TD*
D18*
G04 #@! TO.C,R4*
X7250000Y14700000D03*
X7250000Y12800000D03*
G04 #@! TD*
D31*
G04 #@! TO.C,LS1*
X13000000Y-34200000D03*
X13000000Y-41800000D03*
G04 #@! TD*
D18*
G04 #@! TO.C,C14*
X17000000Y-23550000D03*
X17000000Y-25450000D03*
G04 #@! TD*
D21*
G04 #@! TO.C,R2*
X-12050000Y-15000000D03*
X-13950000Y-15000000D03*
G04 #@! TD*
D18*
G04 #@! TO.C,C19*
X5000000Y-21050000D03*
X5000000Y-22950000D03*
G04 #@! TD*
G04 #@! TO.C,C20*
X-5500000Y-14950000D03*
X-5500000Y-13050000D03*
G04 #@! TD*
D32*
G04 #@! TO.C,U7*
X13000000Y-23000000D03*
X12200000Y-23000000D03*
X11400000Y-23000000D03*
X10600000Y-23000000D03*
X9800000Y-23000000D03*
X9000000Y-23000000D03*
D33*
X9000000Y-22000000D03*
D32*
X9000000Y-21000000D03*
X9800000Y-21000000D03*
X10600000Y-21000000D03*
X11400000Y-21000000D03*
X12200000Y-21000000D03*
X13000000Y-21000000D03*
D33*
X13000000Y-22000000D03*
G04 #@! TD*
D21*
G04 #@! TO.C,R9*
X11550000Y-27000000D03*
X13450000Y-27000000D03*
G04 #@! TD*
D34*
G04 #@! TO.C,X6*
X17000000Y-13350000D03*
D31*
X17000000Y-10810000D03*
X17000000Y-8270000D03*
X17000000Y-5730000D03*
X17000000Y-3190000D03*
X17000000Y-650000D03*
G04 #@! TD*
D35*
G04 #@! TO.C,X2*
X-9000000Y-41000000D03*
G04 #@! TD*
D36*
G04 #@! TO.C,X3*
X10000000Y16290000D03*
D31*
X10000000Y13750000D03*
X10000000Y11210000D03*
G04 #@! TD*
D21*
G04 #@! TO.C,C1*
X-8050000Y11500000D03*
X-9950000Y11500000D03*
G04 #@! TD*
D35*
G04 #@! TO.C,X1*
X-16000000Y-41000000D03*
G04 #@! TD*
D37*
G04 #@! TO.C,X8*
X7730000Y42100000D03*
G04 #@! TD*
D28*
G04 #@! TO.C,D1*
X-1950000Y-22900000D03*
X-50000Y-22900000D03*
X-1000000Y-25100000D03*
G04 #@! TD*
D21*
G04 #@! TO.C,C7*
X-4950000Y-9500000D03*
X-3050000Y-9500000D03*
G04 #@! TD*
D18*
G04 #@! TO.C,C15*
X17000000Y-18550000D03*
X17000000Y-20450000D03*
G04 #@! TD*
D20*
G04 #@! TO.C,X9*
X13500000Y-30000000D03*
G04 #@! TD*
D18*
G04 #@! TO.C,C4*
X-3000000Y-50000D03*
X-3000000Y-1950000D03*
G04 #@! TD*
D28*
G04 #@! TO.C,Q2*
X-1950000Y-17900000D03*
X-50000Y-17900000D03*
X-1000000Y-20100000D03*
G04 #@! TD*
D29*
G04 #@! TO.C,SW2*
X17000000Y19750000D03*
D30*
X14510000Y18500000D03*
X14510000Y25510000D03*
D29*
X17000000Y24250000D03*
G04 #@! TD*
G04 #@! TO.C,SW1*
X17000000Y34750000D03*
D30*
X14510000Y40510000D03*
D29*
X17000000Y39250000D03*
D30*
X14510000Y33500000D03*
G04 #@! TD*
D38*
G04 #@! TO.C,XTAL1*
X-16000000Y2500000D03*
X-16000000Y11500000D03*
G04 #@! TD*
D39*
G04 #@! TO.C,U3*
X-4250000Y5250000D03*
X-4250000Y5750000D03*
X-4250000Y6250000D03*
X-4250000Y6750000D03*
X-4250000Y7250000D03*
X-4250000Y7750000D03*
X-4250000Y8250000D03*
X-4250000Y8750000D03*
X-4250000Y9250000D03*
X-4250000Y9750000D03*
X-4250000Y10250000D03*
X-4250000Y10750000D03*
D40*
X-2750000Y12250000D03*
X-2250000Y12250000D03*
X-1750000Y12250000D03*
X-1250000Y12250000D03*
X-750000Y12250000D03*
X-250000Y12250000D03*
X250000Y12250000D03*
X750000Y12250000D03*
X1250000Y12250000D03*
X1750000Y12250000D03*
X2250000Y12250000D03*
X2750000Y12250000D03*
D39*
X4250000Y10750000D03*
X4250000Y10250000D03*
X4250000Y9750000D03*
X4250000Y9250000D03*
X4250000Y8750000D03*
X4250000Y8250000D03*
X4250000Y7750000D03*
X4250000Y7250000D03*
X4250000Y6750000D03*
X4250000Y6250000D03*
X4250000Y5750000D03*
X4250000Y5250000D03*
D40*
X2750000Y3750000D03*
X2250000Y3750000D03*
X1750000Y3750000D03*
X1250000Y3750000D03*
X750000Y3750000D03*
X250000Y3750000D03*
X-250000Y3750000D03*
X-750000Y3750000D03*
X-1250000Y3750000D03*
X-1750000Y3750000D03*
X-2250000Y3750000D03*
X-2750000Y3750000D03*
G04 #@! TD*
D21*
G04 #@! TO.C,C3*
X8050000Y5000000D03*
X9950000Y5000000D03*
G04 #@! TD*
G04 #@! TO.C,C11*
X-8050000Y8500000D03*
X-9950000Y8500000D03*
G04 #@! TD*
G04 #@! TO.C,C13*
X-17950000Y-35905000D03*
X-16050000Y-35905000D03*
G04 #@! TD*
D18*
G04 #@! TO.C,R3*
X-17000000Y-19950000D03*
X-17000000Y-18050000D03*
G04 #@! TD*
G04 #@! TO.C,R12*
X-8500000Y-18050000D03*
X-8500000Y-19950000D03*
G04 #@! TD*
G04 #@! TO.C,C2*
X3000000Y16050000D03*
X3000000Y17950000D03*
G04 #@! TD*
D41*
G04 #@! TO.C,C16*
X-5475000Y17000000D03*
X-8525000Y17000000D03*
G04 #@! TD*
D20*
G04 #@! TO.C,X5*
X-11500000Y2375000D03*
G04 #@! TD*
G04 #@! TO.C,X4*
X-11500000Y-1250000D03*
G04 #@! TD*
D41*
G04 #@! TO.C,C5*
X-11975000Y-9500000D03*
X-15025000Y-9500000D03*
G04 #@! TD*
D18*
G04 #@! TO.C,C8*
X-16000000Y-2550000D03*
X-16000000Y-4450000D03*
G04 #@! TD*
D21*
G04 #@! TO.C,R10*
X8450000Y-27000000D03*
X6550000Y-27000000D03*
G04 #@! TD*
D18*
G04 #@! TO.C,R15*
X3500000Y-32300000D03*
X3500000Y-34200000D03*
G04 #@! TD*
D21*
G04 #@! TO.C,C18*
X13450000Y-17000000D03*
X11550000Y-17000000D03*
G04 #@! TD*
M02*
