G04 #@! TF.GenerationSoftware,KiCad,Pcbnew,(6.0.9)*
G04 #@! TF.CreationDate,2024-06-02T17:02:14+02:00*
G04 #@! TF.ProjectId,Spoke,53706f6b-652e-46b6-9963-61645f706362,1.2*
G04 #@! TF.SameCoordinates,PX5f5e100PY5f5e100*
G04 #@! TF.FileFunction,Soldermask,Top*
G04 #@! TF.FilePolarity,Negative*
%FSLAX46Y46*%
G04 Gerber Fmt 4.6, Leading zero omitted, Abs format (unit mm)*
G04 Created by KiCad (PCBNEW (6.0.9)) date 2024-06-02 17:02:14*
%MOMM*%
%LPD*%
G01*
G04 APERTURE LIST*
G04 Aperture macros list*
%AMRoundRect*
0 Rectangle with rounded corners*
0 $1 Rounding radius*
0 $2 $3 $4 $5 $6 $7 $8 $9 X,Y pos of 4 corners*
0 Add a 4 corners polygon primitive as box body*
4,1,4,$2,$3,$4,$5,$6,$7,$8,$9,$2,$3,0*
0 Add four circle primitives for the rounded corners*
1,1,$1+$1,$2,$3*
1,1,$1+$1,$4,$5*
1,1,$1+$1,$6,$7*
1,1,$1+$1,$8,$9*
0 Add four rect primitives between the rounded corners*
20,1,$1+$1,$2,$3,$4,$5,0*
20,1,$1+$1,$4,$5,$6,$7,0*
20,1,$1+$1,$6,$7,$8,$9,0*
20,1,$1+$1,$8,$9,$2,$3,0*%
G04 Aperture macros list end*
%ADD10R,3.000000X2.000000*%
%ADD11O,3.000000X2.000000*%
%ADD12R,1.300000X1.500000*%
%ADD13R,1.600000X1.800000*%
%ADD14RoundRect,0.375000X-0.375000X-0.375000X0.375000X-0.375000X0.375000X0.375000X-0.375000X0.375000X0*%
%ADD15C,1.500000*%
%ADD16R,1.500000X1.300000*%
%ADD17C,1.750000*%
%ADD18C,2.500000*%
%ADD19C,1.800000*%
%ADD20RoundRect,0.450000X0.450000X-0.450000X0.450000X0.450000X-0.450000X0.450000X-0.450000X-0.450000X0*%
%ADD21RoundRect,0.450000X-0.450000X0.450000X-0.450000X-0.450000X0.450000X-0.450000X0.450000X0.450000X0*%
%ADD22O,2.600000X4.000000*%
G04 APERTURE END LIST*
D10*
G04 #@! TO.C,U4*
X-13000000Y8500000D03*
D11*
X-13000000Y11000000D03*
X-13000000Y13500000D03*
X-13000000Y16000000D03*
X-13000000Y18500000D03*
X-13000000Y21000000D03*
G04 #@! TD*
D12*
G04 #@! TO.C,R6*
X950000Y-39000000D03*
X-950000Y-39000000D03*
G04 #@! TD*
D13*
G04 #@! TO.C,D4*
X-14600000Y42000000D03*
X-17400000Y42000000D03*
G04 #@! TD*
D14*
G04 #@! TO.C,U2*
X-7620000Y-6650000D03*
D15*
X-5080000Y-6650000D03*
X-2540000Y-6650000D03*
X0Y-6650000D03*
X2540000Y-6650000D03*
X5080000Y-6650000D03*
X7620000Y-6650000D03*
G04 #@! TD*
D16*
G04 #@! TO.C,C10*
X-17000000Y11050000D03*
X-17000000Y12950000D03*
G04 #@! TD*
D13*
G04 #@! TO.C,D3*
X-5600000Y42000000D03*
X-8400000Y42000000D03*
G04 #@! TD*
G04 #@! TO.C,D2*
X-1400000Y-42000000D03*
X1400000Y-42000000D03*
G04 #@! TD*
D16*
G04 #@! TO.C,R13*
X-17500000Y35550000D03*
X-17500000Y37450000D03*
G04 #@! TD*
G04 #@! TO.C,R11*
X-14500000Y35550000D03*
X-14500000Y37450000D03*
G04 #@! TD*
D17*
G04 #@! TO.C,SW3*
X17000000Y4750000D03*
D18*
X14510000Y10510000D03*
D17*
X17000000Y9250000D03*
D18*
X14510000Y3500000D03*
G04 #@! TD*
D19*
G04 #@! TO.C,LS1*
X13000000Y-34200000D03*
X13000000Y-41800000D03*
G04 #@! TD*
D20*
G04 #@! TO.C,X6*
X17000000Y-13350000D03*
D19*
X17000000Y-10810000D03*
X17000000Y-8270000D03*
X17000000Y-5730000D03*
X17000000Y-3190000D03*
X17000000Y-650000D03*
G04 #@! TD*
D21*
G04 #@! TO.C,X3*
X10000000Y16290000D03*
D19*
X10000000Y13750000D03*
X10000000Y11210000D03*
G04 #@! TD*
D22*
G04 #@! TO.C,X8*
X7730000Y42100000D03*
G04 #@! TD*
D17*
G04 #@! TO.C,SW2*
X17000000Y19750000D03*
D18*
X14510000Y18500000D03*
X14510000Y25510000D03*
D17*
X17000000Y24250000D03*
G04 #@! TD*
G04 #@! TO.C,SW1*
X17000000Y34750000D03*
D18*
X14510000Y40510000D03*
D17*
X17000000Y39250000D03*
D18*
X14510000Y33500000D03*
G04 #@! TD*
M02*
